<svg id="illustration" xmlns="http://www.w3.org/2000/svg" viewBox="0 0 1170 350"><style>.st0{fill:#ececeb}.st1{fill:#fff}.st2{fill:#a3a3a3}.st3{fill:#c4c4c4}.st4{fill:#dddddc}.st5{fill:#969696}.st6{fill:#b2b2b2}.st7{fill:#cececd}.st8{fill:#9e9e9e}.st9{opacity:.1}.st10{fill:#bcbcbc}.st11{fill:#828282}.st12{fill:#719d52}.st13{fill:#34785c}.st14{fill:#59753c}.st15{fill:#99c26d}.st16{fill:#54b08b}.st17{fill:#7b7b7b}.st18{fill:#959595}.st19{opacity:.1;fill:#2b2b2b}.st21{opacity:.15}.st22{fill:#757575}.st23{fill:#afafaf}.st25{opacity:.2}.st26{fill:#898989}.st27{fill:#a8a8a8}.st28{fill:#999}.st29{fill:#919191}.st30{fill:#666}.st31{fill:#8e8e8e}.st32{fill:#d3d3d3}.st33{fill:#444}.st34{fill:#7f7f7f}.st35{fill:#939393}.st37{fill:#cbcbca}.st40{fill:#727272}.st42{fill:#bababa}.st44{fill:#474747}.st46{fill:#7c7c7c}.st47{fill:#707070}.st48{fill:#565656}.st49{fill:#b7b7b7}.st52{fill:#878787}.st53{fill:#838383}.st54{fill:#848484}.st55{fill:#6b6b6b}.st56{fill:#6d6d6d}.st57{fill:#a1a1a1}.st58{fill:#8c8c8c}.st59{fill:#aaa}.st60{fill:#436124}.st61{fill:#2b2b2b}.st62{fill:#709d52}.st65{fill:#ecbea5}.st66{fill:#ffdbc7}.st68{fill:#edc0a8}.st69{fill:#ffeae0}.st71{fill:#c3927b}</style><g id="bg"><path class="st0" d="M0 0h1170v350H0z"/><path class="st1" d="M38.7 29.7l26-11.7 48.6 5.8 9.4 10.9 34 2.6 12 13.8L78 64.8l6-20.1-28.7-7.4h-22z"/><path class="st2" d="M221.3 56.1l1.5-6.8 2.1 1.2-.6 6.1z"/><path class="st3" d="M218.6 49.3l5.9 5.2 7.8-5.2-11-9.3v5.8z"/><path class="st4" d="M221.3 40l7.1-3.5 3.9 12.8z"/><path class="st5" d="M203.8 50.6l2-7.4-2-1.2-2.8 7.7z"/><path class="st6" d="M200.2 39.2l4.8 7.1 8.3-7.1-9.9-5.7z"/><path class="st3" d="M213.3 39.2V24.1l-7.5 2.6-2.4 6.8z"/><path class="st4" d="M33.3 37.3l24-7.6 38 7.6L84 44.7l-3.2 10.7-16.5-7.9-23-2.8z"/><path class="st6" d="M616.3 72.3l-5.3-9.6-4.5.3-7.8-7.6h-7.4v-4.9l-14-3-4.3 3.6h-12.2l-5.3 2.9-2.7 2.6-14.3-1.2-9.3 1.2-.9 2.9-14.3-2.2-11.8 5.7-1.9 4.7-17.1.7-6.5 6.1-6.8 2-3.7 4.9 38.8-5.5 85.3-5.1z"/><path class="st4" d="M926.7 97.5L707 57.3 591.3 88.7 450 120.6 174.7 42 0 74.7V274l644-49.3 333.3-82.4z"/><path class="st7" d="M753.5 116L573.7 58.7l-271 57.3-134 33.5L0 109.4v171.5l800-30.3 289.3-4.6z"/><path class="st2" d="M1034.1 73l2.2-6.3-2.5-1.3-2.3 7z"/><path class="st3" d="M1032.6 68.9l8.3-1.2-8.6-9.1-1.7 6.3z"/><path class="st4" d="M1040.9 67.7l-.1-14.1-5.5-.7-3 5.7z"/><path class="st2" d="M1007 65.8l2.5-7.1-3-1-2 7.9z"/><path class="st3" d="M1006 59.8l3.5-1.1 6-10.1-14.3 4.5z"/><path class="st4" d="M1015.5 48.6l-1.1-8.8-6 2.8-7.2 10.5z"/><path class="st2" d="M862.6 42.3l-1.4-9 2.8-1 1.5 9.2z"/><path class="st3" d="M857 34.7l7.7 1.6 4.5-9-10.4 2z"/><path class="st4" d="M858.8 29.3v-10l6.7 2.1 3.7 5.9z"/><g id="house"><path class="st8" d="M585.8 123l-2.8-14.7-60.5 14.9 3.9 16z"/><path class="st9" d="M584.1 113.4l-1.1-5.1-60.5 14.9 1.4 5.6z"/><path class="st10" d="M503.8 131.1l98.2-25.5L580 95l-10.5-12L524 94.3l-5.2 16.1z"/><path class="st6" d="M518.8 110.4L580 95l-10.5-12L524 94.3z"/><path transform="matrix(.9666 -.2565 .2565 .9666 -12.1534 148.7354)" class="st11" d="M561.4 119.7h5.5v2.5h-5.5z"/><path transform="rotate(-14.862 569.88820007 119.414366)" class="st11" d="M567.2 118.2h5.5v2.5h-5.5z"/><path transform="matrix(.9665 -.2565 .2565 .9665 -12.8709 149.0399)" class="st11" d="M562.2 122.6h5.5v2.5h-5.5z"/><path transform="matrix(.9665 -.2565 .2565 .9665 -12.2822 150.4758)" class="st11" d="M568 121.1h5.5v2.5H568z"/></g><path class="st3" d="M888.9 33.7L478.4 152.9 136 89.3 0 145.7V350h1170V108.3z"/><path class="st4" d="M1170 164.8L698.5 209 635 224.5l-104.5.3L0 145.7V350h1170z"/><path class="st7" d="M698.5 209L1170 350l-616.6.2-22.9-125.4 104.5-.3z"/><path class="st3" d="M616.3 72.3v-8.8l-5.6-4h-3.4l-7.1-5.3h-5.7l-3.2-6-14.1-1.9-4.9 1.9-9.1-1.9-5 3.9-9 .9-3.4-2.9-9.3 1.1-1.7 3.9-7.1 1.5-4.7-3.6-8.1 2.2v2.1l-10.2 1.2L496 62v3.1l-9.1-1.6-5.1 3.2-1 2.5-8.7 2.6-1.2 2.7-6.3 1.4 1.6 5.5 4.7-3.9 8.6-.8 3-6 10.5-.9 1 2.2 12.5-.2v-7.5l10.2-3.2L524 64l7.6-2.9 5.2-3.6 5.4 3.6 11.5-1.6 1.5-4.1h5.8l3 1.9 4.7-4.8 10.2-.2v3.9l5.3.4 2.1-1.2 6.9 3.3.1 2.4 6.7-.8 5.5 2.7.3 2.1h4.9z"/><path class="st1" d="M1170 24l-26-9.3-27.3 4.6h-23.4l-10 9.4-31.3 4-6 9.3 24 2.7 42.7-7.4 30.6 4.7 26.7-4.7z"/><path class="st4" d="M1046 42l12 9.1 34-2.9 28.7 9.1 49.3-6.2V33.3l-26.7 4-13.3-7.6-40.7 3-3.8 9.3z"/><path class="st1" d="M608.5 21.3l28.8-6.6 15.6 10 39.8 5 5.8 7.6h-30l-33.8-7.6-34.7 7.6z"/><path class="st4" d="M698.5 37.3l-12.2 6.2-49-6.2L617 42l-17-4.7L631.3 26l37.2 8.7z"/></g><g id="text"><path class="st9" d="M653.5 123.3l76-12.3 60.3-21 44.2-7.3 35.3-14.8-68.5 10.8-80.3 23.1-54.8 12.1z"/><path class="st12" d="M667.8 119.3l-7.3-18.8-11.2-36.6L678 39.4l3.3 14.4L656 67.9 667.6 79l25.3-8.6 2.7 11-23.2 6.1 5.9 15.8 21.7-6.5 3.8 12.7z"/><path class="st13" d="M708.2 108.1L703.3 84l-6.9-45.6 38.2 29V29.2l10.9-6.3 5.4 75.1-38.8-37.2 9 44.3"/><path class="st14" d="M756.2 95.9l-.4-21.9 1.7-45.7 38.7-5.4 1.1 11.9-31.8-3.4 3.3 18.3 22.6 2.5-2.1 12.2-20.5-2.4-.4 32z"/><path class="st13" d="M809.2 22.9l37.3 3.6-7.4 50.6-35.5 6.9-7.8-14.8 5.2-5.3 8.2 5.8 18.5 1.5 1.4-33.4-23.5-4.1z"/><path class="st15" d="M685.9 53.4l-7.9-14-32.5 22.9 15 38.2 7.1-21.5-7.7-11.4z"/><path class="st16" d="M703.3 84l8.8-23.2 22.5 6.6-42-36zM734.6 67.4l10.9-44.5-13 1.8z"/><path class="st12" d="M768.4 33.2l28.9 1.6 1.5-14.4-44.1 3.4 1.1 50.2 13-12V49.7z"/><g><path class="st16" d="M800.9 60.1l-8.6 7.2L803.6 84l5.6-14.3zM803.7 34.8l25.4 3 17.4-11.3-41.2-5.8z"/></g></g><g id="fence"><path class="st17" d="M523.5 186.5h119.7v8.5H523.5z"/><path class="st18" d="M540.6 224.7h-9.1v-38.2l4.5-7 4.6 7zM556.6 222.7h-9.1v-36.2l4.5-7 4.6 7zM572.6 224.7h-9.1v-38.2l4.5-7 4.6 7zM588.6 224.7h-9.1v-38.2l4.5-7 4.6 7zM604.6 224.7h-9.1v-38.2l4.5-7 4.6 7zM620.6 224.7h-9.1v-38.2l4.5-7 4.6 7zM636.6 224.7h-9.1v-38.2l4.5-7 4.6 7z"/><path class="st17" d="M537.3 189.8c0 .7-.6 1.3-1.3 1.3-.7 0-1.3-.6-1.3-1.3s.6-1.3 1.3-1.3c.8 0 1.3.6 1.3 1.3zM553.3 189.8c0 .7-.6 1.3-1.3 1.3-.7 0-1.3-.6-1.3-1.3s.6-1.3 1.3-1.3c.8 0 1.3.6 1.3 1.3zM569.3 189.8c0 .7-.6 1.3-1.3 1.3-.7 0-1.3-.6-1.3-1.3s.6-1.3 1.3-1.3c.8 0 1.3.6 1.3 1.3zM585.3 189.8c0 .7-.6 1.3-1.3 1.3-.7 0-1.3-.6-1.3-1.3s.6-1.3 1.3-1.3c.8 0 1.3.6 1.3 1.3zM601.3 189.8c0 .7-.6 1.3-1.3 1.3-.7 0-1.3-.6-1.3-1.3s.6-1.3 1.3-1.3c.8 0 1.3.6 1.3 1.3zM617.3 189.8c0 .7-.6 1.3-1.3 1.3-.7 0-1.3-.6-1.3-1.3s.6-1.3 1.3-1.3c.8 0 1.3.6 1.3 1.3zM633.3 189.8c0 .7-.6 1.3-1.3 1.3-.7 0-1.3-.6-1.3-1.3s.6-1.3 1.3-1.3c.8 0 1.3.6 1.3 1.3z"/></g><g id="house2"><path class="st19" d="M101 205.5L0 215v2.7l157 9.8 78.2-10.9z"/><path fill="#9b9b9b" d="M0 149.2h182.5v67.4H0z"/><path class="st21" d="M0 157.2h182.5v18.3H0z"/><path class="st22" d="M27.7 180.8h26v10.8h-26zM56 180.8h26v10.8H56zM27.7 193.8h26v10.8h-26zM56 193.8h26v10.8H56z"/><path class="st23" d="M0 169.2h237.7L174 99.5H0z"/><path fill="#a5a5a5" d="M0 102.1h176.4L157 60.5H8.7L0 79z"/><path class="st25" d="M140.5 87.4L157 60.5h-24.1z"/><path class="st6" d="M140.5 78.4l-8.6-1.5-8.8 1.5v9h17.4z"/><path class="st3" d="M140.5 69.4l-9.5-1.2-7.9 1.2v9h17.4z"/><path class="st6" d="M123.1 60.5h17.5v9h-17.5z"/><path class="st25" d="M140.5 60.5L132 59l-8.9 1.5v3.8h17.4z"/><path class="st10" d="M119.2 52h25.2v8.3h-25.2z"/><path class="st26" d="M0 82.5h157.3l-1.1-2.3H0z"/><path class="st5" d="M0 124.7h197l-2.1-2.3H0zM0 147.6h218l-2.1-2.3H0z"/></g><g id="house2_kopia"><path class="st19" d="M265.3 211.9l-62.3 7.6 81.8 22.2 258.6-7.4 33.3-9.6-54-4z"/><path class="st5" d="M262 145.6h260.7v78.1H262z"/><path class="st25" d="M262 145.6h260.7v23.9H262z"/><path class="st27" d="M581.6 158.7H203l70.2-78.1h238.2z"/><path class="st28" d="M514.6 84.1H270l25.4-54.4h193.9z"/><path class="st22" d="M352.7 176.5h34v14.1h-34zM389.7 176.5h34v14.1h-34zM352.7 193.5h34v14.1h-34zM389.7 193.5h34v14.1h-34z"/><path class="st5" d="M224.8 134.4h335l-2.7-3H227.5zM248.2 108.4h288.2l-2.7-3H250.9z"/><path class="st26" d="M281.9 58.4h220.8l-1.4-3h-218z"/><path class="st25" d="M467.7 64.8l21.6-35.1h-31.6z"/><path class="st6" d="M467.7 53.1l-11.3-2-11.5 2v11.7h22.8z"/><path class="st3" d="M467.7 41.4l-12.4-1.6-10.4 1.6v11.7h22.8z"/><path class="st6" d="M444.9 29.7h22.8v11.7h-22.8z"/><path class="st25" d="M467.7 29.7l-11.1-1.9-11.7 1.9v5h22.8z"/><path class="st10" d="M439.9 18.6h32.9v10.9h-32.9z"/></g><path class="st9" d="M1034.9 287.8l-155.2 13.3-54.8 13.7-21.7-9.7L693 294.3l-96.1 6.3-20.9 14.7-30.9-6.2-129.3-3-41.1-5.7-60.1 5.7-45.4-13.7-86.7 13.7-87.2-10.5L16 315.4l70.1 6.9 70.9-12.2 73.5 10.2 28.8-3.7 81.4 12.4 44.5-6.7 23.9 14.4 130.1 8.8L591 334l83 7.5 112.3-4.8 72.5 8.8 72.4-13.5 181.5-7.5 57.3-10.1v-10z" id="shadows"/><g id="man2"><path class="st29" d="M97.5 169.3L110 180l4.2 20.3-8.2 2.5-7.6-14.7z"/><path class="st22" d="M129.7 208.2l-24.2 9.5.5-14.9 16.8-16.8z"/><path class="st29" d="M89.6 273.1l-8.5 23.7-1.8 2v2.9l-1.2 3.4-2.1 3.1-.7 4.6-23.7-5.7.9-4.7-.5-7.7.9-6.2-.5-5.5.5-13.2 18.9-1.9zM122.8 267.9l2.8 10.1.9 6 2 4.7 2.2 7.9.1 4.2 2 3.5-26.6 5.8-1.5-4.5-2.6-4.6-.8-4.2-2.9-4.1-8.8-19.6 16.6-6.5z"/><path class="st27" d="M52.4 283l28.7 13.8-1.8 4.9-27.3-7 26.1 10.4-2.8 7.7-23.7-5.7zM98.4 292.7l27.2-14.7 2.9 10.7-26.4 12.3 28.6-4.4 2.1 7.7-26.6 5.8z"/><path class="st22" d="M75.3 312.8L59.2 303l-7.6 4.1-5 5.7 12.1 4.5zM106.2 310.1l16.6-9.1 10 3.3 7.7 5.8-23.2 3.1zM46.1 182.4l9.7 51.6 29.5.2 27.5-4.2-15.3-60.7-22.2 14.8z"/><path class="st30" d="M101.8 106.6l13.5 15.1-10.7 17.2-1.6-25.3z"/><path class="st22" d="M57.1 133.3l45.9-19.7 7.9-3.1-9.1-15.8-62.2 13.4 7.9 14.1zM57.1 133.3l-15.5 40.1-6.6-33.3 9.5-5.4z"/><path class="st31" d="M39.6 108.1l17.5 25.2-22.1 6.8z"/><path class="st30" d="M41.6 173.4l19.9 2.9-14.9-18.1z"/><path class="st0" d="M55.8 175.5l-9.7 5.3L84 191l13.5-21.7-12.5-1.5z"/><path class="st0" d="M103 113.6l7 44.6-23.9 6.3-6.1 12-17.5-1.9-12.6-17.7 7.2-23.6z"/><path class="st32" d="M57.1 133.3l9.6 36.9 19.4-5.7-6.1 12-9.8 1-8.7-1.2-14.9-18.1z"/><path class="st2" d="M86.1 164.5l-22.4 5.7 6.5 7.3 11.2 1.6zM51.6 164.2l4.2-1.5-1.3 5.1z"/><path class="st32" d="M67.8 134.5l30.6-7.8-17.3 17.7z"/><path class="st1" d="M78.4 131.8l2.7 12.6 8.4-2.6-3.4-12z"/><path class="st2" d="M89.5 141.8l-4 5.4-4.4-2.8zM78.4 155.4l15.2-6 1.1 2.6-15.4 6.2zM48.3 154.2l4-1.3.6 5.3z"/><path class="st22" d="M53.7 141.4l1.4 6.9-4.5.5v-4.4z"/><path class="st27" d="M55.8 234l57-4 1.4 7.5-28.1 3.4H56z"/><path class="st22" d="M56 240.9l-3.1 28.9 36.7 3.3 33.2-5.2-8.6-30.4zM67.8 134.5l10.9-1.2-.3-2.8zM86.6 131.5l11.8-4.8-12.3 1.5z"/><path class="st33" d="M76.2 139.6c0 1.2-1 2.2-2.2 2.2s-2.2-1-2.2-2.2 1-2.2 2.2-2.2 2.2 1 2.2 2.2zM94.4 134.9c0 1.2-1 2.2-2.2 2.2-1.2 0-2.2-1-2.2-2.2 0-1.2 1-2.2 2.2-2.2 1.2 0 2.2 1 2.2 2.2z"/><path class="st22" d="M159.6 91l-25.5-.6-28.4-6.2 7.6-35.5 33.1-15.5 20.7 28.6z"/><path class="st34" d="M146.4 33.2l-12.3 57.2 28.5 6.1 7.7-35.5z"/><path transform="rotate(12.15 134.71129347 87.8226462)" class="st35" d="M105.6 84.1h58.2v7.5h-58.2z"/><path class="st30" d="M99.6 275.2L89.5 273l40.9-189.9 7.6-10.8 2.5 12.9z"/><path class="st2" d="M114.2 179.1l8.6 6.9-7.5 16.2-5.3-4z"/><path class="st0" d="M114.2 179.1l-10.8 2.1 2.1 17.9 4.5-.9z"/><path class="st29" d="M46.1 180.8l25.7 26.3-1.2 9.1-6.9 9.4-26.6-20.2z"/><path class="st27" d="M71.8 207.1l26.2 6 .4 6.7-3.2 8.1-31.5-2.3z"/><path class="st0" d="M98 213.1l14.8 1.7V225l-3.7 6.3-13.9-3.4z"/><path class="st2" d="M112.8 214.8l7.6 7.4-7 10.8-4.3-1.7z"/></g><g id="woman"><path class="st23" d="M200.5 242.6l-6.9 62 28.8 2.5 32.1-4.3 12.2-5.1 4.7-5.3-12-51.7-29.4-1.2z"/><path class="st31" d="M200.5 242.6l34.3 62.8 24.6-64.7-29.4-1.2z"/><path class="st5" d="M189.6 136l-13.8 16.6 33.5 35.1 2.1-8.2-2.1-30.1z"/><path class="st26" d="M265.6 123.1l14.4 18.5-10.5 26.1-19.1 25-11.6-9.4z"/><path fill="#e8e8e8" d="M236.9 106l28.7 17.1V106l-35.7-14.7z"/><path class="st37" d="M236.9 106l-30.8 44.2-16.5-14.2 40.3-44.7z"/><path class="st22" d="M175.8 152.6l22.1.4 19.9 20.1-6.4 16.4zM280 141.6l-28.8 8.6-12.4 33.1 11.6 9.4 19.1-25z"/><path class="st23" d="M211.4 179.5v19.9l-5.9 15.9-3.8 22.2 28.3 2 29.3-3.9-4.8-22.7-6.9-13.5.7-16.1-18.4 4.4z"/><path class="st22" d="M211.4 179.5l18.5 27.6 18.4-23.8-20.3 6.8z"/><path class="st0" d="M211.4 179.5l17.7 12.7 19.2-8.9-6.9-4.4z"/><path class="st0" d="M265.6 123.1l3.9 44.6-22.7 2-10.2 10.3-25.2-3.8-11.3-22.1 11.6-.9 9.1-15.2 19.7-22.8z"/><path class="st32" d="M220.8 138l2.7 33.7 23.3-2-8 13.6-27.4-3.8-13.5-26.5 11.4-3.6z"/><path class="st2" d="M246.8 169.7l-27.9 2 19.9 11.6z"/><path class="st32" d="M230.2 135.5l30.4-2.5-15.2 16.3z"/><path class="st1" d="M242.7 134.5l2.7 14.8 4.3-.7-1.4-14.6z"/><path class="st2" d="M249.7 148.6l-1.9 3.2-2.4-2.5zM202.9 162.7l6.4-2-2.9 9zM201.7 154.5l3.8-1.3 1.2 5.1z"/><path class="st22" d="M240.5 118.5l-28.2 28 .3 5.3-3.9 2.7-2.6-4.3 30.8-44.2 3.6 6.5z"/><path class="st26" d="M240.5 118.5l25.1 4.6-28.7-17.1z"/><path class="st22" d="M230.2 135.5l8.3-3.8 4.2 2.8zM248.3 134l2.9-2.8 9.4 1.8z"/><path fill="#878887" d="M240.5 159l7.8-4 6.2 3.3-5.8 1.8z"/><path fill="#a0a1a0" d="M240.5 159l7.8 2.8 6.2-3.5-6.2.7z"/><circle class="st33" cx="237.1" cy="141.6" r="2.3"/><path class="st33" d="M257 140.2c0 1.3-1 2.3-2.3 2.3s-2.3-1-2.3-2.3 1-2.3 2.3-2.3 2.3 1 2.3 2.3z"/><path class="st37" d="M229.9 207.1l-24.4 8.2 1.2-18.7 4.7-17.1 18.5 27.6 18.4-23.8 6.2 14.1v15.5z"/><path class="st23" d="M211.4 179.5l-21.8 22.9 7.2 8.8 8.7 4.1zM248.3 183.3l18.4 21.7-4.7 7.6-7.5.3z"/><path class="st34" d="M266.7 205l8.6 6.2-1.9 7.5-5.6 7.4-10.9-1.9-2.4-11.3zM189.6 202.4l-8.5 4.7 3.5 7.8 6.1 9.2 13.9-3.7.9-5.1-9.5-7.7z"/><path class="st22" d="M201.7 237.5l57.6-1.9.1 5.1-58.9 1.9z"/><path class="st0" d="M220.8 307l-16.6 8.4-9.3-2.3-1.3-8.5 13.1-4.5zM254.5 302.8l19.4 2.6 8.3-2.6-10.8-10.4z"/><path class="st2" d="M204.2 315.4l-3.7-7.7-5.6 5.4zM273.9 305.4l4.2-6.5 4.1 3.9z"/><path class="st32" d="M260.8 298.9l13.1 6.5-19.4-2.6zM220.8 307l-16.6 8.4 10.5-11.4z"/><path class="st0" d="M181.1 207.1l-10.8 5.5 2 7 3.1 7.1 15.3-2.6zM275.3 211.2l10.7 4.3.1 7.8-5 5-13.3-2.2z"/><path transform="rotate(20.98 288.88413604 219.50106643)" class="st30" d="M284.7 197.3h8.3v44.4h-8.3z"/><ellipse transform="rotate(-51.362 306.58987265 173.30285004)" class="st30" cx="306.6" cy="173.3" rx="30.6" ry="30.6"/><ellipse transform="rotate(-20.48 306.63116918 173.30148583)" class="st34" cx="306.6" cy="173.3" rx="22.9" ry="22.9"/><path class="st40" d="M152.7 164.3l-1.5 16.6-11.6-11.9 6.2-3.4z"/><path fill="#bfbfbf" d="M152.7 164.3l-9-4.4-4.1 9.1z"/><path class="st23" d="M177.3 232.8l-11.7-11.9-1.5 16.6 7-1.3z"/><path class="st34" d="M177.3 232.8l-4.2 9.1-9-4.4z"/><path class="st27" d="M175.4 226.7l-5.7 2.1-9 1.4-6-14.9-14.2-39.6 14.7-5.2z"/><path class="st32" d="M157.9 214.7l-3.2.6 2 10.1 4 6.6 9-3.2-2.5-6z"/><path class="st1" d="M170.3 212.6l-8.3-1.4-4.1 3.5 4.7 9.4 4.6-1.3-1.4-5.1 6.8 1.2z"/><path class="st2" d="M154.7 215.3l-6.2 3.5 8.1 13.2h4.1z"/><path class="st32" d="M281.1 228.3l7.8 2.8 5.3-5.7.1-8.5-8.3-1.4z"/><path class="st2" d="M294.3 216.9l5.3 5.1-4.7 9.7-6-.6z"/><path class="st1" d="M282 213.9l5.6-2.7 6.7 5.7-2.4 6.4-3.4-.9.5-2.7-4.1-1.3z"/></g><g id="man"><path class="st22" d="M325 312.1v8.3h-26.5l10.9-10.8h8.6zM372.9 312.1l2.5 6h25.5l-9-13-9.9 2.2z"/><path class="st29" d="M322.4 244.1l-7.3 37v5l-1.9 4.4-1.9 9.9 1.2 4.7-3.1 4.5 15.6 2.5 2.2-4.9 4.6-4.5 1.6-5.3 4.5-3.3 18-25.1 8.3 21 3.3 5.3 1.4 6.5 3.5 6.9.5 3.4 19-7-1.7-3.7.8-4.8-.6-4.9-1.8-3.9.8-5.1-5.1-44.1z"/><path class="st22" d="M322.4 244.1l33.5 24.9 28.4-30.4z"/><path class="st42" d="M368.8 165.7l21.6 24.8-13.3 13.9-6.6-15.5z"/><path class="st27" d="M315.6 173.5l6.8 70.6 61.9-5.5-15.5-72.9z"/><path class="st0" d="M315.6 173.5l12.9-3.4L359 165l9.8.7-13.5 23.4-1.2 12.5-7.7-11.6z"/><path class="st29" d="M359 89.2l-36.6-16.7 11.6 29.1z"/><path class="st22" d="M322.4 72.5l-13 37.3 16.6-4.4 9.3-6.3z"/><path class="st42" d="M298.5 127.8l41.6-11.3 32.8-16.1-4.4-15.2-73.4 30.6z"/><path class="st22" d="M306.9 141l-8.4-13.2 22.8-8.7 6.6 17.3-7.1 5.4-4.5-4.1z"/><path class="st0" d="M372.9 100.4l11.4 45.6-20.7 6.7-10 17.4-25.1-2.2-21.6-26.9 9.4-3.3 4.5 4.1 6-3.2-3.3-18.3 7-4.5z"/><path class="st32" d="M330.5 115.8l13.2 43.5 19.9-6.6-6.1 9.8-1.6 9.8-27.4-2.2-21.6-29.1 9.4-5.5 4.5 4 4.9-3.1-4.4-17.3z"/><path class="st2" d="M363.6 152.7l-25.7 8 18 11.6zM315.6 152.7l6.8-2.2-1.8 9zM318 146.5l-2.6-6-4.1 2z"/><path class="st32" d="M340.1 122.3l30.4-10.2-13.8 19.5z"/><path class="st1" d="M352.6 118.1l4.1 13.5 4.5-1.6-3.9-13.5z"/><path opacity=".04" d="M321 229.5l32.4 4.8 11.8 6.3 5.3-8.3-17.9-12-32.6-1.4z"/><path class="st22" d="M340.1 122.3v-3.2l10.6-4.6 1.9 3.6zM357.3 116.5l-.4-3.4 11.4-3.3 2.2 2.3z"/><path class="st44" d="M350.5 125c.4 1.4-.2 2.7-1.3 3.1-1.1.3-2.3-.5-2.7-1.9-.4-1.4.2-2.7 1.3-3.1 1.1-.3 2.3.5 2.7 1.9zM366.2 120.4c.4 1.4-.2 2.7-1.3 3.1-1.1.3-2.3-.5-2.7-1.9-.4-1.4.2-2.7 1.3-3.1 1.1-.4 2.3.5 2.7 1.9z"/><path class="st22" d="M356.7 131.6l-7.5 11.9 26.2-7.7-14.2-5.8z"/><path fill="#4f4f4f" d="M356.7 131.6l3.5 2.6 1-4.2z"/><path class="st32" d="M390.4 190.5l7.7 11.1.6 16.2-17.8 2.4-3.8-15.8z"/><path transform="matrix(.9504 .3109 -.3109 .9504 85.1985 -107.1085)" class="st30" d="M374.3 107.1h8.6v213.2h-8.6z"/><path transform="matrix(.9504 .3109 -.3109 .9504 57.6326 -121.2643)" class="st21" d="M404.9 112h8.6v16.3h-8.6z"/><path class="st46" d="M442.9 85.9l-10.1 30.8-9.8-3.2 10.1-30.8 7.8-12.5-13.7 10.6-10.1 30.8-9.8-3.2 10.1-30.8 7.8-12.5-13.8 10.5-10.1 30.8-9.8-3.2 10.1-30.8 7.9-12.5-13.8 10.6-10.1 30.8-3.3 10.2 5.9 1.9 9.8 3.2 5.9 2 9.9 3.2 5.9 1.9 9.8 3.2 5.9 2 3.4-10.2 10.1-30.8 7.8-12.5z"/><path class="st2" d="M398.7 185l-.6 16.6-12.9 5.5 1.8-5.5 3.4-11.1z"/><path class="st42" d="M315.6 173.5l20.9 30.9v10.5l-8.6 10.5-22.9-19.1z"/><path class="st32" d="M336.5 204.4l27.7 14.5 2.2 4.8-5.2 7.4-33.3-5.7z"/><path class="st0" d="M364.2 218.9l16.7 1.3-1.3 9.3-4.9 9.8-13.5-8.2z"/><path class="st2" d="M380.9 220.2l7.9 8.9-4.5 9.5-9.6.7z"/><path class="st0" d="M380.4 179l18.3 6-11.7 16.6-8.1-2.8z"/><path class="st27" d="M337.9 294.1L315.1 281l-1.9 9.5 18.6 12.2-20.5-2.3-1.9 9.2 15.6 2.5zM364.2 290l25.2-7.3 1 9-21.6 10.1 22.2-5.2.9 8.5-19 7z"/></g><g id="warrior3"><path class="st30" d="M1040.3 279.7l-5.4 20.9h25.5l10.5-23.3-12.6-3zM1152 271.2l1.5 24.4h-23.4l-8.3-22.1 15.1-3.6z"/><path class="st31" d="M1060.4 300.6l-16.1-8.4-16.6 15.2 11.4 3.5h21.3zM1130.1 295.6l15.7-6.4 16.7 13.4-14.2 2.9h-18.6z"/><path class="st30" d="M1060.4 310.9l-32.7-3.5v7.4h32.7zM1129.7 305.5l32.8-2.9v8.3h-32.8z"/><path class="st25" d="M1040.3 279.7l25.4 9.3 5.2-11.7-12.6-3zM1152 271.2l-26.5 12.2-3.7-9.9 13-4.7z"/><path class="st47" d="M1057.9 210.5l-17.6 69.2 111.7-8.5-5.4-60.7z"/><path class="st48" d="M1160 142.5l12 30.7-31.4 3.1v-19.2z"/><path class="st30" d="M1047.6 141.2l-17.9 34.7 32.5-6.3 1.5-17.2z"/><path class="st17" d="M1142.5 158.2l4.1 36.6-37.1 3.5-51.1-6.1 3.8-37.1z"/><path class="st31" d="M1134.8 120.3l35.1 13.4-67.1 59.9-67-63.6 42.4-13.9z"/><path class="st31" d="M1146.6 194.8v15.7h-88.7l.5-18.3z"/><path class="st23" d="M1102.8 193.6l-16.3 17h31.6l-15.3-17zm0 5.5l5.9 7.9h-12.9l7-7.9zM1142.5 158.2l-12.4-30.7-27.3 6.2-22.1-13.1-18.5 34.5 40.6-19z"/><path class="st30" d="M1144.9 104.5l-14.8 23-27.1-8.6-22.3 1.7-9.8-22.5 35.6-.8zM1081 67.8l31-14.6 26.1 19.7-27.7-4.4z"/><path class="st0" d="M1084.3 85.4l-3.6 35.2 49.4 6.9 4.7-35.4z"/><path class="st17" d="M1077.5 95.6l24.4 7.2 43 1.7-6.8-31.6-27.7-9-27.7 5.5z"/><path class="st2" d="M1110.4 63.9l-8.5 38.9-31-4.7 10.1-30.3z"/><path class="st30" d="M1090.6 79l15.9 2.8 21.7-.3v3.9l-22.7.8-17.1-3.6zM1104.8 89.5h23.4v4.6h-24.4l-17.3-2.8 1.9-4.8z"/><path class="st31" d="M1107.4 55.3l10.7 2.5-3.9-13.1z"/><path class="st30" d="M1130.1 127.5l-27.3 8.6-22.1-15.5z"/><path class="st2" d="M1065.2 167.4l11.4 10.3-7.2 11.3-11.1 10.1-28.6-23.2 31.6-11.9z"/><path class="st8" d="M1103.1 189l-15.7-14.1 67.8-75.2 13.9-.8 2.9 13.8z"/><path class="st49" d="M1169.1 98.9l-75 83.1-8.5-7.6 69.5-77z"/><path transform="rotate(42.09 1079.64624087 197.92157911)" class="st30" d="M1074 175.8h11.2v44.3H1074z"/><path class="st4" d="M1111.5 209.2l-22-22.1-24.3-19.7 7.6-8.3 46.2 41.7z"/><path class="st49" d="M1065.2 167.4l30.7 12.6 15.6 29.2z"/><path class="st47" d="M1076.6 177.7l15.8 14.5-6.8 10.8-9.7 7.5-17.6-11.4z"/><path class="st30" d="M1075.9 210.5h13.7l9-12.6-6.2-5.7z"/><path class="st2" d="M1172 173.2V197l-25.4 4.6-2.1-25.7z"/><path class="st31" d="M1165.3 182l6.7 15-25.4 4.6z"/><path class="st30" d="M1157.7 174.6l-9.8-7.6-9.1 8z"/><path class="st47" d="M1157.7 174.6l-25.6-2.4-2.6 22.1 17.1 7.3 8.2-14.2z"/><path class="st30" d="M1157.7 174.6l7.6 7.4-7.1 17.5-11.6 2.1z"/><path class="st31" d="M1053.8 226.7l95.7 16.1 1.4 16.4-110.6 20.5 4.2-16.7 70.8-8.6-66.2-9.3zM1094.3 107.4l23.8 5-1.4 3.7-21.1-5.3z"/></g><g id="warrior2"><path class="st30" d="M1027.7 153l-6 16.9 9.3 12.9 17 8.3 30.9-38.1-22.6-2.7z"/><path class="st17" d="M890.7 104.6L869 111l-12 42 19.5 3.3 18.5.4-13-29.2z"/><path class="st2" d="M857 153l38 3.7-6.7 12.7-7.6 17.1z"/><path class="st48" d="M880.7 186.5L904 198v-24.3l-9-20.4z"/><path class="st17" d="M864 162h15.7l-7.8 9.9zM995.7 90l36.6 2.4 27.4 23.3-12.4 19.5-19.6 17.8h-18.4l6.4-42z"/><path class="st2" d="M1027.7 153l32-37.3 19.2 37.3z"/><path class="st30" d="M1065.8 127.5l-14.8 15.4h22.7zM969.8 301.1V318h48.7v-17.4z"/><path class="st48" d="M929.9 297.5v16l-62.9-1.4V298z"/><path class="st30" d="M1012.7 282.1l5.8 18.5-48.7.5-7.1-26.8H985z"/><path class="st48" d="M937.7 270.4l-7.8 27.1-25.9-2.4-17.7-11.1 3.4-21 28-1.2z"/><path class="st31" d="M969.8 301.1l12.2-8.9h23.7l12.8 8.4-19.5 12zM929.9 297.5L886.3 284 867 298l19.3 7.1z"/><path class="st25" d="M1012.7 282.1l-46 7.1-4-14.9 25-4.4zM889.7 263l43.3 23.8 4.7-16.4-20-8.6z"/><path class="st30" d="M995.7 90l20 21-12.4 81.7-97.3 3.1-28-68.1 12.7-23.1z"/><path class="st31" d="M988.2 95.6l21.1 57.4h-59.6L895 169.4l4-61.1z"/><path class="st17" d="M976 104.6l9 30.1-18.3-4.5-39 7.1-17.7 13 1.5-36.4zM978.5 60.8L995.7 90 976 104.6l-12.3-36.7z"/><path class="st17" d="M895.7 76.3h15.8v37.6l-20.8-9.3z"/><path class="st31" d="M976 28.3L964 15l-.3 20.3zM884 52l4.9-18.3 8.5 17.6z"/><path class="st30" d="M965.1 48.5L976 28.3l-20.2 8.2zM906 47.7l-4 14.9L884 52z"/><path class="st0" d="M966.3 69.2l9.7 35.4-31.7 11.1-32.8-1.8-3.2-34.3z"/><path class="st1" d="M937.7 74.3l19.6 17.4 5.4 35.4-13 25.9-22-15.7-4.7-42.9z"/><path class="st7" d="M937.7 74.3l12 78.7 17-22.8-7.7-42z"/><path class="st31" d="M978.5 60.8l-38.7 27.4-6.8-19V47.7l19.2 4z"/><path class="st2" d="M939.8 88.2l-44.1-11.9 21-19.6 16.3-9 3.2 19.3z"/><path class="st30" d="M956.5 63.5l-12.3 6.9 13.8-1.2zM916.1 69.4l13.8 2.7-13.5 3.2z"/><path class="st17" d="M978.5 60.8l-22.7-24.3-25.9-10.2v13.8l3.1 7.6z"/><path class="st31" d="M929.9 26.3L906 47.7l-10.3 28.6L933 47.7zM899.5 180.1L904 198l47.1 4.7 55.6-9-1-18.2z"/><path class="st17" d="M904 198l-5.6 28.7 49.1 21L1011 263l-4.3-69.3z"/><path class="st31" d="M898.4 226.7l-8.7 36.3 123 19.1-1.7-19.1z"/><path class="st2" d="M976 104.6l39.7 6.4 16.6-18.6-36.6-2.4zM890.7 104.6L869 111l-6.4 22.3 48.9-19.4z"/><path class="st17" d="M1054.9 208.9l-8.8 10.1-74.4-65.2-3.8-12.2 12.6 2.1z"/><path class="st2" d="M980.5 143.7l-8.8 10.1-40.5 16.4 10.7 45.6 48.8 6.2 12.1-40.9 8.9-10.1-8.7-7.6-4.7 5.5-13.9-12.2 4.8-5.4z"/><path class="st30" d="M976 165.7l-31 15 9.6 20.7 25.3 5.8 10.3-29z"/><path transform="rotate(-48.761 1046.3663579 210.3559239)" class="st2" d="M1039.7 204.9h13.4v10.9h-13.4z"/><path class="st2" d="M1021.7 169.9l-16 13.7 16 18.2 10.6 5.1 15.7-15.8z"/><path fill="#686868" d="M1005.7 183.6l1.3 15.2 10.5 15.2 14.8-7.1z"/><path class="st31" d="M930 96.4l10.4-4.3 14.3.3 1.1 4H941l-11.1 4.1z"/></g><g id="warrior"><path class="st27" d="M829.6 143.4l-16-.2-12.6 11.5 12.6 6.3 16.2 1.8 2.4-11.8z"/><path class="st29" d="M829.8 162.8l-28.8-8.1-4 13.7 13.2 3.1 19.4 1.5 1.7-6z"/><path fill="#777" d="M797 168.4l-10.7 21.9 19.3 1.4 19.2-2.3 3.2-7.9 1.6-8.5z"/><path class="st2" d="M824.8 189.4l-38.5.9v19.4l24.2-11.2z"/><path class="st40" d="M824.8 189.4l-3.2 17.4-6.6 15.9-28.7-13z"/><path class="st52" d="M826.2 325.3l-12.7-7.8 2.3 11.5z"/><path class="st17" d="M900.7 280.2l-3.4 21.1-11 21L879 292z"/><path class="st30" d="M900.7 280.2l7 1.6-14 46.7-7.4.5v-6.7z"/><path class="st35" d="M813.5 242.1l12.7 39.1 14.5-6.9 13.3-10.8-15.3-11.7z"/><path class="st17" d="M826.2 281.2l6 6.3 3.7 1.1 2.8 5.7 9.5-14.1 5.8-16.7z"/><path class="st2" d="M832.2 287.5l13-6.3-6.5 13.1z"/><path class="st30" d="M913.3 240.3l-29.6 16.6-29.7 6.6-40.5-21.4 43.2-4.8z"/><path class="st2" d="M829.6 173l-16 54.6 58.9.7 40.8-5.6L888 177l-27.7-4z"/><path class="st17" d="M855.3 174.8l7 13.7 38.6 11.8-45.6-4.8-33.7 4.8 28.7-11.8zM880.3 131.7l15-4.2 5.6 8.2 2.4 12.7-3.8 12.6-11.5 16-7.1-28.6z"/><path class="st30" d="M914.3 120.6l-1.7 27.8h-9.3l-8-20.9z"/><path class="st0" d="M830.1 133.8l-.5 39.2 58.4 4-4.8-28.6-2.9-16.7z"/><path class="st35" d="M824.3 120.4l26 2.6 61.2-9.1 2.8 6.7-64.3 25.2-25.7-12.7z"/><path class="st30" d="M835.9 128.6l13.8 2.4 25-6.4v4.8l-25.4 7.9-13.4-4.4z"/><path class="st35" d="M840.7 152.3L867 151l2.2 13-26.5-4.3z"/><path class="st1" d="M843.7 154.4l20.8-.9 1 7.5-21.2-3.5z"/><path class="st2" d="M850.3 124.6v-12.9L867 104l21-4.4 23.5 14.3z"/><path class="st23" d="M850.3 111.7l-6.6-3.5H834l-9.7 12.2 26 4.2z"/><path class="st52" d="M888 99.6L862.3 92l-7.7 9.8-4.3 9.9z"/><path class="st2" d="M862.3 92l-20 7.6-8.3 8.6 16.3 3.5z"/><path class="st40" d="M813.6 227.6l99.7-4.9v17.6l-99.8 1.8z"/><path class="st23" d="M864.5 225.1l-22.3 1.1-6.2 7 13.2 8.3 13.2-.2 10.2-10-8.1-6.2zM854 237.3l-9.5-6.5 18.9-.8-9.4 7.3z"/><path class="st34" d="M913.3 240.3l-5.6 34h-29L854 263.5z"/><path class="st28" d="M907.7 274.3l-24 20-14.5-11.3-15.2-19.5z"/><path class="st11" d="M883.7 294.3L854 263.5l-15.3 30.8 20.1 2.4z"/><path class="st23" d="M848.6 274.3l12.6 11.7h-18.4z"/><path class="st30" d="M838.7 294.3l2 18.7 18.1 7.3 27.5 2-2.6-28z"/><path class="st29" d="M886.3 322.3v6.7l-38.1 3.6-32.4-3.6 24.9-16z"/><path class="st30" d="M842.8 329l-13.2-8.7-13.8 8.7v7.7h70.5V329zM888 177l12.9 23.3 23.8-.5 23-4.3-2.7-14.8-28.5-5.9z"/><path class="st53" d="M900.9 200.3l16.4 10.8 24.6 4.7 5.8-20.3z"/><path class="st30" d="M900.9 200.3l-18.6 11.9 9.5 14 12.5 7.8 37.6-18.2z"/><path class="st54" d="M888 177l57 3.7 2.4-16.8-23.4-4.6-26.7.4z"/><path class="st27" d="M897.3 159.7l6-11.3 36.5-2.5 7.6 18-23.4-2z"/><path class="st53" d="M882.3 212.2h-21l12.5 8.7z"/><path class="st55" d="M777.5 133.9l1.5 16.8-16.8 1.5 1.5-14.2z"/><path class="st29" d="M762.2 152.2l15.3-18.3-16.8 1.5z"/><path class="st55" d="M821.6 136.7l-16.9 1.5-1.5-16.8 14.3 1.5z"/><path class="st29" d="M803.2 121.4l18.4 15.3-1.5-16.9z"/><path class="st55" d="M772.8 195.2l-1.5-16.9-16.9 1.6 4.1 13.7z"/><path class="st29" d="M754.4 179.9l18.4 15.3-16.8 1.5z"/><path transform="rotate(-50.186 846.57019598 207.00481642)" class="st30" d="M839.8 130.8h13.5v152.3h-13.5z"/><path transform="rotate(-50.186 798.68435519 167.09381924)" class="st21" d="M791.9 153.3h13.5v27.6h-13.5z"/><path transform="rotate(-50.186 787.67488739 157.91414789)" class="st34" d="M752.9 138.4h69.5v39h-69.5z"/><path class="st29" d="M812.8 145l-17.9 19-15.4 21-17-14.2 19-19.3 14.3-20.7z"/><path class="st49" d="M762.5 170.8l25.1-12.9 8.2-27.1z"/><path class="st55" d="M787.6 157.9l-8.1 27.1 33.3-40z"/><path class="st23" d="M882.3 212.2L861.2 228l8 9.6 13.2 8.1 21.9-11.7z"/><path class="st54" d="M882.4 245.7h-9.9l-18.5-8.4 7.2-9.3z"/><path class="st25" d="M895.3 238.9l-6.8 11.8-6.1-5z"/><path class="st23" d="M818.4 174.8l18.9 6.3-9.4 19-14.7-4.6-10-7.2z"/><path class="st54" d="M803.2 188.3l-2.2 13.6 17.4 9.2 9.5-11z"/></g><g id="cart"><path class="st8" d="M749 247.8h16.5v63.7H749zM587 247.8h16.5v63.7H587z"/><path class="st56" d="M584 295.6h184.9v7.3H584z"/><path class="st17" d="M577.7 218.6l92.5-1.6 103.5 1.6-23 83.8-149 .6z"/><path class="st30" d="M577.7 218.6h196l-48.5-28.8-98-.5z"/><path class="st46" d="M628.7 218.6h94l2.5-28.8-98-.5z"/><path class="st56" d="M768.1 238.9l.8-2.9H582.6l.9 2.9zM761.9 261.9l.7-2.9H589.2l.8 2.9zM755.6 284.8l.8-2.9H595.7l.8 2.9z"/><path class="st57" d="M627.9 303h-10.3l-11.4-84.4h10.2zM746.6 218.6h-10.3L724.8 303h10.3z"/><path class="st58" d="M763.1 267h16.5v63.7h-16.5zM573 267h16.5v63.7H573z"/><path class="st35" d="M606.2 218.6l5.7-12.4 24.5-30.4 23.3 3.4 22.2-6.1 31.4 28.9 17 3.5 11.1 13.1z"/><path class="st59" d="M608.2 218.6l16.5-17.5 29.4 7.6 21.6-14.3 35.6 16.3 19-5.2-14.4-5-11-19.1-24.7-11.2-24.5 5.3-24-1.7-22.1 25.9z"/><path class="st35" d="M730.3 205.5l2.2-17.5-18.9-14.9-2.9-15.8-32.4-8.9-19.6 10.7-30.8 2.9-10.3 28.3 7.1 10.8 19.3-14.3 41.9 2.8z"/><path class="st59" d="M732.5 188l-23.4.6-5.3-12.9-23.5 4.6-31-9.7-31.7 19.7-.6-9.2 13.7-30.8 31-7.1 12.1-13.4 44.2 13.9 2.3 25.7z"/></g><g id="enfj"><path class="st14" d="M435.4 188.6l-26.7 127.7 16.9-11.3 9.8-73.1z"/><path class="st60" d="M435.9 191.2l-11.2 112 .9 12.9 12 12.9 29.1-5 48.2-.4 22.8-7.3 9.2-9 1.9-6.5-8.1-130.2z"/><path class="st61" d="M474.4 306.1L463.9 332l-26.3-3 4.5-20 15.7-5.8z"/><path class="st44" d="M463.9 332l-13.8-8.9-12.5 5.9 9.1 10z"/><path class="st61" d="M504.6 303.5l10.3 20.1 14.5-1.9 8.3-5.4-3-15.5-15.2-1.7z"/><path class="st44" d="M514.9 323.6l.3 6.4 35 2.7-12.5-16.4z"/><path class="st14" d="M548.8 300.8l10.9 11.4-22 4.1z"/><path class="st62" d="M424.7 303.2l-16 13.1 28.9 12.7z"/><path fill="#b8c745" d="M424.7 170.6l11.2 20.6 81.8-2.7 23-17.9 1.8-23.1-33.2-2.6-67.4 7z"/><path fill="#e8f177" d="M531.3 140.7l-82.7-3.9-22.4 15.4-1.5 18.4 22-15.1 86.6-1.7 9.2-6.3z"/><path class="st14" d="M446.7 155.5l9.2 37v29.8l36.4 2.7 34.9-2.7v-33.8l6.1-34.7-16.4-1.6-53.4.8z"/><path class="st60" d="M497.4 177.6l-6 44.7 16.8 2.7 19-2.7 6.1-34.3v-34.2l-16.4-1.6-18.3 4.4z"/><path class="st16" d="M463.7 163l.2 5 33.5 9.6-.1-5.9-15.3-6.9z"/><path class="st13" d="M497.3 171.7l6-5.4h5.6l.4 5.9-11.9 5.4z"/><path class="st61" d="M473 151.6l-11.1-31.3-1.6-31.7h-7.2l-2.1 15.8-4.3 51.1zM526.8 111.4l6.5 42.4-16.4-1.6-2-44.9z"/><path class="st65" d="M463.9 156.6l-.2 6.4 33.6 8.7 11.6-5.4.4-7.5z"/><path class="st66" d="M516.3 159.1l-39.5-1.9-12.8 2.2-3.7-70.8 61.7-2.7z"/><path class="st65" d="M457.8 82.9l7.3 11.6 2.5 62.3 8 2.5-11.9 3.7z"/><path fill="#c4937d" d="M488 134.2l5.8 3.9 5.8-3.9z"/><path class="st68" d="M470.5 114.4l11.5 8.3 6 11.5 3.4-18.6-16.2-2.9z"/><ellipse cx="479.4" cy="122.7" rx="2.6" ry="3.7"/><path class="st68" d="M499.6 134.2l8.6-11.5 9-8.6-4.8-1.6-16.2 3.1v11.5z"/><ellipse cx="505.6" cy="122.7" rx="2.6" ry="3.7"/><path class="st69" d="M499.6 134.2l-5.8 1.4-5.8-1.4 3.4-18.6h4.8z"/><path class="st44" d="M496.2 115.6l16.2-3.1 4.8 1.6-5.9-5.9zM491.4 115.6l-16.2-2.9-4.7 1.7 5.7-6z"/><path class="st71" d="M497.6 167.8l11.7-9 7 .3-52.4-2.5z"/><path fill="#4f5253" d="M450.1 115.4l1.2-30.7 22.5-10.5h36.3l19.3 14.4-2.6 22.8-6.9 1.2 1.6-21.4-26.6 8.7-28.9-13-4.8 37.2z"/><path fill="#6f7173" d="M494.9 99.9l-21.1-25.7-22.5 10.5 13.8 9.8z"/><path fill="#f6ccb6" d="M466.9 139.4l50.8 2.1-1.4 17.6-48.7-2.3z"/><path class="st44" d="M510.1 74.2l-15.2 25.7 26.4-5.6 8.1-5.7z"/><path class="st71" d="M480.9 144.9h19.9v4.3h-19.9z"/><path class="st62" d="M459.9 227.3l31.5-5h35.8v14.4l-37.5 6.1-35.9-1.2z"/><path class="st14" d="M453.8 241.6L442.1 309l32.3-2.9 25.2-5.8 35.1.5-7.5-64.1z"/><path class="st12" d="M503.8 238.2l-29.4 67.9 60.3-5.3z"/><path class="st15" d="M491.4 222.3l-37.6 19.3 2.1-19.3z"/><path class="st14" d="M533.3 153.8l18 39.8-7.4 15.7-16.7 13z"/><path class="st62" d="M551.3 193.6l22.4 9.6-2 10L564 225l-36.8-2.7z"/><path transform="rotate(-68.093 596.88167025 175.72593132)" class="st49" d="M514.4 169.8h165v11.9h-165z"/><path class="st4" d="M572.9 253.7c1.4-3.5-.3-7.5-3.8-8.9-3.5-1.4-7.5.3-8.9 3.8-1.4 3.5.3 7.5 3.8 8.9 3.5 1.4 7.5-.3 8.9-3.8z"/><path class="st49" d="M617.4 92.5l13.4-1.9 8.2 11.2-23.2 48-20.7 61.1-21.8-8.8z"/><path class="st8" d="M595.1 210.9l-10.6-4.3 46.3-116 8.4 10.7z"/><path class="st4" d="M609.1 208.3l4.4 8.9-8.9 5.1-4.8-8.6-11-4.4-6.5 2.8-2.8-6.6-10-4-8.6 3.7-4.9-9.5 10.5-4.5 1.9 5.6 12.5 5.1 6.6-2.8 2.8 6.5 13.5 5.4z"/><path class="st25" d="M569.8 227l8.2 11.2 3-7.5-3.8-3.7z"/><path class="st65" d="M573.7 203.2l24.8 10-10.8 18.1L564 225z"/><path class="st66" d="M587.3 233.1l-17.5-6.1 9.7-21.5 19 7.7z"/><path class="st69" d="M568.4 215.1h6.8l-3 6.6 6.9 2.1 8.6-15-14-5.6z"/><path class="st65" d="M598.5 213.2L581 230.7l6.3 2.4z"/><path class="st71" d="M573.7 203.2l22.7 13.7 2.1-3.7z"/><path fill="#728d55" d="M463.9 168l-8 30.1-5.8 8.7-17 12.5 4.2-57.1 9.4-6.7 16.3-2.4.7 9.9z"/><path class="st62" d="M455.9 198.1l20.4 13.8-.7 13.1-8.7 10.1-33.8-15.8z"/><path class="st65" d="M476.3 211.9l10.2-2.6 4.9 7.9-9.4-.6z"/><path class="st66" d="M476.3 211.9l15.1 5.3-3.4 10.1-11.2 12.7-9.9-4.9z"/><path class="st65" d="M491.4 217.2l5.9 5.1-7.6 17.1-12.9.6z"/></g></svg>