<svg id="image" xmlns="http://www.w3.org/2000/svg" viewBox="0 0 1170 350"><style>.st2,.st3,.st4{fill-rule:evenodd;clip-rule:evenodd;fill:#fff}.st3,.st4{fill:#f2f2f2}.st4{fill:#cecece}.st10,.st11,.st5,.st6,.st7,.st8,.st9{fill-rule:evenodd;clip-rule:evenodd;fill:#dbdbdb}.st10,.st11,.st6,.st7,.st8,.st9{fill:#636363}.st10,.st11,.st7,.st8,.st9{fill:#a0a0a0}.st10,.st11,.st8,.st9{fill:#8e8e8e}.st10,.st11,.st9{fill:#777}.st10,.st11{fill:#828282}.st11{fill:#b5b5b5}.st12,.st13,.st14,.st15,.st16,.st18{fill-rule:evenodd;clip-rule:evenodd;fill:#ddd}.st13,.st14,.st15,.st16,.st18{fill:#9b9b9b}.st14,.st15,.st16,.st18{fill:silver}.st15,.st16,.st18{fill:#afafaf}.st16,.st18{fill:#8c8c8c}.st18{fill:#939393}.st21,.st23,.st25,.st26,.st27,.st28{fill-rule:evenodd;clip-rule:evenodd;fill:#b2b2b2}.st23,.st25,.st26,.st27,.st28{fill:#e5e5e5}.st25,.st26,.st27,.st28{fill:#728d56}.st26,.st27,.st28{fill:#35785d}.st27,.st28{fill:#99c26d}.st28{fill:#87aa5e}.st29,.st30,.st31,.st32,.st35,.st36{fill-rule:evenodd;clip-rule:evenodd;fill:#54b08b}.st30,.st31,.st32,.st35,.st36{fill:#3f8f6f}.st31,.st32,.st35,.st36{fill:#697f4f}.st32,.st35,.st36{fill:#718d56}.st35,.st36{fill:#c1c1c1}.st36{fill:#aaa}.st37{fill:#d8d8d8}.st37,.st39,.st40,.st41{fill-rule:evenodd;clip-rule:evenodd}.st39{opacity:.1}.st40,.st41{fill:#72c9a6}.st41{fill:#474747}.st42,.st43,.st44,.st45,.st46,.st47{fill-rule:evenodd;clip-rule:evenodd;fill:#2b2b2b}.st43,.st44,.st45,.st46,.st47{fill:#737373}.st44,.st45,.st46,.st47{fill:#c4c4c4}.st45,.st46,.st47{fill:#6f7173}.st46,.st47{fill:#ffdbc7}.st47{fill:#c4937d}.st48{fill:#edc0a8}.st48,.st50,.st51,.st52{fill-rule:evenodd;clip-rule:evenodd}.st51,.st52{fill:#446125}.st52{fill:#5a753d}</style><path opacity=".3" fill-rule="evenodd" clip-rule="evenodd" fill="#fff" d="M-26-20h1220.7v398H-26z" id="Warstwa_18"/><g id="sky"><path fill-rule="evenodd" clip-rule="evenodd" fill="#eaeaea" d="M-16.5-8H1187v366H-16.5z"/><path class="st2" d="M47.3 36.8l34.2-11.7 9.9 8.7L126.8 23l61 17.7L169.2 55l6.9 19.4-17.3 5.6-57.9-22.5-32.4 9.1z"/><path class="st3" d="M187.8 40.7l-44.5 9.9-13.9-7.7-24.2 4.7.5 6.1-32-1.3-26.4-15.6 21.2 29.8 32.4-9.1L158.8 80l17.3-5.6-6.9-19.4z"/><path class="st2" d="M361.9 18.3l35.8-4.9 7.7 6.4 25.1-1.1-13.4 12.7-26.2-3.2-25.1 8.2-47.3-15.6 12.7-7.8z"/><path class="st3" d="M430.5 18.7l-18.7 6.4-13.4-2.1-34.6 5.2-45.3-7.4 47.3 15.6 25.1-8.2 26.2 3.2z"/><path class="st2" d="M186.2 117.2l26.8-10 8.2 9.1 22.1-2.1 8.6 13.4-39.3 5.1-4.8-9.5-31.9 5.2z"/><path class="st3" d="M243.3 114.2l-13 11.2-20.7-9.1-20.3 3.9-13.4 8.2 31.9-5.2 4.8 9.5 39.3-5.1z"/><path class="st2" d="M971.8 54.1l30.2-19.4 15.1 13.4s60.9-17.7 62.7-18.1c1.7-.4 15.1 11.7 15.1 11.7l-11.2 11.2 44.9 5.2 16 28.5-44.5-6.5-57.5 25.5-17.3-20.7-47 11.1-48-16.9-5.2-14.3 46.7-10.7z"/><path class="st3" d="M930.4 79.2l52.7-11.7 9.9 10.4 39.8-17.8 42.3 14.3.5-15.1 8.2-6.5 14.2 18.1 30.7-12.9 16 28.5-44.5-6.5-57.5 25.5-17.3-20.7L978.3 96z"/><path class="st2" d="M610.6 34.6l62.2-18.1 10.4 11.7 24.6 1.3s17.7 17.7 16.4 17.7c-1.3 0-50.6 11.2-50.6 11.2l-28.1-15.1-24.2.4-10.7-9.1z"/><path class="st3" d="M724.2 47.2l-23.7-10.4-29.9 3-2.5 4.8L646 33.3l-35.4 1.3 10.8 9.1 24.2-.4 28.1 15.1z"/></g><g id="mountains"><path class="st4" d="M92.9 343.2L172 224.8l102.4-76.9 49.7-82.1 51.8 60.9 23.4-14.3 48.4 59.7 29.4-5.2 120.1 175.4-278.7-3.9z"/><path class="st2" d="M344.4 159.5l19.9-23.7 16 16 17.2 6.9 5.7-8.7 9.9 13.9 4.8-13.4 17.9 6.9-36.5-45-23.4 14.3-51.8-60.9-49.7 82.1-35.4 26.5 2.5-.2 38.9-21.1 18.2-28.1-8.7 34.5 20.8-13.4 6.5 11.3 11.2-13.4z"/><path class="st4" d="M832.3 284.4l83.8-83.8 27.7 8.6 87.3-81.6 16.4 12.1 24.6-28.6 70.4 73.1 33.3-22.9 41.5 46.2-9.9 159-433-6.5z"/><path class="st2" d="M1175.8 161.3l-33.3 22.9-70.4-73.1-24.6 28.6-16.4-12.1-87.3 81.6-27.7-8.6-38.4 38.3 28.9-19.7 3 16.4 18.2-19.5-1.3 10.4 41.5-19.9 24.2-24.6 9 1.7 27.7-20.3-13.8 25.5 23.7-22 .9 16.8 23.3-19.8 16 35.8 16.9-23.7 9.9 13.8 6.1-14.7 54 41.9-12.1-20.7 12.1-10.8 12.5 10.3 4.3-9 25.2 10.2z"/><g><path class="st5" d="M-38 223l81-76 16 13 51-60 66 95 136 142-337 8z"/><path class="st2" d="M20.4 177.5l.6 8.3 15.3-12.2 3.3 7.8 17.3-16.5 5.7 8.7L82.3 150l7.2 8.6 12.8-11 26.6 24.8-8.1-26.3 9.6 1.8 9.5 13.7 12.5-.5L110 100l-51 60-16-13-34.8 32.7z"/></g><g><path class="st5" d="M497.8 243.4l61.4-61.4 12.9 13.8 53.6-70 21.6 20.3 44.5-51.8 53.2 77.3 25.9-15.1 54.9 51 23.8-15.1 170.2 155.1-612.3-3z"/><path class="st2" d="M572.1 195.8L559.2 182l-54.8 54.8 7.2-2.9 38.9-31.2 3.5 9.6 13.8-10.9-13.4 22.5 18.6-10.4 26.3-28 8.3.8L627 166l4.8 12.5 18.1 9.1 21.2-27.2 9.5 11.7 16-16 6.5 8.2 6.9-12.1 43.2 47.5 7.3-5.2 16.9 8.7 12.5-7.8 19.5 28.5 9-6.5 25.1 7 20.3 10.3 23.4 7.4 14.2-2.5-51.8-47.2-23.8 15.1-54.9-51-25.9 15.1-53.2-77.3-44.5 51.8-21.6-20.3z"/></g></g><g id="woman"><path class="st6" d="M254.7 220.6l-36-1.4-1.1 47.7 23.1 6.6z"/><path class="st7" d="M278 253.4l27.1 5.7-1.5 10.7-9-2.6z"/><path class="st8" d="M266.2 244.1l9.3 16.9 19.1 6.2-20-33.4z"/><path class="st9" d="M267.4 256l7.2-22.2-12.5-3z"/><path class="st10" d="M294 194.8l3.5 9.8-6.8 2-.9-2.5 4.7-1.1-1.6-3.4z"/><path class="st11" d="M230.9 209.6l8.2 10.9-.3-19.9z"/><path class="st9" d="M297.4 178.3l-30.7-6.7 15.7-12.5z"/><path class="st3" d="M297.4 178.3l-8.2 44.7-19.5-2.8-7.6 10.6-11.4 6.3-11.6-16.6-.1-19.2 28.3-29.7z"/><path class="st4" d="M266.5 181.5l4.8 7.5 4.3 9.9 1.5 3.8 2.5-3 .5-6.7 12.4-5.5-9.8-2.6-4.8-.8z"/><path class="st12" d="M262.4 170.5l-8.5 46.9 8.2 13.4-11.4 6.3-11.6-16.6-8.2-10.9 11.7-19.5z"/><path class="st10" d="M249.5 189.1l.4 11-11.8.1.7-3.2 8-.1v-5.2z"/><path class="st13" d="M267.7 172.9L239 201.3l-8.1 8.3-4.1-32.1 24.8-23.5 30.8 5.1z"/><path class="st9" d="M226.8 177.5l-18.7 8 22.8 24.1z"/><path class="st14" d="M269.7 220.2l-20.8-3.9 13.2 14.5z"/><path class="st9" d="M266.5 181.5l12 .6-.6 2zM283.2 185l9.8 2.5-9.3-4.5M272.2 190.2c-.2 1.5-1.1 2.5-2.2 2.4-1-.1-1.7-1.4-1.6-2.8.2-1.5 1.1-2.5 2.2-2.4 1.1.1 1.8 1.3 1.6 2.8zM288 192.7c-.2 1.5-1.1 2.5-2.2 2.4-1-.1-1.7-1.4-1.6-2.8.2-1.5 1.1-2.5 2.2-2.4 1.1.1 1.8 1.4 1.6 2.8z"/><path class="st2" d="M277.9 184.1l-2.3 14.8 4 .8 2.9-14.8z"/><path class="st8" d="M268.9 207.6l7.6-.7 5.4 3.5-6.5-.2z"/><path class="st15" d="M268.9 207.6l-4.2-1.5 10.6 7.1 10.6-2.6-4-.2-6.5-.2zM243.6 227.1l-7.7-.2-1.7 30.3-1.7 22.2 19.7-4-1.5-38.3z"/><path class="st13" d="M250.7 237.1l11.4-6.3 7 12.2-3.6 30.1-13.3 2.3z"/><path class="st16" d="M232.5 279.4l33.3-8.7-.1 7.3-32.3 6.3z"/><path class="st6" d="M233.4 284.3l5.3 25.4 48.1-10.2-21.1-21.5z"/><path class="st9" d="M235.9 226.9l-1.7 29.6-9-28.5z"/><path class="st3" d="M305.1 259.1l9-.2-1 10.5-9.5.4z"/><path class="st12" d="M314.1 258.9l4.7 4.1-.3 4.8-5.4 1.6z"/><path class="st7" d="M234.2 256.5l-13.7 2.4-7.6-8 12.3-22.9z"/><path class="st16" d="M212.9 250.9l-4.5 20.4 7.5 4.8 4.6-17.2z"/><path class="st3" d="M208.4 271.3l-.7 7 7.8 6.5.4-8.7z"/><path fill-rule="evenodd" clip-rule="evenodd" fill="#ccc" d="M207.9 279l3.4 9.3 4.2-3.5z"/><path class="st9" d="M239.1 220.5l-.3-19.9-7.9 9z"/></g><g id="man"><path class="st18" d="M382.7 193.7l-11 11-2-12z"/><path class="st14" d="M372.3 162.7l11.2 18.3-.8 12.7-12.5 1.1z"/><path class="st6" d="M344.6 153.4L307.7 165l24 68.1 30.7-5z"/><path fill-rule="evenodd" clip-rule="evenodd" fill="#a5a5a5" d="M337.2 165.8l18.7 6.4 7.8 42.7-21 4.8-7-24.4-2-28.5z"/><path class="st10" d="M365.2 157.9l5.8 30.6 6.5-7.5-5.5-23.8z"/><path class="st3" d="M327.9 105l45.4-7.2 14 53.2-22.9 6.3-8 15.1-19.2-6.6v-6.6l-2.6-14.5-8.2.9-1.7-12 9.7-1.7z"/><path class="st12" d="M336.5 103.5l15.7 57.1 12.7-3.4-8.5 15.2-19.2-6.6v-6.6l-2.6-14.5-8.2.9-1.7-11.6 9.7-2.1-6.5-26.9z"/><path class="st4" d="M347.7 117.6l8.4 5.1 8.1 13.8 3.1 2.9 1.7-4-4.1-14.7 9.5-10.3-7.9 1.6z"/><path class="st2" d="M358.6 114l5.2-1 5.2 22.4-4.8 1.1z"/><path class="st9" d="M357.2 123.7c0 1.3-.8 2.2-2 2.2-1.1-.1-2-1.1-2.1-2.4 0-1.3.8-2.2 2-2.2 1.2.1 2.1 1.1 2.1 2.4z"/><path fill-rule="evenodd" clip-rule="evenodd" fill="#929292" d="M356.8 144.2L369 143l7.9-2.9.4 1.9-7.9 2.2-12.1 1.6z"/><path class="st14" d="M367.8 156.5L347 162l8.9 10.2z"/><path class="st9" d="M327.9 104.6l-10.4 3-8.8 29.5 28.5 22.1-2.6-14.5-8.2.9-1.7-11.6 9.7-2.1-2.3-11.7z"/><path class="st21" d="M327.2 137.1l4.5-.9 1.1 5.5z"/><path class="st9" d="M347.7 117.6l5.5-3.6 6.5-.5zM374.4 110.4l-12.1 2.9 5.6-2.9M372.2 120.3c0 1.3-.8 2.2-2 2.2-1.1-.1-2-1.1-2.1-2.4 0-1.3.8-2.2 2-2.2 1.2.1 2.1 1.1 2.1 2.4z"/><path class="st13" d="M317.5 107.6l20.3 1 35.5-10.8-44.8-5.9z"/><path fill-rule="evenodd" clip-rule="evenodd" fill="#bababa" d="M328.5 91.9L347 74.8l26.3 23z"/><path class="st13" d="M347 74.8l28.9-10.6-2.6 33.6z"/><path class="st9" d="M369.9 77.6l6-13.4 14.9 8.7-7 13.8z"/><path class="st10" d="M337.2 165.8l-11.7 3.3 10.2 26.2 6.5-2.1z"/><path class="st15" d="M355.9 172.2l9.7-12.6 5.4 28.9 3.3 21.2-10.6 5.2z"/><path class="st9" d="M342.7 219.7l20.7-6.6 10.7-2.9 1.4 8.4-31.4 8.4z"/><path class="st7" d="M344.1 227l21.7 12.9 9.7-21.3z"/><path class="st15" d="M375.5 218.6l22.7 34-13.9 8.9-18.5-21.6z"/><path class="st13" d="M384.3 261.5l13.9-8.9 5 10.5-17.3.6zM365.8 239.9l-5.5 25-15.5.8-.7-38.7z"/><path class="st18" d="M325.5 169.1l-.5 45.4 17.7 5.2-7-24.4z"/><path class="st23" d="M335.7 195.3l-15.3-14.4 9.2 24.4z"/><path class="st2" d="M320.4 180.9l10.8-6 7.1 17.5-2.6 2.9z"/><path fill-rule="evenodd" clip-rule="evenodd" fill="#fffeff" d="M383.5 181h-6l-6-17.8 10.4 3.6z"/></g><g id="text"><path class="st25" d="M721 107l-1.5 20-13.5-7 1-19z"/><path class="st26" d="M720 65.5l1 17.5-11.5-3.5L709 55z"/><path class="st27" d="M763.5 141h-42l7-19.5H764z"/><path class="st28" d="M728.5 121.5L706 120l1-19-20.5-15.5-3 55 38 .5z"/><path class="st29" d="M707 101l35.5-2.5L742 82l-32.5-2.5L709 55l24.5.5 8-20.5-53-1-2 51.5z"/><path class="st30" d="M733.5 55.5l38 .5 1-21.5-31 .5z"/><path class="st29" d="M771.5 56l7 8 2-21-8-8.5z"/><path class="st26" d="M771.5 56l-38-.5 8 9.5 37-1z"/><path class="st30" d="M741.5 65l-21.5.5L709 55l24.5.5zM742 82l9 11.5-2.5 12-6-7z"/><path class="st26" d="M742.5 98.5L707 101l14 6 27.5-1.5z"/><path class="st28" d="M764 121.5l9.5 10L772 153l-8.5-12z"/><path class="st25" d="M763.5 141l8.5 12-45 1.5-5.5-13.5z"/><path class="st31" d="M721.5 141l-38-.5 15 15 28.5-1z"/><g><path class="st32" d="M845.5 42L834 82l15 6.5zM826 99l-2.5 11-11 2.5-2-39z"/><path class="st29" d="M840.5 130l23-25 22.5 8 12.5 37.5-47.5.5z"/><path class="st28" d="M878.5 90.5L886 113l-22.5-8z"/><path class="st29" d="M783 149l3-48.5 26.5 12V147z"/><path class="st27" d="M812.5 112.5l-2-39 30 56.5 38-39.5-13.5-49-19.5.5 3.5 46.5-36.5-49-23-.5-3.5 61.5z"/><path class="st30" d="M812.5 112.5l11-2.5-4.5 51-6.5-14z"/><path class="st26" d="M812.5 147l6.5 14-24 1-12-13zM851 151l8 13.5 32 4 7.5-18z"/></g><g><path class="st30" d="M707 185.5l10 3 .5 11L707 195z"/><path class="st27" d="M683 154l66.5-3.5 8 21.5-49.5 3-1 10.5-23.5-9z"/><path class="st29" d="M749.5 150.5l19-.5 2.5 21-13.5 1zM707 185.5v9.5l31.5 2.5L736 215l-27-1-4 38.5-30 3.5 8.5-79.5z"/><path class="st27" d="M675 256l-5 49 35.5 2-.5-54.5z"/><path class="st30" d="M768.5 150l15.5 13-2.5 26.5L771 171z"/><path class="st26" d="M757.5 172l13.5-1 10.5 18.5L755 187z"/><path class="st31" d="M757.5 172l-2.5 15-37-2-10-10z"/><path class="st25" d="M708 175l10 10-1 3.5-10-3z"/><path class="st30" d="M738.5 197.5l12 11-2.5 21-12-14.5z"/><path class="st26" d="M736 215l-27-1 12 17.5 27-2z"/><path class="st30" d="M709 214l-4 38.5 17 11-1-32z"/><path class="st25" d="M705 252.5l.5 54.5 17 1.5-.5-45z"/></g><path class="st30" d="M834.5 238.5s15 3.5 34 0 31.5-25.5 22-50-15-19.5-15-19.5 15.5 35-6.5 46-34.5 23.5-34.5 23.5zM809 232l18 4 2.5 53.5-22-1zM810 204.5l16 4V224l-16.5-7.5z"/><path class="st31" d="M811.5 178.5L827 189s13.5-3.5 27.5-1.5S879 193 879 193l-7.5-16.5s-20-5.5-34-5.5-26 7.5-26 7.5z"/><path class="st27" d="M790.5 162s59-7.5 80.5-1 22.5 42.5 22.5 42.5l-28.5-10s-3.5-14.5-26-15-27.5 0-27.5 0l-1.5 26-25 5 5.5-47.5z"/><path class="st29" d="M865 193.5s1 24-25.5 24-30-1-30-1l.5-12-25 5-1 20 26 20V235s26.3 8.1 48 2.5c37-9.5 35.5-34 35.5-34l-28.5-10z"/><path fill-rule="evenodd" clip-rule="evenodd" fill="#83a55c" d="M810 249.5l-28 2 2-22z"/><path class="st29" d="M782 251.5l-3 53.5 34-.5-3-55z"/><path class="st25" d="M827 189l-1 19.5-16-4 1.5-26z"/></g><g id="trees"><path class="st7" d="M954.3 251.9l-2 44 10.5-2.5v-41.5z"/><path class="st30" d="M929.3 232.9l-25.5 21 112 10-19.5-28z"/><path class="st29" d="M945.8 200.9l-41.5 35.5 119 6-29.5-41.5z"/><path class="st30" d="M948.3 174.4l-20 31.5 82-3.5-28-44z"/><path class="st29" d="M931.8 186.9l39.5-57 26.5 29.5z"/><g><path class="st7" d="M1107.2 236.5l2 34.5h6.5l-2.5-36.5z"/><path class="st30" d="M1083.2 243.5l63-7-21-14-36 1z"/><path class="st29" d="M1079.7 228l59.5-4.5-20-11.5-23-3.5z"/><path class="st30" d="M1084.2 213l51 2-20-29.5-14.5 5.5z"/><path class="st29" d="M1090.7 196.5l36.5-5.5-21-24.5z"/></g><g><path class="st7" d="M608.3 269.5l-4 30.5 3 .5 4.5-31z"/><path class="st30" d="M591.3 270.5l14.5-11.5h12l8.5 15.5z"/><path class="st29" d="M594.8 261.5l16-17.5 10 1.5 9 22z"/><path class="st30" d="M602.3 249l29 2-10.5-20.5h-8.5z"/><path fill-rule="evenodd" clip-rule="evenodd" fill="#52ae8a" d="M603.8 233l26-.5-15.5-23.5z"/></g><g><path class="st7" d="M38.8 313l-1.3 30.5h-4.3l1.6-32.3z"/><path class="st30" d="M54.7 319.2L13 313l13.9-12.4 23.8.9z"/><path class="st29" d="M57 305.4l-39.4-3.9 13.3-10.2 15.2-3.1z"/><path class="st30" d="M54 292.2l-33.7 1.7 13.2-26.1 9.6 4.9z"/><path class="st29" d="M49.7 277.6l-24.1-4.9L39.5 251z"/></g><g><path class="st7" d="M132.5 267l3 34.5H130l-2.5-35z"/><path class="st30" d="M106 272l51-5.5-15.5-17.5-27 3z"/><path class="st29" d="M106 256l44.5-2.5-11-18.5-22.5-1.5z"/><path class="st30" d="M107.5 238.5L147 240l-17-23-8-.5z"/><path class="st29" d="M114 221.5l25 2.5-7-37z"/></g></g><g id="rocks"><path class="st4" d="M69.5 313.5l-88.5-8-4 39.5 73-10.5z"/><path class="st21" d="M120.5 326.5L105 295l-52 1.5-8 31.5z"/><path class="st35" d="M105 295l35-5 38 47.5-57.5-11z"/><path class="st23" d="M140 290l-63-5-24 11.5 49.5-1z"/><path class="st4" d="M923 286.5l-93-3.5 55 19.5z"/><path class="st7" d="M1154.5 273l28 14-2 11.5-37.5 8.5-22-7z"/><path class="st35" d="M1033.5 289.5L1063 260l91.5 13-43 36z"/><path class="st7" d="M983.5 280.5L945 283l-13 30.5 76-9z"/><path class="st23" d="M945 283l42-15.5-3.5 13z"/><path class="st35" d="M984.5 267.5l43 30.5-19.5 6.5-24.5-24z"/><path class="st11" d="M1063.5 324l-7-13 16.5-34 81.5 34.5z"/><path class="st21" d="M877 304l46-17.5 41 22-62 10z"/><path class="st35" d="M914 313l-65-26 5 37z"/><path class="st4" d="M514.5 334.5l71-8 43.5 9-89.5 17z"/><path class="st36" d="M423.5 339.5l55 40h-139l-64-14z"/><path class="st35" d="M305 334l143.5-4 27.5 2.5-200.5 33z"/><path class="st37" d="M175.5 365l45-27 84.5-4-29.5 31.5z"/><path class="st35" d="M201 315.5l49.5 4.5-30 18-29.5 6.5z"/><path class="st21" d="M142.5 331l58.5-15.5-3 28.5zM332.5 260L320 281.5l18.5-8z"/><path class="st35" d="M389.5 262.5l-14 30 116-21z"/><path class="st23" d="M389.5 262.5l168-9.5 48.5 36.5-120.5-17z"/><path class="st21" d="M375.5 292.5l110-20L575 285l-122.5 24.5z"/><path class="st35" d="M389.5 262.5l-57-2.5 6 13.5z"/><path class="st37" d="M389.5 262.5l-51 11-101 31.5 96 14 42-26.5z"/><path class="st35" d="M375.5 292.5l77 17-4 20.5-115-11z"/><path class="st36" d="M448.5 330l-228 8 17-33 96 14z"/><path class="st4" d="M220.5 338L99 320l-49.5 51 126-6z"/><path class="st35" d="M99 320l-106 6.5-9.5 44 66 .5z"/><path class="st37" d="M425.5 341l50.5-8.5 36.5 2 63.5 33-97.5 12z"/><path class="st21" d="M452.5 309.5L516 322l-3.5 12.5-64-4.5z"/><path class="st37" d="M452.5 309.5L575 285l31 4.5-90 32.5z"/><path class="st35" d="M516 322l90-32.5 104.5 16-12 11-186 18z"/><path class="st37" d="M585.5 326.5l43.5 9 99 8 39-27h-68.5z"/><path class="st21" d="M698.5 316.5L724 288l42.5 13 .5 15.5z"/><path class="st4" d="M724 288l44-3.5-1.5 16.5z"/><path class="st35" d="M679.5 339.5l-103.5 28-32.5-17.5 85.5-14.5z"/><path class="st21" d="M679.5 339.5l48.5 4-9.5 35.5L576 367.5z"/><path class="st7" d="M728 343.5l123-7-8 23L718.5 379z"/><path class="st4" d="M767 316.5l73 4 11 16-123 7z"/><path class="st37" d="M851 336.5l139.5 5-2-41-148.5 20z"/><path class="st21" d="M851 336.5l139.5 5 22 28-169.5-10zM860 317.5l-20 3-30-1.5 16-45 21.5-11.5z"/><path class="st35" d="M826 274l-58.5-7 .5 17.5-1.5 16.5.5 15.5 43 2.5z"/><path class="st23" d="M767.5 267l49-9.5 31 5L826 274z"/><path fill-rule="evenodd" clip-rule="evenodd" fill="#bfbfbf" d="M988.5 300.5l68 10.5 7 13-73 17.5z"/><path class="st7" d="M990.5 341.5l73-17.5 34 9-85 36.5z"/><path class="st37" d="M1012.5 369.5l85-36.5 87-10-6 43.5z"/><path class="st23" d="M1063.5 324l117-25.5 4 24.5-87 10z"/><path class="st37" d="M1073 277l-84.5 23.5 68 10.5z"/></g><g id="character"><path class="st39" d="M559.6 282.9l-73.6-6.8-62.7 6.9 59.6 2.9z"/><path class="st40" d="M450 263.5l1.4 6-1.1 4.6.1 8.8 30 .3-.2-9.5-11.3-1-7.1-4.2-2.8-4.6z"/><path class="st26" d="M468.9 272.7l-7.1 8-11.5-6.6-.3-10.6 4.5-1.9 4.5 2.3z"/><path class="st40" d="M530.4 232.3l5.6 3 2.1 4.2 6.5 6.1 21.1-21.4-7-6.4-8.6 7.4-7.5 2.4-8.9-1.7z"/><path class="st26" d="M550.1 225.2l.8 10.7-12.8 3.6-7.7-7.2 3.3-6.4z"/><path class="st41" d="M515.4 196.1l26.9 24.4-14.3 14.7-41.4-6.9-20.4 35.9-20.1-.9.7-59 7.8-22z"/><path class="st42" d="M509.7 202.7l29.4 21.1-3.4 3.2-32.5-16.5zM496.1 218.9l3.4-4 33.9 14.7-3 2.7-43.4-10.7 1.2-13.3zM478.2 220.5l-12.9 35.6-6.9-.7 11.4-46.7zM464 200.6l-9.8 54.4-4.9-.4 2.5-43.2z"/><path class="st43" d="M519.3 233.8l8.7 1.4 14.3-14.7-5.6-4.9zM470.6 256.6l-24.4-2.4-.1 9.1 20.1.9z"/><path class="st39" d="M537.2 225.8l.9 13.7-7.5-7zM450 263.5l9 .4-8.9 4.7z"/><path class="st41" d="M415.1 182.5l24.8 16.8 6.7-13.6z"/><path class="st44" d="M423.3 115.7l53.6.5-8.7 11.2-20.5.8z"/><path class="st45" d="M448.2 124l-24.9-8.3-2.2 17.7-.1 13.4-2.8 10.5-3.1 25.2 40.7 5.8z"/><path class="st41" d="M469.4 121.4l-21.2 2.6-1.1 9.4-3.5 53.5 37.6-8.2z"/><path class="st26" d="M449.1 113.1l23-4.5 1.3-6.7-4-7.3-9.2 5.9z"/><path class="st46" d="M547.1 68.8l-5.7 28.4-7.1 17.5-3.4 12.4-23.3-4-10 23.1-6.7 4.8-12.7-11.5-8.8-44.9L499.7 67l31.8-15.1z"/><path class="st47" d="M525.4 54.8l21.8 14.1-7.7-11.9-8-5.1-4-.4z"/><path class="st48" d="M519.7 95.2L515.6 77l-4.7-9.1 12.1-.3.4 5.5zM528.5 74l3-4.6 10.3 5.2-15.9 14.1z"/><path class="st47" d="M524.6 96.1l-3.2 2.9-1.7-3.8z"/><path class="st48" d="M499.7 67l-11.1 52.1 9.4 8 4.6 7.5-.3 6.1-4.7 5.5-6.7 4.8-12.7-11.5-4.5-13.2-1.6-17.7 1.3-6.7-4-7.3z"/><path fill-rule="evenodd" clip-rule="evenodd" fill="#ffeae0" d="M528.5 74l-3.9 22.1-4.9-.9 3.7-22.1z"/><path class="st47" d="M499.7 67l-11.1 18.2-11 7 11.5 4.5-17 11.9-2.7-14 11-12z"/><path class="st25" d="M531.5 69.4l7-1.2 3.3 6.4zM523 67.6l-5.1-3.3-7 3.6z"/><path class="st50" d="M535.7 79c-1.4-.3-3 1.2-3.5 3.5-.6 2.3.1 4.4 1.5 4.7 1.4.3 3-1.2 3.5-3.5.6-2.3-.1-4.4-1.5-4.7zM515.4 74.4c-1.4-.3-3 1.2-3.5 3.5-.6 2.3.1 4.4 1.5 4.7 1.4.3 3-1.2 3.5-3.5.6-2.2-.1-4.3-1.5-4.7z"/><path class="st25" d="M533 107.9l-15.3 9.4-14.2-14.5z"/><path class="st2" d="M529.2 108.2l-9.5.3-12.5-4.3 8.2 7.5 5.8 1z"/><path class="st51" d="M533 107.9l-12.5-4-17-1.1 16.2 6.2z"/><path class="st29" d="M531.5 51.9L499.7 67l-30.1 16.4-28.7 11.5-3.6-15 1.4-12 28.6-6.2 24.2-2.9 16.3-4.1z"/><path class="st30" d="M499.7 67l-58.8 27.9 8.2 18.2zM491.5 58.8L476 34.3l-37.3 33.6z"/><path class="st30" d="M438.7 67.9l-15.4 14.6 17.6 12.4z"/><path class="st40" d="M531.5 51.9l-6.9-17.3-48.6-.3 15.5 24.5z"/><path class="st30" d="M547.1 68.8l-12.8 45.9 6.4-4.6 5.8-1.4 6-2.9-.9-32.1-.7-4.1z"/><path class="st29" d="M531.5 51.9l20.1 21.8 10.9-13.4-37.9-25.7z"/><path class="st27" d="M488.3 77.4l.8 19.3-24.5 2.2 6.7-6 12.6-1.3-.2-10zM541.4 89.2l5.1 19.5-12.2 6 2.4-8.5 3.6-1.5-1.6-5.8z"/><path class="st47" d="M507.6 123.1l-27.5-5.8 22.5 17.3z"/><path class="st25" d="M490.9 151l7.1 4.4 14.7 10.2-.7 6.2 2 7.7 1.4 16.6-19.3 22.8-7.9-10.6-10 12.2L460 195l-4.9-7.2v-6.1l1.8-7.4-.4-7.2 24.8-11.4z"/><path class="st51" d="M472.1 108.6l-3.9 18.8 4.7 7.9 5.3 4.2zM507.6 123.1l-5 11.5-5 11.6 8.3-4 4.4-5.7z"/><path class="st27" d="M490.9 151l-12.7-11.5-10-12.1-5.9 14.5-6.5 22.8 19.2-4.9 6.3-4.1 5.6-.8zM510.3 136.5l-12.7 9.7-6.7 4.8 11.8 9 10 5.6.1-15.9z"/><path class="st52" d="M490.9 151l23.1 28.5-1.3-13.9z"/><path class="st52" d="M455.8 164.7l-.7 17 35.8-30.7z"/><path class="st45" d="M468.2 127.4l-21.1 6 3 18 5.7 13.3 5.4-16.5z"/><path class="st25" d="M455.8 164.7l-8.7-31.3-18.2 41.7 13.4-3.8 6.8-4z"/><path class="st27" d="M428.9 175.1l14.4 31.7 3.5-2.5 7.8-3.5 5.4-5.8-10.9-27.7z"/><path class="st45" d="M510.3 136.5l13.4 10.3-2.9 9.3-8.1 9.5z"/><path class="st27" d="M523.7 146.8l18.1 14.2-3.8 7.9-8 8.8-17.3-12.1z"/><path class="st25" d="M530 177.7l11.8-16.7 9.1-12.4 5.9 1.5 3 4.5 5.4 3.7-26.9 25.2z"/><path class="st42" d="M498.3 156l-8.3 8.7-8.4-10.1 9.3-3.6z"/><path class="st41" d="M490 164.7l-10.9 29.7 9.1 13.9 9.7-13.6z"/><path class="st46" d="M550.9 148.6l5.5-14.5 8.5 3 7.7 7-12.8 10.5z"/><path class="st48" d="M557.3 141.9l-2.1-17.6-4.6.7.3 23.6zM556.4 134.1l13.3-15.8 9.1 6.6-6.2 19.2zM460 195l4 5.6-12.2 10.8-5-7.1z"/><path class="st42" d="M497.9 194.7l-18.8-.3 9.1 13.9z"/><path fill-rule="evenodd" clip-rule="evenodd" fill="#9da1a2" d="M421.1 133.4l6.2 3.9 9 1.6-3.7 25.1-14.4-6.7 1.3-11.1 2-4.7z"/><path class="st44" d="M436.3 138.9l-16.8 7.3 1.6-12.8z"/></g></svg>