<svg id="illustration" xmlns="http://www.w3.org/2000/svg" viewBox="0 0 1170 350"><style>.st1{fill:#c6c6c6}.st3{fill:#fff}.st5{opacity:.1;fill:#2b2b2b}.st6{fill:#7a7a7a}.st10{fill:#d8d8d8}.st11{fill:#c1c1c1}.st12{fill:#ccc}.st13{fill:#bababa}.st16{fill:#b2b2b2}.st17{fill:none;stroke:#c1c1c1;stroke-width:2;stroke-miterlimit:10;stroke-dasharray:8,8}.st18{fill:#96637c}.st19{fill:#9b9b9b}.st20,.st21,.st22{fill-rule:evenodd;clip-rule:evenodd}.st20{opacity:.2}.st21,.st22{fill:#b3889d}.st22{fill:#734c5f}.st23{fill:#543042}.st24{fill:#ebbea7}.st25{fill:#734d60}.st26{fill:#fcdac7}.st27{fill:#c2927d}.st28{fill:#a3a3a3}.st29{fill:#2b2b2b}.st30{fill:#4f5253}.st31{fill:#474747}.st32{fill:#fde9e0}.st34{fill:#b3889d}.st36{fill:#d1a1b8}.st37,.st40,.st41{fill-rule:evenodd;clip-rule:evenodd;fill:#848484}.st40,.st41{fill:#9075a0}.st41{fill:#96637c}.st42{fill:#6b6b6b}.st43{fill:#8e8e8e}.st44{fill:#757575}.st46{fill:#d3d3d3}.st49{fill:#9fa0a0}.st52{fill:#afafaf}.st53,.st54{fill-rule:evenodd;clip-rule:evenodd;fill:#6b6b6b}.st54{fill:#757575}.st55,.st56,.st57,.st58,.st59,.st60{fill-rule:evenodd;clip-rule:evenodd;fill:#ececeb}.st56,.st57,.st58,.st59,.st60{fill:#a3a3a3}.st57,.st58,.st59,.st60{fill:#8e8e8e}.st58,.st59,.st60{fill:#d3d3d3}.st59,.st60{fill:#fff}.st60{fill:#474747}.st61,.st62,.st64,.st67,.st68,.st69{fill-rule:evenodd;clip-rule:evenodd;fill:#9b9b9b}.st62,.st64,.st67,.st68,.st69{fill:#7a7a7a}.st64,.st67,.st68,.st69{fill:#838484}.st67,.st68,.st69{fill:#9fa0a0}.st68,.st69{fill:#939393}.st69{fill:#afafaf}.st70,.st71,.st72,.st73,.st74,.st75{fill-rule:evenodd;clip-rule:evenodd;fill:#828282}.st71,.st72,.st73,.st74,.st75{fill:#727272}.st72,.st73,.st74,.st75{fill:#999}.st73,.st74,.st75{fill:#aaa}.st74,.st75{fill:#b2b2b2}.st75{fill:#969696}</style><g id="background"><path fill="#f2f2f2" d="M36 59.3h242.7v229.2H36z"/><path class="st1" d="M232 259.6l-62.7-57.3-54.9 48.5z"/><path fill="#aaa" d="M47.3 350l224.6-180.5V350z"/><ellipse transform="rotate(-76.632 147.33431003 150.33448201)" class="st3" cx="147.3" cy="150.3" rx="29.7" ry="29.7"/><path fill="#a8a8a8" d="M146.3 288.5h132.4V350H146.3z"/><path class="st5" d="M147 288.5v24.2l20.3-6 41.4 12.6-5 30.7h5l5.6-30.7 26.5-12.6 24.2 14.7h13.7v-32.9z"/><path class="st6" d="M203.7 313h17.5v8.4h-17.5zM223.3 313h17.5v8.4h-17.5zM203.7 324h17.5v8.4h-17.5zM223.3 324h17.5v8.4h-17.5z"/><path fill="#e8e8e8" d="M137.5 239.3v69.4l30.6-16 26.9 15-10.5 42.3h4.4l10.6-42.8 28-15.2 24.6 15.4-10.6 42.6h4.4l10.2-41.3h33.4v-69.4z"/><path transform="rotate(-180 74.9011 296.46535)" fill="#919191" d="M0 242.9h149.8V350H0z"/><path class="st1" d="M228.5 292.6l-2-.1 13.6-53.2h2.1zM169 293.2l-1.4-1.3 16.4-52.6h2z"/><path class="st5" d="M48.2 301.3l60.5-26.6 41.1 18.4v-50.2H15.2z"/><path fill="#ddd" d="M143.5 157.3l46 192.7h-7.6l-18.4-74.5-52.7-26.5-42.9 26.8L86.3 350h-7.6l-17.8-72H6.8V157.3z"/><path class="st1" d="M109.8 249.6l-15.7-92.3h2.3l15.6 92.3z"/></g><g id="tent"><path class="st10" d="M0 0v350h61V99.5h195V350h914V0z"/><path class="st11" d="M0 350h61V99.5h188.5l7-28.5 22.2-71H0z"/><path class="st10" d="M0 202.3L61 99.5l60.3-97L0 0z"/><path class="st12" d="M61 99.5L58.8 88h6.7z"/><path class="st13" d="M58.8 88l3.3-5.7h3.4l1 3.2-1 2.5z"/><path class="st11" d="M918.7 0h-372l-24.8 350h467.5zM1025.1 0L1170 350V0z"/><path class="st12" d="M61 99.5l-5-14L62 71h194.5l8.5 14.3-6.5 6.9-2.5 7.3-97.5-3.1z"/><path class="st13" d="M256 99.5l9-14.2-211 .2 7 14z"/><path fill="#a5a5a5" d="M62 71l4.5 14.5-5.5 14-7-14z"/><path class="st12" d="M61 99.5l-2.2-14h7.7z"/></g><g id="board"><path fill="#a0a0a0" d="M463.5 28.7h17.7v309.8h-17.7z"/><path class="st5" d="M463.5 221.8h17.7v28.8h-17.7zM463.5 28.8h17.7V38h-17.7z"/><path class="st16" d="M438.2 332.3h68.4v17.5h-68.4zM438.2 22.1h68.4v8.8h-68.4z"/><path class="st3" d="M314.3 52h316.1v187.3H314.3z"/><path class="st16" d="M309.2 52h326.3v7.3H309.2z"/><path transform="rotate(-11.275 378.25522593 41.4029952)" class="st16" d="M314 39.9h128.4v3H314z"/><path transform="matrix(.1958 -.9806 .9806 .1958 414.9382 588.841)" class="st16" d="M565-22.7h3v128.4h-3z"/><path class="st17" d="M418.8 57.3l7.7 23 14.9 2 4.7 32.2 50.9 2.9 54 38.6-23 42.4 24.7 40.9"/><path class="st17" d="M446.1 114.5l-32.7 27.3-6.4 58.1-38.5 39.4M497 117.4L540 88l45 11.5 32-40.2M413.4 141.8l-37.4 8.9-61-40.6"/><path transform="rotate(-45 501.25199813 150.91332238)" class="st3" d="M493.5 143.2h15.4v15.4h-15.4z"/><path transform="rotate(-45 501.25258097 150.91328096)" class="st18" d="M497.7 147.4h7.1v7.1h-7.1z"/><path transform="rotate(-45 468.25283098 98.9126774)" class="st19" d="M464.7 95.4h7.1v7.1h-7.1z"/><path transform="rotate(-45 379.25138245 171.91207739)" class="st19" d="M375.7 168.4h7.1v7.1h-7.1z"/><path transform="rotate(-45 458.49327994 216.15398345)" class="st19" d="M454.9 212.6h7.1v7.1h-7.1z"/><path transform="rotate(-45 574.41694655 187.92720074)" class="st19" d="M570.9 184.4h7.1v7.1h-7.1z"/><path transform="rotate(-45 509.25326382 81.91299812)" class="st19" d="M505.7 78.4h7.1v7.1h-7.1z"/><path transform="rotate(-45 485.74243776 76.89048228)" class="st19" d="M482.2 73.3h7.1v7.1h-7.1z"/><path class="st5" d="M482.1 174l8.2 7.1-5.1 1.6-29.7 36.1-1.3 10.3-12.2 1.8 3 3.4-5.5 5H403l25.8-23.7 4.6 4.5 5.9-12.1 12.7 5.6 29.3-35.3z"/><path class="st20" d="M595.4 117.2l-.1 7.7 2.7 13.3-4.9-6.4 1-15.7z"/><path class="st21" d="M577 117.3l7.2 11.3 4.2-11.9z"/><path transform="matrix(1 -.00596 .00596 1 -.6813 3.4951)" class="st22" d="M577 115h18.4v2.3H577z"/><path class="st20" d="M574.4 144.7l-.1 7.8 2.7 13.3-5-6.5 1.1-15.7z"/><path class="st21" d="M556 144.8l7.2 11.3 4.2-11.9z"/><path transform="matrix(1 -.00596 .00596 1 -.8459 3.3703)" class="st22" d="M556 142.5h18.4v2.3H556z"/><g><path class="st20" d="M489.1 195.1l-.1 7.8 2.7 13.2-4.9-6.4 1-15.7z"/><path class="st21" d="M470.7 195.2l7.2 11.3 4.2-11.9z"/><path transform="matrix(1 -.00596 .00596 1 -1.1474 2.863)" class="st22" d="M470.7 192.9h18.4v2.3h-18.4z"/></g><g><path class="st20" d="M445.8 146.6l-.1 7.8 2.6 13.3-4.9-6.5 1.1-15.7z"/><path class="st21" d="M427.4 146.7l7.1 11.3 4.3-11.9z"/><path transform="matrix(1 -.006 .006 1 -.8656 2.6232)" class="st22" d="M427.4 144.4h18.4v2.3h-18.4z"/></g><g><path class="st20" d="M558.5 111.6l-.1 7.8 2.6 13.3-4.9-6.5 1.1-15.7z"/><path class="st21" d="M540.1 111.7l7.1 11.3 4.3-11.9z"/><path transform="matrix(1 -.00596 .00596 1 -.6488 3.2746)" class="st22" d="M540.1 109.4h18.4v2.3h-18.4z"/></g><g><path class="st20" d="M417.8 92.6l-.1 7.8 2.6 13.3-4.9-6.5 1.1-15.7z"/><path class="st21" d="M399.4 92.7l7.2 11.3 4.2-11.9z"/><path transform="matrix(1 -.006 .006 1 -.5421 2.4544)" class="st22" d="M399.4 90.4h18.4v2.3h-18.4z"/></g></g><g id="entj"><path id="_170305504_2_" class="st23" d="M342.6 327.9l-2.3 22.1h10.8l-1.4-8.8z"/><path id="_170305432_2_" class="st23" d="M304.1 325.3l-5.3 24.7h9.2z"/><path id="_170305360_2_" class="st24" d="M322.1 283.4l-10 44.8-2.3 15.5-2.4-4.3-3.3-14.1.1-18.8.9-17.1z"/><path id="_170305288_2_" class="st25" d="M312.1 328.5l7.1 21.5h-13.5l-1.6-24.7z"/><path id="_170305216_2_" class="st26" d="M351.9 277.8l.9 29.3-1.1 19.9 8.9 19.2-8-.7-10-17.6-5.8-47.1z"/><path id="_170305144_2_" class="st25" d="M351.7 327l16.7 23h-17.3l-8.5-22.1z"/><path id="_170305072_2_" class="st23" d="M285.8 288.7l39-8.8 42.5 9.9-10.6-36.7-22.2-25.6-35.4 32.8-3 2.7z"/><path id="_170305000_2_" class="st18" d="M308.5 300.5l-9-40.6 4.7-11.7 30.6-25.9 20.2 25.3-2.2 59.5-24.7-.3z"/><path id="_170304928_2_" class="st25" d="M304.2 306.5l-4.7-46.6 4.7-11.7 30.6-25.9 13.8 17.3-20.5 67.2z"/><path id="_170304856_2_" class="st27" d="M446.1 194.3l-4.9 6.6-3.9-2-.7-6.6z"/><path id="_170304784_2_" class="st24" d="M429 185.1l17.7-2 .6 13.4-18.9-2.9z"/><path id="_170304712_2_" class="st28" d="M430.6 197.4l55.9-38 2.6 3.7-56.2 37.8z"/><path id="_170304640_2_" class="st26" d="M427.3 186.9l16.2 3.3-1.7 3.9-15.3.6z"/><path id="_170304568_2_" class="st25" d="M430.3 183.5l-16.9 2-6 7 1.9 8 18.9 4z"/><path id="_170304496_2_" class="st23" d="M285.7 194.2l-6.1 38.6 16.6 7.7 6.7-.6 1.6-8 1.2-15.9-4.7-33.3-14.1 3.8z"/><path id="_170304424_2_" class="st25" d="M285.7 194.2l-1.7 10.9 17.1 8.5 3.7-3.7-3.8-27.2-14 3.5z"/><path id="_170304352_2_" class="st25" d="M279.6 232.8l16.5 10.2 6.8-3.1 1.6-8z"/><path id="_170304280_2_" class="st29" d="M227 150.8l22.8 30.9 6.4.2 5.8-19.2-3.4-7.6z"/><path id="_170304208_2_" class="st30" d="M348.1 128.6l-72.7 60.8-25.6-7.7 28.5-85.9z"/><path id="_170304136_2_" class="st29" d="M348.1 128.6l-8.3 27.5-64.4 33.3 33.3-79.3z"/><path id="_170304064_2_" class="st31" d="M357.8 70.8L376 99.4 360.4 138l-15.2-65.2z"/><path id="_170303992_2_" class="st29" d="M357.8 70.8L376 99.4l-30.8-26.6z"/><path id="_170303920_2_" class="st24" d="M314.1 185.3l-33.3-77.8 19-13.5 19.8 23.5 21.2 49.6-7.2 33.7z"/><path id="_170303848_2_" class="st26" d="M353.9 80.3l11.4 84.3-46.3 8.2-20-78.6z"/><path id="_170303776_2_" class="st3" d="M336.8 156.8l-7.3-2.7 7.8-2.3 5.8 1.2 6.2-.9 2.3.3-10.3 4.7z"/><path id="_170303704_2_" class="st27" d="M340.6 168.8l-7 32.2-19.7-27.7z"/><path id="_170303632_2_" class="st31" d="M294.2 103.2l14.3 69.1-36.6-57.2z"/><path id="_170303560_2_" class="st32" d="M303.9 129.9l-11.4 2.6 5.9 14.6 9.6-3.9z"/><path id="_170303488_2_" class="st27" d="M301.5 133.3l-5.3 1.5 2.3 4.2z"/><path id="_170303416_2_" fill="#7f405f" d="M304.2 141.1l2.7 8.4-4.3 1.2-2.2-8.3z"/><path id="_170303344_2_" class="st32" d="M340.9 116.6l5.4 22.7-8.1 1.1-3.4-23z"/><path id="_170303272_2_" class="st27" d="M341.8 144.2l4.5-4.9-8.1 1.1z"/><path id="_170303200_2_" class="st24" d="M319.2 119.5l15.6-2.1 3.4 23z"/><path id="_170303128_2_" class="st24" d="M345.1 134.1l7.9-20.5-12.1 3z"/><path id="_170303056_2_" class="st29" d="M317.3 114.5l12.6 5.3-17 .2z"/><path id="_170302984_2_" class="st29" d="M349.9 117.3c-1.6 0-2.6 2.1-2.3 4.6.3 2.5 1.9 4.6 3.5 4.6s2.6-2.1 2.3-4.6c-.3-2.6-1.9-4.6-3.5-4.6z"/><path id="_170302912_2_" class="st29" d="M323.7 121c-1.6 0-2.6 2.1-2.3 4.6.3 2.5 1.9 4.6 3.5 4.6s2.6-2.1 2.3-4.6c-.3-2.5-1.9-4.6-3.5-4.6z"/><path id="_170302840_2_" class="st25" d="M351.6 152.4l-10.4-3.4-11.7 5.1z"/><path id="_170302768_2_" class="st34" d="M340.7 159.6l10.9-7.2-10.3 2.8-11.8-1.1z"/><path id="_170302696_2_" class="st29" d="M356.4 112.6l-13 4.3 9.8-9.7z"/><path id="_170302624_2_" class="st30" d="M368.4 80.3L307.1 126l-43.5-13.4 14.7-16.8 72.4-38.5z"/><path id="_169442432_2_" class="st29" d="M263.6 112.6l11-20 76.1-35.3z"/><path id="_169442360_2_" fill="#737373" d="M376.6 79.5L307.1 126l43.6-68.7z"/><path id="_169442288_2_" class="st23" d="M346.7 189.6l7.5-1.8 3.4-4.2 55.8 1.9-4.1 15-58.9 12.6z"/><path id="_169442216_2_" class="st18" d="M295.3 190.3l5.7-7.6 2.8-1 14.5 8.3 15.6 7.5 5.3 9.4-4.6 24.6-3.9 6.4-6.9 6.3-34.5 35.8-1-19.7 16.2-28.4z"/><path id="_169442144_2_" class="st34" d="M323.8 244.2l-38 44.5-1.1-30.7 19.8-26.1z"/><path id="_169442072_2_" class="st34" d="M354.7 233l10.6 33.5L364 280l-22.7-36.4-5.5-6.1-1.2-6-.7-34 12.9-9.5-3-6.2 11.5 2.9 2 3.3z"/><path id="_169442000_2_" class="st36" d="M354.7 233l15.8 33.1-3.2 23.7-19.5-34.8-6.5-11.4z"/><path id="_169441928_2_" class="st23" d="M339.5 172.8l4.3 9 2.6 3.8.4 2.4-5.4 8.1-7.5 1.4z"/><path id="_169441856_2_" class="st23" d="M303.8 181.7l4.5-9.7 25.6 25.5-19.1-.1z"/><path id="_169441784_2_" class="st34" d="M303.8 181.7l-16.8 4.5-1.3 7.9v.1l21.8-7.3z"/><path id="_169441712_2_" class="st36" d="M343.8 181.8l13.8 1.8-.3 4.4h-10.5l-1-2.2z"/><path id="_169441640_2_" class="st36" d="M341.3 243.6l-17.5.6 10.8-12.7z"/><path id="_169441568_2_" class="st30" d="M486.5 159.4l1.7-2.7 3.9 5.5-3 .9z"/><path id="_169441496_2_" class="st30" d="M428.8 198.1l1.8-.7 2.3 3.5-1.2 1.4z"/><path id="_169441424_2_" class="st36" d="M330.5 211.6l3.7-3.6 3.1 3.8-3 3.7z"/><path id="_169441352_2_" class="st36" d="M330.7 225.4l3.7-3.6 3.1 3.7-3 3.6z"/></g><g id="text"><path class="st37" d="M633.1 0h6.3v41.4h-6.3zM850.1 0h6.3v41.4h-6.3z"/><path fill-rule="evenodd" clip-rule="evenodd" fill="#e5e5e5" d="M615 27h258.9v97H615z"/><path fill-rule="evenodd" clip-rule="evenodd" fill="none" stroke="#9b9b9b" stroke-width="5" stroke-miterlimit="10" d="M615 27h258.9v97H615z"/><path class="st40" d="M653.8 44.1l-17.5-2.3-2.2 64.2 17.9-.4zM657.9 43.2l23.8 1.8 1.3 13.4-26-3.1zM656.5 66.1l13.5 1.3v13.5l-14.4-1.4zM656.1 87.6l26 1.8 1.8 15.3-28.3.9z"/><path class="st41" d="M691.1 104.2l3.1-59.2 16.2.4-2.2 60.6zM714 48.6l12.6 28.7-1.4 20.2-12.1-23.8zM731.5 47.2l-3.1 57.9h16.1l-.4-56.7z"/><path class="st40" d="M751.3 46.5l16.6-.4v13.5l-17.1 1zM772.8 46.5l29.2-.4 1.8 15.4-21.5.5 1.3 44.9h-15.7z"/><path class="st41" d="M811.2 44.8h23.4l-.5 17.5-24.4-1.6zM839.6 45.4l17 1.1-4.8 60-16 3.6zM831.7 110.2l-20.4-15.5 3.8-18.5 17.1 13.1z"/></g><g id="soldier4"><path class="st42" d="M1033.1 191.4l12.3 38.6-18.3 12.2-24.1-43.1zM1132.2 204.2l-18 36.1 10.8 14.3 33.3-30.1z"/><path class="st6" d="M1039.7 136.9l-36.7 62.2 30.1-7.7 8.9-29.7zM1141.6 154.7l16.7 69.8-26.1-20.3v-24.6z"/><path class="st43" d="M1134.5 328.6l10.9 14.2-26.3 3.6-26.3-3.6 23.1-13.1zM1053.1 342l-26.5 3.9-26.6-3.9 10.9-14.4 20.4 2.1z"/><path class="st42" d="M1000 342h53.1v7.9H1000zM1092.8 342.8h52.6v7.2h-52.6z"/><path class="st44" d="M1125 254.6l9.5 74-18.6 6.4-19.1 2.5-23.5-53.3-22.7 50.9-19.3-.6-20.4-6.9 16.2-85.4z"/><path class="st42" d="M1101.2 266.6l14.7 68.4-23.1 7.8-19.5-58.6-20.2 57.8-21.8-7.5 17.1-74.9 24.9 24.6z"/><path class="st43" d="M1064.5 134.6l-24.8 2.3-10.9 90.6 44.8 11.1 51.4 3.3 16.6-87.2-22.9-12.4z"/><path class="st6" d="M1057.8 65.7v-6.4l70 9.1-3.5 7.7-8.4 3.8-23.1-2.4z"/><path class="st43" d="M1127.8 68.4l6.7 18.5-9.3-1.1-9.3-5.9z"/><path class="st6" d="M1134.5 86.9l-5.5 19.3-14.8-1.8 1.7-24.5z"/><path fill="#ececeb" d="M1057.8 65.7l-12.4 64.4 19.1 4.5 18.9 13 32.7-7.6 9.7-31.3-11.6-4.3-1.3-21.6-3.6-4.5z"/><path class="st46" d="M1109.3 78.3l-12.8 64-32-7.7 18.6 21.4 35.6-13.7 10.3-36.1-12.6-2.6-.5-23.7zM1062.5 84.7l34.3 7.6-20.1 15-6.7-4.3z"/><path class="st3" d="M1081 88.8l-4.3 18.5-7.7-1.5 3.4-18.9z"/><path class="st44" d="M1076.7 107.3l8.2 14.5-29.1-6.8 13.2-9.2z"/><path fill="#5b5b5b" d="M1076.7 107.3l-5.2 4.2-2.5-5.7z"/><path class="st44" d="M1061.5 84.7l35.3 7.6 1.2-4.9-35.5-8z"/><ellipse class="st31" cx="1086.7" cy="98" rx="2.4" ry="2.7"/><ellipse class="st31" cx="1064.9" cy="93.3" rx="2.4" ry="2.7"/><path class="st28" d="M1084.9 121.8H1070l-14.2-6.8zM1064.5 134.6l32.4 5.7 8 7.3-21.8 8.4zM1125 120.5l-9.1-2.1 7.1 9zM1118.7 115.4l1.7-6.7 4.8.9z"/><path fill="#747373" d="M1083.1 156l-3.1 39.4-6.4 38.1 2.1-38.5z"/><path class="st49" d="M1094.6 179.6l25.8 4.6-4.5 24.9-25.2-5.1zM1044 171.6l27.3 3.7-3.3 23.8-26-4z"/><path class="st28" d="M1028.8 227.5l96.2 14.4v12.7l-53.1-2.2-44.8-10.2z"/><path d="M1062.5 232.5l-1 14 19.5 2.5 2.1-13.5-20.6-3zm14.7 12.6l-11.9-2 .8-5.7 12.2 1.2-1.1 6.5z" fill="#c3c3c3"/><path fill="#7c7c7c" d="M1027.1 242.2l20.3 18.4 25.9 23.6 28.8-16.5 22.9-13.1z"/><path class="st28" d="M1064.5 134.6l-24.8 2.3-5.9 10 37.5-4.4zM1118.7 142.3l22.9 12.4 2.6 10.9-35.4-19.5z"/><path class="st52" d="M1064.5 134.6l-7.8 25.9 26.4-4.5zM1118.7 142.3l-4.5 25.4-31.1-11.7z"/></g><g id="soldier5"><path class="st53" d="M908.7 172.2l-4.9 14.1 5.2 9 9.6.4 12.2-35.8z"/><path class="st54" d="M992 167.7l9.9 43.8-12.6-2.4-8.5-5.2 2.1-14.2z"/><path class="st53" d="M1001.9 211.5L974.2 229l.3-11 6.3-14.1zM913 338.5l-1.6 11.6h-9zM961.3 338.5l1.8 11.6h-5.5z"/><path class="st55" d="M970.3 311l-9 27.5-7.6-1-4.6-4.8-1.5-28.2 11.3 1.5zM907.3 293l-5.2 39.7 3.7 4.1 7.2 1.7 15-39.6-6.5-3.4z"/><path class="st56" d="M970.3 311l-22.1 4.6-.6-11.1 11.3 1.5zM907.3 293l15.5 19.8 5.2-13.9-7-4.2z"/><path class="st57" d="M902.1 332.7L889.7 350l18.8.1 4.5-11.6zM949.1 332.7L938.4 350h19.9l3-11.5zM944.1 156.3l-13.3 3.6-13.1 22 4.6 36.1 48.2 8.6 14.2-35.2 7.3-23.7-6.5-3.5-14.7-9.4z"/><path class="st53" d="M927.8 144l3 15.9 13.3-1.5-4.1-12zM900.5 89l8-16 16 7.3-16 33.1z"/><path class="st55" d="M913.5 75.5l-9.7 68.3 35.2 4.6 9.8 15.2 17.7-9.6 20.8-40.2-7.5-24.1-12.5-5.3z"/><path class="st58" d="M967.3 84.7l-9.6 66-18.7-2.3 8.8 17.2 22.7-9.6 18.8-42.2-8.5-27.1zM952 99l-17-3.7-5.5-1-13.7-1 10.7 15.4 4.3 8.2z"/><path class="st59" d="M929.5 94.3l-3 22 4.3.6 4.2-21.6z"/><path class="st56" d="M926.5 116.3l1.9 3.2 2.4-2.6z"/><path class="st60" d="M924.5 104.1c0 1.5-1.2 2.8-2.8 2.8-1.5 0-2.8-1.2-2.8-2.8 0-1.5 1.2-2.8 2.8-2.8 1.5 0 2.8 1.3 2.8 2.8zM943.3 106.9c0 1.5-1.2 2.8-2.8 2.8-1.5 0-2.8-1.2-2.8-2.8 0-1.5 1.2-2.8 2.8-2.8 1.6 0 2.8 1.3 2.8 2.8z"/><path class="st37" d="M918.9 126.5l8.9-1.9 8.2 4-8.5 1z"/><path class="st61" d="M918.9 126.5l8.5 6.5 8.6-4.4-8.5 1z"/><path class="st62" d="M908.5 73l3.7 11.7h55.1l8.4-2.8 10.1-10.4-42.3-8.9z"/><path class="st61" d="M908.5 73L945 60.6l40.8 10.9z"/><path class="st56" d="M977.2 127.4l-6.9-1 6.5 7.6z"/><path class="st62" d="M980.6 115l-3.4 12.4 8.2 5.6 10.1 3.3 7.4-22.5-17.5-2.3z"/><path fill-rule="evenodd" clip-rule="evenodd" fill="#606060" d="M977.2 127.4l-6.7 28.6 15 8.2 10-27.9z"/><path class="st53" d="M985.8 71.5l17.1 42.3-31.1 2.5-4.5-31.6z"/><path class="st56" d="M939 148.4l25.1 3.1-16.3 14.1z"/><path class="st53" d="M952 99l-17-3.7 2.4-3zM929.5 94.3l-.9-3.7-12.8 2.7z"/><path class="st56" d="M973.7 122.9v-4.5h3.5z"/><path class="st64" d="M917.7 181.9l67 9.5-11.6 37.6-52.8-9.7z"/><path class="st56" d="M975.5 221.1l-55.2-1.8v9.7l26.8 2.8 27.1-2.8z"/><path d="M935.7 219.8v9.2h15.9l1.2-8.7-17.1-.5zm13.5 7.1l-10.9.4-.2-5.4 12.1.4-1 4.6z" fill-rule="evenodd" clip-rule="evenodd" fill="#c3c3c3"/><path fill-rule="evenodd" clip-rule="evenodd" fill="#747373" d="M947.8 165.6l-.2 20.5-3.7 33.9-.6-34.6z"/><path class="st67" d="M957.3 178.2l-.7 9.2 7.5 2.3h9l1.4-9.2zM922.3 182.6l4.7-8.6 13 2.2-2.6 8.5-7.5.7z"/><path class="st68" d="M956.6 187.4l-.9 9.8 16.5 1.9.9-9.4zM937.4 184.7l-.9 9.7-14.2-1.6v-10.2z"/><path class="st54" d="M974.2 229l11.6 30.6-17.5 47.9-55.8-16.5v-22.9l7.8-39.1z"/><path class="st53" d="M985.8 259.6l-73.3 8.5-5.2 24.9 63 18z"/><path class="st54" d="M909 195.3l2-38.7-14.7-3.5-10.9 41.7z"/><path class="st58" d="M896.3 153.1v-15.3l14.7 7v11.8z"/><path class="st59" d="M896.3 137.8l9.2-6 7.9 6-2.4 7z"/><path class="st56" d="M946.2 162.6l-22 1 6.6-3.7 13.3-1.5zM970.5 156l21.5 11.7 1.7 7.3-30.8-15.8z"/><path class="st69" d="M944.1 158.4l-8.1 13.2 11.8-6 12.5 9.4 10.2-19-22.7 9.6z"/></g><g id="soldier2"><path class="st56" d="M857 229h63.3v9.9l-6.5 9.9h-63.3v-9.5z"/><path class="st70" d="M896.3 302.8l4.9 1.7 5.3-1.7 24-73.8h-10.2zM894.1 308.5l13.5 41.5h10.3l-13.5-41.5z"/><path class="st71" d="M764.5 308.5L751 350h10.2l13.6-41.5z"/><path class="st70" d="M820.5 308.5L807 350h10.2l13.6-41.5z"/><path class="st71" d="M852.4 308.5h-10.3l13.5 41.5h10.3z"/><path class="st72" d="M799 302.8h107.5v11.5H799z"/><path class="st73" d="M762.8 302.8h55.9v11.5h-55.9z"/><path class="st62" d="M796.4 276l-38.1 9 16.7.8 25.8 1.6z"/><path class="st53" d="M758.3 285l-7.4 46 8.6 7.3 18.5 4.2 1.1-52.7-4.1-4-8.5-2.8z"/><path class="st64" d="M750.9 331l-19.1 14.3 20.1 2.3 20-1.9v-5.8z"/><path class="st53" d="M731.8 345.3v4.6l40.1.1v-4.3z"/><path class="st62" d="M793.2 255.2l-16.9 11.1 1.7 9.7 7.7 9.4 11.7-5.4z"/><path class="st55" d="M776.3 266.3l-15.5 3.8 5.7 7.8 8.5 7.9 10.7-.4z"/><path class="st58" d="M760.8 270.1l-3.2 18.7 17.4-3z"/><path class="st74" d="M786.2 204.5l-2.3 24.5 16.9-12.9z"/><path class="st57" d="M853 192.9l16 62.3-37.9 12.8-36.1 2.7-11.1-41.7 13.4-12.9 27.9-8.6z"/><path class="st37" d="M762.7 126.5l-7.7-21 85.3 20.8-11.2 7.5-8.1 1.2-10.4-1.2L791 135z"/><path class="st61" d="M840.3 126.3l2.7 22-7.5 1.1-7.8-2.7-6.3-6.1-.4-5.6z"/><path class="st37" d="M843 148.3l2.7 11.6-24.7-1.5 6.7-11.7z"/><path class="st55" d="M762.7 126.5l-7.7 63.3 20 3 23 18.3 50.7-20.3-7-27.7-19.4-3.2 2-13.2-4-8.5-9.7-4.4z"/><path class="st58" d="M810.6 133.8l-7.1 62.8-28.5-3.8 14.3 11.7 8 11.6 55.7-23.2-7.3-33-21.4-3.2 3.4-10L821 135zM765.1 141.1l8.4 18.2 10 5.8 18.3-20.3z"/><path class="st59" d="M776.9 142.1l-4.4 22.2 11 .8 2.2-22z"/><path class="st56" d="M783.5 165.1l-6 4.7-5-5.5zM775 192.8l36.5 4.7-14.2 18.6zM822 173.7l11.8 1.3 1.9-16.6 4.6 14.1-14.5 8.8z"/><path class="st56" d="M825 169.8l1-8h7.1z"/><path class="st37" d="M765.1 136.3l37.7 4.8-1 3.7-36.7-3.7z"/><path class="st56" d="M767.3 176.2l25.9 3.1v3.6l-26.7-3.6z"/><ellipse class="st60" cx="792.4" cy="153.4" rx="3.1" ry="3.2"/><path class="st60" d="M771.8 150.4c0 1.8-1.4 3.2-3.1 3.2s-3.1-1.4-3.1-3.2 1.4-3.2 3.1-3.2 3.1 1.4 3.1 3.2z"/><path class="st56" d="M853 192.9L811.5 230l-14.2-13.9zM869 255.2l-74 15.5 3.8 14.3 36.2-5 37.8-10.2z"/><path class="st69" d="M836.2 208l1.3 10 10.9-.9-2.7-17.6z"/><path class="st64" d="M872.8 269.8l-13.8 33h-52v42.5l-21.8-8.4-8.9-5.9-1.3-45.2 40.6-7.4z"/><path class="st62" d="M797.3 216.1v23.2l3.5 30.2v-30.6z"/><path class="st56" d="M807.3 238.9l16.6.4v18.2l-16.6 1.1z"/><path class="st53" d="M823.5 219.3l35.5-3.2-11.5 50.2-22.3-5.8-9.2-8.7z"/><path class="st56" d="M807 345.3l-24 .8-22.2-.8 15.5-14.3z"/><path class="st62" d="M760.8 345.3h46.3v4.8h-46.3zM816 251.8L795 268l1.4 8 7.1 7 44-16.7zM807 302.8l-20.2-14-5.9-4.1-5.9 1.1 1.3 45.2 30.7 14.3z"/><path class="st55" d="M795 268l-17 1.5 2.3 8.4 6.5 10.9 16.7-5.8z"/><path class="st58" d="M778 269.5l-3 16.3 11.8 3z"/></g><g id="soldier"><path class="st75" d="M700.4 248.8l-4.1 9.8 7.2 7.7 8.2 2.1 8.6-21.7z"/><path class="st55" d="M696.3 258.6l2 14.3 5.2 4.5 5.2-2.1 3-6.9z"/><path class="st58" d="M698.3 272.9L706 283l2.7-7.7z"/><path class="st62" d="M696 201.4l34.5 27.6-27 3.8L687 229z"/><path class="st56" d="M687 229h33.3v9.9l-6.5 9.9h-33.3v-9.5z"/><path class="st70" d="M696.3 302.8l4.9 1.7 5.3-1.7 24-73.8h-10.2zM694.1 308.5l13.5 41.5h10.3l-13.5-41.5z"/><path class="st71" d="M564.5 308.5L551 350h10.2l13.6-41.5z"/><path class="st70" d="M620.5 308.5L607 350h10.2l13.6-41.5z"/><path class="st71" d="M653.4 308.5h-10.3l13.5 41.5h10.3z"/><path class="st72" d="M599 302.8h107.5v11.5H599z"/><path class="st73" d="M562.8 302.8h55.9v11.5h-55.9z"/><path class="st62" d="M627.4 201.4l-19.1 3.1-4.8 5-12.3 29.8 3.2 11.4 7 8 14-26.9z"/><path class="st75" d="M591.2 239.3l-24.9 17.5 7.2 16.1 16.3-4.5 11.6-9.7z"/><path class="st55" d="M566.3 256.8l-16.5 16.1 5.7 6.4 4 .7 6.8-1.7 7.2-5.4z"/><path class="st58" d="M549.8 272.9l2.5 12.1 10.5 4.8V285l-3.3-5z"/><path class="st75" d="M622.9 211l-19.4-1.5 2.9-7.2 21-.9z"/><path class="st57" d="M627.4 201.4l-21 45.3 22.9 14.7 41 18.6 25.7-78.6-13 5.1-7.7 6.6z"/><path class="st54" d="M612 121.9l12.4-8.5 54.2 8.1-6.3 8.6-6 4-28.2-5.2z"/><path class="st57" d="M678.6 121.5l14.4 16.7-8 6.1-7.3 1.8-6.8-5.6-4.6-6.4z"/><path class="st54" d="M677.7 146.1l-10.9 18 19.2 3.6 7-29.5z"/><path class="st55" d="M612 121.9l-17.6 70.4 33 9.1 13.6 24 32.3-14.3 10.7-41.4-17.3-4.4 8-19.2-8.4-12z"/><path class="st58" d="M666.3 134.1l-18.6 72.6-9.2-2.2 2.5 20.9 34.3-12.3 10.7-45.4-17.3-4.4 9-17.2zM615.4 138.2L625 156l2.3 15 8.8-13 15.2-9.7z"/><path class="st59" d="M629.3 142.1l-9.2 27.4 7.2 1.5 7.4-27.4z"/><path class="st56" d="M620.1 169.5l2.4 6.1 4.8-4.6zM611 179.8l23.7 6-1.3 3.1-22.4-6zM681.5 186.7l-11.2-2.3 8.9 12.1zM673.8 179.3l2.1-9.8 5.6 1.5zM627.4 201.4l31.9 8.1-18.3 15.9z"/><path class="st54" d="M615.4 133.8l37.3 10-1.4 4.5-35.9-10.1z"/><path class="st60" d="M644.7 156.3c-.6 2.1-2.4 3.4-4.1 2.9-1.7-.5-2.6-2.5-2-4.6.6-2.1 2.4-3.4 4.1-2.9 1.7.5 2.6 2.6 2 4.6zM620.9 150.2c-.6 2.1-2.4 3.4-4.1 2.9-1.7-.5-2.6-2.5-2-4.6.6-2.1 2.4-3.4 4.1-2.9 1.7.5 2.6 2.5 2 4.6z"/><path class="st56" d="M670.3 280l-7.8 16.7-42.5-23.4-18.6-14.6 5-12z"/><path d="M622.9 255.2l-6.6 12.6 15.2 9.5 5.7-14.6-14.3-7.5zm6.4 16.5l-8.2-5.4 2.6-5.8 7.8 4.2-2.2 7z" fill-rule="evenodd" clip-rule="evenodd" fill="#c4c4c4"/><path class="st62" d="M601.4 258.7L559.5 280l14 5h9.5l23.4-5 16.5-8z"/><path class="st53" d="M559.5 280l16.8 49 6.7-27.2V285z"/><path class="st37" d="M662.5 296.7l-3.2 6.1h-57.9l-10.2-6.1L583 285l39.9-13z"/><path class="st62" d="M583 285l-6.7 44 6.7 8.6 11.4 8.6 7-43.4z"/><path class="st57" d="M576.3 329l-20.8 17.2L575 348l19.4-1.8z"/><path class="st53" d="M555.5 346.2h38.9v3.7h-38.9z"/><path class="st74" d="M641 225.4l-22.2-5.6 8.6-18.4z"/><path class="st56" d="M675.3 213.1l-3 22.2-31.3-9.9zM677.6 202.3l13.7-7.6 4.7 6.7-20.7 11.7z"/><path class="st62" d="M641 225.4l-3.8 18.8-7.9 14.4 4.1-16.6z"/><path class="st56" d="M649.5 236.3l17.3 5.7-7.5 19.4-17.3-7.1zM620.1 225.4l13.3 5.4-6.7 15.9-13.5-6z"/><path opacity=".1" fill-rule="evenodd" clip-rule="evenodd" fill="#2b2b2b" d="M687 229l2.5 19.8h-9z"/></g></svg>