<svg id="Warstwa_17" xmlns="http://www.w3.org/2000/svg" viewBox="0 0 1170 350"><style>.st1,.st2,.st3,.st4,.st5,.st6,.st7{fill-rule:evenodd;clip-rule:evenodd;fill:#c9c9c9}.st2,.st3,.st4,.st5,.st6,.st7{fill:#dbdbdb}.st3,.st4,.st5,.st6,.st7{fill:#e2e2e2}.st4,.st5,.st6,.st7{fill:#f4f4f4}.st5,.st6,.st7{fill:#bcbcbc}.st6,.st7{fill:#8f8f8f}.st7{fill:#f2f2f2}.st8{fill:#b3889d}.st9{fill:#96637c}.st10{fill:#8f8f8f}.st12{fill:#fff}.st15{fill:#aaa}.st16{fill:#c9c9c9}.st17{fill:#b2b2b2}.st18{fill:#999}.st19{fill:#727272}.st20{opacity:.1;fill-rule:evenodd;clip-rule:evenodd}.st22{fill:#686868}.st23{fill:#cecece}.st24{fill:#f2f2f2}.st25,.st26,.st27,.st28,.st30{fill-rule:evenodd;clip-rule:evenodd;fill:#cecece}.st26,.st27,.st28,.st30{fill:#fff}.st27,.st28,.st30{fill:#ddd}.st28,.st30{fill:#69696a}.st30{fill:#737373}.st32{fill:#474747}.st33{fill:#5b5b5b}.st34{fill-rule:evenodd;clip-rule:evenodd;fill:#bebec4}.st35,.st36,.st37,.st38,.st39,.st40{fill-rule:evenodd;clip-rule:evenodd;fill:#727272}.st36,.st37,.st38,.st39,.st40{fill:#b7b7b7}.st37,.st38,.st39,.st40{fill:#adadad}.st38,.st39,.st40{fill:#c4c4c4}.st39,.st40{fill:#8e8e8e}.st40{fill:#999}.st41,.st42,.st44,.st47,.st49,.st53{fill-rule:evenodd;clip-rule:evenodd;fill:#a0a0a0}.st42,.st44,.st47,.st49,.st53{fill:#777}.st44,.st47,.st49,.st53{fill:#bfbfbf}.st47,.st49,.st53{fill:#727271}.st49,.st53{fill:#939393}.st53{fill:#ffe6d6}.st54{fill:#f5cab3}.st54,.st55{fill-rule:evenodd;clip-rule:evenodd}.st56,.st57,.st58,.st60,.st62,.st63{fill-rule:evenodd;clip-rule:evenodd;fill:#474747}.st57,.st58,.st60,.st62,.st63{fill:#fff1e8}.st58,.st60,.st62,.st63{fill:#c4937d}.st60,.st62,.st63{fill:#96637c}.st62,.st63{fill:#543042}.st63{fill:#b3889d}</style><path opacity=".3" fill-rule="evenodd" clip-rule="evenodd" fill="#fff" d="M-26-20h1220.7v398H-26z" id="Warstwa_18"/><g id="walls"><path class="st1" d="M-7-34h46v393H-7z"/><path class="st2" d="M33-34h46v393H33z"/><path class="st1" d="M73-34h46v393H73z"/><path class="st2" d="M113-34h46v393h-46z"/><path class="st1" d="M153-34h46v393h-46z"/><path class="st2" d="M193-34h46v393h-46z"/><path class="st1" d="M233-34h46v393h-46z"/><path class="st2" d="M273-34h46v393h-46z"/><path class="st1" d="M313-34h46v393h-46z"/><path class="st2" d="M353-34h46v393h-46z"/><path class="st1" d="M393-34h46v393h-46z"/><path class="st3" d="M433-34h46v393h-46z"/><path class="st4" d="M473-34h46v393h-46z"/><path class="st3" d="M513-34h46v393h-46z"/><path class="st4" d="M553-34h46v393h-46z"/><path class="st3" d="M593-34h46v393h-46z"/><path class="st4" d="M633-34h46v393h-46z"/><path class="st3" d="M673-34h46v393h-46z"/><path class="st4" d="M713-34h46v393h-46z"/><path class="st3" d="M753-34h46v393h-46z"/><path class="st4" d="M793-34h46v393h-46z"/><path class="st3" d="M833-34h46v393h-46z"/><path class="st4" d="M873-34h46v393h-46z"/><path class="st3" d="M913-34h46v393h-46z"/><path class="st4" d="M953-34h46v393h-46z"/><path class="st3" d="M993-34h46v393h-46z"/><path class="st4" d="M1033-34h46v393h-46z"/><path class="st3" d="M1073-34h46v393h-46z"/><path class="st4" d="M1113-34h46v393h-46z"/><path class="st3" d="M1153-34h46v393h-46z"/><path class="st5" d="M1230.5-33.7H222.7l210 77.5h797.8z"/><path class="st2" d="M1232.5-43.7H224.7l210 77.5h797.8z"/><path class="st5" d="M1230.5 257.5H432.7L12.7 370h1217.8z"/><path class="st2" d="M1232.5 267.5H434.7L14.7 380h1217.8z"/></g><g id="board"><path class="st6" d="M335.4 229.9l-201.1 36V40.5l201.1 55z"/><path class="st7" d="M328.4 223.3l-181.2 27V58.7l181.2 43.5z"/></g><g id="text"><path class="st8" d="M171.5 220.9V93.5l35.2 5.3v22.3l-25.2-2.8V145l19.1 1.2v22.5l-19.1-.4v28.5l25.1-.8v22.3l-35.1 2.6z"/><path class="st9" d="M215.6 217.6V100.1l2.9.4 25.6 73.5v-69.6l7.6 1.2v109.2l-2.8.2-24.8-69.8V217l-8.5.6z"/><path class="st8" d="M287.2 111.1V130l-11-1.2v84.3l-6.9.5V128l-11.9-1.3v-20.1l29.8 4.5z"/><path class="st9" d="M291.9 211.9v-100l13.3 2c6.8 1 10.1 10.6 10.1 28.8 0 18.9-3.3 28.2-10.1 28.1l-7.1-.1v40.8l-6.2.4zm6.3-59.6l8.4.5c2.4 0 3.6-3.4 3.6-10.3-.1-6.3-1.2-9.7-3.6-10.2l-8.5-.9v20.9z"/></g><g id="lamp"><path class="st10" d="M258 57l-18.3-6V29l18.3 7z"/><path fill="#f4f4f4" d="M250.1 67.1l20.3 9.4 16.9-2.5L272 63.5z"/><path class="st12" d="M259.5 67.1l10 15.5 10.6-12.7z"/><path fill="#a0a0a0" d="M250.1 67.1L273.7 54l-2.8 14.7z"/><path class="st10" d="M273.7 54l13.6 20-16.4-5.3z"/><path fill="#737373" d="M249.2 40.6v5.3l20 10.9 4.5-2.8z"/></g><g id="flowers"><path class="st15" d="M701.1 209.1l4.2 27.8-14.5-19.2z"/><path class="st16" d="M672.7 257.2l17.3-54.5 11.1 6.4-20 48.7z"/><path class="st15" d="M649.5 216.9l-3.2 21.1 11-14.6z"/><path class="st16" d="M667.2 254.2l-9.3-42.2-8.4 4.9 15.2 36.9z"/><path class="st17" d="M665.2 252.5l-3.9-37.3 15.9-6.9-7 43.7z"/><path class="st16" d="M677.2 208.3l-18.1-29.5 2.2 36.4z"/><path class="st18" d="M669.7 253.3l1.1-30.3 17.8 3.4-13.7 26.7z"/><path class="st15" d="M670.8 223l14.7-47.3 3.1 50.7zM668.5 251.7L653.3 235l-8.9 6.7 9.4 13.3zM674.1 251.7l14.8-18.4 9.1 7-11.4 11.4z"/><path class="st16" d="M688.9 233.3l9.1 7 5.6 14.4z"/><path class="st10" d="M690.8 282.5h-39.5l-10-32.2h59.5z"/><path class="st19" d="M697.7 260.3h-53.3l2.3 7.5h48.7z"/><path class="st16" d="M644.4 241.7l6.6 15.5 2.3-22.2z"/></g><g id="flowers_kopia"><path class="st15" d="M871.1 209.1l4.2 27.8-14.5-19.2z"/><path class="st16" d="M842.7 257.2l17.3-54.5 11.1 6.4-20 48.7z"/><path class="st15" d="M819.5 216.9l-3.2 21.1 11-14.6z"/><path class="st16" d="M837.2 254.2l-9.3-42.2-8.4 4.9 15.2 36.9z"/><path class="st17" d="M835.2 252.5l-3.9-37.3 15.9-6.9-7 43.7z"/><path class="st16" d="M847.2 208.3l-18.1-29.5 2.2 36.4z"/><path class="st18" d="M839.7 253.3l1.1-30.3 17.8 3.4-13.7 26.7z"/><path class="st15" d="M840.8 223l14.7-47.3 3.1 50.7zM838.5 251.7L823.3 235l-8.9 6.7 9.4 13.3zM844.1 251.7l14.8-18.4 9.1 7-11.4 11.4z"/><path class="st16" d="M858.9 233.3l9.1 7 5.6 14.4z"/><path class="st10" d="M860.8 282.5h-39.5l-10-32.2h59.5z"/><path class="st19" d="M867.7 260.3h-53.3l2.3 7.5h48.7z"/><path class="st16" d="M814.4 241.7l6.6 15.5 2.3-22.2z"/></g><g id="flowers_kopia_2"><path class="st15" d="M1024.1 209.1l4.2 27.8-14.5-19.2z"/><path class="st16" d="M995.7 257.2l17.3-54.5 11.1 6.4-20 48.7z"/><path class="st15" d="M972.5 216.9l-3.2 21.1 11-14.6z"/><path class="st16" d="M990.2 254.2l-9.3-42.2-8.4 4.9 15.2 36.9z"/><path class="st17" d="M988.2 252.5l-3.9-37.3 15.9-6.9-7 43.7z"/><path class="st16" d="M1000.2 208.3l-18.1-29.5 2.2 36.4z"/><path class="st18" d="M992.7 253.3l1.1-30.3 17.8 3.4-13.7 26.7z"/><path class="st15" d="M993.8 223l14.7-47.3 3.1 50.7zM991.5 251.7L976.3 235l-8.9 6.7 9.4 13.3zM997.1 251.7l14.8-18.4 9.1 7-11.4 11.4z"/><path class="st16" d="M1011.9 233.3l9.1 7 5.6 14.4z"/><path class="st10" d="M1013.8 282.5h-39.5l-10-32.2h59.5z"/><path class="st19" d="M1020.7 260.3h-53.3l2.3 7.5h48.7z"/><path class="st16" d="M967.4 241.7l6.6 15.5 2.3-22.2z"/></g><g id="man"><path class="st20" d="M546.9 304.4l54.6-8.6 60 11.3-63.8 3.8z"/><path fill="#b7b7b7" d="M536.7 126.2l12.8-1.7-5.3-20.9z"/><path class="st22" d="M548.3 166.7L538 135l-13.3-6.3-2.4 53.5z"/><path class="st19" d="M560.8 200l-38.5-17.8 26-15.5 8.6 4.1 7.8-1.6z"/><path class="st23" d="M536 126.2l13.5-1.7.5 5-12 5.5-4.8 4.8z"/><path class="st24" d="M524.7 128.7l8.5 11.1 11-36.2z"/><path class="st10" d="M622.2 168.8l20.1 4.4-4.4 33.3-4.9 36.2-75.7-5.7 2.7-37.7 2-28.6z"/><path class="st7" d="M544.2 103.6l13.3-1.8 9.5 6.6 19.9-8.9 18.5 3.5 3.1 21.6-7.4 15.4 5.1 2.3 6.4-14.6 11.1 4.3-4.7 14.2 3.6 7.2-.4 15.4-25.6 13.1-20.2-10.1-19.5-1z"/><path class="st25" d="M554.7 125.8l11.7 4.3-.9 13.4 5 4.5 4.3-4.9 7.2-13.4 7.6-5.7-15.4-4.5-9.9.2z"/><path class="st26" d="M574.2 119.5l.6 23.6-9.3.4-1.2-23.8z"/><path class="st27" d="M602.8 101.9l-6.5 69.2-19.9.7 20.2 10.1 25.6-13.1.4-15.9-3.6-6.7-12.8-3.9 6.4-14.6-4.1-3.1-3.1-21.6z"/><path class="st28" d="M580.1 129.7h8.9l-8.5 3.1zM561.2 129.9v3.3l-7.2-3.3z"/><path class="st6" d="M564.3 119.7l-9.6 6.1-.9-5.9zM574.2 119.5l15.4 4.5v-5.6zM562.5 152.7l20.1 2.7-1 1.7-10.9-1.9-8.2 2.9zM544.2 103.6l13.5-5.3-.2 3.5z"/><path class="st30" d="M557.7 98.3l39.1-13.1 14.3 3.2-24.2 11.1-19.9 8.9-9.5-6.6z"/><path class="st6" d="M586.9 99.5l24.2-11.1 14 3.7-19.7 10.9z"/><path class="st30" d="M605.4 103l19.7-10.9 11.3 41.1-12.7-1.2-11.1-4.3-4.1-3.1z"/><path class="st6" d="M623.7 132l12.7 1.2-13.8 20.2-3.6-7.2zM608.5 124.6l-7.4 15.4 5.1 2.3 6.4-14.6z"/><path fill-rule="evenodd" clip-rule="evenodd" fill="#c6c6c6" d="M606.4 170.6l-9.8 11.3-20.2-10.1z"/><path class="st25" d="M606.2 142.3l16.2 18.7.2-7.6-3.6-7.2z"/><path class="st26" d="M594 107.1l-3.5 7.3 4.1 2.2 2.4-1.7z"/><path class="st25" d="M590.5 114.4l3.1 5.1 3.4-4.6-2.4 1.7z"/><path class="st26" d="M588.9 138.9l-3.5 7.2 4.1 2.3 2.4-1.8z"/><path class="st25" d="M585.4 146.1l3.1 5.2 3.4-4.7-2.4 1.8z"/><path class="st26" d="M557.9 107l-2.6 5.6 3.1 1.7 1.9-1.4z"/><path class="st25" d="M555.3 112.6l2.4 3.9 2.6-3.6-1.9 1.4zM611.3 140.4l2.7-7.6 6 1.7z"/><path class="st12" d="M622.2 168.8l-25.6 13.1 16.7 8.6zM580.6 173.9l16 8-19.9 11.1z"/><path class="st24" d="M576.7 193l17.3 14 19.3-16.5-16.7-8.6z"/><path class="st32" d="M596.6 181.9l-12.9 16.8L594 207l10.2-8.7z"/><path class="st33" d="M557.3 237l75.7 5.7-39 20.8z"/><path class="st19" d="M594 263.5l7.5 40.2 27-10 4.5-51z"/><path class="st22" d="M557.3 237l36.7 26.5 7.5 40.2-17.7-12z"/><path class="st33" d="M628.5 293.7l7.3 14.6-34.3-4.6z"/><path class="st32" d="M583.8 291.7l-16.1 13 33.8-1z"/><path class="st22" d="M644.7 209.7l-7.5 8 4.3 17.1 22.8-14.3z"/><path class="st19" d="M642.3 173.2l42.9 35-20.9 12.3-26.4-14z"/><path class="st24" d="M637.2 217.7l-12.7 4.1 8.5 20.9 8.5-7.9z"/><path class="st23" d="M624.5 221.8l-7 19.7 15.5 1.2z"/></g><g id="man2"><path class="st20" d="M686.2 319.3l64.6-7.1 70.7 7.4-69.5 2.1z"/><path class="st7" d="M771.3 146l-47.8-14.4-14.9 52.8 21.6 9.5 1.6 13.2 27.4 4.4 13-9.8-3-13.2 9.7-12.5-10.5-10-9 11.9-4.8-5.1z"/><path class="st27" d="M769.2 188.5l9.7-12.5-10.5-10-9 11.9-4.8-5.1 16.7-26.8-13-3.9-16.2 54.2-11.9-2.4 1.6 13.2 27.4 4.4 13-9.8z"/><path class="st34" d="M765.7 177.6l3.8-4.6 3.5 3.3zM759.4 177.9l2.5 13.5 7.3-2.9zM730.2 193.9l11.9 2.4 12.5 2.2-22.8 8.6z"/><path class="st27" d="M751.1 150.6L734 172l-5.7 2.4-2.1-4.9 6.5-13.2-5.7-14.4z"/><path class="st26" d="M726.2 169.5l8.3-24.6 6.8 2.7L734 172z"/><path class="st35" d="M749.9 153.3l1.3-4.5-25.1-8 1.2 2.2zM747.1 160.3c-.5 1.8-1.9 3-3.1 2.6-1.2-.4-1.7-2.1-1.2-3.9.5-1.8 1.9-3 3.1-2.6 1.2.3 1.8 2.1 1.2 3.9zM728.6 153.6c-.5 1.8-1.9 3-3.1 2.6-1.2-.4-1.7-2.1-1.2-3.9.5-1.8 1.9-3 3.1-2.6 1.2.4 1.7 2.1 1.2 3.9z"/><path class="st6" d="M719.2 174.2l8.7 3.9 10.6 2.5-.8 1.7-10.9-2-8.2-4.3zM723.5 131.6l2.8-10.4 70.4 20.2-25.4 4.6z"/><path class="st36" d="M771.3 146l-8.6 12.8 27 1.8 7-19.2z"/><path class="st6" d="M762.7 158.8l-8.1 14 4.8 5.1 9-11.9 10.5 10-9.7 12.5 3 13.2 17.5-41.1z"/><path class="st37" d="M731.8 207.1l27.4 4.4-17.4 12.9-14.4-8.9z"/><path class="st38" d="M772.2 201.7l-30.4 22.7 1.7 22.5 40-20.2z"/><path class="st27" d="M741.8 224.4l-14.4-8.9-4.8 15.7z"/><path class="st37" d="M741.8 224.4l-19.2 6.8 20.9 15.7z"/><path class="st37" d="M727.4 215.5L713 233.8l9.6-2.6z"/><path class="st39" d="M713 233.8l9.6-2.6v10.6z"/><path class="st40" d="M722.6 231.2v10.6l-.1 10.3 18.8 11.7 27 16.3 11.3-25.7 3.9-27.7-40 20.2z"/><path class="st39" d="M743.5 246.9l-2.2 16.9 29.9 18 8.4-27.4 3.9-27.7z"/><path class="st38" d="M722.5 252.1l-27.1 16.4 26.8 12.8 49 .5z"/><path class="st37" d="M695.4 268.5l8.9 36.9 18.6 13.8-.7-37.9z"/><path class="st38" d="M704.3 305.4l18.6 13.8h-33.3z"/><path class="st37" d="M741.7 263.8l-19.5 17.5H765l1.3-2.7z"/><path class="st39" d="M775.8 299.1h-53.6v-17.8H765z"/><path class="st41" d="M765 281.3l36.7-81.7 16.1 7-42 92.5z"/><path class="st42" d="M722.2 299.1h13.2v20h-13.2zM762.6 299.1h13.2v20h-13.2z"/></g><g id="woman2"><path class="st20" d="M960 316.7l62.5-6.5 61.7 6-60.9 2.8z"/><path fill-rule="evenodd" clip-rule="evenodd" fill="#b5b5b5" d="M981.2 279.6l6.7 24.6 9.4 1.5v-29.3z"/><path class="st39" d="M997.3 305.7l-.8 9.7h-19.7l11.1-11.2z"/><path class="st44" d="M1002.5 138.4L987 186.9l19.1 10.1 10 23.6 23.6-9.8 9.9-13.8-.3-6.5 8.8-8.6-8.8-9.6-5.2 5.9-2.7-1.7 6.5-23.4z"/><path fill-rule="evenodd" clip-rule="evenodd" fill="#a5a5a5" d="M1047.9 153.1l-27.4 49.3-14.4-5.4 10 23.6 23.6-9.8 9.9-13.8-.3-6.5 8.8-8.6-8.8-9.6-5.2 5.9-2.7-1.7z"/><path fill-rule="evenodd" clip-rule="evenodd" fill="#a5a5a4" d="M1032.2 161.9l-17.4 11.9-6.4 2.9-3.4-6.5 3.2-6-6.1-13.4 8.8 3.3 9.8 3.4z"/><path class="st47" d="M1032.2 161.9l-10.2-8-1.3 3.6zM1012.1 150.6l-1.2 3.5-8.8-3.3z"/><path fill-rule="evenodd" clip-rule="evenodd" fill="#d1d1d1" d="M1010.9 154.1l-6.1 17 9.4 3.5 6.5-17.1z"/><path class="st35" d="M1000.8 179l7.1.2 5.3 4.4h-6.7z"/><path class="st49" d="M998.5 176.7l2.3 2.3 5.7 4.6h6.7l4.8.2-13.2 3.6z"/><path class="st35" d="M1026.4 167.5c-.6 1.6-2 2.6-3.2 2.2-1.2-.4-1.7-2.1-1.1-3.7.6-1.6 2-2.6 3.2-2.2s1.7 2 1.1 3.7zM1006 160.3c-.6 1.6-2 2.6-3.2 2.2-1.2-.4-1.7-2.1-1.1-3.7.6-1.6 2-2.6 3.2-2.2 1.2.4 1.7 2.1 1.1 3.7z"/><path class="st49" d="M1006.1 197l14.4 5.4 7.5 2.7-11.9 15.5zM1049.3 190.5l-7.9-7.9 3.6 20.7 4.6-6.3z"/><path class="st27" d="M1045.6 186.7l3.7 3.8-1.8 6.9-4.8-1.5z"/><path class="st49" d="M1045.4 181.5l4.2-4.2 4.1 4.4z"/><path class="st35" d="M1002.5 138.4l-7.5 24.1-5.9-33.3z"/><path class="st40" d="M1002.5 138.4l19.2 8 8.4-33.9-41 16.7z"/><path fill-rule="evenodd" clip-rule="evenodd" fill="#848484" d="M1021.7 146.4l8.4-33.9 54.2 31.4-36.4 9.2z"/><path class="st35" d="M1047.9 153.1l36.4-9.2-34.7 53.1-.3-6.5 8.8-8.6-8.8-9.6-5.2 5.9-2.7-1.7z"/><path class="st25" d="M1039.7 210.8l-23.6 9.8-13.2 6.1 2.7 11.9 16.4-3.4z"/><path class="st38" d="M1039.7 210.8l13 25.9-23.8 13.6-6.9-15.1z"/><path class="st27" d="M1022 235.2l-24.1 4.4-2.7 10.9 8.1.6 25.6-.8z"/><path class="st44" d="M995.2 250.5l-6.7 7.5-.6-16.5 10-1.9z"/><path class="st37" d="M1052.7 236.7l-14.6 41.8-42.9-28 33.7-.2z"/><path class="st40" d="M995.2 250.5l-6.7 7.5-4.4 5.5 12.6 14.2 41.4.8z"/><path class="st38" d="M984.1 263.5l-15.7 17.9 8.8 4.2 19.5-7.9z"/><path class="st39" d="M968.4 281.4l-13.1-5.6 12.5 17.6 9.4-7.8zM1050.1 295.4h-53.6v-17.7h42.8z"/><path class="st41" d="M1039.3 277.7l36.6-81.8 16.2 7-42 92.5z"/><path class="st42" d="M996.5 295.4h13.2v20h-13.2zM1036.9 295.4h13.2v20h-13.2z"/></g><g id="woman"><path class="st20" d="M826 324.7l62.5-6.5 61.7 6-60.9 2.8z"/><path class="st7" d="M877.9 124.2l41.2 23.7 5.3 33.2-7.8 20.4-28 9.2-4.4-23.5-21.3-9.2z"/><path class="st27" d="M919.1 147.9L900.7 193l-16.5-5.8 4.4 23.5 28-9.2 7.8-20.4zM905.7 152l-18.1 10.2-4.9 2-2.3-5 4-7.9-6.5-11.6 10.2 3.4 6.5 2.9z"/><path class="st26" d="M888.1 143.1l-7.7 16.1 7 3.2 7.7-16.2z"/><path class="st41" d="M895.1 146.2l1.8-3.2 8.8 9zM888.1 143.1l1.2-3.1-11.4-.3zM872.7 166.6l9.4.8 6.7 6.6-8.7-3z"/><path class="st36" d="M872.7 166.6l6.1 7.5 10-.1-8.4-2.9z"/><path class="st35" d="M900.7 156.3c-.6 1.6-2 2.5-3.2 2.1-1.2-.4-1.7-2.1-1.2-3.7.6-1.6 2-2.5 3.2-2.1 1.3.5 1.8 2.1 1.2 3.7zM881.5 149c-.6 1.6-2 2.5-3.2 2.1-1.2-.4-1.7-2.1-1.2-3.7.6-1.6 2-2.5 3.2-2.1 1.2.4 1.8 2.1 1.2 3.7z"/><path class="st36" d="M877.9 124.2l33.4-12.1 37.6 16.4-29.8 19.4z"/><path fill-rule="evenodd" clip-rule="evenodd" fill="#aaa" d="M919.1 147.9l29.8-19.4 6.6 43.3z"/><path class="st40" d="M919.1 147.9l36.4 23.9-28.1 26.3-3-17z"/><path fill-rule="evenodd" clip-rule="evenodd" fill="#878787" d="M924.4 181.1l3 17-10.8 3.4z"/><path class="st34" d="M884.2 187.2l16.5 5.8 8.3 3-20.4 14.7zM916.6 201.5l3.1 7.7-37.7 33.3-14-21.2 20.6-10.6z"/><path class="st37" d="M919.7 209.2l12.1 26.8-43.6 25.8-6.2-19.3z"/><path class="st40" d="M882 242.5l-17-3.4-2.1 14.3 25.3 8.4z"/><path class="st7" d="M862.9 253.4L849 255l16-15.9z"/><path class="st39" d="M932.7 234.4l-22 47.1-22.5-19.7z"/><path class="st37" d="M910.7 281.5l-22.5-19.7-25.3-8.4 1.2 34.3 45 1.2z"/><path class="st39" d="M917.8 305h-53.6v-17.7H907z"/><path class="st41" d="M907 287.3l36.7-81.8 16.1 7-42 92.5z"/><path class="st42" d="M864.2 305h13.2v20h-13.2zM904.6 305h13.2v20h-13.2z"/><path class="st7" d="M848.6 290l-3.6 22.3 5.1 12.5 11.9-23.9z"/><path class="st37" d="M849 255l-3 19.1 16.9-20.7z"/><path class="st41" d="M862.9 253.4l-25.2 29.2 26.5 22.4v-17.7z"/><path class="st38" d="M850.1 324.8h-18.3l13.2-12.5z"/></g><g id="character"><path class="st20" d="M399.6 309.2l63.7-6 58.7 6.9-62.6 8.7z"/><path class="st53" d="M447.6 82l6.2-6.7 7-1.3 2.6 6.6.2 9 7.3 40.1-18.3 4.6-21.9 1.5L420.1 98 418 80.2l15.1-1.8z"/><path class="st54" d="M427.4 93.9l15.3 8.9 3.9 9.8-.8-11.5-1.9-6.2zM451.4 89.7l-1.8 4.4-.2 4.5 2.2 5.6 10.1-16.5-4.7-5.3z"/><path class="st55" d="M456.4 98.9c1.2 0 2.1-1.4 2.1-3 0-1.7-1-3-2.1-3-1.2 0-2.1 1.4-2.1 3s1 3 2.1 3zM437.2 103.3c1.2 0 2.1-1.4 2.1-3 0-1.7-1-3-2.1-3-1.2 0-2.1 1.4-2.1 3-.1 1.6.9 3 2.1 3z"/><path class="st56" d="M443.9 94.9l-15.5-4.8-1 3.8 13.7 4.4zM449.6 87.3l7.4-4.9 4.7 5.3-2.7 2.2-3.3-3.8-4.3 3.6z"/><path class="st57" d="M449.6 94.1L453 111l-2.7 1.8-3.7-.2-2.7-17.7z"/><path class="st58" d="M459.4 121.6l-12.1.8-9.4-2.8 1.6-3.7-5.2 3.2 1.4 6.5 1.8-3.5 9.8 2.9z"/><path class="st54" d="M418 80.2l-8.9 10.9 2.5 8.5 6.2 10.4-2.8.7-1.6 3.1-3.3-2.4-2.6-5.8-3 4.6-3.6 2 5.4 4.4 2.4 5.3 1.5 3.4.8 6.7 3.8 16.6 33.4-1.6v-7.4l22.7-9.9-40.2 6.1-8.1-39.5z"/><path class="st53" d="M413.4 113.8l1.4 3.2-6.1 4.9-7.8-9.7 6.6-6.6z"/><path class="st56" d="M463.7 90.2l2.6-19.4-5.5 3.2z"/><path class="st30" d="M447.6 82l18.7-11.2-19.9-12.5-1.5 13z"/><path class="st6" d="M447.6 82l-1.2-23.7-51.6 19.5 11.1 3.4 12.1-1z"/><path class="st30" d="M394.8 77.8l-2 30.2 9-7.6 7.3-9.3 8.9-10.9z"/><path class="st56" d="M409.1 91.1l8.7 18.9-4.4 3.8-5.9-8.2-6.6 6.6-8.1-4.2z"/><path class="st58" d="M404.5 112.6l2.4-2.4 3 5zM408.7 121.9l4.3-3.6-1.9 14zM423.9 136.7l47-7-22.7 9.9v7.4l-14.1-3.4zM453 111l-2.8 4.6-3.6-3z"/><path fill-rule="evenodd" clip-rule="evenodd" fill="#fefefe" d="M414.8 148.6l28.1 20.8 5.3-22.4z"/><path class="st60" d="M414.8 148.6l28.1 20.8-16.2 12.8-19.8 12.3-6.8-15.4-4.5-20z"/><path class="st60" d="M448.2 147l24.9 6.8-3.8 10.1-2.4 10.5-11-3-13-2z"/><path fill-rule="evenodd" clip-rule="evenodd" fill="#734c5f" d="M406.9 194.5l6.8 23.2 4.5 6.8 4.5 4.1 12.3.3 14.9.9-4.4-34.8-2.6-25.6z"/><path class="st62" d="M442.9 169.4l22 1.4 2.8 11.2-.9 8.6 2.8 15.2.3 17.5-12.9 3.5-11.2-.6z"/><path class="st63" d="M473.1 153.8l6.7 24.4-1.9.4-1.6-1.2.8 5-2.1 5.4-4.4 2.1-3.8.3-1.9-19.4z"/><path class="st60" d="M475 187.8l-1.6 8.5 11.9 10.6 5.1-4 3.9 8.5-24.4 11.9-3.1-33.1z"/><path class="st62" d="M473.4 196.3l8.7 21 8.3-14.4-2.9 1-2.2 3-4.6-5.8z"/><path class="st58" d="M490.4 202.9l5.9-6.6-3.6-9.2-5.8-7.5-2.9 3.3-1.8 5.2.3 3.6 2.4 1.3 1.9 5.6z"/><path class="st57" d="M486.9 179.6l3.1-1.7 2.3 1.3 3-.3 3.7 14.6-2.7 2.8z"/><path class="st54" d="M482.2 188.1l-2.4-3.3 14.9-26.5 3.7 5.4-6.2 15.5-5.3.4z"/><path class="st53" d="M482.9 179.2l-3.1-1-3.5-.8-1.3 10.4-1.6 8.5 5.3 4.7 6-8.4-2.5-4.5-2.4-3.3z"/><path class="st54" d="M484.7 192.6l5.7 10.3-5.1 4-6.6-5.9z"/><path class="st63" d="M395.6 159.1L376.7 211l15.7 14 6.6-10.6 3.5-10.6 4.4-9.3z"/><path class="st60" d="M402.5 203.7l11.2 14 9 10.9-5.3 7.6-6.5 5.5-18.5-16.7z"/><path class="st53" d="M422.7 228.6l-1.4 11.7-3 8.6-7.4-7.2z"/><path class="st30" d="M422.7 228.6l23.1-2.4 24.1-2.9 4.7 16.9-11.9 7-10.9 3.8-14.4-9.2z"/><path class="st6" d="M451.8 251l-.8 9.7-2.7 8.7-2.1 11.1-12.8-4.6-15.3-8.2-3.5-22.4 3.7 3.6 4.4-20.3z"/><path class="st56" d="M446.2 280.5l-3.4 16.4-4.7 4.1-7.7 2-2.9 2.6-3.1.3-6.3-38.2zM448.3 269.4l17.4 5.3 21.4 2.1-12.5-36.6-22.8 10.8z"/><path class="st30" d="M448.3 269.4l27.3 34.4 3 .2 2.8-2.3 6.6-1.3 4.9-2.9-5.8-20.7z"/><path fill-rule="evenodd" clip-rule="evenodd" fill="#e8b89d" d="M423.9 136.7l-9.1 11.9 33.4-1.6z"/><path class="st60" d="M442.8 296.9l8.7 13.5h-15.6l-4.4-3.5-1.3-3.8z"/><path class="st62" d="M430.2 303.1l5.7 7.3-10.8.2-.7-4.7z"/><path class="st60" d="M492.9 297.5l12.1 11.9-17.1-.2-4.4-3-1.9-4.6z"/><path class="st62" d="M481.6 301.6l6.3 7.6-8.7.2-3.6-5.6z"/></g></svg>