<svg id="image" xmlns="http://www.w3.org/2000/svg" viewBox="0 0 1170 350"><style>.st0{fill:#e2e2e2}.st1{fill:#7f7f7f}.st2{fill:#9e9e9e}.st3{fill:#aaa}.st4{fill:#cecece}.st6{opacity:.1;fill-rule:evenodd;clip-rule:evenodd}.st8{fill:#bfbfbf}.st9{fill:#969696}.st10{fill:#ededed}.st12{fill:#a3a3a3}.st13{opacity:.3;fill:#fff}.st16{fill:#bcbcbc}.st17{fill:#777}.st18{fill:#707070}.st19,.st21,.st22,.st23,.st24{fill-rule:evenodd;clip-rule:evenodd;fill:#707070}.st21,.st22,.st23,.st24{fill:#cecece}.st22,.st23,.st24{fill:#fff}.st23,.st24{fill:#a0a0a0}.st24{fill:#777}.st29{fill:#939393}.st31{fill:#fff}.st32{fill:#686868}.st33{fill:#d0d0d0}.st34{fill:#848484}.st35{fill:#919191}.st36{fill:#999}.st38{fill:#8e8e8e}.st39{fill:#707777}.st40{fill:#5e5e5e}.st41{fill:#5a6060}.st48,.st49{fill-rule:evenodd;clip-rule:evenodd;fill:#27788c}.st49{fill:#3aa0ba}.st50,.st51,.st52,.st53,.st54,.st55{fill-rule:evenodd;clip-rule:evenodd;fill:#318fa6}.st51,.st52,.st53,.st54,.st55{fill:#5ec0d9}.st52,.st53,.st54,.st55{fill:#1c7678}.st53,.st54,.st55{fill:#369496}.st54,.st55{fill:#165e60}.st55{fill:#51a9ab}.st56,.st57,.st58,.st59,.st60,.st61{fill-rule:evenodd;clip-rule:evenodd;fill:#72cbcc}.st57,.st58,.st59,.st60,.st61{fill:#edc0a8}.st58,.st59,.st60,.st61{fill:#c4c4c4}.st59,.st60,.st61{fill:#8f8f8f}.st60,.st61{fill:#ffdbc7}.st61{fill:#c4937d}.st62{fill:#474747}.st62,.st63,.st64,.st67{fill-rule:evenodd;clip-rule:evenodd}.st64,.st67{fill:#e5c82e}.st67{fill:#e3e3e3}</style><g id="bg"><path class="st0" d="M-10-11h1190v369H-10z"/><path class="st1" d="M67 91h19v159H67z"/><path class="st2" d="M27.8 57.5L12 83.7 56.4 136l69.7-10.7-6.3-72.6z"/><path class="st3" d="M18.3 45l62.6-63L138 45l-29.3 81.3-80.1-42.6z"/><path class="st1" d="M625 81h19v159h-19z"/><path class="st2" d="M594 48l-10 38 30.4 40 69.7-10.7-6.3-72.6z"/><path class="st3" d="M576.3 35L607-20l89 39-22 79-87.4-24.3z"/><path class="st1" d="M819 81h19v159h-19z"/><path class="st2" d="M779.8 47.5L764 73.7l65 60.3 49.1-18.7-6.3-72.6z"/><path class="st3" d="M770.3 35L856-21l34 56-29.3 81.3-80.1-42.6z"/><g><path class="st1" d="M1063 81h19v159h-19z"/><path class="st2" d="M1023.8 47.5L1008 73.7l45 39.3 32 22 42-15 8-62z"/><path class="st3" d="M1014.3 35l62.6-63 68.1 79-40.3 65.3-80.1-42.6z"/></g><path class="st4" d="M-15.5 207.5l31.5-43L44 176l3.5 11.5L64 166l28.5-6.5L124 175l2 6 15-10 24.5 4.5L172 189l27-2.5 4.5-10.5 32-9 19 11 15.5 4 1-14.5 38-7.5 21 13 7 5.5 3.5-10 30-3.5 10 11 23-12.5 16.5-10 7 24.5 33.5 13.5s16.5-13 18-14 16.5-13.5 18.5-13 28 13.5 28.5 16S537 188 537 188l5-10s18-7.5 19.5-6 23.5 1.5 23.5 1.5 7.5-11 9-11 23 6 23 6l15.5-10.5 39.5 9.5 7.5-6.5 21 6.5.5 8.5 18.5 1.5 13.5-10 22.5-14.5 49.5 12 18 7 14-7.5 17.5-4 16.5 8 16.5 4.5 12-12 20-9.5 24.5 12 23 2.5 12-13.5 21-9 18 .5 7 20.5 24 8 13.5-11.5 26.5 5 4 9.5h13l45.5-26.5 6.5 15.5 12 10 21-14.5-2 148-1209 2.5 4.5-103z"/><path fill="#dbdbdb" d="M-10 299h1190v59H-10z"/><path class="st6" d="M42 324l110-6 175 9-184 7zM412 324l155.5-6 247.5 9-260.2 7z"/></g><g id="fence2"><path fill="#a5a5a5" d="M160.5 34.5h318.6v18.8H160.5z"/><path class="st8" d="M195.5 309.4h-38.3V34.7l19-21 19.3 21z"/><path class="st9" d="M180 46.9c0 2.1-1.7 3.7-3.7 3.7-2.1 0-3.7-1.7-3.7-3.7s1.7-3.7 3.7-3.7c2.1 0 3.7 1.7 3.7 3.7z"/><path class="st4" d="M180 43.9c0 2.1-1.7 3.7-3.7 3.7-2.1 0-3.7-1.7-3.7-3.7s1.7-3.7 3.7-3.7c2.1 0 3.7 1.7 3.7 3.7z"/><path class="st8" d="M236.5 309.4h-38.3V34.7l19-21 19.3 21z"/><path class="st9" d="M221 46.9c0 2.1-1.7 3.7-3.7 3.7-2.1 0-3.7-1.7-3.7-3.7s1.7-3.7 3.7-3.7c2.1 0 3.7 1.7 3.7 3.7z"/><path class="st4" d="M221 43.9c0 2.1-1.7 3.7-3.7 3.7-2.1 0-3.7-1.7-3.7-3.7s1.7-3.7 3.7-3.7c2.1 0 3.7 1.7 3.7 3.7z"/><path class="st8" d="M277.5 309.4h-38.3V34.7l19-21 19.3 21z"/><path class="st9" d="M262 46.9c0 2.1-1.7 3.7-3.7 3.7-2.1 0-3.7-1.7-3.7-3.7s1.7-3.7 3.7-3.7c2.1 0 3.7 1.7 3.7 3.7z"/><path class="st4" d="M262 43.9c0 2.1-1.7 3.7-3.7 3.7-2.1 0-3.7-1.7-3.7-3.7s1.7-3.7 3.7-3.7c2.1 0 3.7 1.7 3.7 3.7z"/><path class="st8" d="M318.5 309.4h-38.3V34.7l19-21 19.3 21z"/><path class="st9" d="M303 46.9c0 2.1-1.7 3.7-3.7 3.7-2.1 0-3.7-1.7-3.7-3.7s1.7-3.7 3.7-3.7c2.1 0 3.7 1.7 3.7 3.7z"/><path class="st4" d="M303 43.9c0 2.1-1.7 3.7-3.7 3.7-2.1 0-3.7-1.7-3.7-3.7s1.7-3.7 3.7-3.7c2.1 0 3.7 1.7 3.7 3.7z"/><path class="st8" d="M359.5 309.4h-38.3V34.7l19-21 19.3 21z"/><path class="st9" d="M344 46.9c0 2.1-1.7 3.7-3.7 3.7-2.1 0-3.7-1.7-3.7-3.7s1.7-3.7 3.7-3.7c2.1 0 3.7 1.7 3.7 3.7z"/><path class="st4" d="M344 43.9c0 2.1-1.7 3.7-3.7 3.7-2.1 0-3.7-1.7-3.7-3.7s1.7-3.7 3.7-3.7c2.1 0 3.7 1.7 3.7 3.7z"/><path class="st8" d="M400.5 309.4h-38.3V34.7l19-21 19.3 21z"/><path class="st9" d="M385 46.9c0 2.1-1.7 3.7-3.7 3.7-2.1 0-3.7-1.7-3.7-3.7s1.7-3.7 3.7-3.7c2.1 0 3.7 1.7 3.7 3.7z"/><path class="st4" d="M385 43.9c0 2.1-1.7 3.7-3.7 3.7-2.1 0-3.7-1.7-3.7-3.7s1.7-3.7 3.7-3.7c2.1 0 3.7 1.7 3.7 3.7z"/><path class="st8" d="M441.5 309.4h-38.3V34.7l19-21 19.3 21z"/><path class="st9" d="M426 46.9c0 2.1-1.7 3.7-3.7 3.7-2.1 0-3.7-1.7-3.7-3.7s1.7-3.7 3.7-3.7c2.1 0 3.7 1.7 3.7 3.7z"/><path class="st4" d="M426 43.9c0 2.1-1.7 3.7-3.7 3.7-2.1 0-3.7-1.7-3.7-3.7s1.7-3.7 3.7-3.7c2.1 0 3.7 1.7 3.7 3.7z"/><path class="st8" d="M482.5 309.4h-38.3V34.7l19-21 19.3 21z"/><path class="st9" d="M467 46.9c0 2.1-1.7 3.7-3.7 3.7-2.1 0-3.7-1.7-3.7-3.7s1.7-3.7 3.7-3.7c2.1 0 3.7 1.7 3.7 3.7z"/><path class="st4" d="M467 43.9c0 2.1-1.7 3.7-3.7 3.7-2.1 0-3.7-1.7-3.7-3.7s1.7-3.7 3.7-3.7c2.1 0 3.7 1.7 3.7 3.7z"/><path class="st10" d="M282.1 55.5l46-28.5-6.8 7.5-36.8 22.9zM360.9 32.4l11.3 38.7-2.8.3-11.2-38.2z"/><path opacity=".1" d="M420.7 175.3L207 147.6l13.3-99.8L434 75.5z"/><path class="st10" d="M419.7 172.3L206 144.6l13.3-99.8L433 72.5z"/></g><g id="fence"><path class="st12" d="M-55 217l66.3 98h9.5l-66.3-98zM-25 217l66.3 98h9.5l-66.3-98zM5 217l66.3 98h9.5l-66.3-98zM35 217l66.3 98h9.5l-66.3-98zM65 217l66.3 98h9.5l-66.3-98zM95 217l66.3 98h9.5l-66.3-98zM125 217l66.3 98h9.5l-66.3-98zM155 217l66.3 98h9.5l-66.3-98zM185 217l66.3 98h9.5l-66.3-98zM215 217l66.3 98h9.5l-66.3-98zM245 217l66.3 98h9.5l-66.3-98zM275 217l66.3 98h9.5l-66.3-98zM305 217l66.3 98h9.5l-66.3-98zM335 217l66.3 98h9.5l-66.3-98zM365 217l66.3 98h9.5l-66.3-98zM395 217l66.3 98h9.5l-66.3-98zM425 217l66.3 98h9.5l-66.3-98zM455 217l66.3 98h9.5l-66.3-98zM485 217l66.3 98h9.5l-66.3-98zM515 217l66.3 98h9.5l-66.3-98zM545 217l66.3 98h9.5l-66.3-98zM575 217l66.3 98h9.5l-66.3-98zM605 217l66.3 98h9.5l-66.3-98zM635 217l66.3 98h9.5l-66.3-98zM665 217l66.3 98h9.5l-66.3-98zM695 217l66.3 98h9.5l-66.3-98zM725 217l66.3 98h9.5l-66.3-98zM755 217l66.3 98h9.5l-66.3-98zM785 217l66.3 98h9.5l-66.3-98zM815 217l66.3 98h9.5l-66.3-98zM845 217l66.3 98h9.5l-66.3-98zM875 217l66.3 98h9.5l-66.3-98zM905 217l66.3 98h9.5l-66.3-98zM935 217l66.3 98h9.5l-66.3-98zM965 217l66.3 98h9.5l-66.3-98zM995 217l66.3 98h9.5l-66.3-98zM1025 217l66.3 98h9.5l-66.3-98zM1055 217l66.3 98h9.5l-66.3-98zM1085 217l66.3 98h9.5l-66.3-98zM1115 217l66.3 98h9.5l-66.3-98zM1145 217l66.3 98h9.5l-66.3-98z"/><g><path class="st12" d="M1227.8 217l-66.3 98h-9.5l66.3-98zM1197.8 217l-66.3 98h-9.5l66.3-98zM1167.8 217l-66.3 98h-9.5l66.3-98zM1137.8 217l-66.3 98h-9.5l66.3-98zM1107.8 217l-66.3 98h-9.5l66.3-98zM1077.8 217l-66.3 98h-9.5l66.3-98zM1047.8 217l-66.3 98H972l66.3-98zM1017.8 217l-66.3 98H942l66.3-98zM987.8 217l-66.3 98H912l66.3-98zM957.8 217l-66.3 98H882l66.3-98zM927.8 217l-66.3 98H852l66.3-98zM897.8 217l-66.3 98H822l66.3-98zM867.8 217l-66.3 98H792l66.3-98zM837.8 217l-66.3 98H762l66.3-98zM807.8 217l-66.3 98H732l66.3-98zM777.8 217l-66.3 98H702l66.3-98zM747.8 217l-66.3 98H672l66.3-98zM717.8 217l-66.3 98H642l66.3-98zM687.8 217l-66.3 98H612l66.3-98zM657.8 217l-66.3 98H582l66.3-98zM627.8 217l-66.3 98H552l66.3-98zM597.8 217l-66.3 98H522l66.3-98zM567.8 217l-66.3 98H492l66.3-98zM537.8 217l-66.3 98H462l66.3-98zM507.8 217l-66.3 98H432l66.3-98zM477.8 217l-66.3 98H402l66.3-98zM447.8 217l-66.3 98H372l66.3-98zM417.8 217l-66.3 98H342l66.3-98zM387.8 217l-66.3 98H312l66.3-98zM357.8 217l-66.3 98H282l66.3-98zM327.8 217l-66.3 98H252l66.3-98zM297.8 217l-66.3 98H222l66.3-98zM267.8 217l-66.3 98H192l66.3-98zM237.8 217l-66.3 98H162l66.3-98zM207.8 217l-66.3 98H132l66.3-98zM177.8 217l-66.3 98H102l66.3-98zM147.8 217l-66.3 98H72l66.3-98zM117.8 217l-66.3 98H42l66.3-98zM87.8 217l-66.3 98H12l66.3-98zM57.8 217l-66.3 98H-18l66.3-98zM27.8 217l-66.3 98H-48l66.3-98z"/></g><path class="st12" d="M-56.1 216.4H1256v8.3H-56.1z"/></g><path class="st13" d="M-9-9h1191v367H-9z" id="white"/><g id="mom"><path fill="#bababa" d="M95.2 173.2l17.6 20.7-11.1 2.6-24.1-16.2z"/><path class="st10" d="M112.8 193.9l-5.2 19.7-5.9-17.1zM149.1 276.7L136.4 312l-5.7-.3v-35.5z"/><path fill="#878787" d="M130.7 311.7l5.7.3 6.7 12.4h-12.4z"/><path class="st16" d="M112.3 276.7L125 312l5.7-.3v-35.5z"/><path class="st9" d="M130.7 311.7l-5.7.3-6.8 12.4h12.5z"/><path class="st17" d="M115 183.9l-25.3 95.9 80.1-.3-19.7-90.5z"/><path class="st18" d="M115 183.9l27.1 27.4 19.9-39-24.9-3.8z"/><path class="st10" d="M117.3 130.4l-39.7 49.9 31.1-12.4 28.1-.6 22.8-8.6 7.3 3.2 5.1-10.4-15.9-12.7-20-11.6z"/><path class="st4" d="M117.3 130.4l11.9 7.1 6.9-10.3z"/><path class="st19" d="M148.1 115.2l8.2-19.1-14.2-9.4zM84.5 117.8l20.6 11.6-5.6-31.7z"/><path fill-rule="evenodd" clip-rule="evenodd" fill="#ededed" d="M140.8 68.5l11.4 55.1-53.7 11.1-10-57.7z"/><path class="st21" d="M105.3 97.3l13.7 11.4 5.5 2.9 2.9-4.6 7-16-9.1 1-9.7 2.5z"/><path class="st22" d="M115.6 94.5l3.4 14.2 8.4-1.7-2.1-15z"/><path class="st23" d="M115.6 94.5l-1.1-3.6-9.2 6.4zM124.9 88.8l.4 3.2 9.1-1z"/><path class="st24" d="M114.8 102.2c0 1.4-1.1 2.6-2.4 2.6-1.3 0-2.4-1.2-2.4-2.6 0-1.4 1.1-2.6 2.4-2.6 1.4 0 2.4 1.1 2.4 2.6zM133.1 98.2c0 1.4-1.1 2.6-2.4 2.6-1.3 0-2.4-1.2-2.4-2.6 0-1.4 1.1-2.6 2.4-2.6 1.4 0 2.4 1.2 2.4 2.6z"/><path fill-rule="evenodd" clip-rule="evenodd" fill="#9b9b9b" d="M119.6 118.4l5.6-4.2 5.9 1.6-5.6 3.6z"/><path fill-rule="evenodd" clip-rule="evenodd" fill="#b5b5b5" d="M115.7 118.1l10.4.1 8.6-4.4-7.7 7.8z"/><path class="st21" d="M98.5 134.7l6.3-1.3L93 76.3l-4.5.7z"/><path fill-rule="evenodd" clip-rule="evenodd" fill="#939393" d="M118.5 76.5l-34 41.3-15-12.4 19-29.5 27.6-8.4z"/><path fill-rule="evenodd" clip-rule="evenodd" fill="#848484" d="M118.5 76.5l37.8 19.6 4.2-9-20.2-21-24.2 1.4z"/><path class="st29" d="M107.9 142.2l12.2 20.4 28.6-6.6-1.5-22.4 8.9 5.2 3.5 19.9 2.4 13.6-25.5.5-21.5 11.1L99.3 153z"/><path class="st16" d="M166.9 161.9l10.7-21.9 7.8 3.1-3.7 22.3z"/><path class="st10" d="M177.6 140l-3.9-10.4 10.1-15 9.1 2.9-.3 16-7.2 9.6z"/><path fill="#c6c6c6" d="M192.6 133.5l-18.9-3.9 10.1-15 9.1 2.9z"/><path class="st31" d="M177.6 140l-3.9-10.4 5.7-8 3.9.8-2.6 18.9z"/></g><g id="table2"><path class="st32" d="M138.3 328.6L88.1 224.4H72.6l50.2 104.2z"/><path class="st1" d="M72.6 328.6l50.2-104.2h15.5L88.1 328.6z"/><path class="st16" d="M248.1 210.9H236l-2.9-25H251z"/><path class="st12" d="M234.3 196.3l1.7 14.6h12.1l1.7-14.6z"/><path class="st13" d="M238.7 189.5h1.5v17.7h-1.5z"/><path class="st33" d="M233.2 187h17.6l.2-1.1h-17.9z"/><path class="st16" d="M272.1 210.9H260l-2.9-25H275z"/><path class="st12" d="M258.3 196.3l1.7 14.6h12.1l1.7-14.6z"/><path class="st13" d="M262.8 189.5h1.5v17.7h-1.5z"/><path class="st33" d="M257.2 187h17.7l.1-1.1h-17.9z"/><path class="st16" d="M296.1 210.9H284l-2.9-25H299z"/><path class="st12" d="M282.3 196.3l1.7 14.6h12.1l1.7-14.6z"/><path class="st13" d="M286.8 189.5h1.5v17.7h-1.5z"/><path class="st33" d="M281.3 187h17.6l.1-1.1h-17.9z"/><g><path class="st32" d="M195.8 188.1c-4.2 0-7.6 3.3-7.6 7.4 0 4.1 3.4 7.4 7.6 7.4 4.2 0 7.6-3.3 7.6-7.4 0-4.1-3.4-7.4-7.6-7.4zm1.5 12.7c-2.8 0-5.1-2.2-5.1-5s2.3-5 5.1-5 5.1 2.2 5.1 5c.1 2.7-2.2 5-5.1 5z"/><path class="st17" d="M225.2 197.4c0 9.3-6.8 16.9-15.3 16.9-8.4 0-15.3-7.6-15.3-16.9 0-9.3 6.8-16.9 15.3-16.9 8.5.1 15.3 7.6 15.3 16.9z"/><path class="st32" d="M220.3 185.1h-20.7l-4.8-10.7h30.3z"/></g><path class="st34" d="M58.7 209.5h243.8v16.2H58.7z"/><path class="st32" d="M108 274.9c0 1.3-1.1 2.4-2.4 2.4-1.3 0-2.4-1.1-2.4-2.4 0-1.3 1.1-2.4 2.4-2.4 1.3-.1 2.4 1 2.4 2.4zM287.2 328.6L237 224.4h-15.5l50.2 104.2z"/><path class="st1" d="M221.5 328.6l50.2-104.2h15.5L237 328.6z"/><path class="st32" d="M256.9 274.9c0 1.3-1.1 2.4-2.4 2.4-1.3 0-2.4-1.1-2.4-2.4 0-1.3 1.1-2.4 2.4-2.4 1.3-.1 2.4 1 2.4 2.4z"/></g><g id="child1"><path class="st35" d="M467.5 193.8l-4.5 47.3 8.6 3.5 4.1-25.9z"/><path class="st10" d="M463 241.1l-4.4 8.4 12.1-.6.9-4.3z"/><path class="st35" d="M509.8 190.3l6 50.8-8.7 3.5-5.2-29.4z"/><path class="st10" d="M515.8 241.1l4.3 8.4-12.1-.6-.9-4.3z"/><path class="st34" d="M477.9 231.7l-7.2 17.2h28.7l7.6-6.8-8.8-10.1z"/><path class="st18" d="M468.3 194.2l21.3-8.8 20.2 4.9-11.6 41.7-20.3-.3z"/><path class="st4" d="M480.5 182l11.4 13.5 3.1-16.4z"/><path class="st10" d="M462.9 172.4l-6.2.5-2.6-10.1 6.5-1.8zM509.6 159.7l-2.1-11.4 5.2-1.8 1.3 10.6z"/><path class="st36" d="M451.5 141.6l-5.4 8.8 16 21-4.1-15.1zM504.4 129.9l8.3 3.4-3.1 24.6z"/><path class="st10" d="M455.4 142.3l9.8 44.1 48.8-10.1-9.6-46.4z"/><path class="st4" d="M470.2 154l11.9 9.6 6.7 2.8 3.9-4.6 5.2-15.1-8.3 2.1-10.4 3.4z"/><path class="st17" d="M498.7 154.8c0 1.4-1.2 2.6-2.6 2.6-1.4 0-2.6-1.2-2.6-2.6 0-1.4 1.2-2.6 2.6-2.6 1.4 0 2.6 1.1 2.6 2.6z"/><circle class="st17" cx="475.7" cy="159.6" r="2.6"/><path class="st17" d="M479.2 152.2l-.7-3.6-8.3 5.4zM489.1 144.9l8.8 1.8-8.3 2.1z"/><path class="st31" d="M479.2 152.2l2.9 11.4 10.6-1.8-3.1-13z"/><path class="st17" d="M474.8 169l14.5 1.1 10.4-6.3.5 1.6-10.3 7-14.8-1.8z"/><path fill="#adadad" d="M504.4 129.9L458 156.3l-6.5-14.7 29-18.4z"/></g><g id="child2"><path class="st18" d="M553.8 130.5l-16.4-5.5 1.6 18.7zM598.1 134.9l15.9-.6-4.9 19.8zM553.5 186.3l-13.2 15.4 33.7 6.4 29.5-8.4L590 186z"/><path class="st34" d="M567.8 172.6l-14.3 13.7 10.6 26.8 20.6.1L590 186l-13.9-12z"/><path class="st4" d="M567.8 172.6l3.3 7.6 5-6.2z"/><path class="st10" d="M552.5 142.5l-6.2-.9-.6 9.4 5.8.9zM596.8 149.4l5.6.7-1.7 9.8-5.8-1.7z"/><path class="st10" d="M554.7 123.6l45.8 6.9-7.1 46.5-45.5-7.1z"/><path class="st4" d="M561.6 139.9l8.1 13 3.1 5.3 5.3-4.1 10.7-9.4-9.1-2-8.9-1.5z"/><path class="st38" d="M561.6 139.9l9.7-2-.5 3.3zM579.7 142.7l.5-3.3 8.6 5.3z"/><path class="st31" d="M570.8 141.2l-1.1 11.7 8.4 1.2 1.6-11.4z"/><path class="st39" d="M587.3 150.5c0 1.5-1.2 2.7-2.7 2.7-1.5 0-2.7-1.2-2.7-2.7 0-1.5 1.2-2.7 2.7-2.7 1.5 0 2.7 1.2 2.7 2.7zM567.4 147.1c0 1.5-1.2 2.7-2.7 2.7-1.5 0-2.7-1.2-2.7-2.7 0-1.5 1.2-2.7 2.7-2.7 1.5 0 2.7 1.2 2.7 2.7z"/><path class="st17" d="M560.3 156.7l27 4.3-9.9 5.9-9.9-1.6z"/><path class="st31" d="M564.7 159.1l17.7 2.8-4.6 3.4-9.3-1.5z"/><path class="st29" d="M577.5 124.4l-25 17.4-2 9.9 1.1-28.4 24.1-2.2z"/><path class="st34" d="M577.5 124.4l19.4 24.3-.6 9.8 5.8-27.7L580 121l-4.3.1z"/><path class="st29" d="M547.8 193.1l21.6 9.5-.3 9-23-.6-5.8-9.3zM603.5 199.7l-31.3 5.3 10.7 5.8 20.6-.6z"/><path class="st10" d="M569.4 202.6l16.6 7.9-16.9 1.1z"/><path class="st18" d="M558.7 217.7l-7.1 32.9 49.7.3-13.5-33.2z"/></g><g id="child3"><path class="st10" d="M696.3 213.6l-5.9 22.4-6.2.1-.5-22.3z"/><path class="st34" d="M684.1 231.7l.1 4.4 6.2-.1 1-3.8z"/><path class="st40" d="M690.4 236l-2.7 14-19.4 1 15.9-14.9z"/><path class="st34" d="M681 250.3l-2.8-8.6-9.9 9.3z"/><path class="st10" d="M706.8 213.6l5.8 22.4 6.3.1.4-22.3z"/><path class="st34" d="M719 231.7l-.1 4.4-6.3-.1-1-3.8z"/><path class="st40" d="M712.6 236l2.8 14 19.3 1-15.8-14.9z"/><path class="st34" d="M722 250.3l2.9-8.6 9.8 9.3z"/><path class="st18" d="M717 147.1l13.6 15.8-10.9 6.6-4.5-4.9z"/><path class="st34" d="M694.6 143.5l-4-1.7-5.5 14.6 1 23.8 29.4.8 1.5-33.9z"/><path class="st18" d="M680.1 75.4l-13.2 21.3 15.7 21.3 9-8.1-3.2-18.4z"/><path class="st10" d="M686 92l38.1-7 10.1 41.4-26.1 8.4-5.6 15.7-7.9-7-9.8-21.5-4.4 1.1-3.4-12.9 8.7-2.5z"/><path class="st4" d="M694.9 100.4l13.2 10.1 5.6 4.2 2.8-5.9 7.3-12.9-9.3 1.7L705 99z"/><path class="st4" d="M734.2 126.4l-35.1 5.4-10.7-40.3-2.4.5-.3 15.7-8.7 2.5 3.4 12.9 4.4-1.1 9.8 21.5 7.9 7 5.6-15.7z"/><path class="st29" d="M694.9 100.4l9.6-5.1.5 3.7zM713.7 93.6l.8 4 9.3-1.7z"/><path class="st31" d="M705 99l3.1 11.5 8.4-1.7-2-11.2z"/><path class="st41" d="M705 105.4c0 1.4-1.1 2.5-2.5 2.5s-2.5-1.1-2.5-2.5 1.1-2.5 2.5-2.5 2.5 1.1 2.5 2.5zM722.1 101.8c0 1.4-1.1 2.5-2.5 2.5s-2.5-1.1-2.5-2.5 1.1-2.5 2.5-2.5 2.5 1.1 2.5 2.5z"/><path class="st34" d="M703.3 117.7l11-.2 8.7-4.2.5 2.5-9 4.2-10.9.3zM724.1 85l6.7-17.4-50.7 7.8 8.3 16.1z"/><path class="st18" d="M681.2 111.9l4.2-.9.8 4.8z"/><path fill="#b7b7b7" d="M686.7 126l2.9-5.7-4.8 1.7z"/><path class="st16" d="M734.2 126.4l-35.1 5.4-4.5.6 7.9 18.1 5.9-15.2z"/><path class="st18" d="M690.6 141.8l-13.1-9.4-7.4 10.5 15 13.5z"/><path class="st10" d="M677.5 132.4L657.7 113l-4.1 3.9 16.5 26z"/><path class="st10" d="M657.7 113l-1.5-13.6-7.6-7.6-7 3.8 2.3 13.2 9.7 8.1z"/><path class="st4" d="M643.9 108.8l12.3-9.4-7.6-7.6-7 3.8z"/><path class="st31" d="M657.7 113l-1.5-13.6-5.4-5.6-3.4 2.2 7.9 18.4z"/><path class="st18" d="M686.1 180.2l-5.9 34.8 20.9.5.1-35.3z"/><path class="st40" d="M701.2 180.2l14.3.8 6.5 32.5-20.9 2z"/><path class="st10" d="M730.6 162.9l13 10.5-7.4 3.6-16.5-7.5z"/><path class="st4" d="M743.6 173.4l7.9 2.6 2.8 7.4-4.3 3.5-11.6-3.4-2.2-6.5z"/><path class="st10" d="M751.5 176l-13.1 7.5 11.6 3.4 4.3-3.5z"/><path class="st31" d="M743.6 173.4l7.9 2.6 2.3 5.7-2.3 1.5-11.1-8.4z"/></g><g id="legs"><path class="st32" d="M452.3 249h304.1v14H452.3z"/><path class="st0" d="M492.2 235.4l14.8 6.7-20.5 23.6-5.5-4.7z"/><path class="st34" d="M481 261l-6.7 5.2 11.2 7.8 1-8.3z"/><path class="st18" d="M474.3 266.2l2.1 11.9 9.1-4.1z"/><path class="st10" d="M470.7 248.9L486 240l11.1 33.2-4.9 3.6z"/><path class="st16" d="M484.9 267.4l7.3 9.4 4.9-3.6-3.4-10z"/><path class="st34" d="M497.1 273.2l7 5.5-12.4 7 .5-8.9z"/><path class="st18" d="M504.1 278.7l-1.3 9.8-11.1-2.8z"/><path class="st0" d="M557.6 249.1l16.3-18.9v38.4l-4.9.4z"/><path class="st34" d="M569 269l-4.7 8.9 9.6 6.6v-15.9z"/><path class="st10" d="M590.3 249.1l-16.4-18.9v38.4l5 .4z"/><path class="st18" d="M578.9 269l4.6 8.9-9.5 6.6-.1-15.9z"/></g><g id="table"><path class="st17" d="M660.8 164.5l1.1-7.1 2.7-.3-2.3 8.2z"/><path class="st38" d="M664.5 183.3l8.4-9.5-5.9-9.8-10.8-2-8.6 8.1 5.1 11.2z"/><path class="st17" d="M664.5 183.3l8.4-9.5-25.3-3.7 5.1 11.2z"/><path class="st17" d="M647.1 169.7l2.7-6.5 2.7.3-4.2 7.3z"/><path class="st38" d="M646.1 188.8l10.5-7.1-3.4-10.9-10.1-4.6-10.3 5.8 2.3 12.1z"/><path class="st17" d="M646.1 188.8l10.5-7.1-23.8-9.7 2.3 12.1zM671.5 177.4l1.5-7 2.7-.2-2.8 8z"/><path class="st38" d="M674.2 196.3l8.9-9-5.4-10-10.7-2.6-9 7.6 4.6 11.5z"/><path class="st17" d="M674.2 196.3l8.9-9-25.1-5 4.6 11.5z"/><g><path class="st17" d="M627.9 178.8l-3.5-6.1 1.9-2 3.2 7.8z"/><path class="st38" d="M642.5 191.2l.7-12.7-10.7-3.9-9.8 5.2-1.6 11.7 11 5.5z"/><path class="st17" d="M642.5 191.2l.7-12.7-22.1 13 11 5.5z"/></g><g><path class="st17" d="M647 179.8l-3.7-6.4 2-2 3.4 8z"/><path class="st38" d="M662.2 192.6l.6-13.2-11.1-4-10.1 5.4-1.7 12.1 11.5 5.7z"/><path class="st17" d="M662.2 192.6l.6-13.2-22.9 13.5 11.5 5.7z"/></g><path class="st40" d="M679.3 211.7h-53.9l-12-20.1h77.9z"/><path class="st38" d="M686.2 200.2l3.1-5.2h-73.8l3.1 5.2z"/><g><path fill="#666" d="M697.6 161.4H784v48.7h-86.4z"/><path class="st34" d="M738.3 161.4h4.9v48.7h-4.9z"/><path class="st34" d="M697.6 183.1H784v5.2h-86.4zM740.4 161.7l11-11.7 7.5 6.9-15.7 4.5zM740.4 161.7l-11.1-11-4.9 7.8z"/></g><path class="st17" d="M441.6 224.1h16.9V326h-16.9zM748.9 224.1h16.9V326h-16.9z"/><path class="st34" d="M436.1 209.8h334.4v16.6H436.1z"/></g><g id="text"><path d="M270.8 71.5c-3.6-2.4-15.2-5.6-24.6-5.4-9.4.2-11.6 8.9-13.2 16.9-1.6 8-6.4 32.1-3.3 37.1 3.2 5 9.7 8.2 20.9 9.2s17.7.6 18.7-6.5c1-7.2-3.7-8.3-8.8-9.2-5-.9-17.7-.6-17.1-5.4.6-4.8 3.3-5.4 7.3-4.9s11.4 2.6 12.8-2.6c1.4-5.3.5-7-4.9-7.9-5.3-.9-12.3-1.6-11.7-6.2.6-4.5 4.6-4.5 10.7-3.6 6.1.9 13.8 3.1 15.7-1.9 2-5 .7-7.5-2.5-9.6z" fill="#3aa0ba"/><path d="M315.4 87.9c3-2.9 1.9-10.5-4.6-13.7-6.4-3.2-17.2-6.7-24.9 0-7.8 6.7-7.8 16.6-5.9 21.7 1.9 5.1 7.8 10.2 14.2 12.6 6.4 2.4 7.8 7.8 4.8 10.7-3 3-9.4 2.1-12.3-.3-3-2.4-8.6-2.9-10.7 3-2.1 5.9 7.8 14.5 17.7 13.9 9.9-.5 19-4 21.7-13.4 2.7-9.4.3-15.3-3.5-19.3s-17.2-6.7-16.6-11.3c.5-4.6 7-6.4 10.2-4 3.1 2.6 5.6 4.2 9.9.1z" fill="#369496"/><path d="M367.9 92c.7-5.9-1.3-10.2-11.5-11.8s-25.7-5.1-27.9-1.1c-2.1 4-3.5 12.3-5.4 29.8-1.9 17.4-3.2 29.2 4 29.5 7.2.3 8.3-3.2 9.7-11.8 1.3-8.6 1.1-13.1 4.3-12.3 3.2.8 15 4.6 16.1-1.9 1.1-6.4-1.3-7.5-6.2-8.6-4.8-1.1-10.2.5-10.2-4.6s5.9-4 12.9-2.7c7 1.4 13.4 2.7 14.2-4.5z" fill="#51a9ab"/><path d="M374.4 93.3c-.6-5.4 2.7-9.4 8.9-8.9s26.8 1.6 27.4 6.4c.5 4.8-1.6 20.7-4 36.7s-6.4 27.4-20.1 25.5c-13.7-1.9-19.6-6.2-18.5-14.2 1.1-8 7.5-8 10.5-5.1 3 3 9.4 6.2 12.3 1.1 3-5.1 2.9-9.1 3.8-19 .8-9.9 2.7-15-2.9-16.1-5.9-1-16.6.3-17.4-6.4z" fill="#5ec0d9"/></g><g id="character"><path class="st6" d="M903 331.7l100-5.3 94.7 5.6-90.5 7z"/><path class="st48" d="M951 60.1l45.4 34 10.3-8.5 6-8.6-5.2-4.4z"/><path class="st49" d="M1034.4 88.1l7.5 2.1 43.9 35.8-55.1-15.3.6-13.4z"/><path class="st50" d="M1030.7 110.7l-34.3-16.6 16.3-17.1 11.4 3.9 10.3 7.2z"/><path class="st51" d="M1021 81.1l6.5 3.1-37.8 79.3-6.3-3z"/><path class="st49" d="M1021 81.1l6.5 3.1-7.5 15.8-5.5-5.1z"/><path class="st51" d="M1008.2 74.7l32.6 16.6 1.4-13.8-1.8-19.4-3.3-3.1-3.6-.1-16 10.1z"/><path class="st49" d="M1033.5 54.9L951 60.1l57.2 14.6z"/><path class="st50" d="M1040.4 58.1l45.4 67.9-45-34.7z"/><path class="st49" d="M1033.5 54.9l2.3-4.9 6.8 3-2.2 5.1z"/><path class="st52" d="M1061.5 211.2l-4.8 36.3.8 5-2.6 8.4-8.3-25.6-2.7-16.2 7.5-5.1z"/><path class="st53" d="M1056.7 247.5l21.8 5.9-5.3 14.8-11.3 19.2-5.9-15.6-1.1-10.9z"/><path class="st52" d="M1078.5 253.4l3.9 13.6-.1 12.4-20.4 8z"/><path class="st54" d="M1082.3 279.4l12.1 9.7v-31.2l-15.9-4.5z"/><path class="st52" d="M1051.2 290.7l-3.2 22-18.9-3.7-18.8-5.6 20.6-8z"/><path class="st53" d="M1048 312.7l-13.6 4.2-7.8 1-16.3-14.5z"/><path class="st54" d="M1026.6 317.9l-18.4 14.5h36l3.8-19.7z"/><path class="st55" d="M920.3 192.8l16.8 24.8 8.8 19-25 15.5-4.4-21.6-1.5-15.2z"/><path class="st56" d="M915 215.3l-15.1 1.6-7.6-.9-7.8.9-1.2 6.1 2.3 11 35.3 18.1z"/><path class="st57" d="M884.5 216.9l-13.8-1.1-13.5 1.1 28.4 17.1z"/><path class="st52" d="M920.3 192.8l28.1 48.1 39.5-14.2 66.4-28-29.8-50.6-65.1 18.2z"/><path class="st58" d="M988.6 143l-4.1 34.2.5 20.1-17.1 3.3-5.8 2.6-10.1 1.2-8.6 3.7-11.8-18.7-11.3 3.4 25.6 43.8 21.4 80.2 94.6-29.4-18-68.3 17.6-7.9-7.2-12.5-14.5 5.6-41.3 1.3 2.9-23.2-1.9-37.7z"/><path class="st59" d="M1043.9 219.1l-36.3 28.5 12 20.4-29.1 33.2-30.2-10.8-10.8-40.6 76.3-36z"/><path class="st60" d="M937.2 94.1L915 110.4l-22.5-2.6 27.8 85 27.2-6 14.6 16.4 11.7-20.2 14.8-40-5.4.4-3.1-1.6 2-16.6-15.3-4.7-2.2 18.3-8-1.9 6.5-40.6z"/><path class="st57" d="M937.2 94.1l26.3 85.5-15.6 4.9 7.7 8.1 6.5 10.6 3.2-11.5 5.5-8.3 17.8-40.4-8.5-1.1-9.7-.9-4.7-.9-9.5-1.8 5.3-42.2z"/><path class="st61" d="M970.6 135.7l.9-7.6 6.4.7zM980.1 141.8l-9.7-.8 8.9 7.1zM923.3 152.2l5.8 2.5 2.9-5.3z"/><path class="st57" d="M936.9 125.1l-6 4.8 1.1 19.5-7.5-24.4zM915.9 127.8l5.1 16.8-9.2-10.7-6.6-.7z"/><path class="st61" d="M963.9 179.4l6.9 4-2.7 9.7-6 10.1-7.6-8.4-6.6-10.3z"/><path class="st62" d="M914.9 124.5l-10.9 5 1.2 3.7 10.7-5.4zM923.5 121.7l12.9-.5.5 3.9-12.4-.1z"/><path class="st63" d="M911.8 133.9c1.2-.4 2.6.8 3 2.5.5 1.8-.2 3.5-1.4 3.9-1.2.4-2.6-.8-3-2.5-.5-1.8.2-3.5 1.4-3.9zM932.3 128.3c1.2-.4 2.6.8 3 2.5.5 1.8-.2 3.5-1.4 3.9-1.2.4-2.6-.8-3-2.5-.5-1.8.2-3.5 1.4-3.9z"/><path class="st61" d="M950 153l-34.8 11 18 4.5z"/><path class="st22" d="M941.6 157.9l-18.7 5.9 10 2.9z"/><path class="st50" d="M825.9 165.8h68.9v12.3l-46.1 1.6-22.8-1.6z"/><path class="st51" d="M825.9 187.8l30.3 1.4 38.6-1.4v-9.7h-68.9z"/><path class="st49" d="M825.9 187.8h68.9v9.7l-35.6.9-33.3-.9z"/><path class="st51" d="M825.9 202.4l34.2.4 34.7-.4v-4.9h-68.9z"/><path class="st50" d="M825.9 202.4h68.9v4.8l-37.7.7-31.2-.7z"/><path class="st51" d="M825.9 212l32.8 1 36.1-1v-4.8h-68.9z"/><path class="st48" d="M820.8 212h79.1v4.8h-79.1z"/><path class="st64" d="M829.8 142.3l3.1-5.1 3 5.1-3 5z"/><path class="st50" d="M830.9 145.6h3.8v20.7h-3.8z"/><path class="st64" d="M843.7 142.3l3.1-5.1 3 5.1-3 5z"/><path class="st50" d="M844.8 145.6h3.8v20.7h-3.8z"/><path class="st64" d="M871.2 142.3l3.1-5.1 3.1 5.1-3.1 5z"/><path class="st50" d="M872.4 145.6h3.8v20.7h-3.8z"/><path class="st64" d="M885.1 142.3l3.1-5.1 3.1 5.1-3.1 5z"/><path class="st50" d="M886.3 145.6h3.8v20.7h-3.8z"/><path class="st48" d="M852.4 157.9h16l-8 8z"/><path class="st51" d="M852.4 157.9l8-8 8 8zM881.1 165.8h13.8l-6.9 6.8-6.9-6.8h-13.8l-6.9 6.8-6.9-6.8h-13.8l-6.9 6.8-6.9-6.8h13.8l6.9 6.8 6.9-6.8h13.8l6.9 6.8z"/><path class="st62" d="M923.3 78.3l28.3 2.7-6.5 9.6-7.9 3.5-22 18.8 1.6-16.9z"/><path fill-rule="evenodd" clip-rule="evenodd" fill="#737373" d="M951.6 81l23.3 3-8.2 9.8-6.6 3.6-22.9-3.3z"/><path fill-rule="evenodd" clip-rule="evenodd" fill="#2b2b2b" d="M974.9 84l7.2 41.2-14.4-2-2 16.9-10.7-1.3 5.1-41.4z"/><path class="st59" d="M915.2 112.9l8.1-34.6-30.8 29.5z"/><path class="st48" d="M964 222l-12.4 5.2-19.9 33.2 56 31.5 4.3-7.7-48.6-27.6z"/><path class="st48" d="M955.2 229.3l-3.6-2.1L964 222l-2.9 4.9-2.8 2.1z"/><path class="st67" d="M961.1 226.9l-5.9 2.4-17.3 29.6 4.4-.5 1.1-1.8 10.3-14.2z"/><path class="st58" d="M943.4 256.6l-5.5 2.3 49 27.6 5.1-2.3-27-17.5z"/><path class="st49" d="M964 222l52.9 31.2-17.9 35-55.6-31.6z"/><path class="st48" d="M980.4 253.8l17.5 3.6 9.7-9.8-7-4.3z"/><path class="st60" d="M987.4 224.6l10.9 4.4 6.2 5.4-7.7 17.9-10.9-4.9-9.8-7.4z"/><path class="st61" d="M976.1 240l4.3 13.8 16.4-1.5z"/><path class="st57" d="M987.4 224.6l-11.6 4.3 5.9 3.5z"/><path class="st56" d="M999.5 144.7l25 3.4 19.4 71-24-4.9-21.4-8.6-.9-29.1z"/><path class="st55" d="M1043.9 219.1l-39.4 15.3-17.1-9.8 11.1-19zM988.6 143l-.9 34.1-2.7 20.2-22.9 5.9 8.7-19.8z"/><path class="st56" d="M947.9 184.5l14.2 18.7-9.9 2.6-8.8 2.3-6.9-8.7-4.9-10z"/><path class="st67" d="M998.5 205.6l-13.5-8.3 3.6-54.3 10.9 1.7zM943.4 208.1l-7.9 10.7-15.2-26 11.3-3.4z"/></g></svg>