<svg id="image" xmlns="http://www.w3.org/2000/svg" xmlns:xlink="http://www.w3.org/1999/xlink" viewBox="0 0 1170 350"><style>.st0{fill:#d3d3d3}.st0,.st1,.st2,.st3{fill-rule:evenodd;clip-rule:evenodd}.st1{opacity:.4;fill:#fff}.st2,.st3{fill:#9b9b9b}.st3{fill:#fff}.st10,.st11,.st5,.st6,.st7,.st8,.st9{fill-rule:evenodd;clip-rule:evenodd;fill:#bcbcbc}.st10,.st11,.st6,.st7,.st8,.st9{fill:#b5b5b5}.st10,.st11,.st7,.st8,.st9{fill:#a0a0a0}.st10,.st11,.st8,.st9{fill:#848484}.st10,.st11,.st9{fill:#adadad}.st10,.st11{fill:#8c8c8c}.st11{fill:#afafaf}.st13,.st14,.st15,.st16,.st17,.st19{fill-rule:evenodd;clip-rule:evenodd;fill:#898989}.st14,.st15,.st16,.st17,.st19{fill:#757575}.st15,.st16,.st17,.st19{fill:#f4f4f4}.st16,.st17,.st19{fill:#ededed}.st17,.st19{fill:#f2f2f2}.st19{fill:#cecece}.st20,.st22,.st23,.st24,.st25,.st26{fill-rule:evenodd;clip-rule:evenodd;fill:#7a7a7a}.st22,.st23,.st24,.st25,.st26{fill:#b7b7b7}.st23,.st24,.st25,.st26{fill:#e8e8e8}.st24,.st25,.st26{fill:#5c5c5c}.st25,.st26{fill:#474747}.st26{fill:#949494}.st27{fill:#777}.st27,.st28,.st32,.st34,.st36{fill-rule:evenodd;clip-rule:evenodd}.st28{opacity:.7;fill:#fff}.st32,.st34,.st36{fill:#ccc}.st34,.st36{fill:#707070}.st36{fill:#606060}.st39{fill:#e5c82e}.st40,.st41,.st42,.st43,.st44{fill-rule:evenodd;clip-rule:evenodd;fill:#ffe6d6}.st41,.st42,.st43,.st44{fill:#755800}.st42,.st43,.st44{fill:#f5cab3}.st43,.st44{fill:#c4937d}.st44{fill:#856400}.st45{fill:#9e7700}.st45,.st46,.st47,.st48{fill-rule:evenodd;clip-rule:evenodd}.st47,.st48{fill:#383838}.st48{fill:#2b2b2b}</style><g id="bg"><path class="st0" d="M-8-4h1191v365H-8z"/><path class="st1" d="M921.9-59L773 354l327 4z"/><path class="st1" d="M1145.9-59L992 354l338 4zM702-59L535 354l335 4z"/><path class="st1" d="M492.5-59L315 354l356 4z"/><path class="st1" d="M121.4-59L-75 354l394 4z"/><path class="st1" d="M323.5-59L155 354l338 4z"/></g><g id="ball"><path class="st2" d="M335.5-35h6.5v49h-6.5z"/><path class="st2" d="M324.3 11h29v12h-29z"/><circle class="st3" cx="338.8" cy="85.5" r="68.5"/><defs><circle id="SVGID_1_" cx="338.8" cy="85.5" r="68.5"/></defs><clipPath id="SVGID_2_"><use xlink:href="#SVGID_1_" overflow="visible"/></clipPath><g clip-path="url(#SVGID_2_)"><path transform="rotate(-45 254.61423819 73.12008254)" class="st5" d="M245.7 65.1h17.8v16.1h-17.8z"/><path transform="rotate(-45 302.4392482 120.9607634)" class="st5" d="M293.6 112.9h17.8V129h-17.8z"/><path transform="rotate(-45 278.52258398 97.04124572)" class="st5" d="M269.6 89h17.8v16.1h-17.8z"/><path transform="rotate(-45 350.26589109 168.79886791)" class="st5" d="M341.4 160.8h17.8v16.1h-17.8z"/><path transform="rotate(-45 326.35761096 144.88027754)" class="st2" d="M317.5 136.8h17.8v16.1h-17.8z"/><path transform="rotate(-45 350.26748744 120.9623067)" class="st5" d="M341.4 112.9h17.8V129h-17.8z"/><path transform="rotate(-45 374.19524644 144.88132892)" class="st5" d="M365.3 136.8h17.8v16.1h-17.8z"/><path transform="rotate(-45 278.52899815 49.20158897)" class="st5" d="M269.6 41.2h17.8v16.1h-17.8z"/><path transform="rotate(-45 302.43947531 73.12306932)" class="st5" d="M293.6 65.1h17.8v16.1h-17.8z"/><path transform="rotate(-45 326.36923286 97.04136375)" class="st5" d="M317.5 89h17.8v16.1h-17.8z"/><path transform="rotate(-45 398.14505646 120.95981762)" class="st5" d="M389.2 112.9H407V129h-17.8z"/><path transform="rotate(-45 302.45726862 25.27949934)" class="st5" d="M293.6 17.2h17.8v16.1h-17.8z"/><path transform="rotate(-45 350.29637048 73.12064335)" class="st5" d="M341.4 65.1h17.8v16.1h-17.8z"/><path transform="rotate(-45 374.21744746 97.04043326)" class="st5" d="M365.3 89h17.8v16.1h-17.8z"/><path transform="rotate(-45 326.37719204 49.20036706)" class="st5" d="M317.5 41.2h17.8v16.1h-17.8z"/><path transform="rotate(-45 350.28062286 25.28566601)" class="st5" d="M341.4 17.2h17.8v16.1h-17.8z"/><path transform="rotate(-45 326.36904718 1.36274066)" class="st5" d="M317.5-6.7h17.8V9.4h-17.8z"/><path transform="rotate(-45 422.0677106 97.03865427)" class="st5" d="M413.2 89H431v16.1h-17.8z"/><path transform="rotate(-45 398.13447668 73.12089976)" class="st5" d="M389.2 65.1H407v16.1h-17.8z"/><path transform="rotate(-45 374.2068505 49.20292252)" class="st5" d="M365.3 41.2h17.8v16.1h-17.8z"/><path transform="rotate(-45 326.39517834 168.80221713)" class="st5" d="M318.3 159.9h16.1v17.8h-16.1z"/><path transform="rotate(-45 398.09624125 97.04693687)" class="st5" d="M390.1 88.2h16.1V106h-16.1z"/><path transform="rotate(-45 374.2061573 120.96150965)" class="st5" d="M366.2 112.1h16.1v17.8h-16.1z"/><path transform="rotate(-45 350.27845401 144.88086435)" class="st5" d="M342.3 136h16.1v17.8h-16.1z"/><path transform="rotate(-45 422.0458149 73.12292347)" class="st5" d="M414 64.2h16.1V82H414z"/><path transform="rotate(-45 326.3569856 120.96133656)" class="st5" d="M318.3 112.1h16.1v17.8h-16.1z"/><path transform="rotate(-45 350.27005915 97.0438415)" class="st2" d="M342.3 88.2h16.1V106h-16.1z"/><path transform="rotate(-45 398.10851671 49.20815238)" class="st5" d="M390.1 40.3h16.1v17.8h-16.1z"/><path transform="rotate(-45 374.19579318 73.12480246)" class="st2" d="M366.2 64.2h16.1V82h-16.1z"/><path transform="rotate(-45 302.44753338 144.88033167)" class="st5" d="M294.4 136h16.1v17.8h-16.1z"/><path transform="rotate(-45 374.21514361 25.28088752)" class="st2" d="M366.2 16.4h16.1v17.8h-16.1z"/><path transform="rotate(-45 350.28745598 49.20293573)" class="st6" d="M342.3 40.3h16.1v17.8h-16.1z"/><path transform="rotate(-45 278.52837565 120.9603468)" class="st5" d="M270.5 112.1h16.1v17.8h-16.1z"/><path transform="rotate(-45 326.37615168 73.12059797)" class="st2" d="M318.3 64.2h16.1V82h-16.1z"/><path transform="rotate(-45 302.44981763 97.04108554)" class="st7" d="M294.4 88.2h16.1V106h-16.1z"/><path transform="rotate(-45 350.29616518 1.36012838)" class="st5" d="M342.3-7.5h16.1v17.8h-16.1z"/><path transform="rotate(-45 278.52154649 73.12227544)" class="st5" d="M270.5 64.2h16.1V82h-16.1z"/><path transform="rotate(-45 254.60174092 97.04065891)" class="st5" d="M246.6 88.2h16.1V106h-16.1z"/><path transform="rotate(-45 326.36657042 25.28336653)" class="st5" d="M318.3 16.4h16.1v17.8h-16.1z"/><path transform="rotate(-45 302.44047779 49.2039541)" class="st2" d="M294.4 40.3h16.1v17.8h-16.1z"/></g></g><g id="tables"><path class="st7" d="M693.8 216l-23.4 5.8v74.4h46.8v-74.4l-23.4-5.8zm.3 72.4L676 228.6h36.3l-18.2 59.8z"/><path class="st8" d="M660.3 300.7h8.6v50.8h-8.6zM718.5 300.7h8.6v50.8h-8.6z"/><path class="st9" d="M660.2 295.2h66.9v9.1h-66.9z"/><path class="st7" d="M562.8 216l-23.4 5.8v74.4h46.8v-74.4l-23.4-5.8zm.3 72.4L545 228.6h36.3l-18.2 59.8z"/><path class="st8" d="M529.3 300.7h8.6v50.8h-8.6zM587.5 300.7h8.6v50.8h-8.6z"/><path class="st9" d="M529.2 295.2h66.9v9.1h-66.9z"/><path class="st10" d="M622 274.3h12.6v68H622z"/><path class="st11" d="M526.2 267.5h204.3v8.8H526.2z"/><path class="st7" d="M600.4 342.2h55.8v8.8h-55.8z"/><g><path class="st7" d="M363.8 216l-23.4 5.8v74.4h46.8v-74.4l-23.4-5.8zm.3 72.4L346 228.6h36.3l-18.2 59.8z"/><path class="st8" d="M330.3 300.7h8.6v50.8h-8.6zM388.5 300.7h8.6v50.8h-8.6z"/><path class="st9" d="M330.2 295.2h66.9v9.1h-66.9z"/><path class="st7" d="M232.8 216l-23.4 5.8v74.4h46.8v-74.4l-23.4-5.8zm.3 72.4L215 228.6h36.3l-18.2 59.8z"/><path class="st8" d="M199.3 300.7h8.6v50.8h-8.6zM257.5 300.7h8.6v50.8h-8.6z"/><path class="st9" d="M199.2 295.2h66.9v9.1h-66.9z"/><path class="st10" d="M292 274.3h12.6v68H292z"/><path class="st11" d="M196.2 267.5h204.3v8.8H196.2z"/><path class="st7" d="M270.4 342.2h55.8v8.8h-55.8z"/></g></g><path opacity=".2" fill="#fff" d="M-12-9h1193v365H-12z" id="white"/><g id="woman_x2B_man"><path class="st7" d="M91.8 202.4l-18.1 76.3 25 .4 8.8-32.6z"/><path class="st2" d="M105.8 239l23.4-14.8 15.4 63.3-25-6.4z"/><path class="st13" d="M98.7 279.1l-19 49.9-34.6 21 28.6-71.3z"/><path class="st14" d="M79.7 329l17 21H45.1z"/><path class="st13" d="M91.8 202.4l15.7 44.1 21.7-22.3zM119.6 281.1l-30.2 46.3 31.4 2 23.8-41.9z"/><path class="st14" d="M89.4 327.4l17.9 22.6h24l-10.5-20.6z"/><path class="st15" d="M142.3 188.7l20 31.9 16.2-10.7-15.7-36.7z"/><path class="st2" d="M168.3 186.1l-5.5-12.9-20.5 15.5 7.9 12.6z"/><path class="st16" d="M103.1 128.8l-20.9-10.3-4.6 17.9 21.5 16.2z"/><path class="st2" d="M88.8 144.8l12.9 10.1 1.4-26.1-7.6-3.8z"/><path class="st6" d="M119.2 137l-16.1-8.2-11.3 73.6 37.4 21.8 33.7-50.8-7-18.5z"/><path class="st15" d="M129.1 282.7l16 47.5 6.8 3.8 8.5-33.2z"/><path class="st13" d="M150.3 340.5l-1 9.5h-5.2l.3-7.1z"/><path class="st9" d="M145.1 330.2L122.9 350h14.7l12.7-9.5 1.6-7.9z"/><path class="st17" d="M118.2 279.4l-49.5 4-5.3-8.9 17.5-11.1z"/><path class="st13" d="M68.7 283.4l-14.5 11.5-4.7-4.6 9.6-8.9z"/><path class="st9" d="M63.4 274.5l-31.1-1.7 10.6 10.6h25.8z"/><path fill-rule="evenodd" clip-rule="evenodd" fill="#f7f7f7" d="M205 192.1L183.9 168l-12.1 5.2 6.5 28.3z"/><path class="st19" d="M171.8 173.2l-8.5-24.1 13.4-10.5 7.2 29.4z"/><path class="st13" d="M198.2 246.2l-20.9 14.6-44.3-30.3 52.5-37.5z"/><path class="st2" d="M217.1 196l-38.5-15.7 19.6 65.9 27-8.2 6.2-17.6z"/><path class="st13" d="M244.8 210.6l-5.2 30.4 27.7 13 .6-45z"/><path class="st13" d="M285.9 232.5l-3.3 32.9-15.3-11.4z"/><path class="st20" d="M254.6 214.2l12.7 39.8 10.1-31-8.2-15zM291.7 152l15 31.9-15 26.7-10.1-12z"/><path class="st2" d="M262.5 142.6l29.2 9.4-13.3 63.2z"/><path class="st16" d="M262.5 142.6l-54.7 21.2 10.8 27.5-20.5 6.7 33.3 22.4 36.9-7.6-1.2-11.5-8.5.9-1.5-7.2 20.2-2.1z"/><path class="st19" d="M258.3 178.3l-17.8-4.7-4.4-1.6 1.8-4.9 5.2-1.5 5.8-14.5 8.2 7 2.4 7.2z"/><path class="st20" d="M259.5 165l3.6 12.1-4.8 1.2zM257.1 158.1l-3.7-9.1-4.5 2.1z"/><path class="st2" d="M238.3 187.6l-2.3-14.9-8.9-7.8-4 14z"/><path class="st3" d="M228.5 167.8l8 16.2-5.7-1.3-4.7-10zM257.1 158.1l-19.2 9 2.6 6.5 19-8.3z"/><path class="st20" d="M249 157.3c.4 1.1-.5 2.5-2 3.1-1.5.6-3.2.2-3.6-.9-.4-1.1.5-2.5 2-3.1 1.5-.6 3.1-.2 3.6.9zM255.3 172.8c.4 1.1-.5 2.5-2 3.1-1.5.6-3.2.2-3.6-.9-.4-1.1.5-2.5 2-3.1 1.5-.6 3.1-.2 3.6.9z"/><path class="st19" d="M274.8 184.1l-52.1 16.7-4.1-9.5-20.4 6.7.2.2 33 22.2 36.9-7.6-1.2-11.5-8.5.9-1.5-7.2 20.2-2.1z"/><path class="st6" d="M276.9 210.5l-.8-5.1-7.8.7zM218.6 191.3l4.1 9.5 2.5 6.1-27-8.9z"/><path class="st2" d="M277.3 192.9l-20.2 2.1 1.5 7.2 8.5-.9 1.2 11.5 4.5 15.1z"/><path class="st13" d="M277.3 192.9l14.4 17.7-24.4 43.4z"/><path class="st2" d="M306.7 183.9l-9.8 43-29.6 27.1zM255.3 215.5l-1.7-6.2-2.7 7.1z"/><path class="st19" d="M225.2 238l-11.4 32-15.9-16 .3-7.8z"/><path fill-rule="evenodd" clip-rule="evenodd" fill="#fcfcfc" d="M197.9 254l-20.6 6.8.7 9.2h35.8z"/><path class="st22" d="M177.3 260.8l-16.9 39.1-79.5-36.5 52.1-32.9z"/><path class="st19" d="M177.3 260.8l-19.5 3.6 4.2 16.3 17.3-10.7z"/><path class="st16" d="M157.8 264.4L149 267l2.6 9.8 10.4 3.9z"/><path class="st16" d="M177.3 260.8l-13.3-3.5-6.2 7.1zM204.8 118.2l-26.1 47.2-22.8-10.5-21.1 4.6-15.6-22.5 11.3-38.3 9.2 3.3-1 11.2 6.3.7 3.6-14.5 13.6-4.3z"/><path class="st19" d="M164.5 111.6l4.3 24.1 3 5.3 4.9-1.3 1.3-6.3 17.6-6.3-8.6-8.2-8.3-4.3zM162.2 93.8l-17.8 55.1 11.5 6-21.1 4.6-15.6-22.5 11.3-38.3 9.2 3.3-1 11.2 6.3.7 3.6-14.5z"/><path class="st6" d="M155.9 154.9l-11.5-6-7.6-3.6-2 14.2zM124 121l10.4-2.1-8.8-3.6zM134.4 114.2l1.4-8.6-4.3-1.3z"/><path class="st20" d="M178.7 114.6l-12.5-7-1.7 4zM187 118.9l11.2 5.2-2.6 3z"/><path class="st3" d="M178.7 114.6l-9.9 21.1 7.9 4 10.3-20.8z"/><path class="st20" d="M172 122.3c-.5 1.9-2.2 3.2-3.8 2.7-1.6-.4-2.4-2.4-1.9-4.3s2.2-3.2 3.8-2.7c1.6.4 2.4 2.3 1.9 4.3zM190.5 131.5c-.5 1.9-2.2 3.2-3.8 2.7-1.6-.4-2.4-2.4-1.9-4.3s2.2-3.2 3.8-2.7c1.6.5 2.4 2.4 1.9 4.3z"/><path class="st2" d="M153.9 134.7l25.1 13.6-8.2 5.2-13.2-6.6z"/><path class="st3" d="M158.2 139.3l15.6 9-2.7 2.3-11.9-5z"/><path class="st2" d="M204.8 118.2L178 72.3l-24.4 5.9 8.6 16.9z"/><path class="st13" d="M153.6 78.2l-24.1 2.3 1 18.2 9.2 3.3-1 11.2 6.3.7 3.6-14.5 13.6-4.3z"/><path class="st23" d="M119.2 137l-3.3 22.2 18.9.3zM134.8 159.5l11.5 11.6 9.6-16.2z"/><path class="st0" d="M82.2 118.5l-.3-26.4-8.9-2-8.6 32.1 13.2 14.2z"/><path class="st17" d="M81.9 92.1l10.6-11.2-2-21.8-11.2-2.3-5.6 14.8-.7 18.5z"/><path class="st0" d="M90.5 59.1l-11.2-2.3-5.6 14.8 18.2 2.5z"/><path class="st3" d="M91.1 65.5l-4.6-.8-4.6 27.4 10.6-11.2z"/><path class="st2" d="M257.5 206.8l7.3-.8.4 3.8z"/><path class="st13" d="M204.8 118.2l3.3-19.7L178 72.3z"/></g><g id="stars_kopia"><path class="st24" d="M685.2 9.2l6.2 14.7 11-11.5 1.4 15.9 14-7.4-3.6 15.4 15.6-2.7-8.2 13.6 15.7 2.2-12 10.4 14.3 7-14.7 6.2 11.4 11.1-15.8 1.3 7.4 14-15.5-3.6 2.8 15.7-13.6-8.3-2.3 15.8-10.4-12.1-7 14.3-6.1-14.7-11.1 11.4-1.3-15.8-14.1 7.4 3.7-15.4-15.7 2.7 8.3-13.6-15.8-2.3 12.1-10.3-14.3-7 14.6-6.2-11.4-11.1 15.9-1.3-7.5-14 15.5 3.6-2.7-15.7 13.6 8.3 2.2-15.8 10.4 12.1z"/><path class="st25" d="M795.1 9.8l4.5 15.2 12.3-10-.5 15.9 14.8-5.8-5.4 15 15.9-.9-9.8 12.5 15.4 4.1-13.2 8.9 13.4 8.6-15.3 4.4L837.3 90l-15.9-.5 5.8 14.8-15-5.4.9 15.9-12.6-9.8-4 15.4-8.9-13.1-8.6 13.3-4.4-15.2-12.4 10 .6-15.9-14.9 5.8 5.4-15-15.8.9 9.7-12.5-15.4-4.1 13.2-8.9-13.4-8.6 15.3-4.4-10.1-12.3 15.9.5-5.7-14.8 14.9 5.4-.9-15.9 12.6 9.8 4-15.4 8.9 13.1z"/><path class="st24" d="M909.1 12.4l1.4 15.8 14.1-7.5-3.6 15.5 15.6-2.8-8.1 13.6 15.7 2.2-12 10.4 14.3 7-14.6 6.2 11.5 11-15.9 1.4 7.5 14-15.5-3.5 2.8 15.6-13.6-8.2-2.2 15.8-10.4-12-6.9 14.3-6.3-14.6-11 11.4-1.4-15.8-14 7.5 3.6-15.5-15.7 2.8 8.2-13.6-15.7-2.2 11.9-10.4-14.3-7 14.7-6.2-11.5-11 15.8-1.4-7.5-14 15.5 3.5-2.8-15.6 13.7 8.2 2.1-15.8 10.5 12 6.9-14.3 6.2 14.6z"/><path class="st25" d="M1001.4 9.7l4.6 15.2 12.2-10.3-.3 15.9 14.7-5.9-5.2 15 15.9-1.1-9.6 12.7 15.4 3.8-13 9.1 13.5 8.4-15.3 4.7 10.3 12.1-15.9-.3 5.9 14.8-15-5.2 1.1 15.8-12.7-9.6-3.8 15.5-9.1-13.1-8.4 13.5-4.6-15.2-12.2 10.2.3-15.9-14.8 6 5.2-15-15.8 1.1 9.6-12.7-15.5-3.8 13.1-9.1-13.5-8.4 15.2-4.7-10.2-12.1 15.9.3-6-14.8 15 5.2-1.1-15.8 12.7 9.5 3.8-15.4 9.1 13.1z"/></g><g id="barman_kopia"><path class="st3" d="M1040 145.1V184l-25.9 7.5z"/><path class="st26" d="M1065.3 138.4l-25.3 6.7-1.2 69.3 71.6-1.4 7-55.1-4.6-2z"/><path class="st16" d="M1063.3 156.2l10.1 20.4 20.4-11.4-10.5-27.1z"/><path class="st20" d="M1073.4 176.6l10.8-6.1-4.1-10.8 7.3-8.2-5.5-12.1-2.1 1.9-6.9 6.7 1.7 10.5-7.1 6.1z"/><path class="st3" d="M1081.3 145.1l12.5 20.1 9.1-18.6-35.3-8.5-4.3 18.1z"/><path class="st17" d="M1065.6 83.1l-14.9 51.8 62.1 21 13.6-29.7-9-5.2-10.8 10.7-6.1-6.7 22.2-27.3-14.6-10.8-21 3.8-8.7-11.4z"/><path class="st19" d="M1099.7 110.5l-17.2 8.1-6.4 2.6-2.7-5.5 2.1-4.1-10.2-12.8 19.2-1.1z"/><path class="st3" d="M1079.6 98l-6.2 17.7 9.1 2.9 7.3-16.9-5.3-4z"/><path class="st19" d="M1112.8 155.9l13.6-29.7-9-5.2-10.8 10.7-5.9-6.5-9.5 23.4zM1114.4 91.5l-13.4 32.9 21.7-26.7z"/><path class="st20" d="M1101.7 106.1l-16.6-9.9-18.3-2-1.5 4.6h18.6l15.8 11.7zM1078.4 79.3l19.2-4.1 10.5 11.7-21 3.8zM1122.7 97.7l11.6 8.1-7.9 20.4-9-5.2-10.8 10.7-5.9-6.5z"/><path class="st27" d="M1094.3 114.6c-.4 1.7-1.9 2.9-3.5 2.5-1.6-.3-2.6-2-2.2-3.7.4-1.7 1.9-2.9 3.5-2.5 1.6.3 2.6 1.9 2.2 3.7zM1073.7 107.3c-.4 1.7-1.9 2.9-3.5 2.5-1.6-.3-2.6-2-2.2-3.7.4-1.7 1.9-2.9 3.5-2.5 1.6.3 2.5 1.9 2.2 3.7zM1063.3 119.8l26.7 9.3-9 5.5-15.7-5.5z"/><path class="st3" d="M1066.5 122.9l18.6 6.4-4.7 3.6-13.1-4.7zM1117.4 157.9l27.4 53.6-34.7-.6 2.9-24.2z"/><path class="st17" d="M1144.8 211.5l-31.8-24.8-16.2 11.4.2 12.5z"/><path class="st19" d="M1096.8 198.1l-21.6 12.8 21.8-.3z"/><path class="st6" d="M1115 151l1.6-3.5 2.6-6.2-7.9-5.5zM1115.7 132.9l2.6-6.4 3.8 2z"/><path class="st17" d="M1039.3 184l6.9 11-19 14.9-13.3.2.2-18.6z"/><path class="st19" d="M1046.2 195l8.1 14.7-27.1.2z"/></g><g id="counter"><path class="st28" d="M805.6 191.2h2.8v16.3h-2.8z"/><path class="st28" d="M801.5 207.2h11v3.1h-11zM790.6 180l16.4 13.2 16.4-13.2z"/><path class="st26" d="M818.2 184.2h-22.4l11.2 9z"/><path class="st28" d="M855.6 191.2h2.8v16.3h-2.8z"/><path class="st28" d="M851.5 207.2h11v3.1h-11zM840.6 180l16.4 13.2 16.4-13.2z"/><path class="st26" d="M868.2 184.2h-22.4l11.2 9z"/><path class="st28" d="M905.6 191.2h2.8v16.3h-2.8z"/><path class="st28" d="M901.5 207.2h11v3.1h-11zM890.6 180l16.4 13.2 16.4-13.2z"/><path class="st26" d="M918.2 184.2h-22.4l11.2 9z"/><g><path class="st11" d="M971.9 151.5v-12.4h2v-6.3H962v6.3h2v12.4c-4 1.6-6.8 5.5-6.8 10v48.9h21.6v-48.9c-.1-4.5-2.9-8.4-6.9-10z"/><path class="st26" d="M963.9 147.3v4.2c-4 1.6-6.8 5.5-6.8 10v48.9h21.6v-48.9c0-4.6-2.8-8.5-6.8-10v-4.2h-8z"/><path fill-rule="evenodd" clip-rule="evenodd" fill="#d6d6d6" d="M957.1 169.8h21.6v17.6h-21.6z"/><path fill-rule="evenodd" clip-rule="evenodd" fill="#8e8e8e" d="M963.9 138.7h8v1.6h-8z"/></g><path class="st22" d="M776.5 223.1h397.1v130.4H776.5z"/><g><defs><path id="SVGID_3_" d="M776.5 223.1h397.1v130.4H776.5z"/></defs><clipPath id="SVGID_4_"><use xlink:href="#SVGID_3_" overflow="visible"/></clipPath><g clip-path="url(#SVGID_4_)"><path class="st32" d="M801.6 216.1l-10.8-.3 14.5 44 23.6-14.4zM852.9 271.2L823 313.6l15 45.4 37.9-63.2zM936.2 360.5L904 325.9l-39.2 34.4z"/><path class="st32" d="M890.4 217.9l-14-1.4-47.5 28.9 24 25.8zM761.1 286.7l-20.3 74.5 48.2.7 34-48.3-17.7-53.8zM921.9 219.3l-46 76.5 28.1 30.1 72.4-63.4-19.6-43.3zM1026.1 218.9l-42.3.2 17.1 21.9zM985.9 360.2l27.2 1 4.2-8.3-18-39.8zM1044.8 297.4l26-52.3-20.1-26.5-24.6.3-11.4 39.8zM979.9 214l-25.2.7 2.1 4.5 27-.1zM1000.9 241l-24.5 21.5 22.9 50.6 15.4-54.4z"/><path class="st32" d="M1044.8 297.4l-27.5 55.5 4.2 9.4 37.3-1.5 15.9-25.1zM1177.1 277l-.4-59.1-28.6 1.4-21.4 33.8 29 56.8z"/><path class="st32" d="M1074.7 335.7l18.5 23.8-34.4 1.3-2 3.2 66.1-3.5 16.3-25.1-35.1-46.3zM1178.8 355.3l-23.1-45.4-16.5 25.5 15.9 20.9z"/><path class="st32" d="M1070.8 245.1l33.3 44 22.6-36-19.5-38.4h-59.5l3 3.9 33.4-.4z"/></g></g><path class="st7" d="M776.5 219.8H1174v4.9H776.5z"/><path fill-rule="evenodd" clip-rule="evenodd" fill="#c4c4c4" d="M768.8 209.8H1174V221H768.8z"/><g><path class="st8" d="M901.1 276.3H949v5.9h-47.9z"/><path transform="matrix(.1917 -.9815 .9815 .1917 428.787 1122.7944)" class="st26" d="M843.6 297.4h104.9v7.3H843.6z"/><path transform="matrix(.9815 -.1917 .1917 .9815 -40.0221 188.4735)" class="st26" d="M950.4 248.6h7.3v104.9h-7.3z"/><path class="st7" d="M888.5 243.4h73.8v11.9h-73.8z"/></g><g><path class="st8" d="M771.1 276.3H819v5.9h-47.9z"/><path transform="matrix(.1917 -.9815 .9815 .1917 323.7077 995.2054)" class="st26" d="M713.6 297.4h104.9v7.3H713.6z"/><path transform="matrix(.9815 -.1917 .1917 .9815 -42.433 163.5527)" class="st26" d="M820.4 248.6h7.3v104.9h-7.3z"/><path class="st7" d="M758.5 243.4h73.8v11.9h-73.8z"/></g><g><path class="st8" d="M1031.1 276.3h47.9v5.9h-47.9z"/><path transform="matrix(.1917 -.9815 .9815 .1917 533.8663 1250.3835)" class="st26" d="M973.6 297.4h104.9v7.3H973.6z"/><path transform="matrix(.9815 -.1917 .1917 .9815 -37.611 213.3936)" class="st26" d="M1080.4 248.6h7.3v104.9h-7.3z"/><path class="st7" d="M1018.5 243.4h73.8v11.9h-73.8z"/></g></g><g id="man"><path class="st34" d="M598.5 165.1L578 177.4l15.7 23.3 19.4-11.1z"/><path class="st22" d="M593.7 200.7l-25.2-37.9-13.4 6.6 18.8 42.6z"/><path class="st19" d="M568.5 162.8l-1.1-16.1-5.7-3.3-17.4 10.9 10.8 15.1z"/><path class="st15" d="M561.7 143.4l-4-6.3-17.9 6.8 4.5 10.4z"/><path fill-rule="evenodd" clip-rule="evenodd" fill="#e2e2e2" d="M567.4 147.7l-8.3 3.3 4.3 14.3 5.1-2.5z"/><path class="st3" d="M554.6 154.3l13-3.7-.2-3.9-5.7-3.3-9.4 5.9z"/><path class="st36" d="M641.2 350h-30.8l25.5-21.6z"/><path class="st34" d="M618.7 286.9l22.5 63.1 9.1-63.3z"/><path fill-rule="evenodd" clip-rule="evenodd" fill="#686868" d="M635.7 232.3l-17 54.6 32.1.7 4.4-52.7z"/><path class="st34" d="M632.4 228.5l18.1 27.8 8.3-31.8z"/><path class="st36" d="M661.4 304.6l-11.8 33.7 25-15.5z"/><path class="st34" d="M670.1 272.1l4.5 50.7-22.9-25z"/><path fill-rule="evenodd" clip-rule="evenodd" fill="#7f7f7f" d="M688.9 222.1l4.5 31.1-41.7 44.6-14.1-20.1 18.8-52z"/><path class="st26" d="M656.2 138.2l25.2-.7 7.5 84.6-56.5 6.4-33.9-63.4 17.6-14.6z"/><path class="st16" d="M579.4 89.9l8 56.1h23.3l7.1 6.2 13.4 10.3 25-24.3-6.6-19.3 7.3-1.9-1.2-16-11.3 1-7.1-17.2z"/><path class="st19" d="M656.9 117l-1.2-16-11.3 1-7.1-17.2-10 .9 2 54.7 1.9 22.1 25-24.3-6.6-19.3z"/><path class="st6" d="M587.4 146h23.3l7.1 6.2 13.4 10.3 3.5-22.8z"/><path class="st19" d="M621.8 101.3l-12 14.1-3.3 6.6-4.3-5.7v-6.1l-13.4-5.7 11.3-5.6 8.5-1.4z"/><path class="st3" d="M600.1 98.9l2.1 17.4 7.6-.9-1.2-17.9z"/><path class="st24" d="M608.6 97.5l13.2 3.8v-4.8zM588 99.8l12.1-.9-11.3 5.6"/><path class="st27" d="M619.9 108.2c0 1.9-1.3 3.4-2.9 3.4-1.6 0-2.9-1.5-2.9-3.4s1.3-3.4 2.9-3.4c1.6 0 2.9 1.5 2.9 3.4zM597.5 110.3c0 1.9-1.3 3.4-2.9 3.4-1.6 0-2.9-1.5-2.9-3.4s1.3-3.4 2.9-3.4c1.6 0 2.9 1.5 2.9 3.4z"/><path class="st6" d="M649.1 113.3l-.5-8 4.5-.7z"/><path class="st27" d="M592.8 124.8l30.4-3-7.8 10.3-15.3 1.7z"/><path class="st3" d="M598 126.7l19.8-2.1-4.5 5.9-11.5 1.4z"/><path class="st34" d="M579.4 89.9l2.8-24.5 44.5-2.1-30.1 28.8z"/><path class="st10" d="M582.2 65.4l-20.3-.7 17.5 25.2zM596.6 92.1l30.1-28.8 21.5 4.7-10.9 16.8z"/><path class="st20" d="M637.3 84.8L648.2 68l7.5 33-11.3 1z"/><path class="st22" d="M705.7 178.1l-19.3 17.4 10.3 14.6 32.5-25.7z"/><path class="st19" d="M686.4 195.5l-16.8 2.4-.9 11.3z"/><path class="st16" d="M686.4 195.5l-20.8 14.6 12 13.7 19.1-13.7z"/><path class="st26" d="M681.4 137.5l47.8 46.9-44.5-7.3z"/><path class="st34" d="M706.4 162l-25-24.5 3.3 39.6 11.9 2z"/></g><g id="text_kopia"><path class="st39" d="M686.1 61.1l1.7 5.6-10.1 3 5.1 17.3 15.2-4.5 1.7 5.6-20.7 6.1-15.2-51.7 20.7-6.1L686 42l-15.2 4.5 5.2 17.7 10.1-3.1zM666.4 44l14 47.5 16.4-4.8-.4-1.3-15.1 4.5-6.4-21.6 10.1-3-.4-1.3-10.1 3-6.4-22 15.1-4.5-.4-1.4-16.4 4.9zM788.1 63c4.1 5.6 8.2 11.4 6.9 17.9-1.8 8.3-6.8 12.3-15.3 10.5-9.8-2.1-10.9-9-8.4-21.1l5.7 1.2c-1.5 7.3-1.9 12.9 3.9 14.1 4.5 1 7.4-1.4 8.4-5.9.9-4.1-2.4-8.9-5.2-12.4l.1.1c-4.5-4.9-9.2-12.2-7.7-19.4 1.5-7.3 7.3-11.9 14.9-10.3 10.6 2.2 10 10.4 7.9 20.2l-5.7-1.2c1.3-6.1 2.2-12.1-3.4-13.3-4.3-.9-7.2 2.1-8.1 6.2-.9 4.4 2.6 8.9 6 13.4zm-15.2 10c-1.8 8.6-.7 14.6 7.2 16.2 7 1.5 11.3-1.8 12.7-8.8 2.4-11.4-15.2-20.6-12.9-31.3 1.1-5.3 5-9.2 10.8-7.9 7.6 1.6 6.6 8.4 5.6 13.9l1.3.3c1.7-8.1 1.2-13.9-6.6-15.5-6.3-1.3-11 2.7-12.3 8.7-1.3 6.3 3.1 13 7.2 17.5h-.1c3 3.8 6.6 9.8 5.7 14.2-1.3 5.9-5 8.9-11 7.6-7.7-1.6-7.1-9.3-6-14.6l-1.6-.3zM896.8 66.8L894 72l-9.4-5-11.2 21.1-5.1-2.7 25.3-47.6 19.1 10.1L910 53l-14-7.4-8.6 16.3 9.4 4.9zm-2.2-26.1l-23.2 43.7 1.2.6 11.2-21 9.3 5 .6-1.2-9.3-5 10.7-20.1L909 50l.7-1.3-15.1-8zM971.5 45.6l9.3-5.5c8.3-5 14.7-1.7 19.2 5.8 7.1 11.8 1.2 17-8 22.5l12.2 20.5-5 3-27.7-46.3zm17.4 22.1c9.1-5.5 16.1-9.2 9.3-20.7-3.8-6.4-9.3-9.2-16.3-5.1l-7.3 4.4 25.4 42.5 1.2-.7-12.3-20.4zm-7-24.1c6.5-3.9 11.1-2.1 14.9 4.1 3.9 6.5 3.2 11.5-3.5 15.5l-5.2 3.1-11.7-19.5 5.5-3.2zm10.3 17.8c5.4-3.2 5.9-7.3 2.8-12.5-3-5-6.7-6.5-11.9-3.4l-3.6 2.1 9.4 15.7 3.3-1.9z"/><path class="st39" d="M971.5 45.6l9.3-5.5c8.3-5 14.7-1.7 19.2 5.8 7.1 11.8 1.2 17-8 22.5l12.2 20.5-5 3-27.7-46.3zm17.4 22.1c9.1-5.5 16.1-9.2 9.3-20.7-3.8-6.4-9.3-9.2-16.3-5.1l-7.3 4.4 25.4 42.5 1.2-.7-12.3-20.4zm-7-24.1c6.5-3.9 11.1-2.1 14.9 4.1 3.9 6.5 3.2 11.5-3.5 15.5l-5.2 3.1-11.7-19.5 5.5-3.2zm10.3 17.8c5.4-3.2 5.9-7.3 2.8-12.5-3-5-6.7-6.5-11.9-3.4l-3.6 2.1 9.4 15.7 3.3-1.9z"/></g><g id="character"><path class="st40" d="M472.7 173.9l27.9 24.6-2.3 4-6.3 3.2-10.5-4.1-5.5-13.7z"/><path class="st41" d="M442.6 351l-21.6-.5-1.1-7.6z"/><path class="st42" d="M492 205.7l27-22.6 2.8.3 1.5 2.2-16.5 26.5z"/><path class="st42" d="M519 183.1l4.8-13.8 7.1 2.8 4.7 4.1-12.3 9.4z"/><path class="st43" d="M535.6 176.2l-11.8-6.9 9.7-14.7 6.9 4z"/><path class="st40" d="M519 183.1l10.7-18.9-3.8-2.2-6.3 11.5zM430.4 180.6l-24.6 20.1 3 4.7 5.8 2.6 17.6-8.2.5-11.2z"/><path class="st42" d="M414.6 208l-27.7-22.9-2.5-.1-1.4 2.3 17.6 27.7z"/><path class="st42" d="M386.9 185.1l-3-12.7-6.4 1.3-6.6 5.2 12.1 8.4z"/><path class="st43" d="M370.9 178.9l-3.8-18.1 7.6-3.9 9.2 15.5z"/><path class="st41" d="M480.5 330.4l-19.7-12.9 3.2-5.5 8.3 8.3z"/><path class="st40" d="M386.9 185.1l-8.6-17.5 4.1-2.3 4.6 9.3z"/><path class="st44" d="M424.7 306.4l53.6-21.6-.1-21.3-39.5 10z"/><path class="st42" d="M482.7 264.3L475 308l7.6 19.9-3.1-.8-3.6-1.8L464 312l4.9-4.9-2.5-17.5-3.2-33.1z"/><path class="st43" d="M475.9 325.3l6.7 2.6 3.4.6-5.5 1.9z"/><path class="st45" d="M478.5 317.2l-6.1 4.2 2.2 2.5 5.1-3.6z"/><path class="st42" d="M445.8 285.5l-11.6 35-5.5 14.7 14.9 12.6-3.8 1.3h-3.2l-16.7-6.2 2-9.3 5.7-51.9z"/><path class="st43" d="M436.6 349.1l7-1.3 3.3-.7-4.3 3.9z"/><path class="st45" d="M435.7 341.2l-3.8 6.2 2.9 1 3.2-5.3z"/><path class="st43" d="M424.9 306.4l9.3 14.1 11.8-31.2-12.7 4.8zM464.7 277.4l1.7 12.2 16.3-25.3-13.3-5.1z"/><path class="st46" d="M516.2 121.3l-.6 11.7-16.4-.7 3.6-18.8z"/><path class="st24" d="M511 96.3l12.2 20.5-24 15.5 2.8-31.2z"/><path class="st47" d="M523.2 116.8l-19 .2-9.6 5.7 4.6 9.6zM400.6 99.3l-10.1 4.4-7.1 9.6 24.6 37.2 29.9 1.5-1.1-38.9z"/><path class="st46" d="M408 150.5l30.5 6.6 3-17.1z"/><path class="st48" d="M416.4 141.6l-8.4 8.9 28.7-9 .4-18.8-6.9 6.5z"/><path class="st44" d="M501.8 124.3l5.2 18.6-12.6 4.2 2.1-6.5 3.4-1.2-1.4-5-.9-3.8z"/><path class="st40" d="M434.7 125.1l3.9 22 2.5 31.8 19-2.5 5.8-17.2 22.3 6.9L511 96.3l-54 13z"/><path class="st42" d="M458 124.8l-7.1 29.5 15 4.9-3.8 7.7-1.8 9-9.8 3h-9.4l-4.5-38.2 1.3-5.4-3.2-10.2 17.7-14.6zM493.1 112.6l-2.3 1.8-4.7 14.3 10.4-9 4.1-3zM485.7 112.8l-3.1-3.8-11.1-.3 6.8 12.6.8 10.7z"/><path class="st43" d="M509.5 100.8l-52 26.6-9.3-.5 3.5-8.3 30.9-9.6L511 96.3z"/><path class="st43" d="M447.6 134.9l-11 5.8-1.9-15.6 10.4-10.6 9.6 8.5z"/><path class="st46" d="M495.8 119.2c1.3.5 1.7 2.4 1 4.3s-2.3 3.1-3.5 2.6c-1.3-.5-1.7-2.4-1-4.3s2.3-3 3.5-2.6zM478.2 113.3c1.3.5 1.7 2.4 1 4.3s-2.3 3.1-3.5 2.6c-1.3-.5-1.7-2.4-1-4.3s2.3-3.1 3.5-2.6z"/><path class="st26" d="M383.4 113.3l4.7-12.9 12.5-1.1 6.7 7.4z"/><path class="st25" d="M400.6 99.3l-17.2 14 33 28.3 29.8-26.7z"/><path class="st48" d="M431.6 90.9l-38.1-7.6 20.4 46.1 20.8-4.3 4.8-2.1 18.9-2.7z"/><path class="st20" d="M425 97.7l-31.5-14.4 37 6.4-.7 3.9z"/><path class="st24" d="M485 73.5l-34.6-12.7L425 97.7l30.9-10.9z"/><path class="st25" d="M519.7 91.5L458 124.8l-42.3-23.3 49.2-6.6z"/><path class="st26" d="M519.7 91.5l-19.3-24.2-84.7 34.2z"/><path class="st48" d="M495.5 107.6l5.1 8.7-7.5-3.7z"/><path fill-rule="evenodd" clip-rule="evenodd" fill="#fff1e8" d="M485.7 112.8l5.1 1.6-6.3 19.3-5.4-1.7z"/><path class="st43" d="M479.1 132l1.8 4.2 3.6-2.5z"/><path class="st44" d="M461.2 134.5l19.2 3 10.7 7.7-17.3 11.4z"/><path fill-rule="evenodd" clip-rule="evenodd" fill="#5e4700" d="M466.1 137.5l20.7 7.4-9 6.1-4.9-1.7z"/><path class="st3" d="M469.5 143.4l12.8 4.6 4.5-3.1-20.7-7.4z"/><path class="st44" d="M452.1 121.6l-4.5 13.3-17.4-5.7 4.5-4.1 9.6 2.9 1.6-5.2z"/><path class="st43" d="M465.9 159.2l-19.9-6.5 14.1 23.7z"/><path class="st24" d="M400.6 99.3l-17.2 14 22.4-2.2z"/><path class="st46" d="M431.8 110.4l-17.9 19 20.8-4.3 17.4-3.5z"/><path class="st40" d="M430.4 180.6l42.3-6.7-13.2 21.4z"/><path class="st45" d="M430.4 180.6l3.1 32.5 18.1-12.6 7.7-8.4zM459.3 192.1l13.4-18.2 8.8 27.7-12.6-3.3z"/><path class="st41" d="M433.5 213.1l.6 13.4 28.3 24.4 19.1-49.3-22.2-9.5z"/><path fill-rule="evenodd" clip-rule="evenodd" fill="#e5c82e" d="M434.1 226.5l48.6 37.8-37.6 27.3-9.1 5.2-11.3 9.6-1.3-32.2-3.9-26.6z"/><path fill-rule="evenodd" clip-rule="evenodd" fill="#ccad14" d="M419.5 247.6l25.6 44-20.4 14.8z"/></g></svg>