<svg id="image" xmlns="http://www.w3.org/2000/svg" viewBox="0 0 1170 350"><style>.st10,.st3,.st4,.st5,.st6,.st7,.st9{fill-rule:evenodd;clip-rule:evenodd;fill:#fff}.st10,.st4,.st5,.st6,.st7,.st9{fill:#a8a8a8}.st10,.st5,.st6,.st7,.st9{fill:#969696}.st10,.st6,.st7,.st9{fill:#cecece}.st10,.st7,.st9{fill:#adadad}.st10,.st9{fill:#e8e8e8}.st10{fill:#f2f2f2}.st12{fill:#7f7f7f}.st13,.st15{fill-rule:evenodd;clip-rule:evenodd;fill:#999}.st15{fill:#d6d6d6}.st16{fill:#bababa}.st16,.st17,.st18{fill-rule:evenodd;clip-rule:evenodd}.st17{fill:#e5e5e5}.st18{opacity:.1}.st19,.st20,.st21,.st22,.st23{fill-rule:evenodd;clip-rule:evenodd;fill:#e2e2e2}.st20,.st21,.st22,.st23{fill:#a0a0a0}.st21,.st22,.st23{fill:#d8d8d8}.st22,.st23{fill:#ddd}.st23{fill:#bfbfbf}.st24,.st25,.st27,.st28,.st30,.st31{fill-rule:evenodd;clip-rule:evenodd;fill:#a5a5a5}.st25,.st27,.st28,.st30,.st31{fill:#a4a3a3}.st27,.st28,.st30,.st31{fill:#999899}.st28,.st30,.st31{fill:#bebfbf}.st30,.st31{fill:#8f8f8f}.st31{fill:#6d6d6d}.st33,.st34,.st35,.st36,.st37,.st41{fill-rule:evenodd;clip-rule:evenodd;fill:#727272}.st34,.st35,.st36,.st37,.st41{fill:#848484}.st35,.st36,.st37,.st41{fill:#939393}.st36,.st37,.st41{fill:#747474}.st37,.st41{fill:#c9c9c9}.st41{fill:#7c7c7c}.st42{fill:#c1c1c1}.st42,.st43{fill-rule:evenodd;clip-rule:evenodd}.st43,.st44{fill:#777}.st48,.st49,.st50,.st52,.st53,.st55{fill-rule:evenodd;clip-rule:evenodd;fill:#8e8e8e}.st49,.st50,.st52,.st53,.st55{fill:#f1f1f1}.st50,.st52,.st53,.st55{fill:#686868}.st52,.st53,.st55{fill:#afafaf}.st53,.st55{fill:#757575}.st55{fill:#666}.st57{fill:#369496}.st58{fill:#3aa0ba}.st62{fill-rule:evenodd;clip-rule:evenodd;fill:#edc0a8}.st63{fill:#c4937d}.st63,.st64{fill-rule:evenodd;clip-rule:evenodd}.st65,.st69,.st70,.st71,.st72,.st73{fill-rule:evenodd;clip-rule:evenodd;fill:#2b2b2b}.st69,.st70,.st71,.st72,.st73{fill:#318fa6}.st70,.st71,.st72,.st73{fill:#474747}.st71,.st72,.st73{fill:#737373}.st72,.st73{fill:#72cbcc}.st73{fill:#1c7678}</style><g id="bg"><path fill="#ddd" d="M-10-11h1190v369H-10z"/><path fill="#ccc" d="M-10 117h1190v241H-10z"/><path fill="#ededed" d="M-10 299h1190v59H-10z"/></g><g id="window"><path class="st3" d="M272.5-4.4h192.8v196.8H272.5z"/><path class="st4" d="M296.5 143.8h3.5v48.3h-3.5z"/><path class="st5" d="M296.5 143.8h3.5v4.8h-3.5z"/><path class="st4" d="M392.5 143.8h3.5v48.3h-3.5z"/><path class="st5" d="M392.5 143.8h3.5v4.8h-3.5z"/><path class="st4" d="M272.5 138.8h192.8v6.1H272.5z"/><g id="worker"><path class="st6" d="M383.3 158.5l-5.7 39.4-37.1.5-7.9-33.9z"/><path class="st7" d="M332.6 164.5l25.1 13.4 25.6-19.4z"/><path fill-rule="evenodd" clip-rule="evenodd" fill="#bcbcbc" d="M357.7 177.9l1.2 20-18.4.5-7.9-33.9z"/><path class="st9" d="M322 74.9l-7.1 1.2 4.3 13.6 7.3-.3zM377.9 80.7l-7 1.7-1.3-14.3 6.9-2.5z"/><path class="st10" d="M320.6 58.4l46.6-6.2 6.3 42.1-46.7 7.4z"/><path class="st6" d="M320.6 58.4l15.7 13 8.4 8.9 4.3 3.2 2.6-4 5.7-11.1 9.9-16.2z"/><path fill="#fff" d="M341.6 65l3.1 15.3 6.9-.8-1.7-15.4z"/><path class="st12" d="M354.4 68.4c0 1.6 1.3 2.8 2.8 2.8 1.6 0 2.8-1.3 2.8-2.8 0-1.6-1.3-2.8-2.8-2.8-1.5 0-2.8 1.2-2.8 2.8zM333.4 71.4c0 1.6 1.3 2.8 2.8 2.8 1.6 0 2.8-1.3 2.8-2.8 0-1.6-1.3-2.8-2.8-2.8-1.5 0-2.8 1.2-2.8 2.8z"/><path class="st4" d="M320.6 58.4l26.1 10.3 20.5-16.5z"/><path class="st13" d="M320.6 58.4s-1.7-21 19.9-23.6c21.6-2.6 26.7 17.3 26.7 17.3l-46.6 6.3zM320.6 58.4l7.1 24.8-3.1 4.2-6.6-4.8zM367.2 52.2l-.8 24.7 5.1 3.7 4-6.2z"/><path fill-rule="evenodd" clip-rule="evenodd" fill="#7f7f7f" d="M336.5 84l13.1 3.2 10.5-5.7v2.8l-10.5 5.1-12.5-3.1z"/><path class="st6" d="M341.4 87.5l-2 10-2.7-.6 1.7-10.1z"/><path class="st3" d="M338.4 86.8l-4.3 6.9 2.8 1.4 4.5-7.6z"/><path class="st13" d="M334.1 93.7l2.8 1.4-.9 1.5-2.8-1.5z"/><path class="st6" d="M326.8 101.7l7.5 63.1 49-6.3-9.8-64.2z"/><path class="st4" d="M337.5 120l30.5-4.7-2.7-19.7-31.1 4.9z"/><path class="st15" d="M334.2 100.5l17.1 7.3 14-12.2z"/><path class="st4" d="M326.8 101.7l4.4 33.8-5.5 9.2-24-16.1z"/><path class="st16" d="M331.2 135.5l-1.7-13.1-27.8 6.2 24 16.1z"/><path class="st17" d="M337.5 137.5l9.9-16.8 4.4 4.6 3.4-5 7.4 8.3-4.2 4.3 4.6 7.2-24.2 11.5-2.3 23.8-15.2-4.7-.2-2-2.8-5.6 13.6-16.6z"/><path class="st15" d="M358.4 132.9l-20.5 15.2-.7 2.1 21.9-15.7zM351.8 125.3l-30.7 43.4.2 2 31.6-44z"/><path class="st10" d="M325.7 144.7l11.5 8.1 5.8-15.7-11.8-1.6z"/><path class="st15" d="M343 137.1l4.8 14.3-10.6 1.4z"/><path class="st18" d="M330.5 148.4l7.4 10.1-1.4 16.9-3.4-1.2 8 7.1 1.9-24.4 7.1-5.1 2.8-4.3 8.5-2.3-.4-3.7-14.1 6.4.9 3.5-10.6 1.4z"/><path class="st4" d="M373.5 94.3l22.3 10 8.5 18.3-27.4-4.9z"/><path class="st16" d="M395.8 104.3l11.5-19.1 9.9 3-12.9 34.4z"/><path class="st19" d="M407.3 85.2l-5.1-12.9 17.1-13 8.3 16.2-8.1 6.3-2.3 6.4z"/><path class="st13" d="M422.7 89.3l-20.7-35 5.1-3 20.7 34.8z"/><path class="st19" d="M419.3 59.3l-5.3 3.8-1.6 1.4 9 15.4 2-1.1 4.2-3.3z"/><path class="st18" d="M402.2 72.3l11.9 2.6 2.2-3.5 2.1-3.6-1.9-1.3-7.1.3z"/><path class="st10" d="M402.2 72.3l14.1-.9 2.2-6.3-6.1-.6z"/><path transform="rotate(-31.23 403.61589881 50.29921647)" class="st16" d="M380.6 47.5h46v5.6h-46z"/><path class="st20" d="M382.5 59.9l-2-3.5L420 32.8l1.9 3.2z"/><path class="st21" d="M380.3 55.9L368.9 37l-9.3-19.2zM389.8 48.9l-10.2-15.6-8.2-15.8zM385.8 46.9l-10.2-15.6-8.2-15.8zM383.8 53.9l-10.2-15.6-8.2-15.8zM398.8 43.9l-10.2-15.6-8.2-15.8zM392.6 47.1l-6.5-9.9-5.2-10.1zM402.4 40.4l-6.5-10-5.3-10.1z"/><ellipse class="st22" cx="438.6" cy="44.1" rx="2.3" ry="3.3"/><path class="st22" d="M445.7 55.6c0 1.3-.7 2.4-1.7 2.4-.9 0-1.7-1.1-1.7-2.4s.7-2.4 1.7-2.4c.9.1 1.7 1.1 1.7 2.4zM433.1 66.5c0 1.3-.7 2.4-1.7 2.4-.9 0-1.7-1.1-1.7-2.4s.7-2.4 1.7-2.4c.9 0 1.7 1.1 1.7 2.4zM313.9 43.4c0 1.5-.9 2.7-1.9 2.7-1.1 0-1.9-1.2-1.9-2.7 0-1.5.9-2.7 1.9-2.7 1.1-.1 1.9 1.1 1.9 2.7zM299.4 56.5c0 2-1.1 3.6-2.5 3.6s-2.5-1.6-2.5-3.6 1.1-3.6 2.5-3.6 2.5 1.6 2.5 3.6z"/></g><path class="st23" d="M270.3-6.4h197.3V7.8H270.3z"/><path class="st24" d="M270.3 6.1h197.3v1.7H270.3z"/><path class="st23" d="M270.3 7.6h197.3v14.2H270.3z"/><path class="st24" d="M270.3 20.1h197.3v1.7H270.3z"/><path class="st23" d="M270.3 21.6h197.3v14.2H270.3z"/><path class="st24" d="M270.3 34.1h197.3v1.7H270.3z"/><path class="st25" d="M287.6-6.7h2.6v42.1h-2.6zM447.6-6.7h2.6v42.1h-2.6z"/><path class="st18" d="M462.1 209.2H275.4l-10-6h206.7z"/><path fill-rule="evenodd" clip-rule="evenodd" fill="#8c8c8c" d="M422.3 155.1h2.6v15.4h-2.6z"/><path class="st4" d="M431.4 191.3h-15.5l-10-22.5h35.5z"/><path class="st27" d="M437.8 176.9h-28.3l2.9 6.5h22.5z"/><path transform="rotate(-45 424.40312648 143.87862501)" class="st4" d="M420.5 140h7.7v7.8h-7.7z"/><path class="st21" d="M424.4 138.4l-5-15.1-7.5 7.5 10.5 10.8z"/><path class="st23" d="M422.4 141.6l-10.5-10.8-4 11 11 2.1z"/><path class="st21" d="M418.9 143.9l-11-2.1 3.1 10.5 10.9-6z"/><path class="st23" d="M421.9 146.3l-10.9 6 11.6 5.5 1.8-8.4z"/><path class="st21" d="M424.4 149.4l-1.8 8.4 10-2.5-5.6-9.3z"/><path class="st28" d="M427 146l5.6 9.3 6.4-10.8-9.1-.6z"/><path fill-rule="evenodd" clip-rule="evenodd" fill="#d6d6d8" d="M429.9 143.9l9.1.6-2-14.5-10.5 11.6z"/><path class="st28" d="M426.5 141.6L437 130l-17.6-6.7 5 15.1z"/><path class="st22" d="M265.4 190.6h206.7v14.2H265.4z"/></g><g id="clock"><ellipse class="st18" cx="64.8" cy="125.9" rx="43.9" ry="52.1"/><path class="st27" d="M108.7 117.8c0 24.3-19.7 43.9-43.9 43.9-24.3 0-43.9-19.7-43.9-43.9 0-24.3 19.7-43.9 43.9-43.9 24.3 0 43.9 19.6 43.9 43.9z"/><path class="st10" d="M97.5 117.8c0 18-14.6 32.7-32.7 32.7s-32.7-14.6-32.7-32.7 14.6-32.7 32.7-32.7 32.7 14.6 32.7 32.7z"/><path class="st30" d="M68.7 117.8c0 2.1-1.7 3.9-3.9 3.9-2.1 0-3.9-1.7-3.9-3.9 0-2.1 1.7-3.9 3.9-3.9 2.1 0 3.9 1.7 3.9 3.9z"/><path class="st31" d="M40.8 117.8c0 1.2-1 2.2-2.2 2.2-1.2 0-2.2-1-2.2-2.2 0-1.2 1-2.2 2.2-2.2 1.3 0 2.2 1 2.2 2.2zM93.1 117.8c0 1.2-1 2.2-2.2 2.2-1.2 0-2.2-1-2.2-2.2 0-1.2 1-2.2 2.2-2.2 1.2 0 2.2 1 2.2 2.2zM64.8 141.7c1.2 0 2.2 1 2.2 2.2 0 1.2-1 2.2-2.2 2.2-1.2 0-2.2-1-2.2-2.2 0-1.2 1-2.2 2.2-2.2zM64.8 89.5c1.2 0 2.2 1 2.2 2.2 0 1.2-1 2.2-2.2 2.2-1.2 0-2.2-1-2.2-2.2 0-1.3 1-2.2 2.2-2.2z"/><path transform="rotate(-60 42.56421283 104.95878339)" class="st30" d="M41.8 101.6h1.5v6.8h-1.5z"/><path transform="rotate(-60 87.03252863 130.63206041)" class="st30" d="M86.3 127.2h1.5v6.8h-1.5z"/><path transform="rotate(-30 87.01010688 104.94810864)" class="st30" d="M83.6 104.2h6.8v1.5h-6.8z"/><path transform="rotate(-30 42.54755184 130.6173439)" class="st30" d="M39.2 129.9H46v1.5h-6.8z"/><path transform="rotate(-30 51.95382078 95.55962397)" class="st30" d="M51.2 92.2h1.5V99h-1.5z"/><path transform="rotate(-29.988 77.639503 140.03457964)" class="st30" d="M76.9 136.6h1.5v6.8h-1.5z"/><g><path transform="matrix(.5 -.8661 .8661 .5 -43.9381 115.0139)" class="st30" d="M74.2 94.8H81v1.5h-6.8z"/><path transform="matrix(.4998 -.8661 .8661 .4998 -95.2887 115.0339)" class="st30" d="M48.6 139.3h6.8v1.5h-6.8z"/></g><path class="st31" d="M64.7 118l-3.6-10.5 3.2-12.3 3.3 12.5zM64.7 118l7.1 3.2 4.9 7.6-8.1-4.3z"/></g><path opacity=".2" fill-rule="evenodd" clip-rule="evenodd" fill="#fff" d="M-11-10h1190v368H-11z" id="white"/><g id="desk"><path class="st18" d="M490.5 314.3l65.4-5 80-1.1 109 5.3.5 5.2H490.3z"/><path class="st33" d="M564.1 252.7l34.7 22.4 29.2-22.8z"/><path class="st34" d="M575.3 306.5c0 2.8-2.3 5.1-5.1 5.1s-5.1-2.3-5.1-5.1 2.3-5.1 5.1-5.1c2.8-.1 5.1 2.2 5.1 5.1zM626.3 306.5c0 2.8-2.3 5.1-5.1 5.1s-5.1-2.3-5.1-5.1 2.3-5.1 5.1-5.1c2.8-.1 5.1 2.2 5.1 5.1zM565.2 293.2h60.9v7h-60.9zM553.6 130h83.8v124.7h-83.8z"/><path class="st35" d="M553.6 243.9h83.8v10.7h-83.8zM637.5 128.5l-12.3-35.6-4.2 23.3z"/><path class="st34" d="M551.7 128.5l-10.4 21 6.6 2 24.7-21.2-1.6-17.9z"/><path class="st33" d="M572.6 130.3l-24.7 21.2 31.2 14.5 15.8-13.8z"/><path class="st34" d="M637.5 128.5l10.4 21-6.6 2-24.7-21.2 1.6-17.9z"/><path class="st33" d="M616.6 130.3l24.7 21.2-31.2 14.5-15.8-13.8z"/><path class="st4" d="M576.1 176.8h38.3v36.3h-38.3z"/><path class="st35" d="M568.2 168.5l-7.1 44.3 15 .3.1-34.4zM623.5 169.2l5.7 43.8-14.9.1v-32.7z"/><path class="st28" d="M595.7 149.6l-27.5 18.9 16.8 21.6 10.8-6.6 10.5 6.6 17.2-20.9z"/><path class="st15" d="M595.7 164.8l7.9-9.6-7.9-5.6-8.2 5.6z"/><path class="st10" d="M567.6 92.9h57.5v60.6h-57.5z"/><path class="st6" d="M611.7 113.8l-5.6 6.6-6.3 9.3-3.8 5.3-4-5.3-7.1-8.2-8.2-7.1z"/><path class="st4" d="M599.8 113.8h11.9l-11.9-4.1z"/><path class="st36" d="M611.1 121.5c0 1.8-1.5 3.3-3.3 3.3-1.8 0-3.3-1.5-3.3-3.3 0-1.8 1.5-3.3 3.3-3.3 1.8 0 3.3 1.4 3.3 3.3zM588.2 121.5c0 1.8-1.5 3.3-3.3 3.3-1.8 0-3.3-1.5-3.3-3.3 0-1.8 1.5-3.3 3.3-3.3 1.9 0 3.3 1.4 3.3 3.3z"/><path class="st3" d="M592 114.1h7.8v15.6H592z"/><path class="st35" d="M590.8 140.2l5.3-2.2 5.3 2.2-5.2 2.3z"/><path class="st4" d="M585.6 137.5L596 142l11.1-4.5-11.1 8.2z"/><path class="st35" d="M625.2 92.9l-73.5 35.6 15.9-35.6 18.5-23.5z"/><path class="st4" d="M625.2 92.9h-57.6l18.5-23.5z"/><path class="st10" d="M561.1 212.8l-3.7-8.2 14-7.6 7.5 7.7-2.8 8.4z"/><path class="st37" d="M576.1 213.1l2.8-8.4-21.5-.1 3.7 8.2z"/><path class="st10" d="M629.2 212.8l3.7-8.2-14-7.6-7.5 7.7 2.8 8.4z"/><path class="st37" d="M614.2 213.1l-2.8-8.4 21.5-.1-3.7 8.2z"/><path class="st20" d="M559.4 235l39.7 32.7 33.1-33.6z"/><path class="st10" d="M596.4 299.8l.2-66.8-20.2 17 13.8 49.8z"/><path class="st35" d="M580.2 315h16.2v-15.2h-6.2z"/><path class="st9" d="M596.4 299.8l-.1-66.8 20.2 17-13.8 49.8z"/><path fill-rule="evenodd" clip-rule="evenodd" fill="#a3a3a3" d="M612.7 315h-16.3v-15.2h6.3z"/><path class="st33" d="M554.6 209.3h7.8v3.3h-7.8zM565 209.3h7.8v3.3H565zM575.4 209.3h7.8v3.3h-7.8zM585.8 209.3h7.8v3.3h-7.8zM596.2 209.3h7.8v3.3h-7.8zM606.6 209.3h7.8v3.3h-7.8zM617 209.3h7.8v3.3H617zM627.4 209.3h7.8v3.3h-7.8z"/><path class="st35" d="M645.7 223.5H544.9l4.1-12.1h92.6z"/><g><path class="st35" d="M652.7 74.6h97v96.1h-97z"/><path class="st20" d="M652.9 170.7l-9-1V74.6h9zM694.5 114h16.6v73.9h-16.6z"/><path class="st34" d="M689.7 114h4.8v73.9h-4.8z"/><path class="st35" d="M689.7 187.9l-18.3 26.6h16.8l18.1-26.6z"/><path class="st34" d="M694.5 187.9l-18.3 26.6H693l18.1-26.6z"/><path fill-rule="evenodd" clip-rule="evenodd" fill="#b5b5b5" d="M656.5 214.2h50.8v9h-50.8z"/><path class="st20" d="M665.8 214.2h50.8v9h-50.8z"/></g><path class="st20" d="M540.2 223v-.2c0-6.2-5.7-11.3-12.6-11.3-7 0-12.6 5-12.6 11.3v.2h25.2zM490.3 221.3h11.8v97.4h-11.8zM733.6 221.3h11.8v97.4h-11.8z"/><path fill-rule="evenodd" clip-rule="evenodd" fill="#b2b2b2" d="M490.3 221.3h255.4v15.6H490.3z"/></g><g id="woman"><path class="st18" d="M878.2 312.5l65.6-3.9 53.9 4.4-63.9 4.7z"/><path class="st41" d="M1005.5 87h118.4v215.5h-118.4z"/><path class="st7" d="M1119.4 81.5h15.1v227.7h-15.1zM996 81.5h15.1v227.7H996z"/><path class="st7" d="M996 77.3h138.5v15.1H996z"/><path class="st24" d="M1011.1 187.3h108.4V200h-108.4z"/><path class="st42" d="M1011.1 187.3h108.4v2.1h-108.4z"/><path class="st18" d="M1011.1 200.1h30.7l5.4-12.8h-36.1z"/><path class="st24" d="M1015.5 107h16.9v79.8h-16.9z"/><path class="st35" d="M1015.5 149.9h16.9v36.9h-16.9z"/><path class="st43" d="M1028.2 120.9c0 2.5-2 4.5-4.5 4.5s-4.5-2-4.5-4.5 2-4.5 4.5-4.5 4.5 2 4.5 4.5z"/><path class="st17" d="M983.1 172l12.9-9.1 3.5 15.9-14.7 4.6z"/><path transform="matrix(.9468 -.3217 .3217 .9468 5.2486 338.7533)" class="st24" d="M992.5 115.2h70.4v76.5h-70.4z"/><path transform="rotate(-18.755 1005.71343588 182.74310773)" class="st35" d="M1000.7 165.3h10.1v35.1h-10.1z"/><path transform="matrix(.9468 -.3217 .3217 .9468 5.999 340.1593)" class="st16" d="M1002 113.7h60.7v76.5H1002z"/><path class="st43" d="M993.6 141.1c.9 2.6.7 5-.4 5.4-1.1.4-2.7-1.5-3.6-4.1-.9-2.6-.7-5 .4-5.4 1.1-.4 2.7 1.5 3.6 4.1z"/><path class="st44" d="M1023.1 133.7l-1.8-5.3 1.4-.5 1.8 1.6 1.5 1.5c-.3-.7-.6-1.4-.9-2.2l-.5-1.6 1.1-.4 1.8 5.3-1.3.4-1.8-1.7c-.5-.5-1.1-1-1.6-1.6.3.7.5 1.4.8 2.3l.5 1.6-1 .6zM1032.5 127.5c.6 1.7-.1 3.2-1.7 3.7-1.6.5-2.9-.3-3.4-1.9-.5-1.6.1-3.1 1.6-3.7 1.7-.4 3 .5 3.5 1.9zm-3.8 1.4c.4 1 1.1 1.6 1.9 1.3.8-.3 1-1.2.7-2.2-.3-1-1.1-1.6-1.9-1.3-.9.3-1.1 1.2-.7 2.2zM1036.6 129.2l-.4-1.1.7-1.2c1.2-2.1 1.7-3.2 1.4-4.1-.2-.6-.8-1-1.6-.7-.7.2-1.1.8-1.4 1.2l-.9-1.1c.4-.6 1.2-1.3 2.2-1.6 1.7-.6 3 .1 3.5 1.5.4 1.3-.1 2.6-.9 4l-.5.8 2.9-1 .5 1.5-5.5 1.8z"/><path transform="matrix(.9468 -.3217 .3217 .9468 9.8142 338.7463)" class="st43" d="M1015.3 139.1h29.4v1.2h-29.4z"/><path transform="matrix(.9469 -.3217 .3217 .9469 8.0163 339.6801)" class="st43" d="M1017.3 145h29.4v1.2h-29.4z"/><path class="st35" d="M1050.8 112l-2.1-6.1-7.3 2.5zM1073.3 178.4l-2.5-7.6-5.9 10.5z"/><path class="st19" d="M936.1 189l23.9-5.3 1.2 13.3-21.6 15.6z"/><path class="st10" d="M960 183.7l23.1-11.7 1.7 11.4-23.6 13.6zM983.1 172l12.2-12.7 9.3 2.1.6 4z"/><path class="st20" d="M915.8 213.9l-12.7 28.5 43.1-3.2-6-30.5z"/><path transform="matrix(.4266 -.9044 .9044 .4266 340.1927 1003.0723)" class="st5" d="M943.9 224.5h34.6v17.4h-34.6z"/><path transform="rotate(-64.75 962.52201454 230.35755278)" class="st6" d="M949.8 223h25.5v14.7h-25.5z"/><path class="st16" d="M946.9 164.9l-8.7 22.8-21.2-15.3z"/><path class="st24" d="M961.9 89.4l21.2 26.7-9.6 22.4z"/><path class="st34" d="M971.6 118.9l17.4 11.9-10.7 16.8-4.1-5.5 7.5-9.7-11.3-7.4z"/><path transform="rotate(-17.273 940.17081124 132.26095484)" class="st10" d="M906.1 97.7h68.1v69.2h-68.1z"/><path class="st6" d="M917.9 175.5l20.8-6.5-21.1-65.9-20.3 6.3z"/><path fill-rule="evenodd" clip-rule="evenodd" fill="#aaa" d="M918.3 172.1l35.7 27.2-32.7 29.9-16.4-35.7z"/><path class="st6" d="M933 120.1l18.1 13.8 6.5 3.2 1.8-5.9.6-11.5 6.3-9.3-11.9 3.1-8.8 2.8z"/><path class="st3" d="M945.6 116.3l5.5 17.6 8.3-2.7-5-17.7z"/><path class="st4" d="M945.6 116.3l-1.7-5.5-10.9 9.3zM966.3 110.4l-11.9 3.1-1.3-5.2"/><path class="st36" d="M945.4 125.5c0 1.5-1.3 2.7-2.8 2.7-1.6 0-2.8-1.2-2.8-2.7 0-1.5 1.3-2.7 2.8-2.7 1.6-.1 2.8 1.1 2.8 2.7zM964.4 119.7c0 1.5-1.3 2.7-2.8 2.7-1.6 0-2.8-1.2-2.8-2.7 0-1.5 1.3-2.7 2.8-2.7 1.5-.1 2.8 1.2 2.8 2.7z"/><path class="st34" d="M951.8 145.9l5.7-4.7 6.3 1.1-4.2 6.1z"/><path fill-rule="evenodd" clip-rule="evenodd" fill="#a8a8a7" d="M944.5 144.3l14.6 2.5 8.2-8.7-7.2 12.3z"/><path class="st34" d="M911.9 135.2l17.4 12-10.6 16.8-4.2-5.5 7.5-9.7-11.3-7.5z"/><path fill-rule="evenodd" clip-rule="evenodd" fill="#838384" d="M878.3 168.1l35.4 12 12-15.1z"/><path class="st5" d="M881.4 136.1l-5.9 34.4 50.2-5.5-11.7-19.2z"/><path class="st24" d="M879.4 108.1l-3.7 26.6 37.6 22.9 6.5-34.6z"/><path class="st16" d="M975.1 79.6l-62.4 52-33.3-23.5 49.5-38.5z"/><path class="st19" d="M925.9 189.4l-21 4.1 16.4 35.7 14.4-13.2z"/><path class="st10" d="M935.7 216l17.4 11.8-5.8 8.3-26-6.9z"/><path class="st19" d="M953.1 227.8l13.5 2.6-7.3 15.4-12-9.7z"/><path class="st42" d="M966.6 230.4l4.2 8.5-11.5 6.9z"/><path class="st5" d="M903.1 242.4l12.7 29.5 27.3 3.3 3.1-36zM932.2 296.4l-3.4 18.7 16.2.1-7.8-10.9z"/><path class="st19" d="M915.8 271.9l22.2 33.4 5.1-30.1z"/><path class="st10" d="M915.8 271.9l-6.8 21.7 34.1-18.4z"/><path class="st5" d="M912.9 281.4l-13.9.3 5.6 25.3 4.4-13.4z"/><g><path class="st24" d="M1057.1 107h16.9v79.8h-16.9z"/><path class="st35" d="M1057.1 149.9h16.9v36.9h-16.9z"/><path class="st43" d="M1069.8 120.9c0 2.5-2 4.5-4.5 4.5s-4.5-2-4.5-4.5 2-4.5 4.5-4.5 4.5 2 4.5 4.5z"/></g><g><path class="st24" d="M1077.8 107h16.9v79.8h-16.9z"/><path class="st35" d="M1077.8 149.9h16.9v36.9h-16.9z"/><path class="st43" d="M1090.6 120.9c0 2.5-2 4.5-4.5 4.5s-4.5-2-4.5-4.5 2-4.5 4.5-4.5 4.5 2 4.5 4.5z"/></g><g><path class="st24" d="M1098.6 107h16.9v79.8h-16.9z"/><path class="st35" d="M1098.6 149.9h16.9v36.9h-16.9z"/><path class="st43" d="M1111.4 120.9c0 2.5-2 4.5-4.5 4.5s-4.5-2-4.5-4.5 2-4.5 4.5-4.5 4.5 2 4.5 4.5z"/></g><g><path class="st24" d="M1057.1 216.2h16.9V296h-16.9z"/><path class="st35" d="M1057.1 259.1h16.9V296h-16.9z"/><path class="st43" d="M1069.8 230.1c0 2.5-2 4.5-4.5 4.5s-4.5-2-4.5-4.5 2-4.5 4.5-4.5 4.5 2 4.5 4.5z"/></g><g><path class="st24" d="M1036.3 216.2h16.9V296h-16.9z"/><path class="st35" d="M1036.3 259.1h16.9V296h-16.9z"/><path class="st43" d="M1049 230.1c0 2.5-2 4.5-4.5 4.5s-4.5-2-4.5-4.5 2-4.5 4.5-4.5 4.5 2 4.5 4.5z"/></g><g><path class="st24" d="M1015.5 216.2h16.9V296h-16.9z"/><path class="st35" d="M1015.5 259.1h16.9V296h-16.9z"/><path class="st43" d="M1028.2 230.1c0 2.5-2 4.5-4.5 4.5s-4.5-2-4.5-4.5 2-4.5 4.5-4.5c2.5-.1 4.5 2 4.5 4.5z"/></g><g><path class="st24" d="M1077.8 216.2h16.9V296h-16.9z"/><path class="st35" d="M1077.8 259.1h16.9V296h-16.9z"/><path class="st43" d="M1090.6 230.1c0 2.5-2 4.5-4.5 4.5s-4.5-2-4.5-4.5 2-4.5 4.5-4.5 4.5 2 4.5 4.5z"/></g><g><path class="st24" d="M1098.6 216.2h16.9V296h-16.9z"/><path class="st35" d="M1098.6 259.1h16.9V296h-16.9z"/><path class="st43" d="M1111.4 230.1c0 2.5-2 4.5-4.5 4.5s-4.5-2-4.5-4.5 2-4.5 4.5-4.5 4.5 2 4.5 4.5z"/></g><path class="st24" d="M1011.1 296.5h108.4v12.7h-108.4z"/><path class="st42" d="M1011.1 296.5h108.4v2.1h-108.4z"/></g><g id="man"><path class="st48" d="M782.3 179.3l-24.2 9.6 4.9 16 24.5-5.8z"/><path class="st19" d="M758.1 188.9l-16.7 1.5-9 10.5 2.6 8.7 13.7.3 14.3-5z"/><path class="st37" d="M741.4 190.4l7.3 19.5-13.7-.3-2.6-8.7z"/><path class="st49" d="M758.1 188.9l-16.7 1.5 3 8.1 15.4-3.8z"/><path class="st18" d="M729.1 329.8l74.8-8.4 51 9.4-51 5.2z"/><path class="st50" d="M829.5 256.3l-2.6 30.9-26 9-14.3-30.9z"/><path class="st34" d="M783.4 192.4l-8.1 36.5 54.2 27.4 6.1-51.9z"/><path class="st49" d="M832.1 141.7l-14.3 25.9-14.5-18.1z"/><path class="st48" d="M828.6 181.9l-12.2-14.6 15.7-25.6 22.5 44.3z"/><path class="st10" d="M788.4 50.7L761 113.4l34.1 17.7 8.1 19.6 28.9-9 5.5-16.7 12.5-14.8-3.2-33.8z"/><path fill-rule="evenodd" clip-rule="evenodd" fill="#cdcdcd" d="M784.9 76.7l2.6 9.6-2.5 11.9 3.8 7.7 6.3-3.1 11.1-8.7 7.9-4.8-11.3-5.2-9.6-4.1z"/><path class="st3" d="M802.8 84.1l-7.7 18.7-9.9-4.5 8-18.3z"/><path class="st6" d="M846.9 76.4l-16.6-7.2-22.3 67.4-12.9-5.5 8.1 19.6 28.9-9 5.5-16.7 12.5-14.8z"/><path class="st52" d="M827.9 122.4l6.8 11.3 3.8-6.8zM808 136.6l7.1 3.5-11.9 10.6-8.1-19.6z"/><path class="st33" d="M804.8 79.6l9.3 9.7-11.3-5.2zM793.2 80l1.9-4.3-10.2 1z"/><path class="st36" d="M809.4 96.1c-.7 1.8-2.3 2.9-3.6 2.4-1.3-.5-1.8-2.4-1.1-4.2.7-1.8 2.3-2.9 3.6-2.4 1.3.5 1.8 2.4 1.1 4.2zM787.8 86.7c-.7 1.8-2.3 2.9-3.6 2.4-1.3-.5-1.8-2.4-1.1-4.2.7-1.8 2.3-2.9 3.6-2.4 1.3.5 1.8 2.4 1.1 4.2z"/><path class="st35" d="M780.2 104.6l7 6.6 14.2 2.5-.6 1.7-14.5-2.3-6.8-6.7z"/><path class="st50" d="M837.9 79.1v20.6l12.2 10.5 4.1-3.8 3.8-31z"/><path class="st53" d="M825.2 83.6l-1.9 21.1 7.1 4.9 7.5-9.9 1-20.8z"/><path class="st48" d="M788.4 50.7l39.4.3L858 75.4l-32.9 10.1z"/><path class="st52" d="M832.9 116.3l6.2-9.5 4.9 4.5z"/><path fill-rule="evenodd" clip-rule="evenodd" fill="#fefefe" d="M842.4 206.9l-38.5 21.4-37.4-60.7 40.9-21.6z"/><path transform="rotate(-31.107 805.18400252 189.22214395)" class="st55" d="M781.1 153.3h48.3V225h-48.3z"/><path class="st37" d="M791.3 202l-4.9 6.4 4.3 8.5 9.4-1.2z"/><path class="st10" d="M791.3 202l17.2-6.7 7 12.9-15.4 7.5z"/><path fill-rule="evenodd" clip-rule="evenodd" fill="#9b9b9b" d="M808.5 195.3l20.1-13.4 26 4.1-39.1 22.2z"/><path class="st53" d="M775.3 228.9L754 252.2l24.8 21 50.7-16.9z"/><path class="st34" d="M754 252.2l-18.4 18.9 10.2 13.2 33-11.1z"/><path class="st55" d="M735.6 271.1l-21-4.9 17.5 23.6 13.7-5.5z"/><path class="st41" d="M800.9 296.2l8.5 20.1 16.6 2.1.9-31.2z"/><path class="st55" d="M809.4 316.3l-15.8 13.2h31.8l.6-11.1z"/></g><g id="text_kopia"><path class="st18" d="M239.5 317.9l128.9-6.8 100.7 7.2-119.3 3.6z"/><path class="st57" d="M255.4 285.2v17.7h37.8c1.1 0 2 .9 2 2v11.3c0 1.1-1 2-2 2h-52.6c-1.1 0-2-.9-2-2v-78.6c0-1.1 1-2 2-2h52.6c1.1 0 2 .9 2 2v11.3c0 1.1-1 2-2 2h-37.8v18.9h29.2c1.1 0 2 .9 2 2v11.3c0 1.1-1 2-2 2h-29.2z"/><path class="st58" d="M331.5 268.2c13 4.4 29.5 9.6 28.4 27.3-.8 13.5-13 23.7-30.3 23.7-11.8 0-20.9-2.6-30.5-7.4-1-.5-1.3-1.8-.8-2.7l5.5-10.3c.5-.9 1.8-1.4 2.7-.9 7.4 3.4 14.8 5.9 22.3 5.9 7.3 0 12.5-3.1 13.3-7.9 1-5.9-5.2-9.1-13.3-11.6-12.6-3.9-29.5-7.9-29.5-25.8 0-15.1 11.3-24.1 27-24.1 4.5 0 15.3.9 28.6 6.7 1 .5 1.4 1.7 1 2.7l-4.4 10.3c-.5 1.1-1.7 1.5-2.7 1.2-4.9-2-13.9-5.3-21.2-5.3-5.8 0-11.1 1.9-11.3 7.7.1 5.4 7 7.6 15.2 10.5z"/><path class="st57" d="M383.5 250.9H363c-1.1 0-2-.9-2-2v-11.3c0-1.1 1-2 2-2h58.2c1.1 0 2 .9 2 2v11.3c0 1.1-1 2-2 2h-20.7v65.3c0 1.1-1 2-2 2h-13c-1.1 0-2-.9-2-2v-65.3z"/><path class="st58" d="M418.2 289.2c1.1-.4 2.1.1 2.5 1.2 2.6 7 6.8 13 14.8 12.7 12.9-.4 13.4-12.6 13.4-17.1v-48.4c0-1.1 1-2 2-2h13c1.1 0 2 .9 2 2V286c0 13.6-5.7 32.9-30.5 32.9-18 0-25.6-10.4-29.7-23.1-.4-1.1.2-2.2 1.3-2.6l11.2-4z"/><path class="st58" d="M418.2 289.2c1.1-.4 2.1.1 2.5 1.2 2.6 7 6.8 13 14.8 12.7 12.9-.4 13.4-12.6 13.4-17.1v-48.4c0-1.1 1-2 2-2h13c1.1 0 2 .9 2 2V286c0 13.6-5.7 32.9-30.5 32.9-18 0-25.6-10.4-29.7-23.1-.4-1.1.2-2.2 1.3-2.6l11.2-4z"/><path class="st18" d="M463.9 235.6h-13c-1.1 0-2 .9-2 2v4.1h17v-4.1c0-1.1-1-2-2-2zM421.3 235.6h-58.2c-1.1 0-2 .9-2 2v4.1h62.2v-4.1c0-1.1-1-2-2-2zM305.8 241.7h49.9c-.2-.3-.5-.5-.8-.7-6.6-2.9-12.7-4.6-17.6-5.5H317c-4.5 1.2-8.3 3.3-11.2 6.2zM293.2 235.6h-52.6c-1.1 0-2 .9-2 2v4.1h56.6v-4.1c0-1.1-.9-2-2-2z"/><path fill-rule="evenodd" clip-rule="evenodd" fill="#707070" d="M358.6 198H413v24.6h-54.4z"/><path class="st55" d="M282.6 213.1h69v12.3h-69zM282.6 199.1h69v12.3h-69z"/><path fill-rule="evenodd" clip-rule="evenodd" fill="#878787" d="M232.9 221.7h238.8v15.4H232.9z"/></g><g id="character"><path class="st18" d="M140.8 326.5l59.2-8.6 62 11.8-49.7 4.8z"/><path fill-rule="evenodd" clip-rule="evenodd" fill="#ffdbc7" d="M209 53.7l-30.6 7.6-27.4 10 2.2 12.6 7.2 14.8-3.1-.3-2.3 3.8-3.5-6.6-2.9-2.9-4.5 2.3-5 5.5 1.5 3.3 4 4.8 3.7 5.3 14.5 32.3 25.6 4.9-.2-14.8 2.3-9.9 11-4.1 16.4-4.7-1.7-30.6z"/><path class="st62" d="M176.2 92.6l4.5-10.7 12-.3 7.1 17.9-5.3-24.4-12.4.7-7.5 5.8-3.1 5.4zM213.1 72.9l-8 5.8-.5 10.8-7.4-16.7z"/><path class="st62" d="M173.3 97.5l25.4-.8-.3-3.6zM216.3 88.1l-10.4 7-.9-3.8z"/><path class="st62" d="M159.1 68.8l11 9.6 3.2 19.1 2.2 28.7 12.9 24.9-11.8-1.1-13.8-3.8-14.5-32.3 7.9-4.8-1.2-6.9 5.4-3.5-9.4-27.4z"/><path class="st63" d="M148.3 113.9l7.9-4.8-2.4 17.2zM217.9 117.6l-49.9 9.8 13 22.3 3.1 1.9 4.3-.5 2.1-24.7z"/><path class="st64" d="M184.1 88.2c1.1 0 2-1.3 2-3 0-1.6-.9-3-2-3s-2 1.3-2 3c0 1.6.9 3 2 3zM209.4 82.5c1.1 0 2-1.3 2-3 0-1.6-.9-3-2-3s-2 1.3-2 3 .9 3 2 3z"/><path class="st65" d="M174.6 71.5l8.2 4.7 11.3-3zM198.4 68.6l6-6.6 5 .9z"/><path fill-rule="evenodd" clip-rule="evenodd" fill="#ffeae0" d="M194.1 73.2l5.7 26.3 7-1-6.5-26.2z"/><path class="st63" d="M199.8 99.5l3.7 3.7 3.3-4.7z"/><path fill-rule="evenodd" clip-rule="evenodd" fill="#27788c" d="M180.2 107.8l15.4-.1 7.6 3.2-9.7.4-5.9-.5-1.6-.3-1.9-1.2z"/><path fill-rule="evenodd" clip-rule="evenodd" fill="#3aa0ba" d="M183.9 109.3l3.8 4.1 15.5-2.5-15.6-.1z"/><path class="st63" d="M144.2 102.4l3.6-3.6 3.7 5.6z"/><path class="st69" d="M194.1 73.2l-24 5.2 3.2 19.1 25.1-4.4-.9-4.3-21.3 3.8-1.6-11 20.3-4.6zM222.6 66.2l-22.3 6.1.9 3.6 18.2-4.6 2.1 10.8-17.4 5.6.9 3.6 21.4-6z"/><path class="st70" d="M209 53.7l-28.6-19.3.9 14.5 4.1 11.9z"/><path class="st71" d="M180.4 34.4l-46.3 15.9-3.4 8.1.1 6.8 9.9 4 10.3 2.1 8.1-2.5 26.3-8z"/><path class="st70" d="M130.8 65.2l-1.9 4.9.5 3.8-3.6 21.7 16.1-2.5 14.7-5.7-5.6-16.1z"/><path class="st65" d="M125.8 95.6l30.8-8.2 3.8 11.3-5.4 3.5-6.4-9.5-9.5 7.8 5.5 8.1zM129.4 74l-15.3-1.4 7.7-10.1 12.3-12.2-3.3 14.9z"/><path class="st71" d="M134.1 50.3l-19.1-10-13.6 45.8 12.7-13.5z"/><path class="st70" d="M162.8 146.2l30.9 5.9-3.1 7.6-6.8 8.8-16.8-8.3-10.4-10.3z"/><path class="st72" d="M156.6 149.9l-10.3 5.3 4.1 14.5 6.8 14.6 2.7 7.1 24.1-2.6 21.6-7.2-2.3-11.6-9.6-17.9-9.9 16.4z"/><path class="st73" d="M159.9 191.4l45.7-9.8-1.4 17.8-3.5 16.9-15.7.9-15.8-1.2z"/><path class="st72" d="M169.2 216l12.9 17.5 15 11.4 3.2-13 .4-15.6z"/><path fill-rule="evenodd" clip-rule="evenodd" fill="#369496" d="M169.2 216l27.9 28.9-2.6 29.8-6.4 32.2-10.5-19.7-5-14.9-15.7-35.1 5.4-9.4 2.6-7.2z"/><path class="st73" d="M172.5 272.1l-1.3 24.5 8.5 5.2 4.6 4.5 3.8.6z"/><path fill-rule="evenodd" clip-rule="evenodd" fill="#51a9ab" d="M200.7 216.3l1.9 2.7.1 6 7.5 32.6-8.1-5.1-5-7.6z"/><path class="st73" d="M197.1 244.9l13.1 12.7 9.5 46-2.8 1.9-4.6-1.1-24.2 2.5z"/><path class="st30" d="M146.3 155.2l-24.2 39.2 13.1-2.3 9.3-4.2 12.7-3.7z"/><path class="st70" d="M144.6 187.9l16.2 18.8-4 3.6-6.1.8-28.6-16.7z"/><path class="st30" d="M193.7 152.1l27.6 30-8.1 5.4-8.8 2.9 1.2-8.8z"/><path class="st70" d="M221.3 182.1l-12.4 27.1-4.4-1.5-2.3-2 2.2-15.3z"/><path class="st62" d="M150.7 211.1l7.2 10.5 1.3 3.3 3.1 3.1 6.9-12-8.4-9.3z"/><path class="st63" d="M157.7 221.3l-6.2 6.6 10.8.1zM208.9 209.2l-3.7 10 .3 2.7-2.7 3.6-2.1-9.2 1.5-10.6z"/><path class="st62" d="M205.3 218.7l6.4 3.7-8.9 3z"/><path class="st70" d="M219.7 303.6l23.9 25.5-13.8.5-4.4-6.3-6.4-6.7-4.2-8.4-2.6-3.8z"/><path class="st65" d="M214.9 308.2l-.3 15 11 .4z"/><path class="st70" d="M188.1 306.9l9.7 24.3-14.9-.8-.8-6.7-1.2-6.6-.6-9.4-.6-5.9 4.1 2.5z"/><path class="st65" d="M180.3 307.3l-4.5 16.7h6.4z"/></g></svg>