<svg id="image" xmlns="http://www.w3.org/2000/svg" viewBox="0 0 1170 350"><style>.st1,.st2{fill-rule:evenodd;clip-rule:evenodd;fill:#fff}.st2{fill:#f2f2f2}.st3{opacity:.7}.st4{fill:#fff}.st5{fill:#d3d3d3}.st6{fill:#c6c6c6}.st7{fill:#ccc}.st8,.st9{fill-rule:evenodd;clip-rule:evenodd;fill:#d3d3d3}.st9{fill:#c6c6c6}.st10{fill:#a8a8a8}.st11,.st12,.st13,.st14,.st15,.st17{fill-rule:evenodd;clip-rule:evenodd;fill:#d6d6d6}.st12,.st13,.st14,.st15,.st17{fill:#e5e5e5}.st13,.st14,.st15,.st17{fill:#a8a8a8}.st14,.st15,.st17{fill:#b5b5b5}.st15,.st17{fill:#9e9e9e}.st17{fill:#ededed}.st22{fill:#878787}.st22,.st23,.st24{fill-rule:evenodd;clip-rule:evenodd}.st23{opacity:.1}.st24{fill:#777}.st25,.st26,.st27,.st28,.st29,.st33{fill-rule:evenodd;clip-rule:evenodd;fill:#5e5e5e}.st26,.st27,.st28,.st29,.st33{fill:#8c8c8c}.st27,.st28,.st29,.st33{fill:#848484}.st28,.st29,.st33{fill:#cecece}.st29,.st33{fill:#8e8e8e}.st33{fill:#686868}.st35{fill:#777}.st36{fill:#686868}.st37{fill:#727272}.st38{fill:#5e5e5e}.st41{fill:#ededed}.st42{fill:#cecece}.st44{fill:#939393}.st45{fill:#999}.st47{fill-rule:evenodd;clip-rule:evenodd;fill:#727272}.st48{fill:#6b6b6b}.st50{fill:#878787}.st51{fill:#636363}.st54,.st55,.st56,.st57{fill-rule:evenodd;clip-rule:evenodd;fill:#a0a0a0}.st55,.st56,.st57{fill:#969696}.st56,.st57{fill:#7c7c7c}.st57{fill:#a5a5a5}.st62{fill:#bf8f00}.st63{fill:#9e7700}.st64{fill:#ccad14}.st68,.st69,.st70,.st71{fill-rule:evenodd;clip-rule:evenodd;fill:#856400}.st69,.st70,.st71{fill:#e5c82e}.st70,.st71{fill:#755800}.st71{fill:#b58b00}.st72,.st73,.st74,.st75,.st80,.st81{fill-rule:evenodd;clip-rule:evenodd;fill:#9e7700}.st73,.st74,.st75,.st80,.st81{fill:#ccad14}.st74,.st75,.st80,.st81{fill:#bf8f00}.st75,.st80,.st81{fill:#2b2b2b}.st80,.st81{fill:#f5cab3}.st81{fill:#c4937d}</style><g id="sky"><path fill="#ddd" d="M-10-9h1190v368H-10z"/><path class="st1" d="M714.5 28.1l41.2-7.5 8.9 9.6 28.9-1.6-15.4 19.3-30.2-4.8L719 55.4l-54.5-23.6L679.1 20z"/><path class="st2" d="M793.5 28.6L772 38.4l-15.5-3.3-39.8 7.8-52.2-11.1L719 55.4l28.9-12.3 30.2 4.8z"/><path class="st1" d="M1083.6 2.1l-27.9-17.9-14 12.4s-56.2-16.3-57.8-16.7c-1.6-.4-14 10.8-14 10.8l10.4 10.4-41.5 4.8L924.2 32l41.1-6 53 23.5 15.9-19.1 43.5 10.4 44.3-15.5 4.8-13.2-43.2-10z"/><path class="st2" d="M1121.9 25.2l-48.6-10.8-9.2 9.6-36.7-16.3-39 13.1-.4-13.9-7.6-6-13.2 16.7-28.3-11.9L924.2 32l41-6 53.1 23.5 15.9-19.1 43.5 10.3z"/><path class="st1" d="M398.3 27.4l43.6-10.5 12.7 7.7 45.3-9.6 77.9 15.8L554 43.6l8.9 17.4-22.1 5-74-20.1-41.4 8.1z"/><path class="st2" d="M577.8 30.8l-56.9 8.9-17.7-6.9-30.9 4.2.6 5.4-40.9-1.1-33.7-13.9L425.4 54l41.4-8.1 74 20.1 22.1-5-8.9-17.4z"/><path class="st1" d="M46.6 28.1l35.6-13.2 10.9 12 29.3-2.8 11.5 17.8-52.2 6.8-6.4-12.6L32.9 43z"/><path class="st2" d="M122.4 24.1L105.2 39 77.6 26.9l-26.9 5.2L32.9 43l42.4-6.9 6.4 12.6 52.2-6.8z"/></g><g id="mountains"><g class="st3"><path class="st4" d="M839.9 319l178.2-224.5L1201.5 319l-106.9 27.2z"/><path class="st5" d="M899.3 325.4l87.9-158.2-3.3-12.7-16.5 3.9L839.9 319z"/><path class="st6" d="M987.2 167.2l19-15 4.3 9.3-53.7 185.2-73.1-9.4z"/><path class="st5" d="M1010.5 161.5l8.1-18.7 8.5 19.2-.4 177.7-70.3-.5z"/><path class="st6" d="M1027.1 162l11-9.4 10 8.5 68.4 181.4-93.6 1.8z"/><path class="st5" d="M1048.1 161.1l4.2-8.5 6.7 3.8 117.8 187-73.2 3.8z"/><path class="st6" d="M1201.5 319l-138.7-169.8-3.8 7.2 106.6 171.8z"/></g><g class="st3"><path class="st7" d="M596 324.2L785.6 86l173.6 235.7z"/><path class="st5" d="M672 315.1L757.4 143l-23 7.3-117.3 147.4z"/><path class="st6" d="M757.4 143l8.1 8.5-34.6 145.6-26.9 15-34.6-3.9z"/><path class="st5" d="M765.5 151.5l13.6-16.6 4.7 26.4 12.4 154.2-70-4.3z"/><path class="st6" d="M783.8 161.3l14.6-9.8 11.1 13.2 39.7 160.6-56-10.2z"/><path class="st5" d="M809.5 164.7l4.8-17.2 11.8 16.4 84.6 152.4-70.1-11.4z"/><path class="st6" d="M951.6 311.4l-120-162.8-5.5 15.3 79.3 147.9z"/><path class="st4" d="M734.6 150.1l51-64.1 46.7 63.4-6.2 14.5-11.8-16.4-4.8 17.2-11.1-13.2-14.6 9.8-4.7-26.4-14.4 15.3-7.3-7.2z"/></g><g class="st3"><path class="st1" d="M-160.1 316.9l209-256.4 161.4 228.7-95 25.3z"/><path class="st8" d="M-148.3 316.8l35.8-.4L.1 139.7l-8.1-9.4-148.9 182.6z"/><path class="st9" d="M.1 139.7l3.8 16.8L-73 316.9l-47.9-1z"/><path class="st8" d="M3.9 156.5l12.7-16.2 8.5 12-46.9 154.1H-73z"/><path class="st9" d="M25.1 152.3l13.2-10.7 16.2 10.7 1.8 169.8-84.3-7.6z"/><path class="st8" d="M54.5 152.3l9.9-11.7 30.3 167.2-40.9 7.6z"/><path class="st9" d="M64.4 140.6l4.3-10.5 9.7 10.5 64.2 164.3-47.9 11.5z"/><path class="st8" d="M78.6 141.6l2.8-9.9 12.1 8.3 74.7 149.2-34.7 8.6z"/><path class="st9" d="M208 285.9L97.9 130.1l-4.4 9.9 77.6 156.4z"/></g><path transform="rotate(-51.589 58.00096117 183.68589075)" class="st10" d="M-147.8 183h411.7v1.4h-411.7z"/><path class="st10" d="M185.3 22h1.4v19.3h-1.4zM155.3 60h1.4v19.3h-1.4zM125.3 98h1.4v19.3h-1.4zM95.3 136h1.4v19.3h-1.4zM65.3 174h1.4v19.3h-1.4zM35.3 211h1.4v19.3h-1.4zM5.3 250h1.4v19.3H5.3z"/><path transform="rotate(-29.332 205.84047142 52.60103784)" class="st10" d="M197.6 51.3h16.5v2.6h-16.5z"/><path transform="matrix(.7556 -.6551 .6551 .7556 16.3543 152.3024)" class="st10" d="M211.7 50.4h1.2V58h-1.2z"/><path transform="rotate(-25.986 209.97619274 59.86283224)" class="st10" d="M202.7 59.3h14.5v1.2h-14.5z"/><path transform="rotate(-54.599 214.56423493 47.77226553)" class="st10" d="M212.5 45.7h4.2v4.2h-4.2z"/><path transform="rotate(-36.254 201.11284385 59.6749181)" class="st10" d="M200.7 51h.9v17.3h-.9z"/><path transform="matrix(.09355 -.9956 .9956 .09355 122.3885 267.7237)" class="st10" d="M207.7 64.3h1v4.6h-1z"/><path class="st10" d="M185.3 15.4v7.8l8.6-4.1z"/><g class="st3"><path class="st7" d="M159.7 332L378 51l200 278z"/><path class="st5" d="M247.2 321.2l98.4-203-26.5 8.7L184 300.7z"/><path class="st6" d="M345.6 118.2l9.3 10.1L315.1 300l-31 17.7-39.9-4.6z"/><path class="st5" d="M354.9 128.3l15.7-19.7 5.4 31.3 14.3 181.8-80.6-5z"/><path class="st6" d="M376 139.9l16.8-11.6 12.8 15.6 45.7 189.4-64.4-12.1z"/><path class="st5" d="M405.6 143.9l5.5-20.4 13.6 19.4 97.5 179.8-80.8-13.5z"/><path class="st6" d="M569.3 316.9L431.1 124.8l-6.4 18.1L516 317.3z"/><path class="st4" d="M319.4 126.6L378 51l53.9 74.8-7.2 17.1-13.6-19.4-5.5 20.4-12.8-15.6-16.8 11.6-5.4-31.3-16.5 18.1-8.5-8.5z"/></g><g><path class="st4" d="M432.9 303L649.6 30l222.9 273-129.9 33z"/><path class="st5" d="M505.1 310.7L612 118.3l-4-15.4-20.1 4.7-155 195.4z"/><path class="st6" d="M612 118.3l23.1-18.2 5.2 11.4L575 336.6l-88.9-11.4z"/><path class="st5" d="M640.3 111.5l9.8-22.8 10.4 23.4L660 328l-85.5-.5z"/><path class="st6" d="M660.5 112.1l13.3-11.4 12.1 10.2 83.2 220.6-113.8 2.2z"/><path class="st5" d="M685.9 110.9l5.2-10.2 8.1 4.5 143.3 227.4-89 4.6z"/><path class="st6" d="M872.5 303L703.9 96.5l-4.7 8.7 129.7 208.9z"/></g><g><path class="st7" d="M-40 324L186 40l207 281z"/><path class="st5" d="M50.6 313.1l101.8-205.2-27.4 8.8-139.8 175.7z"/><path class="st6" d="M152.4 107.9l9.6 10.2-41.2 173.6-32.1 17.8-41.2-4.6z"/><path class="st5" d="M162 118.1l16.3-19.9 5.6 31.6 14.8 183.8-83.5-5.1z"/><path class="st6" d="M183.9 129.8l17.4-11.7 13.2 15.8 47.3 191.4-66.7-12.2z"/><path class="st5" d="M214.5 133.9l5.7-20.6 14.1 19.6 100.9 181.7-83.6-13.6z"/><path class="st6" d="M384 308.7L240.9 114.6l-6.6 18.3 94.5 176.3z"/><path class="st4" d="M125.3 116.4L186 40l55.7 75.6-7.4 17.3-14.1-19.6-5.7 20.6-13.2-15.8-17.4 11.7-5.6-31.6-17.1 18.3-8.8-8.6z"/></g><g><path class="st7" d="M930 324l226-284 207 281z"/><path class="st5" d="M1020.6 313.1l101.8-205.2-27.4 8.8-139.8 175.7z"/><path class="st6" d="M1122.4 107.9l9.6 10.2-41.2 173.6-32.1 17.8-41.2-4.6z"/><path class="st5" d="M1132 118.1l16.3-19.9 5.6 31.6 14.8 183.8-83.5-5.1z"/><path class="st6" d="M1153.9 129.8l17.4-11.7 13.2 15.8 47.3 191.4-66.7-12.2z"/><path class="st4" d="M1095.3 116.4L1156 40l55.7 75.6-7.4 17.3-14.1-19.6-5.7 20.6-13.2-15.8-17.4 11.7-5.6-31.6-17.1 18.3-8.8-8.6z"/></g><g><path class="st1" d="M654.9 316.9L896 60.5l186.3 228.7-109.6 25.3z"/><path class="st8" d="M668.5 316.8l41.3-.4 129.9-176.7-9.3-9.4-171.8 182.6z"/><path class="st9" d="M839.7 139.7l4.5 16.8-88.8 160.4-55.2-1z"/><path class="st8" d="M844.2 156.5l11.9-13.3 12.5 9.1-54.1 154.1h-59.1z"/><path class="st9" d="M868.6 152.3l15.2-10.7 18.7 10.7 2.1 169.8-97.2-7.6z"/><path class="st8" d="M902.5 152.3l11.4-11.7 35 167.2-47.2 7.6z"/><path class="st9" d="M913.9 140.6l5.1-10.5 11.1 10.5 74.1 164.3-55.3 11.5z"/><path class="st11" d="M930.4 141.6l3.1-9.9 14 8.3 86.2 149.2-40 8.6z"/><path class="st9" d="M1079.6 285.9l-127-155.8-5.1 9.9 89.5 156.4z"/></g></g><g id="snow"><path class="st12" d="M991.4 305.1l-47.8-26.7L1187 147l-3.6 184.2z"/><path class="st13" d="M1033.9 225.7h149.5v9.2h-149.5zM765.9 225.7H688l-135.3 74.8 7.6 6.4L689 235h76.9z"/><path class="st14" d="M572 300v21.3h13v-28.6z"/><path class="st15" d="M585 292.7v28.6h13v-35.8z"/><path class="st14" d="M598 285.5v35.8h13v-43z"/><path class="st15" d="M611 278.3v43h13v-50.2z"/><path class="st14" d="M624 271.1v50.2h13v-57.5z"/><path class="st15" d="M637 263.8v57.5h13v-64.7z"/><path class="st14" d="M650 256.6v64.7h13v-71.9z"/><path class="st15" d="M663 249.4v71.9h13v-79.1z"/><path class="st14" d="M676 321.3h13V235l-13 7.2z"/><path class="st11" d="M643.4 311.5l51.4-16.9 66 20.4-82.2 47.1z"/><path class="st12" d="M-13.9 285.5l120.2 7-120.9 36.6z"/><path fill-rule="evenodd" clip-rule="evenodd" fill="#efefef" d="M-10.4 319.2l187.7-54.1 84.4 27.4-222.9 66.1-53.4 3.5z"/><path class="st12" d="M261.7 292.5l48.5 9.1-54.8 54.2L36 357.9z"/><path class="st17" d="M249.7 359.3l60.5-57.7 77.3-1.4 46.4 63.3z"/><path fill-rule="evenodd" clip-rule="evenodd" fill="#ddd" d="M387.5 300.2l77.4-18.3 103.3 16.9-73.1 61.2-61.2 3.5z"/><path fill-rule="evenodd" clip-rule="evenodd" fill="#d1d1d1" d="M568.2 298.8l75.2 12.7L495.1 360z"/><path class="st17" d="M497.9 360l145.5-48.5 72.5 49.2z"/><path fill-rule="evenodd" clip-rule="evenodd" fill="#ccc" d="M760.8 315l57.7 16.9-13.4 28.1-89.2.7-37.3 1.4z"/><path fill-rule="evenodd" clip-rule="evenodd" fill="#e0e0e0" d="M760.8 315l97.8-35.2-163.8 14.8z"/><path class="st17" d="M760.8 315l97.8-35.2 85-1.4 47.8 26.7-77.3 52.8-95.6-26z"/><path class="st11" d="M991.4 305.1l192 26.1-1.4 28.1-267.9-1.4z"/><path class="st14" d="M754 75.5h13v221h-13z"/><path class="st15" d="M689 235h13v61.6h-13z"/><path class="st14" d="M702 235h13v61.6h-13z"/><path class="st15" d="M715 235h13v61.6h-13z"/><path class="st14" d="M728 235h13v61.6h-13z"/><path class="st15" d="M741 235h13v61.6h-13z"/><path class="st14" d="M1027 75.5h13v221h-13z"/><path class="st15" d="M1092 235h13v61.6h-13z"/><path class="st14" d="M1105 235h13v61.6h-13z"/><path class="st15" d="M1118 235h13v61.6h-13z"/><path class="st14" d="M1131 235h13v61.6h-13z"/><path class="st15" d="M1144 235h13v61.6h-13z"/><path class="st14" d="M1157 235h13v61.6h-13zM1079 235h13v61.6h-13z"/><path class="st15" d="M1066 235h13v61.6h-13z"/><path class="st14" d="M1053 235h13v61.6h-13z"/><path class="st15" d="M1040 235h13v61.6h-13zM739.3 43.3h314.8v40.5H739.3z"/><path class="st22" d="M739.3 82.3h314.8v1.8H739.3z"/><path class="st4" d="M753.3 55.1c0-.2 0-.3.1-.4s.3-.1.6-.1c.4 0 .6 0 .8.1.1 0 .2.1.3.2l8.4 11v-8.3c0-.5-.1-.8-.2-1.1-.1-.2-.3-.4-.6-.4l-.6-.1c-.2 0-.3-.1-.3-.2-.1-.1-.1-.3-.1-.5s0-.4.1-.5c.1-.1.1-.2.2-.2s.5 0 .9.1c.5.1.8.1 1.1.1.3 0 .7 0 1.2-.1s.7-.1.9-.1c.1 0 .3.1.3.2.1.1.1.3.1.5 0 .3 0 .4-.1.5 0 .1-.2.1-.4.2l-.4.1c-.3.1-.4.2-.5.4-.1.2-.2.6-.2 1.1v12.6c0 .2 0 .4-.1.5-.1.1-.3.1-.7.1h-.2c-.3 0-.4 0-.5-.1-.1-.1-.2-.1-.3-.3l-8.4-10.9v8.3c0 .5.1.9.2 1.1s.3.4.6.4l.5.1c.2 0 .3.1.3.2.1.1.1.3.1.5s0 .4-.1.5-.1.2-.3.2c-.1 0-.4 0-.9-.1s-.9-.1-1.2-.1c-.3 0-.6 0-1.1.1s-.8.1-.9.1c-.1 0-.2-.1-.3-.2s-.1-.3-.1-.5c0-.3 0-.4.1-.5s.2-.1.3-.2l.4-.1c.3-.1.4-.2.6-.4.1-.2.2-.6.2-1.2V55.1zM768.7 68.2l5-13c.1-.2.1-.3.2-.4.1-.1.3-.1.6-.1s.5 0 .5.1.1.1.2.3l4.8 13.1c.1.3.2.5.4.7.1.2.3.3.5.3l.4.1c.2 0 .3.1.3.2.1.1.1.3.1.5 0 .3 0 .5-.1.5-.1.1-.2.1-.3.1-.1 0-.4-.1-1-.2-.5-.1-1-.2-1.4-.2-.4 0-.9.1-1.4.2-.5.1-.8.2-.9.2-.2 0-.4 0-.4-.1s-.1-.2-.1-.5 0-.4.1-.5c.1-.1.2-.1.3-.2l.3-.1c.1 0 .2-.1.2-.2s.1-.1.1-.2v-.3c0-.1 0-.2-.1-.3l-1-2.9h-4.6l-1 2.9c0 .1-.1.2-.1.3v.3c0 .1 0 .2.1.3 0 .1.1.1.2.1l.5.1c.2 0 .3.1.3.2s.1.3.1.5 0 .3-.1.4c-.1.1-.2.2-.3.2-.2 0-.4 0-.9-.1s-.7-.1-1-.1c-.2 0-.5 0-.9.1s-.7.1-.9.1c-.1 0-.2-.1-.3-.2s-.1-.3-.1-.5c0-.3 0-.4.1-.5 0-.1.2-.1.4-.2l.4-.1c.2 0 .4-.1.5-.3l.3-.6zm5-9.3l-1.8 4.9h3.5l-1.7-4.9zM785.7 56.5H783c-.3 0-.6 0-.7.1-.1.1-.2.2-.3.4l-.1.4c-.1.2-.2.4-.3.4-.1.1-.3.1-.6.1-.2 0-.4 0-.5-.1-.1-.1-.1-.2-.1-.4v-.1-.2l.4-2.1c.1-.3.1-.5.2-.6.1-.1.2-.1.4-.1.3 0 .5.1.8.2.2.2.5.2.8.2h8.9c.2 0 .5-.1.7-.3.3-.2.6-.3 1-.3.1 0 .2 0 .3.1.1.1.1.1.1.2V54.7l-.4 2.5c0 .2-.1.4-.2.5-.1.1-.2.1-.4.1-.3 0-.5 0-.6-.1-.1-.1-.2-.2-.2-.4l-.2-.3c0-.2-.1-.3-.3-.4s-.5-.1-1-.1h-2.2v10.9c0 .7.1 1.1.2 1.3.1.2.3.4.6.4l.5.1c.1 0 .3.1.3.2.1.1.1.3.1.5 0 .3 0 .5-.1.6-.1.1-.2.1-.4.1-.1 0-.4-.1-1-.2s-1.1-.2-1.6-.2c-.4 0-.9.1-1.5.2s-1 .2-1.2.2c-.1 0-.2-.1-.3-.2s-.1-.3-.1-.5c0-.3 0-.5.1-.6.1-.1.2-.1.3-.2l.5-.1c.3-.1.5-.2.6-.5s.2-.7.2-1.3V56.5zM800.6 56l-.4.1c-.3.1-.5.2-.6.4-.1.2-.2.7-.2 1.3v9.5c0 .7.1 1.2.2 1.4.1.2.3.4.6.4l.4.1c.2.1.3.1.3.2s.1.2.1.5 0 .5-.1.6c0 .1-.1.1-.3.1-.2 0-.5-.1-1.1-.2-.6-.1-1.1-.2-1.5-.2-.4 0-.9.1-1.4.2-.6.1-1 .2-1.1.2-.1 0-.2 0-.3-.1 0-.1-.1-.3-.1-.6 0-.4.1-.6.4-.7l.4-.1c.3-.1.5-.2.6-.5.1-.2.2-.7.2-1.3v-9.5c0-.6-.1-1.1-.2-1.3-.1-.2-.3-.4-.6-.5l-.4-.1c-.3-.1-.4-.3-.4-.7 0-.3 0-.5.1-.6 0-.1.1-.1.3-.1.2 0 .5.1 1.1.2.6.1 1.1.2 1.5.2.4 0 .9-.1 1.5-.2s.9-.2 1.1-.2c.1 0 .2 0 .3.1 0 .1.1.3.1.6-.1.5-.2.8-.5.8zM810.1 54.5c2.2 0 4 .8 5.3 2.3 1.4 1.5 2.1 3.5 2.1 5.9s-.7 4.4-2.1 5.9c-1.4 1.5-3.1 2.3-5.3 2.3s-4-.8-5.3-2.3c-1.4-1.5-2.1-3.5-2.1-5.9 0-2.4.7-4.4 2.1-5.9 1.3-1.5 3.1-2.3 5.3-2.3zm0 1.8c-1.3 0-2.4.6-3.1 1.7-.8 1.1-1.1 2.7-1.1 4.7s.4 3.6 1.1 4.7c.8 1.1 1.8 1.7 3.1 1.7s2.4-.6 3.2-1.7c.8-1.1 1.2-2.7 1.2-4.7s-.4-3.6-1.2-4.7c-.9-1.2-1.9-1.7-3.2-1.7zM820.2 55.1c0-.2 0-.3.1-.4s.3-.1.6-.1c.4 0 .6 0 .8.1.1 0 .2.1.3.2l8.4 11v-8.3c0-.5-.1-.8-.2-1.1-.1-.2-.3-.4-.6-.4l-.6-.1c-.2 0-.3-.1-.3-.2-.1-.1-.1-.3-.1-.5s0-.4.1-.5c.1-.1.1-.2.2-.2s.5 0 .9.1c.5.1.8.1 1.1.1.3 0 .7 0 1.2-.1s.7-.1.9-.1c.1 0 .3.1.3.2.1.1.1.3.1.5 0 .3 0 .4-.1.5 0 .1-.2.1-.4.2l-.4.1c-.3.1-.4.2-.5.4-.1.2-.2.6-.2 1.1v12.6c0 .2 0 .4-.1.5-.1.1-.3.1-.7.1-.3 0-.4 0-.5-.1-.1-.1-.2-.1-.3-.3l-8.4-10.9v8.3c0 .5.1.9.2 1.1s.3.4.6.4l.5.1c.2 0 .3.1.3.2.1.1.1.3.1.5s0 .4-.1.5-.1.2-.3.2c-.1 0-.4 0-.9-.1s-.9-.1-1.2-.1c-.3 0-.6 0-1.1.1s-.8.1-.9.1c-.1 0-.2-.1-.3-.2s-.1-.3-.1-.5c0-.3 0-.4.1-.5s.2-.1.3-.2l.4-.1c.3-.1.4-.2.6-.4.1-.2.2-.6.2-1.2V55.1zM835.6 68.2l5-13c.1-.2.1-.3.2-.4.1-.1.3-.1.6-.1s.5 0 .5.1.1.1.2.3l4.8 13.1c.1.3.2.5.4.7.1.2.3.3.5.3l.4.1c.2 0 .3.1.3.2.1.1.1.3.1.5 0 .3 0 .5-.1.5-.1.1-.2.1-.3.1-.1 0-.4-.1-1-.2-.5-.1-1-.2-1.4-.2-.4 0-.9.1-1.4.2-.5.1-.8.2-.9.2-.2 0-.4 0-.4-.1s-.1-.2-.1-.5 0-.4.1-.5c.1-.1.2-.1.3-.2l.3-.1c.1 0 .2-.1.2-.2s.1-.1.1-.2v-.3c0-.1 0-.2-.1-.3l-1-2.9h-4.6l-1 2.9c0 .1-.1.2-.1.3v.3c0 .1 0 .2.1.3 0 .1.1.1.2.1l.5.1c.2 0 .3.1.3.2s.1.3.1.5 0 .3-.1.4c-.1.1-.2.2-.3.2-.2 0-.4 0-.9-.1s-.7-.1-1-.1c-.2 0-.5 0-.9.1s-.7.1-.9.1c-.1 0-.2-.1-.3-.2s-.1-.3-.1-.5c0-.3 0-.4.1-.5 0-.1.2-.1.4-.2l.4-.1c.2 0 .4-.1.5-.3 0 0 .2-.2.3-.6zm5-9.3l-1.8 4.9h3.5l-1.7-4.9zM855.2 56l-.4.1c-.3.1-.5.2-.6.5s-.2.7-.2 1.3V67c0 .7.1 1.2.3 1.5s.6.4 1.1.4c1 0 1.6-.1 1.9-.2.3-.1.5-.3.7-.6.1-.2.2-.5.3-.8.1-.4.3-.6.8-.6.3 0 .6 0 .7.1s.2.2.2.4c0 .1-.1.5-.2 1.2-.2.7-.3 1.3-.4 2-1.2-.1-2.3-.1-3.2-.1h-2.4c-1.2 0-2.4.1-3.5.2h-.3c-.2 0-.3 0-.4-.1s-.1-.2-.1-.4c0-.3 0-.5.1-.6 0-.1.2-.1.3-.2l.5-.1c.3-.1.4-.2.6-.5.1-.3.2-.7.2-1.3v-9.5c0-.6-.1-1.1-.2-1.3-.1-.3-.3-.4-.6-.5l-.4-.1c-.2 0-.3-.1-.3-.2-.1-.1-.1-.2-.1-.5s0-.5.1-.6c.1-.1.2-.1.3-.1 0 0 .3.1.9.2.6.1 1.1.2 1.7.2.5 0 1-.1 1.5-.2.6-.1.9-.2.9-.2.2 0 .3.1.4.2.1.1.1.3.1.5s0 .4-.1.5c.1.2 0 .3-.2.3zM869.4 60l-.5 7.6v.5c0 .4.1.7.2.9.1.2.3.3.6.4l.4.1c.2 0 .3.1.3.2s.1.2.1.5c0 .2 0 .4-.1.5-.1.1-.2.1-.3.1-.2 0-.5 0-.9-.1-.5-.1-.8-.1-1.1-.1-.2 0-.5 0-.8.1s-.6.1-.8.1-.3-.1-.3-.2c-.1-.1-.1-.3-.1-.5 0-.3.1-.5.4-.6l.3-.1c.2-.1.4-.2.5-.4.1-.2.1-.4.2-.8l1.1-12.9c0-.3.1-.4.2-.5.1-.1.3-.1.6-.1.4 0 .7.2.9.5 0 .1 0 .1.1.1l5.2 10.9 4.5-10.8c.1-.4.3-.6.4-.7.1-.1.3-.1.6-.1.5 0 .8.2.8.6l1.4 12.8c0 .4.1.7.2.8.1.2.3.3.5.4l.4.1c.2 0 .3.1.3.2.1.1.1.2.1.4 0 .3 0 .5-.1.6-.1.1-.2.2-.3.2-.1 0-.4-.1-.9-.2-.6-.1-1.1-.2-1.6-.2-.3 0-.7.1-1.3.2-.5.1-.8.2-1 .2-.1 0-.2-.1-.3-.2-.1-.1-.1-.3-.1-.5 0-.3 0-.5.1-.5 0-.1.2-.1.3-.2l.4-.1c.2-.1.4-.2.5-.3.1-.2.1-.4.1-.8v-.2-.1l-.9-8-4.1 9.9c-.1.2-.2.3-.3.4-.1.1-.3.1-.5.1s-.3 0-.5-.1l-.3-.3-4.6-9.8zM893.2 54.5c2.2 0 4 .8 5.3 2.3 1.4 1.5 2.1 3.5 2.1 5.9s-.7 4.4-2.1 5.9c-1.4 1.5-3.1 2.3-5.3 2.3s-4-.8-5.3-2.3c-1.4-1.5-2.1-3.5-2.1-5.9 0-2.4.7-4.4 2.1-5.9 1.4-1.5 3.2-2.3 5.3-2.3zm0 1.8c-1.3 0-2.4.6-3.1 1.7-.8 1.1-1.1 2.7-1.1 4.7s.4 3.6 1.1 4.7c.8 1.1 1.8 1.7 3.1 1.7s2.4-.6 3.2-1.7c.8-1.1 1.2-2.7 1.2-4.7s-.4-3.6-1.2-4.7c-.8-1.2-1.8-1.7-3.2-1.7zM907.4 56l-.4.1c-.3.1-.6.2-.7.5-.1.2-.2.8-.2 1.7 0 4.5.3 7.5.8 8.9.5 1.4 1.4 2.2 2.7 2.2 1.3 0 2.2-.6 2.7-1.9.6-1.3.8-3.4.8-6.4v-.5-.7-.8-.7c0-.9-.1-1.5-.2-1.8-.1-.3-.4-.4-.8-.5l-.3-.1c-.2 0-.3-.1-.3-.2-.1-.1-.1-.2-.1-.5s0-.5.1-.6c.1-.1.2-.1.3-.1.1 0 .3 0 .8.1.4.1.8.1 1.1.1.3 0 .7-.1 1.2-.2s.8-.2.9-.2c.1 0 .2.1.3.2.1.1.1.3.1.6 0 .2 0 .4-.1.4s-.2.1-.4.2l-.3.1c-.2.1-.4.1-.5.2-.1.1-.2.3-.2.5s-.1 1-.1 2.3c0 1.3-.1 2.6-.1 3.7-.2 2.8-.7 4.9-1.6 6.2s-2.2 1.9-3.9 1.9c-1 0-1.8-.2-2.5-.5-.7-.4-1.3-.9-1.8-1.6-.4-.6-.7-1.4-.9-2.3-.2-.9-.3-2.4-.4-4.4 0-.7-.1-1.6-.1-2.7 0-2-.3-3.1-.8-3.2l-.3-.1c-.1 0-.3-.1-.3-.2s-.1-.3-.1-.6 0-.4.1-.5c.1-.1.2-.1.4-.1.1 0 .4.1.9.2s1 .2 1.4.2c.5 0 1.1-.1 1.7-.2.6-.1.9-.2 1-.2.2 0 .3 0 .4.1.1.1.1.3.1.5 0 .3 0 .4-.1.5 0 .3-.1.4-.3.4zM918.6 55.1c0-.2 0-.3.1-.4s.3-.1.6-.1c.4 0 .6 0 .8.1.1 0 .2.1.3.2l8.4 11v-8.3c0-.5-.1-.8-.2-1.1-.1-.2-.3-.4-.6-.4l-.6-.1c-.2 0-.3-.1-.3-.2-.1-.1-.1-.3-.1-.5s0-.4.1-.5c.1-.1.1-.2.2-.2s.5 0 .9.1c.5.1.8.1 1.1.1.3 0 .7 0 1.2-.1s.7-.1.9-.1c.1 0 .3.1.3.2.1.1.1.3.1.5 0 .3 0 .4-.1.5 0 .1-.2.1-.4.2l-.4.1c-.3.1-.4.2-.5.4-.1.2-.2.6-.2 1.1v12.6c0 .2 0 .4-.1.5-.1.1-.3.1-.7.1h-.2c-.3 0-.4 0-.5-.1-.1-.1-.2-.1-.3-.3L920 59.5v8.3c0 .5.1.9.2 1.1s.3.4.6.4l.5.1c.2 0 .3.1.3.2.1.1.1.3.1.5s0 .4-.1.5-.1.2-.3.2c-.1 0-.4 0-.9-.1s-.9-.1-1.2-.1c-.3 0-.6 0-1.1.1s-.8.1-.9.1c-.1 0-.2-.1-.3-.2s-.1-.3-.1-.5c0-.3 0-.4.1-.5s.2-.1.3-.2l.4-.1c.3-.1.4-.2.6-.4.1-.2.2-.6.2-1.2V55.1zM937.8 56.5h-2.7c-.3 0-.6 0-.7.1-.1.1-.2.2-.3.4l-.1.4c-.1.2-.2.4-.3.4-.1.1-.3.1-.6.1-.2 0-.4 0-.5-.1-.1-.1-.1-.2-.1-.4v-.1-.2l.4-2.1c.1-.3.1-.5.2-.6.1-.1.2-.1.4-.1.3 0 .5.1.8.2.2.2.5.2.8.2h8.9c.2 0 .5-.1.7-.3.3-.2.6-.3 1-.3.1 0 .2 0 .3.1.1.1.1.1.1.2V54.7l-.4 2.5c0 .2-.1.4-.2.5-.1.1-.2.1-.4.1-.3 0-.5 0-.6-.1-.1-.1-.2-.2-.2-.4l-.1-.5c0-.2-.1-.3-.3-.4s-.5-.1-1-.1h-2.2v10.9c0 .7.1 1.1.2 1.3.1.2.3.4.6.4l.5.1c.1 0 .3.1.3.2.1.1.1.3.1.5 0 .3 0 .5-.1.6-.1.1-.2.1-.4.1-.1 0-.4-.1-1-.2s-1.1-.2-1.6-.2c-.4 0-.9.1-1.5.2s-1 .2-1.2.2c-.1 0-.2-.1-.3-.2s-.1-.3-.1-.5c0-.3 0-.5.1-.6.1-.1.2-.1.3-.2l.5-.1c.3-.1.5-.2.6-.5s.2-.7.2-1.3V56.5zM946.3 68.2l5-13c.1-.2.1-.3.2-.4.1-.1.3-.1.6-.1s.5 0 .5.1.1.1.2.3l4.8 13.1c.1.3.2.5.4.7.1.2.3.3.5.3l.4.1c.2 0 .3.1.3.2.1.1.1.3.1.5 0 .3 0 .5-.1.5-.1.1-.2.1-.3.1-.1 0-.4-.1-1-.2-.5-.1-1-.2-1.4-.2-.4 0-.9.1-1.4.2-.5.1-.8.2-.9.2-.2 0-.4 0-.4-.1s-.1-.2-.1-.5 0-.4.1-.5c.1-.1.2-.1.3-.2l.3-.1c.1 0 .2-.1.2-.2s.1-.1.1-.2v-.3c0-.1 0-.2-.1-.3l-1-2.9H949l-1 2.9c0 .1-.1.2-.1.3v.3c0 .1 0 .2.1.3 0 .1.1.1.2.1l.5.1c.2 0 .3.1.3.2s.1.3.1.5 0 .3-.1.4c-.1.1-.2.2-.3.2-.2 0-.4 0-.9-.1s-.7-.1-1-.1c-.2 0-.5 0-.9.1s-.7.1-.9.1c-.1 0-.2-.1-.3-.2s-.1-.3-.1-.5c0-.3 0-.4.1-.5 0-.1.2-.1.4-.2l.4-.1c.2 0 .4-.1.5-.3.1 0 .2-.2.3-.6zm5-9.3l-1.8 4.9h3.5l-1.7-4.9zM965.9 56l-.4.1c-.3.1-.5.2-.6.4-.1.2-.2.7-.2 1.3v9.5c0 .7.1 1.2.2 1.4.1.2.3.4.6.4l.4.1c.2.1.3.1.3.2s.1.2.1.5 0 .5-.1.6c0 .1-.1.1-.3.1-.2 0-.5-.1-1.1-.2-.6-.1-1.1-.2-1.5-.2-.4 0-.9.1-1.4.2-.6.1-1 .2-1.1.2-.1 0-.2 0-.3-.1 0-.1-.1-.3-.1-.6 0-.4.1-.6.4-.7l.4-.1c.3-.1.5-.2.6-.5.1-.2.2-.7.2-1.3v-9.5c0-.6-.1-1.1-.2-1.3-.1-.2-.3-.4-.6-.5l-.4-.1c-.3-.1-.4-.3-.4-.7 0-.3 0-.5.1-.6 0-.1.1-.1.3-.1.2 0 .5.1 1.1.2.6.1 1.1.2 1.5.2.4 0 .9-.1 1.5-.2s.9-.2 1.1-.2c.1 0 .2 0 .3.1 0 .1.1.3.1.6-.1.5-.2.8-.5.8zM969.1 55.1c0-.2 0-.3.1-.4s.3-.1.6-.1c.4 0 .6 0 .8.1.1 0 .2.1.3.2l8.4 11v-8.3c0-.5-.1-.8-.2-1.1-.1-.2-.3-.4-.6-.4l-.6-.1c-.2 0-.3-.1-.3-.2-.1-.1-.1-.3-.1-.5s0-.4.1-.5c.1-.1.1-.2.2-.2s.5 0 .9.1c.5.1.8.1 1.1.1.3 0 .7 0 1.2-.1s.7-.1.9-.1c.1 0 .3.1.3.2.1.1.1.3.1.5 0 .3 0 .4-.1.5 0 .1-.2.1-.4.2l-.4.1c-.3.1-.4.2-.5.4-.1.2-.2.6-.2 1.1v12.6c0 .2 0 .4-.1.5-.1.1-.3.1-.7.1h-.2c-.3 0-.4 0-.5-.1-.1-.1-.2-.1-.3-.3l-8.4-10.9v8.3c0 .5.1.9.2 1.1s.3.4.6.4l.5.1c.2 0 .3.1.3.2.1.1.1.3.1.5s0 .4-.1.5-.1.2-.3.2c-.1 0-.4 0-.9-.1s-.9-.1-1.2-.1c-.3 0-.6 0-1.1.1s-.8.1-.9.1c-.1 0-.2-.1-.3-.2s-.1-.3-.1-.5c0-.3 0-.4.1-.5s.2-.1.3-.2l.4-.1c.3-.1.4-.2.6-.4.1-.2.2-.6.2-1.2V55.1zM993.7 62.3V62c.9 0 1.7-.3 2.2-.8.5-.5.8-1.3.8-2.2 0-.8-.2-1.5-.7-1.9-.4-.5-1-.7-1.8-.7-.3 0-.6 0-.7.1s-.2.2-.2.4v10.4c0 .7.1 1.2.2 1.5s.3.5.7.5l.7.1c.1 0 .3.1.3.2s.1.2.1.4c0 .3 0 .5-.1.6s-.2.2-.3.2c-.2 0-.6-.1-1.2-.2-.7-.1-1.2-.2-1.7-.2s-1 .1-1.5.2c-.6.1-.9.2-1 .2-.1 0-.2-.1-.2-.2s-.1-.3-.1-.5c0-.3 0-.5.1-.5 0-.1.2-.1.3-.2l.4-.1c.3-.1.5-.2.6-.5.1-.3.2-.7.2-1.3V58c0-.6-.1-1.1-.2-1.3-.1-.3-.3-.4-.6-.5l-.4-.1c-.2 0-.3-.1-.3-.2s-.1-.2-.1-.5 0-.5.1-.6c.1-.1.2-.2.4-.2.1 0 .4 0 .9.1s1 .1 1.5.1 1 0 1.6-.1c.6-.1 1-.1 1.2-.1h.5c1.4 0 2.5.3 3.2 1 .7.7 1.1 1.6 1.1 2.9 0 1.2-.4 2.3-1.1 3.1-.7.9-1.7 1.3-2.7 1.3-.4 0-.8-.1-1.1-.2-.6.1-.8-.1-1.1-.4zM1000.3 68.2l5-13c.1-.2.1-.3.2-.4.1-.1.3-.1.6-.1s.5 0 .5.1.1.1.2.3l4.8 13.1c.1.3.2.5.4.7.1.2.3.3.5.3l.4.1c.2 0 .3.1.3.2.1.1.1.3.1.5 0 .3 0 .5-.1.5-.1.1-.2.1-.3.1-.1 0-.4-.1-1-.2-.5-.1-1-.2-1.4-.2-.4 0-.9.1-1.4.2-.5.1-.8.2-.9.2-.2 0-.4 0-.4-.1s-.1-.2-.1-.5 0-.4.1-.5c.1-.1.2-.1.3-.2l.3-.1c.1 0 .2-.1.2-.2s.1-.1.1-.2v-.3c0-.1 0-.2-.1-.3l-1-2.9h-4.6l-1 2.9c0 .1-.1.2-.1.3v.3c0 .1 0 .2.1.3 0 .1.1.1.2.1l.5.1c.2 0 .3.1.3.2s.1.3.1.5 0 .3-.1.4c-.1.1-.2.2-.3.2-.2 0-.4 0-.9-.1s-.7-.1-1-.1c-.2 0-.5 0-.9.1s-.7.1-.9.1c-.1 0-.2-.1-.3-.2s-.1-.3-.1-.5c0-.3 0-.4.1-.5 0-.1.2-.1.4-.2l.4-.1c.2 0 .4-.1.5-.3l.3-.6zm4.9-9.3l-1.8 4.9h3.5l-1.7-4.9zM1022.3 62.8l3.6 5.5c.4.6.7 1.1 1 1.4.3.3.5.6.8.7v.5c-.3.1-.6.1-.8.2s-.4.1-.6.1c-.8 0-1.4-.3-2.1-.8-.6-.5-1.4-1.5-2.3-2.9l-2.3-3.7h-1.2v3.7c0 .7.1 1.1.2 1.4.1.2.3.4.6.5l.4.1c.2 0 .3.1.3.2.1.1.1.2.1.5s0 .5-.1.6c-.1.1-.2.1-.4.1-.1 0-.4-.1-1-.2s-1.1-.2-1.5-.2c-.4 0-.9.1-1.4.2-.5.1-.9.2-1 .2-.2 0-.3 0-.3-.1-.1-.1-.1-.2-.1-.5s0-.5.1-.6c.1-.1.2-.1.3-.2l.4-.1c.3-.1.5-.2.6-.5.1-.3.2-.7.2-1.3v-9.5c0-.7-.1-1.2-.2-1.4-.1-.2-.3-.3-.6-.4l-.4-.1c-.2 0-.3-.1-.3-.2s-.1-.2-.1-.5 0-.5.1-.6c.1-.1.2-.2.4-.2.1 0 .4 0 .9.1s1.1.1 1.5.1c.4 0 .9 0 1.7-.1.7-.1 1.3-.1 1.7-.1 1.4 0 2.4.3 3.1 1 .7.6 1.1 1.6 1.1 2.9 0 .9-.2 1.7-.6 2.4-.4.8-1 1.3-1.8 1.8zm-3.8-.6h.3c.3 0 .5.1.5.1.8 0 1.4-.3 1.9-.8.5-.6.7-1.3.7-2.3 0-.9-.2-1.6-.6-2.2-.4-.5-1-.8-1.7-.8h-.4c-.2 0-.4.1-.6.1v5.9zM1033.8 56l-.4.1c-.3.1-.5.2-.6.5-.1.2-.2.7-.2 1.3v9.5c0 .7.1 1.1.2 1.4.1.2.3.4.6.5l.4.1c.2 0 .3.1.3.2.1.1.1.2.1.5s0 .5-.1.6c-.1.1-.2.1-.4.1-.1 0-.4-.1-1-.2s-1.1-.2-1.5-.2c-.5 0-1 .1-1.5.2-.6.1-.9.2-1 .2-.1 0-.2 0-.3-.1-.1-.1-.1-.3-.1-.5 0-.3 0-.5.1-.6.1-.1.2-.1.3-.2l.4-.1c.3-.1.5-.2.6-.5.1-.3.2-.7.2-1.3V58c0-.6-.1-1.1-.2-1.3-.1-.3-.3-.4-.6-.5l-.4-.1c-.2 0-.3-.1-.3-.2-.1-.1-.1-.3-.1-.5s0-.4.1-.5c.1-.1.2-.2.3-.2.1 0 .4.1 1 .2s1.1.2 1.5.2c.5 0 1-.1 1.5-.2.6-.1.9-.2 1-.2.1 0 .2.1.3.2.1.1.1.3.1.6 0 .2 0 .4-.1.4.1 0 0 .1-.2.1zm7 0l-.3.1c-.3.1-.6.2-.8.4s-.6.6-1 1.1l-3.2 4.2 4.8 6.1c.6.7 1 1.3 1.4 1.6.3.3.7.5.9.6v.6c-.3.1-.6.1-.9.2-.3 0-.5.1-.8.1-.8 0-1.5-.2-2.1-.6-.6-.4-1.3-1.1-2.1-2.2l-3.9-5.2 4.3-5.9c.1-.1.2-.3.3-.4s.1-.2.1-.2c0-.1 0-.2-.1-.3s-.2-.1-.4-.2l-.2-.1c-.2 0-.3-.1-.3-.2-.1-.1-.1-.2-.1-.5s0-.4.1-.6c.1-.1.2-.2.3-.2.1 0 .3.1.8.2s.9.2 1.3.2.8-.1 1.3-.2c.4-.1.7-.2.7-.2.2 0 .3.1.3.2.1.1.1.3.1.6 0 .2 0 .4-.1.4-.2.3-.3.4-.4.4z"/><g><path class="st4" d="M753.3 55.1c0-.2 0-.3.1-.4s.3-.1.6-.1c.4 0 .6 0 .8.1.1 0 .2.1.3.2l8.4 11v-8.3c0-.5-.1-.8-.2-1.1-.1-.2-.3-.4-.6-.4l-.6-.1c-.2 0-.3-.1-.3-.2-.1-.1-.1-.3-.1-.5s0-.4.1-.5c.1-.1.1-.2.2-.2s.5 0 .9.1c.5.1.8.1 1.1.1.3 0 .7 0 1.2-.1s.7-.1.9-.1c.1 0 .3.1.3.2.1.1.1.3.1.5 0 .3 0 .4-.1.5 0 .1-.2.1-.4.2l-.4.1c-.3.1-.4.2-.5.4-.1.2-.2.6-.2 1.1v12.6c0 .2 0 .4-.1.5-.1.1-.3.1-.7.1h-.2c-.3 0-.4 0-.5-.1-.1-.1-.2-.1-.3-.3l-8.4-10.9v8.3c0 .5.1.9.2 1.1s.3.4.6.4l.5.1c.2 0 .3.1.3.2.1.1.1.3.1.5s0 .4-.1.5-.1.2-.3.2c-.1 0-.4 0-.9-.1s-.9-.1-1.2-.1c-.3 0-.6 0-1.1.1s-.8.1-.9.1c-.1 0-.2-.1-.3-.2s-.1-.3-.1-.5c0-.3 0-.4.1-.5s.2-.1.3-.2l.4-.1c.3-.1.4-.2.6-.4.1-.2.2-.6.2-1.2V55.1zM768.7 68.2l5-13c.1-.2.1-.3.2-.4.1-.1.3-.1.6-.1s.5 0 .5.1.1.1.2.3l4.8 13.1c.1.3.2.5.4.7.1.2.3.3.5.3l.4.1c.2 0 .3.1.3.2.1.1.1.3.1.5 0 .3 0 .5-.1.5-.1.1-.2.1-.3.1-.1 0-.4-.1-1-.2-.5-.1-1-.2-1.4-.2-.4 0-.9.1-1.4.2-.5.1-.8.2-.9.2-.2 0-.4 0-.4-.1s-.1-.2-.1-.5 0-.4.1-.5c.1-.1.2-.1.3-.2l.3-.1c.1 0 .2-.1.2-.2s.1-.1.1-.2v-.3c0-.1 0-.2-.1-.3l-1-2.9h-4.6l-1 2.9c0 .1-.1.2-.1.3v.3c0 .1 0 .2.1.3 0 .1.1.1.2.1l.5.1c.2 0 .3.1.3.2s.1.3.1.5 0 .3-.1.4c-.1.1-.2.2-.3.2-.2 0-.4 0-.9-.1s-.7-.1-1-.1c-.2 0-.5 0-.9.1s-.7.1-.9.1c-.1 0-.2-.1-.3-.2s-.1-.3-.1-.5c0-.3 0-.4.1-.5 0-.1.2-.1.4-.2l.4-.1c.2 0 .4-.1.5-.3l.3-.6zm5-9.3l-1.8 4.9h3.5l-1.7-4.9zM785.7 56.5H783c-.3 0-.6 0-.7.1-.1.1-.2.2-.3.4l-.1.4c-.1.2-.2.4-.3.4-.1.1-.3.1-.6.1-.2 0-.4 0-.5-.1-.1-.1-.1-.2-.1-.4v-.1-.2l.4-2.1c.1-.3.1-.5.2-.6.1-.1.2-.1.4-.1.3 0 .5.1.8.2.2.2.5.2.8.2h8.9c.2 0 .5-.1.7-.3.3-.2.6-.3 1-.3.1 0 .2 0 .3.1.1.1.1.1.1.2V54.7l-.4 2.5c0 .2-.1.4-.2.5-.1.1-.2.1-.4.1-.3 0-.5 0-.6-.1-.1-.1-.2-.2-.2-.4l-.2-.3c0-.2-.1-.3-.3-.4s-.5-.1-1-.1h-2.2v10.9c0 .7.1 1.1.2 1.3.1.2.3.4.6.4l.5.1c.1 0 .3.1.3.2.1.1.1.3.1.5 0 .3 0 .5-.1.6-.1.1-.2.1-.4.1-.1 0-.4-.1-1-.2s-1.1-.2-1.6-.2c-.4 0-.9.1-1.5.2s-1 .2-1.2.2c-.1 0-.2-.1-.3-.2s-.1-.3-.1-.5c0-.3 0-.5.1-.6.1-.1.2-.1.3-.2l.5-.1c.3-.1.5-.2.6-.5s.2-.7.2-1.3V56.5zM800.6 56l-.4.1c-.3.1-.5.2-.6.4-.1.2-.2.7-.2 1.3v9.5c0 .7.1 1.2.2 1.4.1.2.3.4.6.4l.4.1c.2.1.3.1.3.2s.1.2.1.5 0 .5-.1.6c0 .1-.1.1-.3.1-.2 0-.5-.1-1.1-.2-.6-.1-1.1-.2-1.5-.2-.4 0-.9.1-1.4.2-.6.1-1 .2-1.1.2-.1 0-.2 0-.3-.1 0-.1-.1-.3-.1-.6 0-.4.1-.6.4-.7l.4-.1c.3-.1.5-.2.6-.5.1-.2.2-.7.2-1.3v-9.5c0-.6-.1-1.1-.2-1.3-.1-.2-.3-.4-.6-.5l-.4-.1c-.3-.1-.4-.3-.4-.7 0-.3 0-.5.1-.6 0-.1.1-.1.3-.1.2 0 .5.1 1.1.2.6.1 1.1.2 1.5.2.4 0 .9-.1 1.5-.2s.9-.2 1.1-.2c.1 0 .2 0 .3.1 0 .1.1.3.1.6-.1.5-.2.8-.5.8zM810.1 54.5c2.2 0 4 .8 5.3 2.3 1.4 1.5 2.1 3.5 2.1 5.9s-.7 4.4-2.1 5.9c-1.4 1.5-3.1 2.3-5.3 2.3s-4-.8-5.3-2.3c-1.4-1.5-2.1-3.5-2.1-5.9 0-2.4.7-4.4 2.1-5.9 1.3-1.5 3.1-2.3 5.3-2.3zm0 1.8c-1.3 0-2.4.6-3.1 1.7-.8 1.1-1.1 2.7-1.1 4.7s.4 3.6 1.1 4.7c.8 1.1 1.8 1.7 3.1 1.7s2.4-.6 3.2-1.7c.8-1.1 1.2-2.7 1.2-4.7s-.4-3.6-1.2-4.7c-.9-1.2-1.9-1.7-3.2-1.7zM820.2 55.1c0-.2 0-.3.1-.4s.3-.1.6-.1c.4 0 .6 0 .8.1.1 0 .2.1.3.2l8.4 11v-8.3c0-.5-.1-.8-.2-1.1-.1-.2-.3-.4-.6-.4l-.6-.1c-.2 0-.3-.1-.3-.2-.1-.1-.1-.3-.1-.5s0-.4.1-.5c.1-.1.1-.2.2-.2s.5 0 .9.1c.5.1.8.1 1.1.1.3 0 .7 0 1.2-.1s.7-.1.9-.1c.1 0 .3.1.3.2.1.1.1.3.1.5 0 .3 0 .4-.1.5 0 .1-.2.1-.4.2l-.4.1c-.3.1-.4.2-.5.4-.1.2-.2.6-.2 1.1v12.6c0 .2 0 .4-.1.5-.1.1-.3.1-.7.1-.3 0-.4 0-.5-.1-.1-.1-.2-.1-.3-.3l-8.4-10.9v8.3c0 .5.1.9.2 1.1s.3.4.6.4l.5.1c.2 0 .3.1.3.2.1.1.1.3.1.5s0 .4-.1.5-.1.2-.3.2c-.1 0-.4 0-.9-.1s-.9-.1-1.2-.1c-.3 0-.6 0-1.1.1s-.8.1-.9.1c-.1 0-.2-.1-.3-.2s-.1-.3-.1-.5c0-.3 0-.4.1-.5s.2-.1.3-.2l.4-.1c.3-.1.4-.2.6-.4.1-.2.2-.6.2-1.2V55.1zM835.6 68.2l5-13c.1-.2.1-.3.2-.4.1-.1.3-.1.6-.1s.5 0 .5.1.1.1.2.3l4.8 13.1c.1.3.2.5.4.7.1.2.3.3.5.3l.4.1c.2 0 .3.1.3.2.1.1.1.3.1.5 0 .3 0 .5-.1.5-.1.1-.2.1-.3.1-.1 0-.4-.1-1-.2-.5-.1-1-.2-1.4-.2-.4 0-.9.1-1.4.2-.5.1-.8.2-.9.2-.2 0-.4 0-.4-.1s-.1-.2-.1-.5 0-.4.1-.5c.1-.1.2-.1.3-.2l.3-.1c.1 0 .2-.1.2-.2s.1-.1.1-.2v-.3c0-.1 0-.2-.1-.3l-1-2.9h-4.6l-1 2.9c0 .1-.1.2-.1.3v.3c0 .1 0 .2.1.3 0 .1.1.1.2.1l.5.1c.2 0 .3.1.3.2s.1.3.1.5 0 .3-.1.4c-.1.1-.2.2-.3.2-.2 0-.4 0-.9-.1s-.7-.1-1-.1c-.2 0-.5 0-.9.1s-.7.1-.9.1c-.1 0-.2-.1-.3-.2s-.1-.3-.1-.5c0-.3 0-.4.1-.5 0-.1.2-.1.4-.2l.4-.1c.2 0 .4-.1.5-.3 0 0 .2-.2.3-.6zm5-9.3l-1.8 4.9h3.5l-1.7-4.9zM855.2 56l-.4.1c-.3.1-.5.2-.6.5s-.2.7-.2 1.3V67c0 .7.1 1.2.3 1.5s.6.4 1.1.4c1 0 1.6-.1 1.9-.2.3-.1.5-.3.7-.6.1-.2.2-.5.3-.8.1-.4.3-.6.8-.6.3 0 .6 0 .7.1s.2.2.2.4c0 .1-.1.5-.2 1.2-.2.7-.3 1.3-.4 2-1.2-.1-2.3-.1-3.2-.1h-2.4c-1.2 0-2.4.1-3.5.2h-.3c-.2 0-.3 0-.4-.1s-.1-.2-.1-.4c0-.3 0-.5.1-.6 0-.1.2-.1.3-.2l.5-.1c.3-.1.4-.2.6-.5.1-.3.2-.7.2-1.3v-9.5c0-.6-.1-1.1-.2-1.3-.1-.3-.3-.4-.6-.5l-.4-.1c-.2 0-.3-.1-.3-.2-.1-.1-.1-.2-.1-.5s0-.5.1-.6c.1-.1.2-.1.3-.1 0 0 .3.1.9.2.6.1 1.1.2 1.7.2.5 0 1-.1 1.5-.2.6-.1.9-.2.9-.2.2 0 .3.1.4.2.1.1.1.3.1.5s0 .4-.1.5c.1.2 0 .3-.2.3zM869.4 60l-.5 7.6v.5c0 .4.1.7.2.9.1.2.3.3.6.4l.4.1c.2 0 .3.1.3.2s.1.2.1.5c0 .2 0 .4-.1.5-.1.1-.2.1-.3.1-.2 0-.5 0-.9-.1-.5-.1-.8-.1-1.1-.1-.2 0-.5 0-.8.1s-.6.1-.8.1-.3-.1-.3-.2c-.1-.1-.1-.3-.1-.5 0-.3.1-.5.4-.6l.3-.1c.2-.1.4-.2.5-.4.1-.2.1-.4.2-.8l1.1-12.9c0-.3.1-.4.2-.5.1-.1.3-.1.6-.1.4 0 .7.2.9.5 0 .1 0 .1.1.1l5.2 10.9 4.5-10.8c.1-.4.3-.6.4-.7.1-.1.3-.1.6-.1.5 0 .8.2.8.6l1.4 12.8c0 .4.1.7.2.8.1.2.3.3.5.4l.4.1c.2 0 .3.1.3.2.1.1.1.2.1.4 0 .3 0 .5-.1.6-.1.1-.2.2-.3.2-.1 0-.4-.1-.9-.2-.6-.1-1.1-.2-1.6-.2-.3 0-.7.1-1.3.2-.5.1-.8.2-1 .2-.1 0-.2-.1-.3-.2-.1-.1-.1-.3-.1-.5 0-.3 0-.5.1-.5 0-.1.2-.1.3-.2l.4-.1c.2-.1.4-.2.5-.3.1-.2.1-.4.1-.8v-.2-.1l-.9-8-4.1 9.9c-.1.2-.2.3-.3.4-.1.1-.3.1-.5.1s-.3 0-.5-.1l-.3-.3-4.6-9.8zM893.2 54.5c2.2 0 4 .8 5.3 2.3 1.4 1.5 2.1 3.5 2.1 5.9s-.7 4.4-2.1 5.9c-1.4 1.5-3.1 2.3-5.3 2.3s-4-.8-5.3-2.3c-1.4-1.5-2.1-3.5-2.1-5.9 0-2.4.7-4.4 2.1-5.9 1.4-1.5 3.2-2.3 5.3-2.3zm0 1.8c-1.3 0-2.4.6-3.1 1.7-.8 1.1-1.1 2.7-1.1 4.7s.4 3.6 1.1 4.7c.8 1.1 1.8 1.7 3.1 1.7s2.4-.6 3.2-1.7c.8-1.1 1.2-2.7 1.2-4.7s-.4-3.6-1.2-4.7c-.8-1.2-1.8-1.7-3.2-1.7zM907.4 56l-.4.1c-.3.1-.6.2-.7.5-.1.2-.2.8-.2 1.7 0 4.5.3 7.5.8 8.9.5 1.4 1.4 2.2 2.7 2.2 1.3 0 2.2-.6 2.7-1.9.6-1.3.8-3.4.8-6.4v-.5-.7-.8-.7c0-.9-.1-1.5-.2-1.8-.1-.3-.4-.4-.8-.5l-.3-.1c-.2 0-.3-.1-.3-.2-.1-.1-.1-.2-.1-.5s0-.5.1-.6c.1-.1.2-.1.3-.1.1 0 .3 0 .8.1.4.1.8.1 1.1.1.3 0 .7-.1 1.2-.2s.8-.2.9-.2c.1 0 .2.1.3.2.1.1.1.3.1.6 0 .2 0 .4-.1.4s-.2.1-.4.2l-.3.1c-.2.1-.4.1-.5.2-.1.1-.2.3-.2.5s-.1 1-.1 2.3c0 1.3-.1 2.6-.1 3.7-.2 2.8-.7 4.9-1.6 6.2s-2.2 1.9-3.9 1.9c-1 0-1.8-.2-2.5-.5-.7-.4-1.3-.9-1.8-1.6-.4-.6-.7-1.4-.9-2.3-.2-.9-.3-2.4-.4-4.4 0-.7-.1-1.6-.1-2.7 0-2-.3-3.1-.8-3.2l-.3-.1c-.1 0-.3-.1-.3-.2s-.1-.3-.1-.6 0-.4.1-.5c.1-.1.2-.1.4-.1.1 0 .4.1.9.2s1 .2 1.4.2c.5 0 1.1-.1 1.7-.2.6-.1.9-.2 1-.2.2 0 .3 0 .4.1.1.1.1.3.1.5 0 .3 0 .4-.1.5 0 .3-.1.4-.3.4zM918.6 55.1c0-.2 0-.3.1-.4s.3-.1.6-.1c.4 0 .6 0 .8.1.1 0 .2.1.3.2l8.4 11v-8.3c0-.5-.1-.8-.2-1.1-.1-.2-.3-.4-.6-.4l-.6-.1c-.2 0-.3-.1-.3-.2-.1-.1-.1-.3-.1-.5s0-.4.1-.5c.1-.1.1-.2.2-.2s.5 0 .9.1c.5.1.8.1 1.1.1.3 0 .7 0 1.2-.1s.7-.1.9-.1c.1 0 .3.1.3.2.1.1.1.3.1.5 0 .3 0 .4-.1.5 0 .1-.2.1-.4.2l-.4.1c-.3.1-.4.2-.5.4-.1.2-.2.6-.2 1.1v12.6c0 .2 0 .4-.1.5-.1.1-.3.1-.7.1h-.2c-.3 0-.4 0-.5-.1-.1-.1-.2-.1-.3-.3L920 59.5v8.3c0 .5.1.9.2 1.1s.3.4.6.4l.5.1c.2 0 .3.1.3.2.1.1.1.3.1.5s0 .4-.1.5-.1.2-.3.2c-.1 0-.4 0-.9-.1s-.9-.1-1.2-.1c-.3 0-.6 0-1.1.1s-.8.1-.9.1c-.1 0-.2-.1-.3-.2s-.1-.3-.1-.5c0-.3 0-.4.1-.5s.2-.1.3-.2l.4-.1c.3-.1.4-.2.6-.4.1-.2.2-.6.2-1.2V55.1zM937.8 56.5h-2.7c-.3 0-.6 0-.7.1-.1.1-.2.2-.3.4l-.1.4c-.1.2-.2.4-.3.4-.1.1-.3.1-.6.1-.2 0-.4 0-.5-.1-.1-.1-.1-.2-.1-.4v-.1-.2l.4-2.1c.1-.3.1-.5.2-.6.1-.1.2-.1.4-.1.3 0 .5.1.8.2.2.2.5.2.8.2h8.9c.2 0 .5-.1.7-.3.3-.2.6-.3 1-.3.1 0 .2 0 .3.1.1.1.1.1.1.2V54.7l-.4 2.5c0 .2-.1.4-.2.5-.1.1-.2.1-.4.1-.3 0-.5 0-.6-.1-.1-.1-.2-.2-.2-.4l-.1-.5c0-.2-.1-.3-.3-.4s-.5-.1-1-.1h-2.2v10.9c0 .7.1 1.1.2 1.3.1.2.3.4.6.4l.5.1c.1 0 .3.1.3.2.1.1.1.3.1.5 0 .3 0 .5-.1.6-.1.1-.2.1-.4.1-.1 0-.4-.1-1-.2s-1.1-.2-1.6-.2c-.4 0-.9.1-1.5.2s-1 .2-1.2.2c-.1 0-.2-.1-.3-.2s-.1-.3-.1-.5c0-.3 0-.5.1-.6.1-.1.2-.1.3-.2l.5-.1c.3-.1.5-.2.6-.5s.2-.7.2-1.3V56.5zM946.3 68.2l5-13c.1-.2.1-.3.2-.4.1-.1.3-.1.6-.1s.5 0 .5.1.1.1.2.3l4.8 13.1c.1.3.2.5.4.7.1.2.3.3.5.3l.4.1c.2 0 .3.1.3.2.1.1.1.3.1.5 0 .3 0 .5-.1.5-.1.1-.2.1-.3.1-.1 0-.4-.1-1-.2-.5-.1-1-.2-1.4-.2-.4 0-.9.1-1.4.2-.5.1-.8.2-.9.2-.2 0-.4 0-.4-.1s-.1-.2-.1-.5 0-.4.1-.5c.1-.1.2-.1.3-.2l.3-.1c.1 0 .2-.1.2-.2s.1-.1.1-.2v-.3c0-.1 0-.2-.1-.3l-1-2.9H949l-1 2.9c0 .1-.1.2-.1.3v.3c0 .1 0 .2.1.3 0 .1.1.1.2.1l.5.1c.2 0 .3.1.3.2s.1.3.1.5 0 .3-.1.4c-.1.1-.2.2-.3.2-.2 0-.4 0-.9-.1s-.7-.1-1-.1c-.2 0-.5 0-.9.1s-.7.1-.9.1c-.1 0-.2-.1-.3-.2s-.1-.3-.1-.5c0-.3 0-.4.1-.5 0-.1.2-.1.4-.2l.4-.1c.2 0 .4-.1.5-.3.1 0 .2-.2.3-.6zm5-9.3l-1.8 4.9h3.5l-1.7-4.9zM965.9 56l-.4.1c-.3.1-.5.2-.6.4-.1.2-.2.7-.2 1.3v9.5c0 .7.1 1.2.2 1.4.1.2.3.4.6.4l.4.1c.2.1.3.1.3.2s.1.2.1.5 0 .5-.1.6c0 .1-.1.1-.3.1-.2 0-.5-.1-1.1-.2-.6-.1-1.1-.2-1.5-.2-.4 0-.9.1-1.4.2-.6.1-1 .2-1.1.2-.1 0-.2 0-.3-.1 0-.1-.1-.3-.1-.6 0-.4.1-.6.4-.7l.4-.1c.3-.1.5-.2.6-.5.1-.2.2-.7.2-1.3v-9.5c0-.6-.1-1.1-.2-1.3-.1-.2-.3-.4-.6-.5l-.4-.1c-.3-.1-.4-.3-.4-.7 0-.3 0-.5.1-.6 0-.1.1-.1.3-.1.2 0 .5.1 1.1.2.6.1 1.1.2 1.5.2.4 0 .9-.1 1.5-.2s.9-.2 1.1-.2c.1 0 .2 0 .3.1 0 .1.1.3.1.6-.1.5-.2.8-.5.8zM969.1 55.1c0-.2 0-.3.1-.4s.3-.1.6-.1c.4 0 .6 0 .8.1.1 0 .2.1.3.2l8.4 11v-8.3c0-.5-.1-.8-.2-1.1-.1-.2-.3-.4-.6-.4l-.6-.1c-.2 0-.3-.1-.3-.2-.1-.1-.1-.3-.1-.5s0-.4.1-.5c.1-.1.1-.2.2-.2s.5 0 .9.1c.5.1.8.1 1.1.1.3 0 .7 0 1.2-.1s.7-.1.9-.1c.1 0 .3.1.3.2.1.1.1.3.1.5 0 .3 0 .4-.1.5 0 .1-.2.1-.4.2l-.4.1c-.3.1-.4.2-.5.4-.1.2-.2.6-.2 1.1v12.6c0 .2 0 .4-.1.5-.1.1-.3.1-.7.1h-.2c-.3 0-.4 0-.5-.1-.1-.1-.2-.1-.3-.3l-8.4-10.9v8.3c0 .5.1.9.2 1.1s.3.4.6.4l.5.1c.2 0 .3.1.3.2.1.1.1.3.1.5s0 .4-.1.5-.1.2-.3.2c-.1 0-.4 0-.9-.1s-.9-.1-1.2-.1c-.3 0-.6 0-1.1.1s-.8.1-.9.1c-.1 0-.2-.1-.3-.2s-.1-.3-.1-.5c0-.3 0-.4.1-.5s.2-.1.3-.2l.4-.1c.3-.1.4-.2.6-.4.1-.2.2-.6.2-1.2V55.1zM993.7 62.3V62c.9 0 1.7-.3 2.2-.8.5-.5.8-1.3.8-2.2 0-.8-.2-1.5-.7-1.9-.4-.5-1-.7-1.8-.7-.3 0-.6 0-.7.1s-.2.2-.2.4v10.4c0 .7.1 1.2.2 1.5s.3.5.7.5l.7.1c.1 0 .3.1.3.2s.1.2.1.4c0 .3 0 .5-.1.6s-.2.2-.3.2c-.2 0-.6-.1-1.2-.2-.7-.1-1.2-.2-1.7-.2s-1 .1-1.5.2c-.6.1-.9.2-1 .2-.1 0-.2-.1-.2-.2s-.1-.3-.1-.5c0-.3 0-.5.1-.5 0-.1.2-.1.3-.2l.4-.1c.3-.1.5-.2.6-.5.1-.3.2-.7.2-1.3V58c0-.6-.1-1.1-.2-1.3-.1-.3-.3-.4-.6-.5l-.4-.1c-.2 0-.3-.1-.3-.2s-.1-.2-.1-.5 0-.5.1-.6c.1-.1.2-.2.4-.2.1 0 .4 0 .9.1s1 .1 1.5.1 1 0 1.6-.1c.6-.1 1-.1 1.2-.1h.5c1.4 0 2.5.3 3.2 1 .7.7 1.1 1.6 1.1 2.9 0 1.2-.4 2.3-1.1 3.1-.7.9-1.7 1.3-2.7 1.3-.4 0-.8-.1-1.1-.2-.6.1-.8-.1-1.1-.4zM1000.3 68.2l5-13c.1-.2.1-.3.2-.4.1-.1.3-.1.6-.1s.5 0 .5.1.1.1.2.3l4.8 13.1c.1.3.2.5.4.7.1.2.3.3.5.3l.4.1c.2 0 .3.1.3.2.1.1.1.3.1.5 0 .3 0 .5-.1.5-.1.1-.2.1-.3.1-.1 0-.4-.1-1-.2-.5-.1-1-.2-1.4-.2-.4 0-.9.1-1.4.2-.5.1-.8.2-.9.2-.2 0-.4 0-.4-.1s-.1-.2-.1-.5 0-.4.1-.5c.1-.1.2-.1.3-.2l.3-.1c.1 0 .2-.1.2-.2s.1-.1.1-.2v-.3c0-.1 0-.2-.1-.3l-1-2.9h-4.6l-1 2.9c0 .1-.1.2-.1.3v.3c0 .1 0 .2.1.3 0 .1.1.1.2.1l.5.1c.2 0 .3.1.3.2s.1.3.1.5 0 .3-.1.4c-.1.1-.2.2-.3.2-.2 0-.4 0-.9-.1s-.7-.1-1-.1c-.2 0-.5 0-.9.1s-.7.1-.9.1c-.1 0-.2-.1-.3-.2s-.1-.3-.1-.5c0-.3 0-.4.1-.5 0-.1.2-.1.4-.2l.4-.1c.2 0 .4-.1.5-.3l.3-.6zm4.9-9.3l-1.8 4.9h3.5l-1.7-4.9zM1022.3 62.8l3.6 5.5c.4.6.7 1.1 1 1.4.3.3.5.6.8.7v.5c-.3.1-.6.1-.8.2s-.4.1-.6.1c-.8 0-1.4-.3-2.1-.8-.6-.5-1.4-1.5-2.3-2.9l-2.3-3.7h-1.2v3.7c0 .7.1 1.1.2 1.4.1.2.3.4.6.5l.4.1c.2 0 .3.1.3.2.1.1.1.2.1.5s0 .5-.1.6c-.1.1-.2.1-.4.1-.1 0-.4-.1-1-.2s-1.1-.2-1.5-.2c-.4 0-.9.1-1.4.2-.5.1-.9.2-1 .2-.2 0-.3 0-.3-.1-.1-.1-.1-.2-.1-.5s0-.5.1-.6c.1-.1.2-.1.3-.2l.4-.1c.3-.1.5-.2.6-.5.1-.3.2-.7.2-1.3v-9.5c0-.7-.1-1.2-.2-1.4-.1-.2-.3-.3-.6-.4l-.4-.1c-.2 0-.3-.1-.3-.2s-.1-.2-.1-.5 0-.5.1-.6c.1-.1.2-.2.4-.2.1 0 .4 0 .9.1s1.1.1 1.5.1c.4 0 .9 0 1.7-.1.7-.1 1.3-.1 1.7-.1 1.4 0 2.4.3 3.1 1 .7.6 1.1 1.6 1.1 2.9 0 .9-.2 1.7-.6 2.4-.4.8-1 1.3-1.8 1.8zm-3.8-.6h.3c.3 0 .5.1.5.1.8 0 1.4-.3 1.9-.8.5-.6.7-1.3.7-2.3 0-.9-.2-1.6-.6-2.2-.4-.5-1-.8-1.7-.8h-.4c-.2 0-.4.1-.6.1v5.9zM1033.8 56l-.4.1c-.3.1-.5.2-.6.5-.1.2-.2.7-.2 1.3v9.5c0 .7.1 1.1.2 1.4.1.2.3.4.6.5l.4.1c.2 0 .3.1.3.2.1.1.1.2.1.5s0 .5-.1.6c-.1.1-.2.1-.4.1-.1 0-.4-.1-1-.2s-1.1-.2-1.5-.2c-.5 0-1 .1-1.5.2-.6.1-.9.2-1 .2-.1 0-.2 0-.3-.1-.1-.1-.1-.3-.1-.5 0-.3 0-.5.1-.6.1-.1.2-.1.3-.2l.4-.1c.3-.1.5-.2.6-.5.1-.3.2-.7.2-1.3V58c0-.6-.1-1.1-.2-1.3-.1-.3-.3-.4-.6-.5l-.4-.1c-.2 0-.3-.1-.3-.2-.1-.1-.1-.3-.1-.5s0-.4.1-.5c.1-.1.2-.2.3-.2.1 0 .4.1 1 .2s1.1.2 1.5.2c.5 0 1-.1 1.5-.2.6-.1.9-.2 1-.2.1 0 .2.1.3.2.1.1.1.3.1.6 0 .2 0 .4-.1.4.1 0 0 .1-.2.1zm7 0l-.3.1c-.3.1-.6.2-.8.4s-.6.6-1 1.1l-3.2 4.2 4.8 6.1c.6.7 1 1.3 1.4 1.6.3.3.7.5.9.6v.6c-.3.1-.6.1-.9.2-.3 0-.5.1-.8.1-.8 0-1.5-.2-2.1-.6-.6-.4-1.3-1.1-2.1-2.2l-3.9-5.2 4.3-5.9c.1-.1.2-.3.3-.4s.1-.2.1-.2c0-.1 0-.2-.1-.3s-.2-.1-.4-.2l-.2-.1c-.2 0-.3-.1-.3-.2-.1-.1-.1-.2-.1-.5s0-.4.1-.6c.1-.1.2-.2.3-.2.1 0 .3.1.8.2s.9.2 1.3.2.8-.1 1.3-.2c.4-.1.7-.2.7-.2.2 0 .3.1.3.2.1.1.1.3.1.6 0 .2 0 .4-.1.4-.2.3-.3.4-.4.4z"/></g></g><g id="guide"><path class="st23" d="M836.9 312.4l64.6-7.1 61.8 7.2-58.4 9.2z"/><path class="st24" d="M862.7 251.7L895 274l5.8 26.1.1 4.7-14.7-6.3z"/><path class="st25" d="M886.2 298.5l-12.6 15.6h27.9l.1-9.6z"/><path class="st24" d="M946.2 187.9l14 47.1-26.1-6.5z"/><path class="st25" d="M960.2 235l-29 19.8 2.9-26.3z"/><path class="st24" d="M882 171.2L844.3 207l28.8 10.2z"/><path class="st26" d="M863.9 213.8l-3.1-48.7-19.5.1 3 41.8z"/><path class="st27" d="M860.8 165.1l-19.5.1.8 10.9 19.4-.3z"/><path class="st17" d="M860.8 165.1l4.5-15.1-8.4-16-12.1.2-5.8 16.3 2.3 14.7z"/><path class="st28" d="M844.8 134.2l-5.8 16.3 26.3-.5-8.4-16z"/><path class="st1" d="M856 165.1h4.8l4.5-15.1-4.2-8.1-5.2.2z"/><path class="st26" d="M897.7 176.3l-15.7-5.1-19.3 80.5 65.8 15.4 17.7-79.2-17.7-3.8z"/><path class="st25" d="M893.3 258.9l20.4-78.6-1.3-.3h-.1L892 258.6z"/><path class="st27" d="M898.3 182.8l.5-6.2-1.1-.3-15.7-5.1-1.7 7.2zM946.2 187.9l-17.7-3.8-3.9-1-2.8 5.5 22.8 6.3z"/><path class="st17" d="M896.4 99.1l-17.8 55.3 17.5 7.3 1.6 14.6 30.8 7.8 22.2-39.6 5.1-27.1z"/><path class="st28" d="M894.5 118.2l6.9 16.2-1.4 2.5 2.2 5.9 4.9-3.1 16.7-10.6-10.6-4-7.5-2.8z"/><path class="st29" d="M912.6 125l13.2-.3-2 4.4zM895.9 114l9.8 8.3-11.2-4.1zM894 123.6l2.7 4.6 5.8-.8-.7-1.2-4.3.6-2.1-3.5zM912.8 131l2.7 4.6 5.7-.8-.6-1.2-4.3.6-2.2-3.5z"/><path class="st1" d="M905.7 122.3l-5.7 14.6 7.1 2.8 5.5-14.7z"/><path fill-rule="evenodd" clip-rule="evenodd" fill="#999" d="M891.2 146.1l21.2 8.4-1 2-20.9-8.4z"/><path class="st28" d="M955.8 117.4l-18.8-5.8-21.5 56.3-19.4-6.2 1.6 14.6 30.8 7.8 22.2-39.6z"/><path fill-rule="evenodd" clip-rule="evenodd" fill="#aaa" d="M915.5 167.9l-17.8 8.4-1.6-14.6z"/><path class="st24" d="M896.4 99.1l16.3 15.6 31-1.5z"/><path class="st25" d="M898.7 90l-2.3 9.1 59.4 18.3 2.7-7.7z"/><path class="st24" d="M898.7 90l-15.5-31.7 88.2 44.5-12.9 6.9z"/><path fill-rule="evenodd" clip-rule="evenodd" fill="#828282" d="M944 113.8l-18.3 32 5.2 3.7 9-10.9 10.8 5.9 5.1-27.1z"/><path class="st14" d="M936.9 154.5l2.7 9.8 4.1-7.4zM937.8 149.8l3.6-6.1 4.3 2.1z"/><path class="st33" d="M897.7 176.3l1.1 14.2 13.5-10.5z"/><path class="st33" d="M912.3 180l3.7 13.7 12.5-9.6z"/><path class="st25" d="M916.9 203.4c0 1.6-1.3 2.9-2.9 2.9-1.6 0-2.9-1.3-2.9-2.9 0-1.6 1.3-2.9 2.9-2.9 1.6 0 2.9 1.3 2.9 2.9zM913 219.9c0 1.6-1.3 2.9-2.9 2.9-1.6 0-2.9-1.3-2.9-2.9 0-1.6 1.3-2.9 2.9-2.9 1.6 0 2.9 1.3 2.9 2.9zM909.2 237.8c0 1.6-1.3 2.9-2.9 2.9-1.6 0-2.9-1.3-2.9-2.9 0-1.6 1.3-2.9 2.9-2.9 1.6 0 2.9 1.3 2.9 2.9z"/><path class="st24" d="M862.7 251.7l65.8 15.4 2.7-12.3-65.3-16.5z"/><path class="st9" d="M884.4 256.8l14 3.3 2.9-12.8-13.7-3.4-3.2 12.9zm13-8.8l-1.9 10-7.4-2 2.1-10 7.2 2z"/><path class="st25" d="M862.7 251.7L895 274l33.5-6.9z"/><path class="st26" d="M895 274l5.8 26.1 17.8 9.3 9.9-42.3z"/><path class="st24" d="M918.6 309.4l-2.1 8.6h-29.6l13.9-17.9z"/></g><g id="man2"><path class="st23" d="M76.7 322.7l54.1-6.6 51.7 7.1-48.8 8.7z"/><path fill="#8c8c8c" d="M104.2 182.3l-29.8-1 21.7 20.5z"/><path class="st35" d="M74.4 181.3l-6.9 16.3 26.2 10.5 2.4-6.3z"/><path class="st36" d="M67.5 197.6l10.2 35.8 16-25.3z"/><path class="st37" d="M152.2 193.3l6.3 18.2-9.6 10.1z"/><path class="st38" d="M122.6 305.5l2.2 15.4h26.9l-11.8-15.1z"/><path class="st37" d="M109.7 307.2v16.1h26.9l-8.2-17z"/><path class="st35" d="M95.2 275.9l14.5 31.3 30.2-1.4 15.9-47.5-51.9 1.4z"/><path fill="#848484" d="M95.2 275.9l14.5 31.3 18.7-.9 1-30.7-11.5-16.3-14 .4z"/><path class="st36" d="M105.6 263.6l23.8 12 26.4-17.3-67.5 4.2z"/><path fill="#898989" d="M97.1 191.7l-3.3 41.4 1.6 27.7 60.4-2.5-3.3-66z"/><path class="st10" d="M134.1 259.2v-62.6h-4.4v62.8zM143.4 180.5l13.2 11.5-21.4 8.5 1.9-16.5z"/><path class="st41" d="M138.5 182.4l-3.3 18.1-13.2-1.1-3-18.9z"/><path class="st42" d="M120.8 191.4l16.6-3.3 1.1-5.7-19.5-1.9z"/><path d="M151.7 130.6c.3-1.6.5-3.3.5-5 0-15.6-13-28.2-29.1-28.2S94 110 94 125.6v1.2l57.7 3.8z" fill="#757575"/><path class="st41" d="M153.8 144.3l-.5 40.3-57.1-2.8-6.5-43z"/><path class="st42" d="M111.3 139l15.7 24.5h10.1l12.6-21.2z"/><path class="st4" d="M127 141.5h10.1v21.9H127z"/><path class="st35" d="M127 163.5l-10.7 7.4L144 172l-6.9-8.5zM123.4 150.8c0 1.7-1.4 3-3 3-1.7 0-3-1.4-3-3s1.4-3 3-3 3 1.4 3 3zM146.2 152.8c0 1.7-1.4 3-3 3-1.7 0-3-1.4-3-3 0-1.7 1.4-3 3-3 1.6-.1 3 1.3 3 3z"/><path class="st42" d="M96.2 181.8l13.2.7-.8-42.2-18.9-1.5z"/><path class="st35" d="M100.4 157.1l4.6-.8-1.9-16.4-13.4-1.1 1.7 11.3 7.3-1.2z"/><path class="st10" d="M93.3 162.7l.8 4.9 4.9-6.1zM89.7 138.8l64.1 5.5 1.7-18.1-65-6.1z"/><path class="st44" d="M98.3 139.5l2.5.2 1.5-18.5-2.4-.2zM109.9 140.5l2.5.2 1.5-18.4-2.5-.2zM121.5 141.5l2.4.2 1.5-18.3-2.4-.3zM133.1 142.5l2.4.2 1.5-18.3-2.5-.2zM144.6 143.5l2.5.2 1.5-18.2-2.5-.2z"/><path class="st35" d="M96.8 229.8l18.9-14-9.9-23.3-8.7-.8z"/><path class="st10" d="M97.1 191.7l-24.4 45 23.3-3.3 12-20.9z"/><path class="st45" d="M96 233.4l7.9 27.4-8.7 15.1-22.5-39.2z"/><path class="st10" d="M88.3 167.6l31.5 15.3 2.2 16.5-24.9-7.7z"/><path class="st41" d="M103.9 260.8l1.7 2.8-3.3 15.9-7.1-3.6z"/><path class="st36" d="M102.3 279.5l-7.1-3.6 5.3 11.5z"/><path class="st45" d="M152.2 217.5l18.6 9-6.8 16.8-16.7-6.6z"/><path class="st42" d="M170.8 226.5l15.4 7.7-9.9 21.7-12.3-12.6z"/><path class="st41" d="M170.6 250l5.7 5.9 9.9-21.7-9.3-4.6z"/><path transform="rotate(-51.997 180.81611449 241.2386203)" class="st45" d="M179.1 232.8h3.5v16.9h-3.5z"/><path fill="#f9f9f9" d="M170.8 239.7l4.1 1.9 5.2-10.4-9.3-4.7-2.7 6.8z"/><path class="st10" d="M188.9 245.1l4.9-7.8-5.5-8.8 6.4-11.2-3.7 14.8 8.6 7.5zM98 157.3l-1-5.6-3.4.6z"/></g><g id="man1"><path class="st47" d="M222.5 181.9L203.6 193l-6.7-10.6z"/><path class="st23" d="M202.4 320.4l62.6-9.9 60.5 3.5-56.4 11.7z"/><path class="st42" d="M275.7 199.7l19.7 1.3-1.9 18.1-14.6-1.3z"/><path class="st48" d="M303 152.6c-6.5-1.7-12.3-1-12.9 1.5-.7 2.5 4.1 5.9 10.5 7.6 6.5 1.7 12.3 1 12.9-1.5.7-2.5-4-5.9-10.5-7.6zm-1.8 6.9c-4.2-1.1-7.4-3-7-4.3.3-1.3 4-1.4 8.2-.3 4.2 1.1 7.4 3 7 4.3-.3 1.3-4 1.4-8.2.3z"/><path class="st48" d="M277.8 255.1l-2.7-.7 24.3-93.6 2.7.7z"/><path class="st45" d="M280.3 298.5l-8.3-.9 25.3-238.2 8.8-3.3z"/><path fill="#7f7f7f" d="M297.3 59.4L292 45.1l8.1-4.9 6 15.9z"/><path class="st48" d="M292 45.1l-16.5-2.5 8.2-4.9 16.4 2.5z"/><path class="st50" d="M289.2 308.5h-8.3V68.9l8.3-4.1z"/><path class="st35" d="M280.9 68.9l-6.8-13.6 7.5-5.7 7.6 15.2z"/><path class="st38" d="M274.1 55.3l-16.7-.8 7.6-5.6 16.6.7z"/><path class="st35" d="M293.8 250.2l-3.3 47-18 3.2-13.4-32.9z"/><path class="st10" d="M270.2 294.7l2.3 5.7 18-3.2.5-7.4z"/><path class="st51" d="M272.5 300.4l-.7 13.2H308l-17.5-16.4z"/><path class="st35" d="M258.9 268L247 304.7l-18 3.3-16.1-47.9z"/><path class="st10" d="M226.6 302.3l2.4 5.7 18-3.3 2.5-7.8z"/><path class="st51" d="M229 308l-.8 13.2h36.2L247 304.7z"/><path class="st41" d="M286.3 218.4l7.2.7 1.9-18.1-9.5-.6z"/><path fill="#919191" d="M222.5 181.9l-9.6 78.2 38.6 13.3-4.8-95.8z"/><path fill="#a0a0a0" d="M246.7 177.6l4.8 95.8 42.3-23.2-24.6-75.2z"/><path class="st50" d="M256.3 176.5l21.1 82.7 4.1-2.2-20.5-81.1z"/><path class="st22" d="M222.5 181.9l-28.8 2.9-1.3-19.7 34.1.8z"/><path class="st47" d="M266.8 159l2.4 16-46.7 6.9.6-12.1z"/><path class="st17" d="M266.1 115l11.3 45.9-54.3 8.9-9-47.7z"/><path class="st28" d="M233.8 136.3l15.2 12.3 6 3.1 3.2-5 7.7-17.2-10 1.1-10.7 2.6z"/><path class="st1" d="M245.2 133.2l3.8 15.4 9.2-1.9-2.3-16.1z"/><path class="st24" d="M244.4 141.5c0 1.5-1.2 2.8-2.7 2.8s-2.7-1.2-2.7-2.8c0-1.5 1.2-2.8 2.7-2.8s2.7 1.3 2.7 2.8zM264.5 137.3c0 1.5-1.2 2.8-2.7 2.8-1.5 0-2.7-1.3-2.7-2.8 0-1.5 1.2-2.8 2.7-2.8 1.5 0 2.7 1.2 2.7 2.8z"/><path class="st28" d="M223.1 169.8l7.1-1.1-11.7-47.2-12.2 6.8 4.2 25.3z"/><path class="st54" d="M232.8 137l33.1-7.5-.6-3.3-33.1 7.8zM244.5 156l18.4-3.3v1.8l-17.5 3.6z"/><path class="st24" d="M205.4 130.4l61.4-13-8.1-27.3-59.7 15z"/><path class="st13" d="M218.3 127.7h31.3l17.2-10.3z"/><path class="st55" d="M224.6 126.5l5.8 21.7-19.9 5.4-5.1-23.2zM199 105.1l26.5-20.2 33.2 5.2z"/><path class="st37" d="M222.5 181.9L208.6 221l18.6-2.2 12.3-30z"/><path class="st50" d="M208.6 221l18.6-2.2 8 14.4-6.1 6.9z"/><path class="st37" d="M221.4 244.1l17-19.1 5.1 5.3-16.8 18.9z"/></g><g id="woman"><path class="st23" d="M316.3 324.4l70.4-3.9 67 6.2-63.7 5.5z"/><path class="st33" d="M390.5 311.4l-7.1 14h19.5z"/><path class="st56" d="M362.3 279.6l21.1 45.8 26.1-44.4z"/><path class="st47" d="M379.1 311.4l-7.1 14h19.5z"/><path class="st55" d="M351 279.6l21 45.8 26.2-44.4z"/><path class="st56" d="M319.1 203.1l25.7 77.9 5.2-1 4.2-58.4z"/><path class="st57" d="M332.4 208.8l-.9 8.9 5 2.5 1.2-9.3z"/><path class="st55" d="M356 174l-36.9 29.1 35.1 18.5z"/><path class="st56" d="M429.8 196.4l10.7-23.1-14.2-6.9-3.4 15.6z"/><path fill-rule="evenodd" clip-rule="evenodd" fill="#939393" d="M391.7 196.9L425 182l4.8 14.4-22 17-14.2.7z"/><path class="st1" d="M452.9 152.9l2.5-12.4 9 6.2 10.5-6.9-3.4 12 15.3-3.3-12.4 8.5 15.6 6.2-12.8 3.4 9.8 13.6-11.4-1.9 3.6 12.6-14.8-7.3.4 16-9.4-12.6-7.1 8.5-1.4-12.8-8.2 7.1 3.9-14.7z"/><path transform="rotate(-17.8 449.83728911 152.791177)" class="st55" d="M446.7 149.5h6.2v6.6h-6.2z"/><path transform="matrix(.9393 -.343 .343 .9393 -30.5811 162.8823)" fill-rule="evenodd" clip-rule="evenodd" fill="#606060" d="M425.6 155.9h39.2V180h-39.2z"/><path fill-rule="evenodd" clip-rule="evenodd" fill="#9b9b9b" d="M352.3 205.1L350 280l67.2 3-22.5-82.2z"/><path class="st24" d="M367.2 243.8l11.3-15.1-26.2-23.6-.8 28.6z"/><path class="st56" d="M395.3 127.6l14.1 16.8-5.5 18.8z"/><path class="st17" d="M395.3 127.6l13.2 47-19.1 7.6-15.5 11.9-18.7-23.4 7.8-30.9z"/><path class="st28" d="M373.9 194.1l3.6-2.7-15.7-46.9-6.6 26.2z"/><path class="st14" d="M408.5 174.6l-36.7 10 2.1 9.5 15.5-11.9z"/><path class="st28" d="M366.8 149.1l18.9 11.1 4.8 3.1 2.3-5.3 5-18.7-9.6 2.4-7 2z"/><path class="st1" d="M381.2 143.7l4.5 16.5 7.1-2.2-4.6-16.3z"/><path class="st56" d="M381.2 143.7l-1-3.5-13.4 8.9zM387.4 138.4l.8 3.3 9.6-2.4zM380.1 152.8c.1 1.6-1 3-2.5 3.2-1.5.1-2.8-1.1-3-2.7-.1-1.6 1-3 2.5-3.2 1.6-.1 2.9 1.1 3 2.7zM398.2 147.6c.1 1.6-1 3-2.5 3.2-1.5.1-2.8-1.1-3-2.7-.1-1.6 1-3 2.5-3.2 1.5-.1 2.8 1.1 3 2.7zM385.8 170.5l5.4-4.6 6 1.2-5.3 4z"/><path class="st55" d="M381.8 170.5l10.5-.6 8.4-5.1-7.2 8.4z"/><path class="st56" d="M363 139.8l-7.8 30.9-24.5 11.2 4.8-30.8z"/><path class="st33" d="M355.2 170.7l18.7 23.4-43.2-12.2z"/><path class="st55" d="M335.5 151.1l59.8-23.5-8.1-23.5-57.8 29.3z"/><path class="st56" d="M329.4 133.4l11-48.8 8.5-5.5 38.3 25z"/><path class="st55" d="M340.4 84.6l-5.5 2.1-3.2-11.2 14.7-10.6 9.4 10.1-6.9 4.1z"/><path class="st56" d="M373.9 194.1l15.5-11.9 5.3 18.6-24 4.8z"/><path class="st57" d="M373.9 194.1l-20.4-5.9-1.2 16.9 18.4.5z"/><path class="st55" d="M352.3 205.1l18.4.5 7.8 23.1-14.5 4.6z"/><path class="st14" d="M370.7 205.6l32.3-6.9 4.8 14.7-29.3 15.3z"/><path class="st57" d="M403 198.7l13.9-24.7 12.4 6.8-21.5 32.6z"/><path class="st28" d="M416.9 174l1.2-21.6 13.5 13.6-2.3 14.8z"/><path class="st17" d="M418.1 152.4l21.3 4.6-7.8 9z"/><ellipse transform="matrix(.1598 -.9872 .9872 .1598 215.6414 584.2286)" class="st14" cx="451" cy="165.4" rx="8.4" ry="8.4"/><path class="st24" d="M455.8 165.4c0 2.7-2.2 4.8-4.8 4.8-2.7 0-4.8-2.2-4.8-4.8 0-2.7 2.2-4.8 4.8-4.8 2.7 0 4.8 2.2 4.8 4.8z"/><path transform="matrix(.942 -.3357 .3357 .942 -30.8725 156.2959)" class="st28" d="M434.3 166.2h4.6v2.5h-4.6z"/><circle class="st27" cx="394.8" cy="236.4" r="2.9"/><path class="st27" d="M401.8 256.3c0 1.6-1.3 2.9-2.9 2.9-1.6 0-2.9-1.3-2.9-2.9 0-1.6 1.3-2.9 2.9-2.9 1.6.1 2.9 1.3 2.9 2.9z"/><path fill-rule="evenodd" clip-rule="evenodd" fill="#b7b7b7" d="M412.8 267l-62.5 5.1-.3 7.9 67.2 3z"/></g><g id="text_kopia"><path class="st62" d="M490.7 138.5l37.1 45.3 23.4-30-9.8-8-9.8 20-9.8-12.3 7.6-8.2-7.7-10-7.8 11.4-8.3-10.6 9.9-12.3-11.8-9.1z"/><path class="st62" d="M490.7 138.5l37.1 45.3 23.4-30-9.8-8-9.8 20-9.8-12.3 7.6-8.2-7.7-10-7.8 11.4-8.3-10.6 9.9-12.3-11.8-9.1zM539.2 90.3s-16.7-1.3-24.3 9c-8.8 12 3 28.6 18.3 26.5 11.9-1.6 18.8-9 21.8-3.9 3.3 5.6-11.2 12.6-11.2 12.6l10.6 15s11.8-10.9 13.1-23c1-9.7-4.9-20-18.1-15.9-9.8 3-19.2 7.6-23.5 2.1-2.9-3.8.9-8 5.8-9 3.9-.8 7.7-.5 7.7-.5l-.2-12.9zM532.6 81.5l26-37.2 7.6 9.6-8.2 16 34.6 31.9-8.4 10.6L553 78.5l-7.2 12.6z"/><path class="st63" d="M587.7 97.3L558 69.9l8.2-16-7.6-9.6-26 37.2 13.2 9.6 7.2-12.6 23.5 25.6z"/><path class="st62" d="M588.6 58.7s11-5.8 14.6-12c3.8-6.6 4.8-16.8-6.8-22.2-14.3-6.7-33.2 17.2-33.2 17.2L600 92.3l8.4-10.3-19.8-23.3zM576 42.3s2.8-4.4 8.4-7.4c5.6-3 10-2.2 11 2.8 1.2 5.9-12.8 13.2-12.8 13.2l-6.6-8.6z"/><path class="st64" d="M529.4 145.3l-7.7-10-7.8 11.4-8.3-10.6 9.9-12.3-11.8-9.1-13 23.8L505 156zM533.9 115c-3.4.5-6.3 0-8.1-2.4-2.9-3.8.9-8 5.8-9 3.9-.8 7.7-.5 7.7-.5l-.2-12.8s-16.7-1.3-24.3 9c-6.7 9.1-1.5 20.9 8.2 25.1l10.9-9.4zM572.6 83.4L558 69.9l8.2-16-7.6-9.6-26 37.2 13.2 9.6 7.2-12.6 15.6 17zM584.4 34.9c5.6-3 10-2.2 11 2.8.7 3.8-4.7 8.1-8.7 10.8l9.5 5.4c2.7-2.1 5.5-4.6 7-7.2 3.8-6.6 4.8-16.8-6.8-22.2-14.3-6.7-33.2 17.2-33.2 17.2l12.8.6s2.8-4.3 8.4-7.4z"/><path class="st63" d="M533.2 162.5l-1.6 3.3-2.3-2.9-17.1 1.9 15.6 19 17.6-22.7zM549.3 110.5c-.8.2-1.6.5-2.4.8l1.9 9.6c2.9-1 4.9-1.2 6.2 1 1.7 2.8-1.2 6-4.4 8.4l3.8 19.2s11.8-10.9 13.1-23c.9-9.8-5-20-18.2-16zM578.4 61.9l-.4.2 22 30.2 8.4-10.2-15.6-18.5z"/></g><g id="character"><path fill-rule="evenodd" clip-rule="evenodd" fill="#7d7d7d" d="M729.2 210.8l-19 36.1-40.9 1.5 4.6-47.2 24.5.1z"/><path fill-rule="evenodd" clip-rule="evenodd" fill="#ababab" d="M728.5 152.9l.7 57.9-30.8-6.6 9.9-20z"/><path fill-rule="evenodd" clip-rule="evenodd" fill="#c4c4c4" d="M700.1 148.1l28.4 4.8-34.1 58-48.2-23z"/><path class="st23" d="M575 319.3l75.8-3.4 72.2 5.5-68.6 4.8z"/><path class="st68" d="M649.1 284.5l-11.9 15.9-9.8-3.5-9.2-7.4 7.9-29.2 11.6 8.3 10.1 11.5.9 2.2z"/><path class="st69" d="M618.2 289.5l-2.9 12.6 8.7 3.8 9.1 1.5 4.1-7z"/><path class="st70" d="M615.3 302.1l-1.8 7.5 7.8 5.9 9.8 3.9 2-12z"/><path class="st71" d="M613.5 309.6l-9.9-5-7.1 15h34.6z"/><path class="st69" d="M598.7 315l-2.2 4.6h34.6L623 315z"/><path class="st72" d="M647.8 280.1l3.2 11.4 13.4 5.3 13.8 3 5.9-28.9-26.6 4.7z"/><path class="st69" d="M651 291.5l27.2 8.3-1.9 8.3-11.1-.3-9.9-2.9z"/><path class="st70" d="M655.3 304.9l1.9 6.4 6.4-.2 11.2 3.5 1.5-6.5z"/><path class="st71" d="M663.6 309.1l-6.4 2.2-5.1 1.9-1.2 9h27.5l-3.6-7.6z"/><path class="st69" d="M651.4 318.1l-.5 4.1h27.5l-2-4.1z"/><path class="st70" d="M636.3 269.4l11.5 10.7 7.2-1.7-4.2-14.6-4.3-9.3-6.2 7z"/><path class="st69" d="M646.5 254.5l-10.2 14.9-10.2-9.1 1.1-16.8 10.3 4.6zM646.5 254.5l8.5 23.9 29.1-7.5-1.4-7.3-3.4-19.1z"/><path class="st73" d="M626.8 233.1l.4 10.4 19.3 11 1.7-23.8-9.7-.1zM648.2 230.7l15.4 4.4 19.3 7.9-10.6 4.4-12.4 4.4-13.4 2.7z"/><path class="st69" d="M639.5 175.7l-13.1.2-1 24.3 1.4 32.9 21.4-2.4 2.9-33.7-5.1-12.4z"/><path class="st69" d="M685.2 187.4l11 3.9-4 21.7-7.2 19.2-2.1 10.8-34.7-12.3 2.9-33.7 17.1-5.8z"/><path class="st74" d="M665.8 180.3l16.3-4.1 3.7-2 4.5-.9-5.1 14.1-34.1 9.6z"/><path class="st70" d="M690.3 173.3l-4.5-2.8-2.9 2.3-.8 3.4zM648 161.5l-9.9 5.4 1.4 8.8 11.6 21.3-.6-21.6zM685 232.2l11.2-40.9 14.4 5.6-11.3 17.1z"/><path class="st68" d="M710.6 196.9l6.5 54-12.1-5.2-10-7.6-10-5.9z"/><path class="st74" d="M695 238.1l-22.7 9.3 1.6 9.1 3.5 9 39.7-14.6z"/><path class="st75" d="M672.3 247.4l-12.4 4.4 11.8 15.5 5.7-1.8z"/><path class="st70" d="M626.4 175.9l.3 45.9-8.9-21.4-7.3-24.7z"/><path class="st68" d="M610.5 175.7l-2.1 37.4 6.1 8.6 12.3 11.4-.1-11.3z"/><path class="st74" d="M608.4 213.1l-17.8.6-1.2 8.4 1.1 10 36.3 1z"/><path class="st75" d="M590.6 213.7l-14.1.6-.7 9.4.9 8.9 13.8-.5z"/><path fill-rule="evenodd" clip-rule="evenodd" fill="#5c5c5c" d="M567.6 219.6l.1 12.6 9 .4-.1-13.1-4.4-.9z"/><path fill-rule="evenodd" clip-rule="evenodd" fill="#7a7a7a" d="M576.5 214.3l-18 .6v4.8l18.1-.2 1.3-3z"/><path fill-rule="evenodd" clip-rule="evenodd" fill="#949494" d="M576.6 223.4l-.1-9.1v-10.7h5.1l2 10.4 4.1 9.3z"/><path transform="rotate(-72.194 670.29719475 213.4097391)" class="st74" d="M668.6 201.1h3.4v24.6h-3.4z"/><path class="st74" d="M651.1 197l-1.4 34.2-3.2 23.3.1-23.6z"/><path class="st72" d="M671.7 267.3l5.6 5.4 6.8-1.8-1.4-7.3-5.3 1.9z"/><path class="st68" d="M677.3 272.7l5.4 5.1 1.4-6.9z"/><path fill-rule="evenodd" clip-rule="evenodd" fill="#ffe6d6" d="M688.8 111.9l-34.5-3.6-10.6-5.2-11.6 53.5 15.9 4.9 2.2 6.9-1.1 7.4 17.9 5.1 15.1-4.7 22.5-35.1 5.5-8.4z"/><path class="st80" d="M684.9 111.5l-16.4 56-20.5-6 1.9 7.2-.8 7.1 2 21.2 15.9-16.1 15.1-4.7 15.2-23.7-9-6.8 7.6-10.9 8.7 6.3 5.5-8.4-16.6-16.2-4.7-4.6zM652 138.6l10-14.2 12.7-4.1-14.5-4.5-3.8 4.5zM651 119l-2.6-4.6-6.6-2.6 6.1 19.9z"/><path class="st81" d="M688.3 145.7l9 6.8-4.6 7.2zM654.5 128.2l16.6 13.8 6.8-6.6 2.9-.1 1.3-1.9-7.4-.8zM649 127.1l-11.3 3.7.4-2.2 2.3-4z"/><path class="st68" d="M693.5 116.5l-20.3 30.2 9.5 7 13.2-18.9 8.7 6.3 5.5-8.4-8.8-10.6z"/><path fill-rule="evenodd" clip-rule="evenodd" fill="#fff1e8" d="M651 119l5.4 1.3-4.4 18.3-5.4-1.3z"/><path class="st75" d="M676.7 125.2l27.2 6.5.7 9.4-8.7-6.3-21.2-2.2.2-4.2zM651 119l5.4 1.3.3 2.3-1.4 2.5-5.4-1.4-.6-2z"/><path d="M634 115l17 4.1-2 8.1-18.5 2.5L634 115zm22.4 5.3l20.2 4.8-3.9 14.8-18.2-11.8 1.9-7.8z" fill-rule="evenodd" clip-rule="evenodd" fill="#474747"/><path class="st81" d="M693.6 144.2l2.9-4.2 3.3 2.4z"/><path class="st68" d="M674.7 120.3l-10.1-6.9-4.4 2.4zM648.4 114.4l-5.6-6.1-4.2 2.2z"/><path class="st81" d="M637.9 140.3l30.6 7.4-11.6 5.8-13.2-3z"/><path class="st1" d="M641.5 143.1l21.5 5.2-6.5 3.6-11.5-2.7z"/><path class="st81" d="M646.6 137.3l2.3 3.9 3.1-2.6z"/><path class="st68" d="M688.8 111.9l-6.9-8.1-13.2-10.9-14.4-5.9-1.2 10.9 1.2 10.4z"/><path class="st74" d="M654.3 87l-24.2-9.5 13.6 25.6 10.6 5.2z"/><path class="st73" d="M668.7 92.9l13.4-7.6 21.5 9.4 13.9 8.8-7.4 29.2-16.6-16.2-4.7-4.6z"/><path class="st69" d="M682.1 85.3L704 82l8.1 11.1 5.4 10.4z"/><path class="st73" d="M704 82l7.5-4.7 10.3-3.6 3.1 25.9-12.1-8.7z"/><path class="st71" d="M704 82l20.9 17.6-7.4 3.9z"/><path class="st70" d="M680.8 135.3l14.2.9.9-1.4-13.8-1.4z"/><path class="st69" d="M704 82l17.8-8.3-16.8-.2z"/><path class="st81" d="M648 161.5l26.8 7.8-25.7 6.5z"/></g></svg>