<svg id="illustration" xmlns="http://www.w3.org/2000/svg" viewBox="0 0 1296 1086.5"><style>.st0{opacity:5.000000e-02;fill-rule:evenodd;clip-rule:evenodd}.st1{display:none}.st2{display:inline;fill-rule:evenodd;clip-rule:evenodd;fill:#f4f5f5}.st3{fill:#474747}.st4{opacity:.1}.st5{fill:#709d53}.st6{fill:#446125}.st7{fill:#99c26d}.st8{fill:#5a753d}.st9{fill:#a0cf7e}.st10,.st11{fill-rule:evenodd;clip-rule:evenodd;fill:#72c9a6}.st11{fill:#54b08b}.st12{display:inline;fill:#6ea289}.st12,.st13,.st14{fill-rule:evenodd;clip-rule:evenodd}.st13{display:inline;opacity:5.000000e-02}.st14{fill:#97c5aa}.st14,.st15,.st16{display:inline}.st15{fill-rule:evenodd;clip-rule:evenodd;fill:#b2879d}.st16{fill:#fbf5af}.st16,.st17,.st18,.st19{fill-rule:evenodd;clip-rule:evenodd}.st17{display:inline;fill:#98c16d}.st18,.st19{fill:#e5c828}.st19{fill:#fff}.st20{display:inline;fill:#74cde3}.st20,.st21,.st22,.st23{fill-rule:evenodd;clip-rule:evenodd}.st21{display:inline;fill:#5fbfd8}.st22,.st23{fill:#73cfe5}.st23{fill:#5ec0d9}.st24{fill:#1c7678}.st24,.st25,.st26{fill-rule:evenodd;clip-rule:evenodd}.st25{opacity:.2}.st26{fill:#35785d}.st27{fill:#3f8f6f}.st27,.st28,.st29,.st30{fill-rule:evenodd;clip-rule:evenodd}.st28{opacity:.1}.st29,.st30{fill:#5a753d}.st30{fill:#474747}.st31,.st32,.st33,.st34,.st35,.st36{fill-rule:evenodd;clip-rule:evenodd;fill:#2b2b2b}.st32,.st33,.st34,.st35,.st36{fill:#737373}.st33,.st34,.st35,.st36{fill:#738d56}.st34,.st35,.st36{fill:#ffe6d6}.st35,.st36{fill:#c4937d}.st36{fill:#f5cab3}.st37{fill:#fff1e8}.st37,.st38{fill-rule:evenodd;clip-rule:evenodd}.st39,.st40,.st41,.st42,.st43,.st44{fill-rule:evenodd;clip-rule:evenodd;fill:#446125}.st40,.st41,.st42,.st43,.st44{fill:#99c26d}.st41,.st42,.st43,.st44{fill:#709d53}.st42,.st43,.st44{fill:#96637c}.st43,.st44{fill:#734d60}.st44{fill:#543042}.st45,.st46,.st47,.st48,.st49,.st51{fill-rule:evenodd;clip-rule:evenodd;fill:#594165}.st46,.st47,.st48,.st49,.st51{fill:#b3889d}.st47,.st48,.st49,.st51{fill:#785d88}.st48,.st49,.st51{fill:#a688ba}.st49,.st51{fill:#9075a0}.st51{fill:#858686}.st52,.st53,.st54,.st55,.st56,.st57{fill-rule:evenodd;clip-rule:evenodd;fill:#d1a1b8}.st53,.st54,.st55,.st56,.st57{fill:#3aa0ba}.st54,.st55,.st56,.st57{fill:#8f8f8f}.st55,.st56,.st57{display:none;fill:#7e7e7e}.st56,.st57{fill:#ababab}.st57{fill:#c3c3c3}.st58,.st59,.st60,.st61,.st62,.st63{fill-rule:evenodd;clip-rule:evenodd;fill:#856400}.st59,.st60,.st61,.st62,.st63{fill:#755800}.st60,.st61,.st62,.st63{fill:#b58b00}.st61,.st62,.st63{fill:#9e7700}.st62,.st63{fill:#ccad14}.st63{fill:#bc8f2d}.st64,.st65,.st66,.st67,.st68,.st69{fill-rule:evenodd;clip-rule:evenodd;fill:#165e60}.st65,.st66,.st67,.st68,.st69{fill:#318fa6}.st66,.st67,.st68,.st69{fill:#50a9aa}.st67,.st68,.st69{fill:#72cbcc}.st68,.st69{fill:#27788c}.st69{fill:#369496}.st70,.st71,.st72,.st73,.st74,.st75{fill-rule:evenodd;clip-rule:evenodd;fill:#4f5253}.st71,.st72,.st73,.st74,.st75{fill:#8ce0dc}.st72,.st73,.st74,.st75{fill:#ac923c}.st73,.st74,.st75{fill:#6f7173}.st74,.st75{fill:#f4d75d}.st75{fill:#fff3c2}</style><path class="st0" d="M142.6 385l70.9-19.5 75.1 25.5-74.4 26z"/><g id="bg" class="st1"><path class="st2" d="M-50-57.5h1400v1200H-50z"/></g><path class="st3" d="M199.6 306.7h26.5v89.1h-26.5z"/><path class="st4" d="M199.6 332.3l26.5 16.5-.1-68.1h-26.4z"/><path class="st5" d="M135.5 298.9l91.2 29.1 35-36.8 45.1 9.1-44.9-97.4-84.7-.6z"/><path class="st6" d="M226.7 328l80.1-27.7-40.5-87.4-40.5-.6z"/><path class="st4" d="M280 242.3l-8.1-17.3-105.6-2.1-5.9 10.9 65.7 38.8z"/><path class="st7" d="M133.6 227.9l75.7 28.9 34-39.2 65.7 15.3-54.8-81.2L180 149z"/><path class="st5" d="M209.3 256.8l99.7-23.9-44.5-66.2-41.2 3.5z"/><path class="st4" d="M215.8 213.2l.7.3 52.9-39.2-4.9-7.6h-.1l-3.4-5-84.4-6.8-9.1 15.3 48.4 42.8z"/><path class="st5" d="M184 97.2L147.6 164l57.6 17.7 44.3-30.3 46.4 20-49.8-69.8z"/><path class="st8" d="M205.2 181.7l90.7-10.3-38.6-54.2-33.4 2.7z"/><path class="st4" d="M213.6 154.3l.7.3 46.4-32.4-7.2-4.7-5.9-3.8-69.8-5.6-5.9 11.2 41.8 34.8z"/><path class="st7" d="M193.7 66.9l-39.6 48 57.1 17.6 30.2-25.9 34.9 8.6-37.4-52.5z"/><path class="st5" d="M211.2 132.5l65.1-17.3-29-40.4-9 .9-15 .6z"/><path class="st4" d="M252.9 82.8l-5.6-8-4.7-6.5-22.1-3.8-26.8 2.4-5.9 7.3 31.2 25.9z"/><path class="st9" d="M223.6 11.5l-47 55.7 46.7 22.3 20.6-27.3 18 9.1z"/><path class="st5" d="M223.3 89.5l38.6-18.2-38.3-59.8z"/><g id="grass"><path class="st0" d="M1146.4 992l31.9 11.5 23.9-13.1-34.5-5z"/><path class="st10" d="M1161.5 992.8l-37.8-43.3 54.6 44.6z"/><path class="st11" d="M1178.3 994.1l-21.2-52.4 3.9 38.3z"/><path class="st10" d="M1172.6 980l22.2-21.2-16.5 35.3z"/><path class="st11" d="M890.1 896.4l-17.4-5.7 20.3 13.4z"/><path class="st0" d="M880.1 904.1l23.1-5.6 25.2 5.6-27.7 11.1z"/><path class="st10" d="M893 904.1l-11.7-30.8 23.6 30.8z"/><path class="st11" d="M896.9 893.7l18.2-23.2-10.2 33.6z"/><path class="st10" d="M907.9 894.1l22.8-5.4-19.1 14.5-6.7.9z"/><g class="st1"><path class="st12" d="M402.2 256.3l17.4-5.7-20.3 13.4z"/><path class="st13" d="M412.2 264l-23-7.7-25 7.7 27.5 11.4z"/><path class="st14" d="M399.3 264l11.7-30.7-23.4 30.7z"/><path class="st12" d="M395.5 253.6l-18.1-23.1 10.2 33.5z"/><path class="st14" d="M384.6 254l-22.7-5.4 19 14.5 6.7.9z"/></g><g class="st1"><path class="st13" d="M482.8 1011.7l-19.8-8.9-24.8 11.2 27.6 6.5z"/><path class="st14" d="M472.6 1011.7l-5.9-54.9-9.1 54.9z"/><path class="st12" d="M459.5 1001.1l-20.4-7.9 18.5 18.5zM470.9 996.2l17.9-14.4-16.2 29.9z"/></g><g class="st1"><path class="st13" d="M53.8 644l24.2-8.9 22.6 10.3-25.3 12.3z"/><path class="st12" d="M69.8 644l-7.1-35 23.4 36.4z"/><path class="st14" d="M69.8 644l32.1-37.6-15.8 39z"/></g><g class="st1"><path class="st13" d="M1101.7 249.9l-17.2-5.3-16.1 6.1 18 7.2z"/><path class="st12" d="M1090.3 249.9l5.1-20.6-16.7 21.4z"/><path class="st14" d="M1090.3 249.9l-22.9-22.1 11.3 22.9z"/></g><g><path class="st0" d="M966.9 447.3l21.5-6 21.3 7.1-24.7 4.5z"/><path class="st11" d="M992.5 447.3l-9.5-39.5v40.4z"/><path class="st10" d="M983 448.2l16.1-32.3-6.6 32.5z"/><path class="st11" d="M992.5 448.4l15-18.3-13.2 9.5z"/><path class="st10" d="M983 434.5l-13.8-21.7 13.8 35.4z"/><path class="st11" d="M979.5 439.3l-10.3-5.8 13.8 14.7z"/></g></g><g id="flowers"><g class="st1"><path class="st13" d="M404.9 249.7L386 245l-22.9 4.7 24.4 7.3z"/><path class="st12" d="M378.1 226.1l10.5 25.5 1.3-25.5z"/><path class="st15" d="M413.5 221l-31.9-12.7-26.8 16.5 34.8 7z"/><path class="st16" d="M396.9 220l-16.5-3.8-6.8 3.9 13.1 5.6z"/></g><g class="st1"><path class="st13" d="M161.3 1067.9l17.9-7.6 19.8 7.6-17.3 9.4z"/><path class="st12" d="M184.1 1044.4l-4.6 22.4-9.2-22.4z"/><path class="st17" d="M153.7 1039.3l26.9-17.8 18.7 21.6-26.7 7z"/><path class="st16" d="M169.3 1038.3l9.4-7.8 5.8 7.8-9 5.7z"/></g><g class="st1"><path class="st13" d="M1171.1 124.9l15.3-6.5 17 6.5-14.9 8z"/><path class="st12" d="M1190.6 104.7l-9.3 19.2-2.5-19.2z"/><path class="st17" d="M1157.4 97.4l30.1-5.9 22.7 12.9-29.4 5.2z"/><path class="st16" d="M1177.9 99.5l7.8-2.1 5.3 2.2-7.8 4.8z"/></g><path class="st0" d="M1019.1 562.7l16.3-6.8 16 6.8-18.6 5.7z"/><path class="st11" d="M1035.3 564.2l-8-32.8 13-1.3z"/><path class="st18" d="M1011.6 534.8l11.7 9.1 12.8-7.4 13.2 6 7.6-14.1-12.6-3.1 6.2-7.9-14.1-4.2-4.1 7.7-11.7-5.5-10 4.5 7.4 7.4z"/><path class="st19" d="M1025.4 527.4l9.7-3.5 5.2 4.6-8.7 2.9z"/><g class="st1"><path class="st13" d="M1007.6 173.2l18.1-7.6 26.3 7.6-26.6 8.7z"/><path class="st12" d="M1026.1 173.2l-1.7-27.2 7.7-2.6zM1028 173.2l8.5-20.6 5.2 6.5zM1023.3 172.6l-4.4-20.4-8.9 3.6z"/><path class="st20" d="M1019.9 158.9l-19.8-6.3 19.8-14z"/><path class="st21" d="M1024.8 152.6l-5.5-23.7 20.3 10.5z"/><path class="st20" d="M1039.6 161.3l-4.7-13.4 21.2 9.2z"/></g><g><path class="st0" d="M273.5 499.9l-18-7.6-26.3 7.6 26.5 8.6z"/><path class="st11" d="M255 499.9l1.8-27.3-7.7-2.5zM253.1 499.9l-8.5-20.6-5.2 6.4zM257.8 499.2l4.4-20.3 9 3.5z"/><path class="st22" d="M261.2 485.5l19.9-6.2-19.9-14z"/><path class="st23" d="M256.3 479.3l5.5-23.7-20.2 10.5z"/><path class="st22" d="M241.6 488l4.7-13.4-21.2 9.2z"/></g></g><g><path class="st0" d="M769.6 336.5l94.7-29.1L962 339l-99.2 37.8z"/><path class="st24" d="M853.5 254.6h17.2v79.1h-17.2z"/><path class="st25" d="M870.8 306.7l-17.3-15.8v-31.7h17.3z"/><path class="st26" d="M813.7 262.6l84 22.2 61.1-28 15.9-36.9-4-65.7-92.7 31.7-51.8 30.9z"/><path class="st11" d="M970.7 154.2l-92.4 39.4-108.7-30.1 25.1-50.6 78.4 38.6 64.6-40.3z"/><path class="st11" d="M935 85.5l-61.9 66-78.4-38.6 36.2-46.1 66.8-29.5z"/><path class="st27" d="M873.1 151.5l61.9-66 2.7 25.7z"/><path class="st10" d="M897.7 37.3l-43.8 70.2-23-40.7z"/><path class="st27" d="M878.3 193.6l-64.6 69-24.8-53.4-19.3-45.7z"/><path class="st28" d="M897.7 37.3l-43.8 70.2 7.5 38.3 16.9 47.8-89.4 15.6 24.8 53.4 84 22.2 73-130.6-33-43-2.7-25.7zM974.7 219.9l-77 64.9 61.1-28z"/></g><g id="character_kopia_3"><path class="st29" d="M586.1 161.2l30.9 7.3.5 39.6-5.7 23.2-19.1-35.4z"/><path class="st30" d="M614 281.4l9.8 97.1-2.4 7.3 3.8 6.5-22-2.6-19.8 4.1-1.8-9.6-4.4-4.6-17.3-33.1-20.4 35.9-7.1 6.1-3.2 9.8-17-4.5-17.8 3 1.6-9.1-1.6-6.6.3-85.3 14.4-39.3z"/><path class="st0" d="M691 414.8L563.5 387l-121 38.9 115.6 38.4z"/><path class="st10" d="M612.9 392.7l1.8 12 6.5 2.9 23.6-.4v19.1l-51.2.5.3-18.1 3.6-15.3z"/><path class="st26" d="M593.9 408.7l7 13.8 20.3-14.9-8.3-14.9-7.6-3.3-11.1 4z"/><path class="st28" d="M612.9 392.7l-18.7.7-.3 9.9z"/><path class="st10" d="M501.2 397.1l-1.8 12-6.5 2.9-13.8-.4v19.1l41.4.5-.3-18.1-3.6-15.3z"/><path class="st26" d="M520.2 413.1l-7 13.8-6.5-14.6-13.8-.3 8.3-14.9 7.6-3.3 11.1 4z"/><path class="st31" d="M605.3 291.8l8.7 87.3-13.5 2.3-14.7-92.2zM577.2 311.4l8.5 69.7-8.5-1.5-17.3-33.1-4.3-48.4zM549.9 300.1l-10.4 82.3-19.3.7 13.3-73zM524.6 289.2l-16.3 93.2-8.4-.8 3.4-73.6z"/><path class="st32" d="M623.8 378.5l-46.6 1.1 6.2 14.2 41.8-1.5zM539.5 382.4l-45.1-1.3v15.7l34.8 1.5z"/><path class="st28" d="M501.2 397.1l18.7.7.3 9.8z"/><path class="st33" d="M549.3 163l62.5 68.3 7.4 7.1-26.5 41.2-6.9 9.6-8.6 22.2-21.6-13.3-22.1 12-8.9-20.9-6.9-9.6-8.6-12.5-12.9-43.5z"/><path class="st29" d="M524.3 163l-29.1 9.2-2.3 35.9 5.7 23.2 19.1-35.4z"/><path class="st26" d="M628.3 137.1l-40.1-7.7-2.3-11.6 6.9-12.8 16.1 10.1z"/><path class="st34" d="M457.3 60.7l10.2 49.5 12.3 30.4 6.1 21.4 40.6-7 17.6 40 11.7 8.4 22.1-20.2 14.9-78.2-53-47.8-55.6-26.1z"/><path class="st35" d="M494.9 36.1L457.1 61l13.3-20.8 13.8-9.1 7-.7z"/><path class="st36" d="M505.3 106.4l6.8-31.6 8.1-15.9-21.1-.4-.5 9.5zM489.6 69.7l-5.2-8-18 9.1 28 24.5z"/><path class="st35" d="M496.7 108.1l5.6 5.1 3-6.8z"/><path class="st36" d="M539.8 57.2l19.8 90.6-16.4 14-6.2 16.9-1.1 6.8 8.2 9.5 20.4 14.8 23.5-30.6 3.6-20-3.4-29.8-2.3-11.6 6.9-12.8z"/><path class="st37" d="M489.6 69.7l7.1 38.4 8.6-1.7-6.7-38.4z"/><path class="st35" d="M539.8 57.2l19.5 31.6 19.2 12.1-20 8 29.7 20.5 4.6-24.4-19.3-20.9z"/><path class="st33" d="M484.4 61.7l-12.2-2-5.8 11.1zM499.1 58.5l9-5.9 12.1 6.3z"/><path class="st38" d="M477.1 78.3c2.4-.6 5.2 2.1 6.2 6.1 1 4-.1 7.7-2.5 8.3-2.4.6-5.2-2.1-6.2-6.1-1-4 .1-7.7 2.5-8.3zM512.5 70.2c2.4-.6 5.2 2.1 6.2 6.1 1 4-.1 7.7-2.5 8.3-2.4.6-5.2-2.1-6.2-6.1-1.1-3.9.1-7.6 2.5-8.3z"/><path class="st33" d="M482.2 128.8l26.6 16.2 24.7-25.5z"/><path class="st19" d="M488.8 129.2l16.6.5L527 122l-14.1 13.2-10.1 1.7z"/><path class="st39" d="M482.2 128.8l21.7-7.2 29.6-2.1-28.1 11z"/><path class="st11" d="M484.2 31.1l55.6 26.1 52.6 28.3 50 19.8 6.1-26.1-2.6-20.9-49.8-10.6-42.1-4.9-28.5-6.9z"/><path class="st27" d="M539.8 57.2l102.6 48.1-14.1 31.8zM554 42.8L580.7 0l65.2 58.3zM645.9 58.3L673 83.5l-30.6 21.8z"/><path class="st10" d="M484.2 31.1l12-30.2 84.5-.9L554 42.8z"/><path class="st27" d="M457.3 60.7l22.5 79.9-11.1-7.9-10.1-2.4-10.4-5 1.3-56 1.2-7.1z"/><path class="st11" d="M484.2 31.1l-34.7 38.2-19.1-23.2L496.2.9z"/><path class="st40" d="M559.8 75.2l-1.3 33.7 42.6 3.6-11.6-10.5-22.1-2.1.4-17.5zM467.3 96.1l-8.7 34.2 21.2 10.3-4.1-14.8-6.3-2.6 2.7-10.2z"/><path class="st35" d="M526.5 155l42-9.4-22.7 43.4z"/><path class="st39" d="M590.3 148l-34.5 55.4 40.7-31.2z"/><path class="st40" d="M555.8 203.4L519 177.1l-20.4 54.2zM596.5 172.2l-40.7 31.2 56 27.9z"/><path class="st29" d="M555.8 203.4l56 50v-22.1z"/><path class="st29" d="M498.6 231.3l6.8 24.4 50.4-52.3z"/><path class="st31" d="M568.5 209.8l-12.7 14.4-13.1-14.4 13.1-6.4z"/><path class="st30" d="M555.8 224.2l-19.1 53 18.9 20.9 17.5-20.4z"/><path class="st31" d="M573.1 277.7l-36.4-.5 18.9 20.9z"/><path class="st39" d="M526.5 155l-7.5 22.1 36.8 26.3z"/><path class="st41" d="M498.6 231.3l-3.4-59.1-31.7 72.7 23.4-6.5z"/><path class="st40" d="M463.5 244.9l25 55.2 6.2-4.3 13.6-6.1 9.4-10.1-19.1-48.3z"/><path class="st36" d="M517.7 279.6l6.9 9.6-21.3 18.8-8.6-12.2z"/><path class="st41" d="M611.8 231.3l5.2-62.8 29.9 76.4-23.3-6.5z"/><path class="st40" d="M646.9 244.9l-25 55.2-6.2-4.3-13.6-6.1-9.4-10.1 19.1-48.3z"/><path class="st36" d="M592.7 279.6l-6.9 9.6 21.3 18.8 8.6-12.2z"/><path class="st25" d="M607.1 308l10.6 10.1-2-22.3zM503.3 308l-8.7 10.1.1-22.3z"/></g><g id="intj_kopia_3"><path class="st0" d="M0 559.9l117.8-30.5 125.6 29.1-126.8 44.4z"/><path class="st42" d="M183.1 422.2L157 438.1l-38.9 36.3 25.6 66.7 34.3-15.6zM94 540.9l24.1-66.5L91 455.5l-35.5-9-.3 97.2 20.3 6.4z"/><path class="st43" d="M94 540.9l2.8 29.6-48.9-2.3 7.3-24.5z"/><path class="st44" d="M196.5 366.9l-16.7 38.7-17-11.4-.7-20 21.1-7z"/><path class="st43" d="M166.4 318.5l30.1 48.4-34.4 7.3-6.5-9.4-12.9-30.4zM183.1 422.2l-57.2 7.1-70.4 17.2 62.6 27.9z"/><path class="st44" d="M178 525.5l22.7 25.5.1 5.6-57.5-2.6.4-12.9z"/><path class="st43" d="M55.2 422.4L51.4 385l-7.6-36.4-22.7 10.2L8.6 421z"/><path class="st44" d="M8.6 421l42.8-36 9.9 26.8-5.8 34.7z"/><path class="st45" d="M38.9 274.9l10.6-6.2 17.8 11.2-3.5 12.8-30 10.5z"/><path class="st42" d="M103.9 323.7l22.3-2 32.2 4.9 21.4 79-125.1 26.8-10.9-83.8 11.2-7.7 9.5-17.6z"/><path class="st44" d="M74.5 336.6l-30.7 12-22.7 10.2 4.7-22.2 38.7-13.3zM176.4 334.6l-53.2-3.4 3.2-12.8 40 .1z"/><path class="st46" d="M107.8 375l9.2-11.8 4.3-19-56.8-20.9zM121.3 344.2l7.6 11.1 17.5 10.9-16.4-48.6z"/><path class="st43" d="M146.4 366.2l15.8 43.2-56.9 12.2 2.5-46.6 13.5-30.8z"/><path class="st34" d="M169.7 193.5l2.7 28.4-2.6 87.5-43.4 9-9.8 12.2 4.7 13.6-56.8-20.9-.9-40.8-14.3-1.8L40 257l19.2-11 13.3 18.6 7.1-3 .9-25.4-13.4-30.7 34.2-24.5 39.4 10.4v-19.7z"/><path class="st36" d="M68.5 205.6l31.6 33.9 13.2 58.8 16.7 19.3-13.3 16.4 4.6 10.2-56.8-20.9-.9-40.1 7.2.1 2.2-17.1 7.4-3.7 1.3-26.3z"/><path class="st36" d="M139.4 251.9l26.7-17.8-24.9-6.5-41.2 13.7 26.2 7.3 10.5 28.9zM110.7 286.4l32 15.1 25.3-19.1-25.2 4.5z"/><path class="st47" d="M110.7 286.4l17-3.8 9-5.1 13-1 7.2 4.3 11.1 1.6-25.1 12.2z"/><path class="st37" d="M133.7 231.2l3 46.3 13-1-4.4-45.2z"/><path class="st38" d="M120.1 253.8c-2 .3-3.9-2.1-4.4-5.4-.4-3.2.8-6 2.8-6.3 2-.3 4 2.1 4.4 5.4.5 3.2-.8 6.1-2.8 6.3zM157.2 250.8c-2 .2-3.8-2.3-4.1-5.5-.3-3.2 1.1-6 3.1-6.2 2-.2 3.8 2.3 4.1 5.6.3 3.1-1.1 5.9-3.1 6.1z"/><path class="st47" d="M100 241.3l41-7.5 25.1.3-2.4-9-26.4-3.6-36.9 12.3z"/><path class="st45" d="M149.7 276.4l-6.4 7.6-6.6-6.5z"/><path class="st35" d="M49.2 257.3l9.1-2.2 4.7 13zM130 317.6l-29.2 2.7 20.5 23.9zM62.9 282.4l7.9.9-7 9.4z"/><path class="st48" d="M168.6 193.5l3.9-13.5 12.3-14.1-12.2 55.4z"/><path class="st49" d="M68.5 205.6l-24.4-6.5-37.2-1.2 20.4 49 30.4-3.8 24-6.9z"/><path class="st46" d="M126 363.6l7.6 4.8-4.3 8.6-9.1-4.5zM131.9 391.1l-5 7.9 9 4.5 3.9-7.5z"/><path class="st44" d="M54.7 432.4l125.1-26.8 3.3 16.6-127.6 24.3z"/><path class="st46" d="M148.1 412.4l-28.9 6 2.3 15.2 29.8-5.1-3.2-16.1zm-3 13.5l-19.2 3.4-1.2-7.8 18.8-3.5 1.6 7.9z"/><path class="st47" d="M168.6 193.5l-27.1-19.3-15.2-8-17.5-15.4 76 15.1zM68.5 205.6l33.2-23.3-27.6-9.5-29-5.8-38.2 30.9z"/><path class="st49" d="M108.8 150.8l-45.7-9.1-18 25.3 56.6 15.3 40 10.5-.2-18.6z"/><path class="st47" d="M81.7 236.2l-54.4 10.7 11.6 28 10.4 5.8-8.4-23.4 18.3-10.2L73 266.2l7.4-3.7z"/></g><g><path class="st0" d="M1021.5 917.9l74.1-21.9 78.6 28.5-77.8 29z"/></g><g id="intp_kopia_2"><path class="st0" d="M1296 679.6l-122.5-41.8-110 36.5 118.4 42.6z"/><path class="st45" d="M1123.1 647.3l-27.9 27.9 58.6-3 1.2-11.4-12.5-8.9z"/><path class="st49" d="M1181.8 602.2l18.8 70.6 19-1.9 13.8-12.1 8.9-79.7-35-1.5z"/><path class="st45" d="M1233.3 657.7l19.2 22-.1 4.1-50.5 1.7-1.3-12.8z"/><path class="st49" d="M1186 591.8l-31 72-14.4-9.1-17.5-7.4 2.8-72.3z"/><path class="st47" d="M1242.3 579.1l-60.5 23.1-55.9-27.2 84.3 1.3z"/><path class="st36" d="M1089.8 428.2l8.7-31.8-7.8-3.1-10.2 15.9 2.8 8.6z"/><path class="st42" d="M1100.4 446.3l5.3 15 13.3 16.8 10.8-4.7 5.5-28.2-2.1-30.7z"/><path class="st43" d="M1119 478.1l-29.2-49.9-12.6.9-14 10 21.3 55.2z"/><path class="st34" d="M1089.8 428.2l-26.6 10.9-13.1-17.5 13.1-12.4 14.4-6z"/><path class="st36" d="M1077.6 403.2l-23.6-18.4-13 14.7 9.1 22.1z"/><path class="st42" d="M1161.1 399.5l56.3-4.5 8.6 14.8 26.7 11.1-6.4 161.2h-76.8l-39.4-8.8 3.1-158.8z"/><path class="st45" d="M1211.8 406.6l-5.7 27.6-37.1 24.4-9.7-35.2 1.8-23.9 7.5.8 13.9 9.5z"/><path class="st49" d="M1217.4 395l8.6 14.8-10.5 13-16.2 9.9-16.8-22.9-18.1 14.6-4.4-11.4 1.1-13.5 8.6-9.3z"/><path class="st34" d="M1113 366.6l54 15.7 15.5 27.5 18.4-13.5 16.5-1.3-1.4-16.1 5.8-8.4 2.6-14.9 7.8 1.1 13.2-20.4-11.6-9.4-18.5 14.3-8.7-7 31.7-53.8-16.9-17.9-59.4-5.3-17-11.7-22.3 70.4z"/><path class="st36" d="M1138.6 282l18.2 19 2.5 32.4 19.1-30.6 20.9-9.4-23-5.5-7.7 1.6-7.5-5.1-7.4-6z"/><path class="st43" d="M1162.7 274.2l-24.1 7.8 22.5 2.4zM1176.3 287.9l23 5.5-19.5-15.5z"/><path class="st37" d="M1161.1 284.4l-12 46.5 10.2 2.5 17-45.5z"/><path class="st38" d="M1146.9 297.8c-2.1-.3-4.2 2-4.7 5.3s.8 6.1 2.8 6.5c2.1.3 4.2-2 4.7-5.3s-.7-6.2-2.8-6.5M1179.3 305.5c-2.1-.3-4.2 2-4.7 5.3s.8 6.1 2.8 6.5c2.1.3 4.2-2 4.7-5.3s-.7-6.2-2.8-6.5"/><path class="st35" d="M1149.1 330.9l3.1 8 7.1-5.5zM1135.2 348l37.1 5.2-3.1 4.8-33.5-4.2zM1235.8 336l-13.7 7.9 10.8 1zM1226 355.9l-10.5-1.7 6.3 16.3zM1113 366.6l66.8 13 15.2.5-12.5 29.7-16.7-25.5z"/><path class="st36" d="M1221.4 262.5l-22.1 30.9-19.5 86.2 11.3 2-8.6 28.2 34.9-14.8 4.4-24.5 4.2-14.6-10.5-1.7-.2-13-8.7-7 31.7-53.8z"/><path class="st30" d="M1132.2 235.8l12.8 9.7 16.2 13.9 7.4-24.3-1.8-24.2z"/><path class="st51" d="M1166.8 210.9l84.2 39.2-15.2 10.3-16.1 3.5-58.5-4.5z"/><path class="st32" d="M1219.7 263.9l16.2 16.4 12 .2 10-4.8-6.9-25.6z"/><path class="st30" d="M1235.9 280.3l-31.8 54.9 10.9 7.8 18.5-14.6 10.6 8.2-7.2 12.8 35.2-15.5-14.2-58.2z"/><path class="st35" d="M1215.5 354.2l6.3 16.3 4.2-14.6z"/><path class="st46" d="M1169 458.6l72.1-20.5-15.1-28.3zM1169 458.6l.5 123.5-51.7-6.6 15.4-161 13.4-3 14.5-12z"/><path class="st52" d="M1161.1 399.5l-27.9 15 35.8 44.1z"/><path transform="rotate(-45 1187.67128263 482.83385473)" class="st43" d="M1182.6 477.6h10.4V488h-10.4z"/><path transform="rotate(-45.009 1187.71685446 519.52027483)" class="st43" d="M1182.6 514.3h10.4v10.4h-10.4z"/><path transform="rotate(-45 1187.66812307 556.20406342)" class="st43" d="M1182.6 551h10.4v10.4h-10.4z"/><path transform="rotate(-18.915 1143.72105052 461.6210263)" class="st47" d="M1139.8 445.6h7.9v32.1h-7.9z"/><path class="st42" d="M1135.3 473.4h27.7v6.7h-27.7z"/><path class="st43" d="M1252.7 420.9l29.7 83.3-22.8-6.7-13.6-9.4z"/><path class="st44" d="M1282.4 504.2l-34.9 46.4-16.8-3.5-11-15 26.3-44z"/><path class="st36" d="M1219.7 532.1l-7.9 11.1 22.9 25.4 12.8-18z"/><path class="st25" d="M1234.7 568.6l11.6 13.5 1.2-31.5z"/></g><g id="estp_kopia_2"><path class="st31" d="M509.4 489l33.9-20.3 3 34.3-2.5 5.1-19.2-6.9z"/><path class="st22" d="M543.8 508.1l-4.6-52.1 10-.6 9.4-3.3 2.8 16.3-3.4 45.5z"/><path class="st23" d="M578.1 456.6l-11.5-1.1-8-3.4-.6 61.8 15.1-6.5z"/><path class="st53" d="M558 485.2l-15.6 7.5-.6-7.5 4.5-2.2zM566 501.2l7.1 6.2.8-7.6-4-1.8zM578.1 456.6l-19.5-4.5-19.4 3.9 19.3 5.2z"/><path class="st32" d="M509.4 489l30.6-24.1 9.3 8.4-7.5 11.9-17.8 14.6z"/><path class="st54" d="M541.8 485.2l-1.8-20.3 18.7 8.4-.7 11.9zM568.1 468h18.2l-12.4 31.8z"/><path class="st32" d="M568.1 468l5.8 31.8-7.9 1.4z"/><path class="st55" d="M219.1 564.5l39.8 75.4 85.3 3.2-9.7-98.6-51 .2z"/><path class="st56" d="M220.6 443.8l-1.5 120.7 64.4-13.6-20.7-41.7z"/><path class="st57" d="M279.9 433.9l-59.3 9.9 71.1 121.1 100.7-48.1z"/><path class="st0" d="M521.3 773.3L394.2 733l-112.7 45.3L391 824.5z"/><path class="st58" d="M402.5 705.8l-2.9 13.5 37.1-11.9 13-48.5-22.4 16.2-19.6 22.2z"/><path class="st59" d="M430 730l-5.1 18.7-11.2 16.1-23.9 2.7-5.4-24.3z"/><path class="st60" d="M389.8 767.5l35.1-18.8 18.7 1.2 10.5 11.7-17.4 11.8-46.9 2z"/><path class="st18" d="M454.1 761.6v7.5L434.6 782l-44.8-6.6v-7.9l43.2 3.3z"/><path class="st61" d="M407.7 697.3l-8.1 22-27.8 10.2-26.6 5.9-7.8-55.8 51.5 9.1z"/><path class="st18" d="M399.6 719.3l-54.4 16.1 1.8 16.1 23.4-.7 20.3-5.6z"/><path class="st58" d="M390.7 745.2l-.9 30.2-16.9-2.6-23.9 4.6-2-25.9z"/><path class="st60" d="M367.4 767.5l12.5 4.3 9.9 3.6 1.2 9.4-23.7 6.6-24.7-6.6 3.2-6.8z"/><path class="st18" d="M391 784.8l.1 8-25 6.9-24.4-6.9.9-8 24.7 3.8z"/><path class="st59" d="M430 676.6l-22.3 20.7-13.8-3.3 8-28.3 8.4-17.9 11.9 13.5z"/><path class="st18" d="M410.3 647.8l19.7 28.8 19.7-17.7-2.1-32.4-20.1 8.9zM410.3 647.8L393.9 694l-56.5-14.4 2.9-14.3 6.5-36.9z"/><path class="st62" d="M448.4 606.4l-.8 20.1-37.3 21.3-3.3-46 18.6-.3z"/><path class="st62" d="M407 601.8l-29.8 8.5-37.4 15.3 20.6 8.4 24 8.5 25.9 5.3z"/><path class="st18" d="M423.7 495.5l25.3.3 2 47.1-2.6 63.5-41.4-4.6-5.7-65.2 10-24zM335.5 518.1l-21.4 7.6 7.7 41.9 14 37.2 4 20.8 67.2-23.8-5.7-65.2-33.1-11.3z"/><path class="st63" d="M372.9 504.4l-31.5-8-7.2-3.9-8.6-1.6 9.9 27.2 65.8 18.5z"/><path class="st59" d="M325.6 490.9l8.7-5.6 5.6 4.5 1.5 6.6zM407.3 468l19.1 10.4-2.7 17.1-22.4 41.1 1.2-41.8zM335.8 604.8l-21.7-79.1-27.9 10.8 22 33.1z"/><path class="st58" d="M286.2 536.5l-12.4 104.4 23.4-10.1 19.2-14.8 19.4-11.2z"/><path class="st63" d="M316.4 616l44 18-3.2 17.6-6.6 17.5-76.8-28.2z"/><path class="st30" d="M360.4 634l24 8.5-23 30-10.8-3.4z"/><path class="st59" d="M449 495.8l1.8 53.5 29.1-53.8z"/><path class="st58" d="M479.9 495.5l22.7 22.6-2.4 18.5-10.5 22.6-38.9-9.9z"/><path class="st63" d="M509.4 489l34.4 19.1-23.6 58.9-30.5-7.8z"/><path transform="rotate(-17.806 364.21448114 568.3697634)" class="st63" d="M340.4 565.1H388v6.6h-47.6z"/><path class="st63" d="M401.3 536.6l2.8 66.1 6.2 45.1-.3-45.6z"/><path class="st61" d="M361.4 672.5L350.6 683l-13.2-3.4 2.9-14.3 10.3 3.8z"/><path class="st58" d="M350.6 683l-10.4 9.8-2.8-13.2z"/><path class="st34" d="M328.4 372.1l66.8-7 20.5-10 22.4 103.5-30.8 9.4-4.2 13.4 2.1 14.2-34.6 10-29.2-9.2-43.5-67.8-10.5-16.2z"/><path class="st36" d="M336.1 371.3l31.5 108.3 39.7-11.6-3.6 13.9 1.5 13.7-3.9 41-30.7-31-29.2-9.2-29.3-45.8 17.4-13.1-14.9-21.1-16.7 12.2-10.5-16.2 32-31.5 9-8.8zM399.6 423.8l-19.3-27.5-24.6-8 28.1-8.6 7.2 8.7zM401.5 385.9l5-8.9 12.8-5.2-11.8 38.6z"/><path class="st35" d="M329.5 437.5l-17.4 13.1 8.8 13.8zM394.7 403.6l-32 26.7-13.1-12.7-5.6-.2-2.6-3.8 14.3-1.5zM405.3 401.6l22 7.1-.9-4.3-4.3-7.7z"/><path class="st58" d="M319.4 380.9l39.3 58.5-18.4 13.5-25.7-36.5-16.7 12.2-10.5-16.2 16.9-20.6z"/><path class="st37" d="M401.5 385.9l-10.5 2.5 8.6 35.4 10.5-2.5z"/><path class="st31" d="M351.9 397.8l-52.7 12.7-1.3 18.1 16.7-12.2 41.1-4.3-.5-8zM401.5 385.9l-10.5 2.5-.5 4.5 2.8 4.7 10.4-2.7 1.2-3.8z"/><path class="st30" d="M434.3 378l6.8 28.4-35.8-4.8-3.8-15.7 32.8-7.9zm-39.6 25.6l-35.2 22.8-7.6-28.6 39.1-9.4 3.7 15.2z"/><path class="st35" d="M319.2 434.6l-5.5-8.1-6.4 4.5z"/><path class="st58" d="M355.7 388.3l19.5-13.2 8.6 4.6zM406.5 377l10.8-11.9 8.1 4.3z"/><path class="st35" d="M426.8 426.9l-59.2 14.4 27.1 16.9 17.3-5z"/><path class="st19" d="M420 432.4l-41.6 10.1 7.8 5 29.6-8.9z"/><path class="st35" d="M410.1 421.3l-4.5 7.5-6-5z"/><path class="st58" d="M328.4 372.1l13.4-15.7 25.5-21.1 27.9-11.3 2.2 21-2.2 20.1z"/><path class="st63" d="M395.2 324l46.7-18.4-26.2 49.5-20.5 10z"/><path class="st62" d="M367.3 335.3l-25.9-14.5-41.6 18.1-26.8 17 14.4 56.5 32-31.5 9-8.8z"/><path class="st18" d="M341.4 320.8l-42.4-6.5-15.6 21.4-10.4 20.2z"/><path class="st62" d="M299 314.3l-14.3-9-20-7-6 50 23.3-16.7z"/><path class="st60" d="M299 314.3l-40.3 34 14.3 7.6z"/><path class="st59" d="M344 417.4l-27.5 1.6-1.9-2.6 26.8-2.7z"/><path class="st18" d="M299 314.3l-34.3-16 32.4-.5z"/><path class="st35" d="M407.3 468l-51.9 15.1 49.8 12.5z"/><path class="st62" d="M436.7 707.4l-37.1 11.9-8.9 25.9L430 730z"/><path class="st35" d="M415.8 438.6l-5.4 10.6-15.7 3.7-8.5-5.4z"/></g><g id="esfj_kopia_2"><path class="st0" d="M656.8 639.6l141.3-37.8 112.2 37.8-134.8 54.1z"/><path class="st64" d="M811.9 650.4V638l47.6-19.4 17.6 31.5z"/><path class="st23" d="M780.4 563.6l24.1-26.6 50.1-26.7 4.9 108.3-47.6 19.4z"/><path class="st64" d="M752.6 649.2l-64.6-.4-.5-5.5 18.6-29.5 21.7 8.5 26.7 11.1z"/><path class="st53" d="M780.4 563.6l-25.9 69.8-48.4-19.6-11.3-107.1 48.2 22.8z"/><path class="st65" d="M854.6 510.3l-74.2 53.3-85.6-56.9z"/><path class="st66" d="M854.6 357.8l37 40.7 10.6 24.8 3.7 37.6-52-12.8-4.3-43.4z"/><path class="st67" d="M891.6 398.5l31.6-27.7 21.3 15.8-38.6 74.3z"/><path class="st66" d="M781.2 388.9l-62.1-27.6-17.7 2.7-6.6 142.7 80.4 3.6z"/><path class="st24" d="M775.3 394.5l27.8-39.2h36.3l15.2 2.5v152.5h-79.4zM701.4 364l-53.5 108.5 69-39.7z"/><path class="st67" d="M716.9 432.8l40.3 21.8 2.8 14.3-4.5 16.5-107.6-12.9z"/><path class="st36" d="M757.2 454.6l11.1-6.5 4.1 7.5z"/><path class="st22" d="M802.3 455.6l2.2-21.3h-10.1l-9.8-2.7-17.3 7.3 2.8 15.7z"/><path class="st23" d="M765.2 437.4l11.6-1.8 7.8-4 2.1 24-16.6-1z"/><path class="st34" d="M757.2 454.6l-1.7 30.8 33.9 4.9v-17.8l-2.9-17.9z"/><path class="st35" d="M786.5 454.6l15.8 1-1.3 22-11.6 12.7z"/><path class="st53" d="M765.2 437.4l19.4-5.8 19.9 2.7-19.2 6.5z"/><path class="st36" d="M956.8 335.2l-30.6 1.4-3 34.2 8.3 7.1 24.4-11.2z"/><path class="st35" d="M938.2 350.1l-6.7 27.8 13 8.7 11.4-5.2z"/><path class="st22" d="M970.4 375.6l-.6-4.9 1.2-2 4-46-10.1-.6-9.6-3.4-2.8 16.6 3.4 46.1z"/><path class="st23" d="M935.6 323.3l11.6-1.1 8.1-3.5.6 62.7-15.3-6.5-1.8-18.3.5-3.6-1.1-2.9z"/><path class="st53" d="M961.3 363.6l9.1 12 .5-6.9zM955.5 347l-16.7 9.6-.6-6.5zM935.6 323.3l19.7-4.6 19.7 4-19.5 5.3z"/><path class="st34" d="M926.2 336.6l10.2-5 19.1 6.2v9.2l-17.3 3.1-5.3-6zM981.9 336.6l-22-2.6 2.7 28.5 8.3 6.2z"/><path class="st36" d="M959.9 334l11 34.7-9.6-5.1z"/><path class="st34" d="M737.3 222.6l45.1 6.2 30.6-21.4 26.4 147.9-32.5 6-34.2 29.8-15.1-13.2-36.2-17.5-17.2-38.3-9.4-23.5 20.2-14.4 17.6 24.8 10.1-8.9-41.2-54z"/><path class="st36" d="M737.3 222.6l30 146.9-11.8 13.4-36.4-21.6-14-37 20.7-11 6.8-4.3 6-8-35-56.4z"/><path class="st35" d="M716.9 310.6l-4.7-12.7-12.2 4.8zM705.1 324.3l16.9-9-8.1 32.2zM803.1 296.2l-6.4 8.2-8.3-5.4z"/><path class="st36" d="M762.1 267.4l12.5 2.3 13.8 29.3-8.4-41.4zM794.8 254.9l5.7 28.5 5.1-22.8 8.9-6.3z"/><path class="st30" d="M793.7 249.4l19.6-1.4 1.2 6.3-19.7.6zM778.9 252l-19.1 9.4 2.3 6 17.9-9.8z"/><path class="st38" d="M805.6 260.6c-2.1.4-3.1 3.1-2.4 6.1.7 2.9 3 5 5.1 4.6 2.1-.4 3.1-3.1 2.4-6.1-.8-3-3.1-5-5.1-4.6M771.4 268.5c-2.1.4-3.1 3.1-2.4 6.1.7 2.9 3 5 5.1 4.6 2.1-.4 3.1-3.1 2.4-6.1-.8-2.9-3.1-5-5.1-4.6"/><path class="st35" d="M765 318.4l59.2-11.4-22.6 20.6z"/><path class="st19" d="M781 318.9l31.8-6.2-12.2 12.1z"/><path class="st30" d="M745.1 188.8l-39 26.1 17 9 14.2-1.3 46.7 10-15.5-23.2z"/><path class="st32" d="M706.1 214.9l-33.2 24.3 21.3 6.2 12.5.1 30.6-22.9z"/><path class="st31" d="M672.9 239.2l21.9 59.4 21-9.7 10 24.4 17.2-9-36.3-58.8z"/><path class="st54" d="M784 232.6l-38.9-43.8 67.9 18.6z"/><path class="st25" d="M694.8 506.7l2.6 24.7 76.7-41.1-78-12z"/><path class="st37" d="M794.8 254.9l-14.8 2.7 8.4 41.4 14.7-2.8z"/><path class="st35" d="M759.2 371.1l-3.7 11.8 19.8 11.6 31.6-33.2z"/><path class="st67" d="M775.3 394.5l-43.1 9.6-13.1-42.8z"/><path class="st66" d="M806.9 361.3l7.8 37.9-39.4-4.7z"/></g><g id="infj_kopia_2"><path class="st0" d="M712.9 793.4l211.6 48.7 123.9-40.8-175.2-60.4z"/><path class="st34" d="M763.6 737.5l-27.1 8.4 23.5 8.5z"/><path class="st40" d="M736.5 745.9l-5.5-1.3-3.5 4.1 26.3 20.1 8-14.4z"/><path class="st34" d="M753.8 768.8l-15.2 17.3 39.9-9.1z"/><path class="st40" d="M738.6 786.1l-4.8 1.7-4 5.1 60.3.3-.6-12.5-4.2-8.2z"/><path class="st33" d="M773.2 775.2l16.9 18-.6-12.5zM841.7 671.8l-45.3-5.3 9.2 41.1 65.6-18.2z"/><path class="st40" d="M860.2 623.1l-18.5 48.7 41.8-24.4z"/><path class="st41" d="M869.3 651.7l-27.6 20.1 29.5 27.8 20-.4-5.8-27.4z"/><path class="st29" d="M841.7 671.8l49.5 27.4 7.4 9 2 11.6-34.2-7.9z"/><path class="st39" d="M866.4 711.9l19 30.7 21.2 20.4 3.7-22.1v-15.5l-9.7-5.6z"/><path class="st29" d="M866.4 711.9l40.2 51.1-3.6 25-51.5 13.3 2.8-48.6z"/><path class="st40" d="M866.4 711.9L781 682.3l30.2 63 40.3 56z"/><path class="st41" d="M781 682.3l-27.2 86.5 97.7 32.5z"/><path class="st35" d="M857.1 613.2l4 12.6 8.2 25.9 13.5-18.2 2.6-15.5-14.9-7.3z"/><path class="st34" d="M813.2 519.6l-3.3 85.7 75.5 12.7 21.2-50-18-46.4-34.9-3.6zM868.9 502l-5.5-7.9-14.4-5.3-12.2 3.3-8.4 10.2 20.9 2.2z"/><path class="st36" d="M852.6 530.5l-4 6-1.3 34.4 13.6-27.6 12.3-2.5zM839 536.1l-16.5-7.9 14.8 27.4zM888.6 521.6l-3.2 96.4 16.4-27.1 4.8-22.9-5.6-25.8z"/><path class="st40" d="M959.3 501.4l-49.1-2.9-40.5 3.5-20.8.1-20 .1-7.3-1.1-7.1 1.2-1.3 17.3 75.4 2 18.8 4.5 20.4-3.5 17.3 4.8 18.9-3.8z"/><path class="st29" d="M852.9 511.3l-8.6-9.2-9.3 8.9 9 9.4z"/><path class="st11" d="M959.3 501.4L948.4 456l-94.8 13.2-6.6 10.2 2 9.4 19.9 13.2z"/><path class="st27" d="M853.6 469.2l-35.8 5.3-3.3 27.8h13.9l20.6-13.5z"/><path class="st26" d="M873.2 540.8l-8-9-12.6-1.3zM839 536.1l-6.6-7.2-9.9-.7z"/><path class="st38" d="M858.1 552.7c-2.1 0-3.8-2.5-3.8-5.6 0-3.1 1.7-5.6 3.8-5.6 2.1 0 3.8 2.5 3.8 5.6 0 3.1-1.7 5.6-3.8 5.6zM829.7 550.7c-2.1 0-3.8-2.5-3.8-5.6 0-3.1 1.7-5.6 3.8-5.6 2.1 0 3.8 2.5 3.8 5.6.1 3.1-1.7 5.6-3.8 5.6z"/><path class="st37" d="M839 536.1l9.6.4-1.3 34.4-11.3-.9z"/><path class="st35" d="M847.3 570.9l-6 6.7-5.3-7.6z"/><path class="st40" d="M851.5 592.7l-11 6.3-8.6-7.6z"/><path class="st29" d="M866.4 585.1l-14.9 7.6-19.6-1.3-7.6-7.9 8.3 3.3 8.6-3.3 13.6 4.6z"/><path class="st27" d="M888.6 521.6l18 46.4 16.4-22.8 4.8-22.6z"/><path class="st11" d="M927.8 522.6l36.2 1 16.1 62.4 7.7 16.8-.1 12.7-39.5-17.7-41.6-29.8z"/><path class="st27" d="M906.6 568l-15.4 36.4 17.2 32.1 19.4 17 10.7 21.3 15.8 14.3 21.6-35.7 11.8-37.9z"/><path class="st11" d="M987.7 615.5l21.2 8.3 32.8 22.6-34.9 17.1-29.3 19.7-23.2 5.9zM891.2 604.4l-5.8 13.6-16.1 33.7 30.5 6.5 28-4.7z"/><path class="st26" d="M927.8 653.5l-9.8 39.2 6.5 32.6 26.8-21.8 3-14.4z"/><path class="st27" d="M924.5 725.3l52.9-24 29.4-37.8-52.5 25.6z"/><path class="st10" d="M1041.7 646.4L980.1 586l7.6 29.5z"/><path class="st40" d="M869.3 651.7l41 89.2 26.4-21.1-8.9-66.3z"/><path class="st41" d="M936.7 719.8l-26.4 21.1 7.7 65.4 46-13.4z"/><path class="st34" d="M964 792.9l6.4 10.6-33.2 7.9-19.2-5.1z"/><path class="st36" d="M970.4 803.5l20.7 16.3-27.6 1.8-26.3-10.2zM937.2 811.4l-12.7 8.4h-8.8l2.3-13.5zM804.8 690.6l-6.3 21.3-5.6-2.7-4.4-14.1 5.6-4.5zM765.7 675.6l-8.2 17.1 2.3 19.2 15.7-12.3-2-12.7z"/><path class="st34" d="M796.4 666.5l-30.7 9.1 9.8 24 29.3-9z"/></g><g><path class="st3" d="M1085.7 848.3h24.3v81.6h-24.3z"/><path class="st4" d="M1085.7 900.1l24.1 16.5v-68.3h-24.1z"/><path class="st5" d="M1011.5 866.6l91.7 29.3 35.2-36.9 45.4 9.1-45.1-97.9-85.3-.5z"/><path class="st6" d="M1103.2 895.9l80.6-27.8-40.7-87.8-40.8-.6z"/><path class="st4" d="M1156.9 809.9l-8.2-17.5-106.3-2-5.9 10.9 66.1 39z"/><path class="st7" d="M1009.5 795.4l76.2 29 34.2-39.4 66.1 15.4-55.2-81.6-74.6-2.7z"/><path class="st5" d="M1085.7 824.4l100.3-24-44.8-66.5-41.4 3.5z"/><path class="st4" d="M1092.3 780.6l.6.3 53.3-39.3-5-7.7h-.1l-3.4-5.1-84.9-6.7-9.1 15.3 48.6 43z"/><path class="st5" d="M1060.3 664.1l-36.7 67.1 58 17.8 44.5-30.5 46.7 20.1-50.1-70.1z"/><path class="st8" d="M1081.6 749l91.2-10.4-38.8-54.4-33.6 2.7z"/><path class="st4" d="M1090.1 721.5l.6.3 46.7-32.6-7.2-4.7-5.9-3.8-70.3-5.7-5.9 11.3 42 35z"/><path class="st7" d="M1070 633.6l-39.8 48.2 57.4 17.8 30.4-26 35.1 8.5-37.6-52.6z"/><path class="st5" d="M1087.6 699.6l65.5-17.5-29.2-40.5-9.1.9-15 .6z"/><path class="st4" d="M1129.6 649.6l-5.7-8-4.7-6.5-22.2-3.8-27 2.3-5.9 7.4 31.3 26.1z"/><path class="st9" d="M1100.1 578l-47.3 55.9 47 22.5 20.7-27.5 18.2 9.2z"/><path class="st5" d="M1099.8 656.4l38.9-18.3-38.6-60.1z"/></g><g id="bush_kopia_2"><path class="st0" d="M443.9 954.4l-153.8-26.2-35.4 9.4 10.2-12.8-63.9-15.2-94.5-41.1-85.4 42.6 58.3 59.2 63.9 10.8 29.9-8.2 152.1 46.9z"/><path class="st26" d="M31.1 865.5l21 40.5 28.1 6.3 52.2-21.2 9.3-40.8-64.2 23.5z"/><path class="st27" d="M19.3 857.8l19.9 23.3 35.6 11.3 19.9-24.9 42.2 3.8 14.8-28.1-40.6-16.7-45.2 23.8z"/><path class="st11" d="M19.3 857.8V835l49.3 7.1 23.2-25.3 41.9 3.5 18 22.9-57 24.3z"/><path class="st10" d="M19.3 835l51.8-47.7 44.7 8.4 17.9 24.6-67.8 30z"/><path class="st28" d="M74.8 892.4l5.4 19.9 52.2-21.2 4.5-19.8 14.8-28.1-35.9-47.5-77.9 23.1 16.5 27.7-15.2 34.6z"/><g><path class="st26" d="M187 968l41-34.9-7.9-20.2-12.1-60.3-41.9-22.9-26.5 28.7-39.8 27.3 12.6 67z"/><path class="st27" d="M238.6 888.8l-18.5 24.1-37.6 16.9-17.4 19.4-34.4-3-18.3 6.5-20.3-41.4 53 7.3 21-22.4z"/><path class="st11" d="M238.6 888.8l-56.1 41-37.4-11.2-53-7.3 7.7-25.6L208 852.6z"/><path class="st10" d="M208 852.6l-22.9 44.1-37.4 4.2-47.9-15.2 66.3-56 28.9-7.9z"/><path class="st27" d="M185.1 896.7l-85.3-11 45.3 32.9z"/><path class="st28" d="M208 852.6l2.3 56.9L187 968l-74.6-15.3 18.3-6.5 14.4-27.6-13.1-28.7 63-68.1"/></g><g><path class="st26" d="M60.2 951.9l19.2 18.4 46.9-14.8L137 934l-49.9 4z"/><path class="st11" d="M137 934l-10.7-20.1-45.4 17.2-30.1-6.2 9.4 27 24.5 2.3z"/><path class="st11" d="M50.8 924.9l33.9 29.3 41.6-40.3-42.7-8.8z"/><path class="st10" d="M66.1 915.7l7.8-40 25.9 10.5 26.5 27.7-58.7 25.5z"/><path class="st28" d="M79.4 970.3l5.3-16.1v-22.3l-10.8-56.2 25.9 10.5 14.3 15-29.4 30.7 41.6-18-13.9 29.1z"/></g></g><g id="isfj_kopia_2"><path class="st36" d="M348.8 903.8l12.2 39.5-9.1 12.6-29.1-27.7z"/><path class="st68" d="M361 943.3l28.7 5.6-7 9.8-11.5 6.9-12.6-3.3-7.8-9.7z"/><path class="st53" d="M389.7 948.9l10.2-.4 3.2 4.1-25.4 16.7-6.5-.7v-3z"/><path class="st34" d="M331 925.8l19.8 26.8-6.4 7.3-11.7 2.4-21.5-11.8 2.8-13.2z"/><path class="st53" d="M350.8 952.6l20.4 13-11.9 9.1-20.4 9.9-6.2-22.3z"/><path class="st23" d="M371.2 965.6l17.8 6.2.5 4.9-50.6 7.9z"/><path class="st66" d="M290.1 976.7l58.7-72.9-11.8-34.7-17.6-22.7-22.3 12.2-10.8 52.5z"/><path class="st69" d="M275.2 847.5l-35.8 56.3-18.8 61.8 69.5 11.1 7-118.1z"/><path class="st36" d="M322.8 823.7l19.8 2.6 12.3 27-17.9 15.8z"/><path class="st34" d="M322.8 823.7l32.1 29.6-9.2-29.6zM279.5 808.5l43.3 15.2-11.6 22.7-35.3-4.9z"/><path class="st67" d="M186.8 795.9l-9.8 27.8 4.6 13.4-15.1 16.2 54.1 112.3 54.6-118.1v-35.2l-30.6-16.4z"/><path class="st66" d="M244.6 795.9l31.3 45.6 3.6-33z"/><path class="st70" d="M260.2 661.5l29.9 10.9-14.4 32.5-10.5-21.1z"/><path class="st67" d="M141.5 687.8l-12.1-5.6-17.4-19.3 79.2-58.6 12.8 21.6 5.2 17.9-34.2 29.5z"/><path class="st71" d="M191.2 604.3l66.5 11.9 2.5 45.3-28.4-5.2-22.6-12.5z"/><path class="st69" d="M112 662.9l17 51.1 9.8-13.1 2.7-13.1z"/><path class="st68" d="M194.8 612.3l-3.2 2.2 4.2 9.6-7.7 5.3 2.7 6.3 8-5.2 4.1 8.7 3.3-2-2.2-11.3z"/><path class="st65" d="M194.8 612.3l4.6 1.1 3.9 8.1 9.5 2.3 1.2 6-7.7-1.6 4.1 9.4-4.2-.4z"/><path class="st25" d="M190.1 902.1l39 9.7 68-53.2 39.9 10.5-6-26.6L210.3 871l-43.8-17.7z"/><path class="st34" d="M260.2 661.5l36.1 101.4-49.6 19.7-8.3 54-54.1-48.8-35-21.4 17.4-15.3 11.9 13.6 3-60.2 14.7-14 18.3-4z"/><path class="st36" d="M181.6 704.5l33.3 90.2 31.8-12.1-8.2 12.1 4.9 9.2-5 32.7-89.1-70.2 17.4-15.3 11.9 13.6-4-27.5zM257.6 690.7l-13.2 30.4-6.4 14.2-34-23.4z"/><path class="st37" d="M225.8 703.2l12.2 32.1 10.4-3.8-12.4-32.4z"/><path class="st35" d="M248.4 731.5l-3.1 8.2-7.3-4.4zM246.7 782.6l-3.3 21.3-38-5.7zM179.2 774.4l-1 14.7-8.3-6.5zM174.2 770.4l-9.1-9.5-6.2 5.5z"/><path class="st38" d="M224.8 720c1.1 2.7.1 5.6-2.2 6.5-2.3.9-5.1-.5-6.1-3.1-1.1-2.7-.1-5.6 2.2-6.5 2.3-1 5.1.4 6.1 3.1zM255.4 708.2c1.1 2.7.1 5.6-2.2 6.5-2.3.9-5.1-.5-6.1-3.1-1.1-2.7-.1-5.6 2.2-6.5 2.3-1 5 .4 6.1 3.1z"/><path class="st70" d="M214.6 686.5l1.4-22.3-6.8-20.4-67.7 44-24.3 50.7 32.7-14.6 31.7-19.4 14.3-7.8z"/><path class="st31" d="M181.6 704.5l-3 60.2-11.9-13.6-17.4 15.3-32.1-27.9z"/><path class="st32" d="M209.2 643.8l51 17.7-26.2 18.8-19.4 6.2z"/><path class="st70" d="M225.8 703.2l-2.7-7.1-19.1 15.8zM236 699.1l21.6-8.4-24 1.5z"/><path class="st66" d="M229.1 756.7l24.9 4.6 13.7-19.6-16.5 13z"/><path class="st24" d="M238.6 755.8l9.5-9.3 12.7.6-9.6 7.6z"/><path class="st37" d="M237.1 849.4l62.8-12.8 4.4 9.8-7.2 12.2-65.6 34.3-.7-23.8z"/><path class="st36" d="M299.9 836.6l22.9-12.9 8.2 18.8-5.7 18.7-28.2-2.6z"/><path class="st37" d="M322.8 823.7l19.8 18.3-5.6 27.1-11.7-7.9z"/><path class="st71" d="M177 823.7l60.1 25.7-8 62.4-62.6-58.5z"/></g><g id="esfp_kopia_2"><path class="st0" d="M1100.5 1042l-226.1 30.7-64 6.9-86.9 6.9-80.5-25 176.4-41.3z"/><path class="st36" d="M1068.7 1027.1l17.9 2.8 11.9 8.4 2 3.7h-15.9zM987.9 1005.9l55.6 20.8 3.7 7.9-3.7 6.5-55.6.9z"/><path class="st34" d="M1043.5 1026.7l17.6-11.3 23.5 26.6-41.1-.9z"/><path class="st35" d="M987.9 1042l12.4-31.4-12.4-4.7z"/><path class="st0" d="M543.8 1032.9l30.9 13.2 43-12.3-43-15.3-41.7-.8zM555.9 999.1l32.8 3.1 50.8-12.3-45.6-7z"/><path class="st36" d="M720.2 1068l-37-63.3 2.2-8.7 8.7-9.8 59.6 70.5z"/><path class="st34" d="M777.8 1018.2l-36.6 58.4-21-8.6 26.1-65.4h31.4z"/><path class="st35" d="M694.1 986.2l-14-3.7-17.4-1.8h-5l-9.9 4.2 35.4 19.8z"/><path class="st36" d="M662.7 980.7l4.9-19.4-19.8 23.6z"/><path class="st35" d="M1024.5 948.5v17.4l-2.7.7-19.8-11.8z"/><path class="st34" d="M946.2 1044.4l2.3-24.3 12.9-25.8 18.1-59.4 11.2 14.3-.5 14.3-2.3 78.5z"/><path class="st36" d="M1024.5 948.5l-45-13.6 10.7 28.6z"/><path class="st62" d="M920.7 969.9l40.7 24.4-15.2 50.1-35.7 6.9v-38.9z"/><path class="st18" d="M888.7 994.3l32-24.4-10.2 81.4-19 3.7-4.7-30.3z"/><path class="st59" d="M842.4 975.3l8 35.7v33.4l-37.8 20.9 9.8-90.3z"/><path class="st61" d="M842.4 975.3l8 69.1 41.1 10.6-2.8-60.7-26.2-21.7-10.6-3.3z"/><path class="st35" d="M702.6 987.7l57.2 4.4 11.3 18.9z"/><path class="st59" d="M574 968.7l14.7 11.9-3.7 6-8.9-5.8zM564.9 1004.3l5.2 13.9-6.8 2.1-6.3-12.6z"/><path class="st72" d="M554.1 997.1l19.1-13.1 46.5-10.2-52.4 20.4zM531.4 1013.8l23.6-.6 41.8 13.8-22.1 6.8z"/><path class="st61" d="M564.9 1004.3l-7.9 20.1-9.9-4.1 8.9-18.4zM574 968.7l11 17.9-8.3 3.1-9.4-15.3z"/><path class="st59" d="M554.1 997.1l1.8 2 60.6-3.5 3.2-21.8zM531.4 1013.8l1.6 3.9 41.7 28.4 18.2-7.3 3.9-11.8-23.1 4.3z"/><path class="st31" d="M655.1 889.4l-8.3 18.5 25.8 11.8 9.3-31.8z"/><path class="st70" d="M683.1 854.9l-35.3 21.9 24.8 42.9 20.4-50.3z"/><path class="st30" d="M647.8 876.8l29.2 15.4 10.4 16.5-14.8 11z"/><path class="st58" d="M681.2 902.7l-22.7 24.5 16 16.5 2-11.8-4.3-4.5 6-6.6 4.5-5.2z"/><path class="st34" d="M777.7 959.9l-21 31-2.4-.2-24.7 1.4-27-4.4-39.9-7 20.4-125.8 72.8 63z"/><path class="st36" d="M742 941l-12.4 51.1 27.1 3.7 31.8 33.8 5.6-62.7-32.1-43.5zM697.7 894.3l2.1 4.5-4.3 25.9-8.8-22.2-3.5-8.5zM708.4 900.2l8.3-3.2 17.4 8.4-20.5 14.1-9.8 15.7z"/><path class="st35" d="M750.1 964.9l39.6 17.6.3-12.6-19.9-34.5-21.6 5.4z"/><path class="st37" d="M708.4 900.2l-8.6-1.4-5.7 34.8 9.7 1.6z"/><path class="st35" d="M703.8 935.2l-6 5.1-3.7-6.7zM681.8 863l58.9 82.4 14.8 6.5 1.2-15.5-40-39.4-33.6-42.1z"/><path class="st38" d="M688.2 902.3c-2.3-.3-4.5 2.3-5 5.8-.4 3.5 1.1 6.6 3.4 6.9 2.3.3 4.5-2.3 5-5.8.4-3.5-1.1-6.6-3.4-6.9zM720.1 907.1c-2.3-.3-4.5 2.3-5 5.8-.4 3.5 1.1 6.6 3.4 6.9 2.3.3 4.5-2.3 5-5.8.4-3.5-1.1-6.6-3.4-6.9z"/><path class="st70" d="M850.8 947.3l11.7 25.3-36.6 4.9-57.7-42.4z"/><path class="st30" d="M809.7 909.7l64.7 18.6-48.5 49.2-19.5 5.5-28.7-23.1-5.7-6.9-26.9-19.3z"/><path class="st32" d="M814.4 925.4l60 2.9-62.1-19.6-1.9 6.6z"/><path class="st70" d="M741.2 840.4l63.5 8.1 9.7 76.9-38.9-41.3zM673.3 840.6L742 941l83.9-2.3-70.7-49.3z"/><path class="st54" d="M673.3 840.6l49.1-22 103.5 120.1z"/><path class="st31" d="M697.9 884.6l-14.7 9.4 14.5.3z"/><path class="st58" d="M729.3 953.3l-31.9-10.5-22.6 3.3 17.6 31.4z"/><path class="st59" d="M719.5 954l-37.8-4.9 9.1 16.6 8.8 1.2z"/><path class="st19" d="M709.5 960.5l-23.3-3.1-4.5-8.3 37.8 4.9z"/><path class="st58" d="M753.7 940.7l-3.6 24.2 39.9 5-7.2-10-22.1-3.1 1.5-11.1z"/><path class="st73" d="M853.8 949.2l8.7 23.4-24.2-7.7z"/><path class="st31" d="M793.8 939.5l12.6 43.5-28.7-23.1-24-19.2z"/><path class="st61" d="M790 969.9l-12.2 48.3 10.7 11.4 5.6-39.9z"/><path class="st36" d="M788 1048.3l-64.5 12.9-4.2 5.3.9 8.7 67 4.4 2.8-16.9z"/><path class="st34" d="M790 969.9l35.9 7.6-15.5 102.1h-23.2zM723.5 1061.2l-19.7-12.9-5.9 15.7v10.6l22.3.6z"/><path class="st36" d="M703.8 1048.3l-26.1 24.4 20.2 1.9z"/></g><g id="fireplace"><path class="st0" d="M552.6 815h43.3l20.4-13.6 6.1 10.1 41.8-3 43.2-23.7v-9.4l15.3-20.3-63.6-24.1z"/><path class="st31" d="M629 782.6l-38.1-6.9v7.4l2.6 6.5 28.9 21.9zM497.1 752.7l-25.2-19.5v29.2l21.3 2.8z"/><path class="st30" d="M626.7 783.1l25.6-6.9 29.4-4.3 4.1 14.8-63.4 24.8zM593.5 807.5v-17.9l-20.3-1.7-20.4 1.7-.2 25.4z"/><path class="st30" d="M494.7 753.7l36.6 10.2 34 15-12.5 10.7-61.9-6.5zM676 765l27.7 3.9 4.4-23.7h-20.3l-14.5 6.1z"/><path class="st32" d="M590.9 775.7l82.4-24.4 8.4 20.6-55 11.2zM573 768.9l-50.6-19.8-15.9.1-11.8 4.5 69.1 24.6 6.7-3.9z"/><path class="st54" d="M494.7 753.7l27.7-4.6-13.9-21.4-36.6 5.5zM590.9 775.7l2.6 13.9h-40.7l20.2-20.7zM673.3 751.3l10.3-20.6 24.5 14.5z"/><path class="st18" d="M522.4 749.1l-27.7-43.7 42.4-34.9 56.4 46.5 68.4-90 45.5 55.3-23.8 48.4-10.3 20.6-82.4 24.4z"/><path class="st62" d="M593.5 717L537 670.6l-15-58 36.9-33.6 40.3 27.2 42.2-34.8 45.4 46.3z"/><path class="st18" d="M599.2 606.2L558.9 579l-8.4-14.6 90.9-16.7v23.7z"/><path class="st74" d="M558.9 762.4l-21.8-39.9 56.4-63-24.4-20.4 30.1-32.9 57.4 68.7-22.9 25.3 25.4 30.8-23.7 31.6-44.5 13.1z"/><path class="st75" d="M633.7 700.2l-40.2-40.7-28.2 67.9 25.6 48.3z"/><path class="st74" d="M569.1 639.1l24.4 20.4 34.2-19.2-28.5-34.1z"/><path class="st62" d="M550.5 564.4l30-37 60.9 20.3z"/><path class="st63" d="M580.5 527.4l34-20.8 26.9 41.1zM550.5 564.4l90.9 7-42.2 34.8-40.3-27.2z"/><path class="st62" d="M494.7 705.4l42.4 17.1-14.7 26.6zM659.1 731l48.3-48.7-34.1 69z"/><path class="st18" d="M558.9 579l40.3 27.2-30.1 32.9-47.1-26.5z"/><path class="st63" d="M627.7 640.3l59.1-22.6-41.2 43.9zM593.5 659.5L537 670.6l26.6 22.3z"/><path class="st58" d="M566.8 745.2l13.7-10.8 28.3 28.7-23.5 2.1zM583 726.2l10.7 10.6 10.3-7.2-8.5-17.3zM599.2 741.6l20-15.8 10.4 12.6-25.2 14.6z"/></g><g id="food"><path class="st0" d="M515.4 960.1l28.4-5.1 89.9-64.4-26.1-8.2z"/><path class="st71" d="M364.1 870.9l131.3-53.8L614.2 873l-99 72.1z"/><path class="st66" d="M364.1 870.9l-1.3 11.3 152.6 77.9-.2-15z"/><path class="st69" d="M515.2 945.1l99-72.1 2.1 20.2-100.9 66.9z"/><path class="st25" d="M415.9 882.1l12.2 9.5 31.3-9.5-28.9-10.7zM451.1 868.2l13.3 10.7 27.8-9.4-26.5-8.3zM471.2 897l-11.8 8.1 30.4 2.2 10-1.9 1.4 10.1 9.5 5.1 23.1-4-4.4-11.3 16.9-7.3 30.9.9 5.8-8.3-32-7.4 15.8-10.5 19.5-12.8-33.5-15.8-30.8 10-1.8 18.9-14.7 4.1z"/><path class="st40" d="M505.7 847.2l32.2 6.5 32.2-.9-15.3-26.9-16.2 6.4-11.6-8.8z"/><path class="st29" d="M538.6 832.3l-3.3-18.6 8.4.7z"/><path class="st41" d="M570.1 852.8l-26.4 24.1-20.6-3.8-17.4-25.9z"/><path class="st22" d="M451.1 868.2l-3.9-45.2 8.4 1.4 7.8-2.7 2.3 13.5-2.8 37.8z"/><path class="st23" d="M479.5 824.4l-9.5.2-6.6-2.9-.5 51.3 12.5-5.4z"/><path class="st53" d="M479.5 824.4l-16.2-6.4-16.1 5 16.1 6.3z"/><path class="st22" d="M415.9 882.1l-3.9-45.2 8.3 1.4 7.9-2.7 2.3 13.5-2.8 37.8z"/><path class="st23" d="M444.3 838.3l-9.5.2-6.6-2.9-.5 51.3 12.5-5.4z"/><path class="st53" d="M444.3 838.3l-16.3-6.4-16 5 16 6.3z"/><path class="st18" d="M484.7 859.2l45.8 24 4.7-15.1-45.7-14z"/><path class="st62" d="M530.5 883.2l-6.7 18.1-39.1-34.2v-7.9z"/><path class="st74" d="M535.2 868.1l39.3-4.4 3.6 10-52.2 9.5z"/><path class="st60" d="M525.9 883.2l52.2-9.5-4.1 8.1-50.2 19.5z"/><path class="st18" d="M578.1 873.7l-48.7 3.9-4.4 13.1z"/><path class="st74" d="M529.4 877.6l-44.7-18.4 40.3 31.5z"/><path class="st42" d="M489.8 882.7l9.2-13.1 22.2 16.6-22.2 7z"/><path class="st43" d="M521.2 886.2l-13.7 14.9-17 .9-.7-19.3 15 6.9z"/><path class="st46" d="M459.4 878l22.3-8.5 11.4 19.3-14.7 8.2-19-.9z"/><path class="st42" d="M459.4 896.1l32.8-7.3-14.6 14.8z"/><path class="st46" d="M515 892.7l4.6-16.5 16.4 5.7 2.2 11.3-11.6 2.2z"/><path class="st42" d="M538.2 893.2l-5.1 8.5-13.5 2-4.6-11z"/><path class="st46" d="M515.4 908.4l-3.6-12.9-12.9 4.4-1.7 8.9 9.1 1.7z"/><path class="st42" d="M497.2 908.8l4 6.7 10.6 1.5 3.6-8.6z"/></g></svg>