<svg id="illustration" xmlns="http://www.w3.org/2000/svg" viewBox="0 0 1170 350"><style>.st0{fill:#dddddc}.st1{fill:#c4c4c4}.st3{fill:#ccc}.st4{fill:#fff}.st5{fill:#7f7f7f}.st6{fill:#727272}.st7{fill:#8f8f8e}.st8{fill:#a3a3a3}.st9{fill:#919191}.st10{fill:#666}.st11{fill:#6d6d6d}.st12{fill:#757575}.st13{fill:#b7b7b7}.st14{fill:#a0a0a0}.st15{fill:#878787}.st16{fill:#5b5b5b}.st19{fill:#606060}.st20{fill:#444}.st21{fill:#ececeb}.st22{fill:#b2b2b2}.st23{fill:#8e8e8e}.st24{fill:#d3d3d3}.st25{fill:#999}.st27{fill:#474747}.st29{fill:#aaa}.st30,.st34{opacity:.2;fill:#2b2b2b}.st34{opacity:.1}.st35{fill:#709d53}.st36{fill:#5c753a}.st37{fill:#60af89}.st38{fill:#40795c}.st40{fill:#2b2b2b}.st41{fill:#3e8e6f}.st42{fill:#53af8a}.st43{fill:#2b614b}.st44{fill:#898989}.st45{fill:#c4c3c3}.st46{fill:#ebbea7}.st48{fill:#c1907c}.st49{fill:#98c26c}.st50{fill:#36795d}.st51{fill:#738d56}.st52{fill:#5a753d}.st53{fill:#ecebeb}.st56{fill:#e9bca6}.st67{fill:#6b6b6b}.st68{fill:#565656}</style><g id="bg"><path class="st0" d="M0 0h1170v350H0z"/><path class="st1" d="M60 0l428.5 351L0 350V0z"/><path fill="#f2f2f2" d="M60 0l87.1 71.4-43.5-14.5v19.8L74 82.9 43 41.5v35.4L28 67 0 108.4V0z"/><path class="st3" d="M860 113.8L763.7 18 656.8 130.5z"/><path class="st4" d="M763.7 18l65.5 64.9-21.7 3.4-22.6-29.4-5.1 12.7-13.9 7.3H745l-11.2-1.5 10.7-18.9-21.1 3.9z"/><g id="castle"><path class="st5" d="M660 33.7h13.7v33.8H660z"/><path class="st6" d="M660 32.9h13.7v2.5H660z"/><path class="st1" d="M673.7 33.7h-19.6l18.1-13.2z"/><path class="st7" d="M688.1 23.4h7.5v53.5h-7.5z"/><path class="st5" d="M688.1 21.8h7.5v3.3h-7.5z"/><path class="st1" d="M686.5 23.4h10.7l-5.3-12z"/><path class="st5" d="M693 33.7h-2.3v-4.4l1.2-1.2 1.1 1.2z"/><path class="st7" d="M672.2 18h12.6v58.9h-12.6z"/><path class="st5" d="M672.2 16.4h12.6v4h-12.6z"/><path class="st1" d="M669.5 18h18l-9-13.2z"/><path class="st8" d="M658.5 68.5l-6.1-1-9.6 1v23.8h15.7z"/><path class="st1" d="M642.8 68.5l15.7-10.2v10.2z"/><path class="st8" d="M703.6 64.5l6.2-1 6.2 1v27.8h-12.4z"/><path class="st1" d="M716 64.5l-12.4-6.2v6.2z"/><path class="st7" d="M707.9 52.1h-8.2l-.4 9 .4 15.8h8.2zM654.1 52.1h8.2l.7 12.4-.7 12.4h-8.2z"/><path class="st5" d="M654.1 51.3h8.9v2.4h-8.9zM698.7 51.3h9.2v2.4h-9.2z"/><path class="st1" d="M699.7 52.1h11l-11-12.3-.4 9zM662.3 52.1h-11.1l11.1-12.3.7 9.5z"/><path class="st8" d="M692.2 39.8v5.7h-2.5v-5.7h-7.5v5.7h-2.5v-5.7h-7.5v5.7h-2.5v-5.7h-7.5v37.1h37.5V39.8z"/><path class="st5" d="M684.8 76.9h-7.7V66.3l3.8-3 3.9 3zM672.3 56.9h-2.8v-5.5l1.4-1.5 1.4 1.5zM682.3 56.9h-2.8v-5.5l1.4-1.5 1.4 1.5zM679.9 32.9h-2.8v-5.5l1.4-1.5 1.4 1.5zM692.3 56.9h-2.8v-5.5l1.4-1.5 1.4 1.5z"/></g><path class="st9" d="M872 220.9L707.9 76.7l-53.8.2L184 350l741 1z"/><path class="st8" d="M617 350L863 0h307v350z"/><path class="st3" d="M863 0l-45.7 65L884 32.5l8 14.5 28-14.5L957 51l-32 57.4 20 5.4 63-86.8 22 11-14 36.3 20 2.6 10-46.9 23 3v23.9l45 56.9-8-63.8 28-18 36 32V0z"/><path class="st1" d="M684.8 76.9l-7.7 10.7 13.8 16.2-25.9 43.1 21.6 25.7-23.4 3-15.1-28.9 30-41.8-9.6-16.9 8.6-11.1z"/><circle class="st4" cx="215" cy="55.5" r="30.5"/></g><g id="forest"><path class="st10" d="M.5 305.7L32 286l46-2 46-16.8 48 24.8 51.3-6 16 15.7 39.4-17.7 71.3-22.7 31.3 10.5h47.2l26.8-10.5 8 13.3 55.2 6.1 68.5 9.6 13-19.3 42.8-3.8h42l13.7 7.4 24.9-13.3 38.5-16.1 31.1 8.3h42.5l14.5 18.3 31.3-28.1 109.4 2.1 3 11.9 49.6 3.6 10-22.7 32.7 1.4 8.3 13.5 21.7-12 28 2.2 12-13.6 14 13.6V350H0z"/><path class="st11" d="M887 257.7V350l17.7.5-2-93.9z"/><path class="st5" d="M807.7 350l9.1-92.3-10.5-1.1-17.2 93.4z"/><path class="st11" d="M991.3 267.2l2.4 82.8H976l2.7-88.7z"/><path class="st12" d="M559.2 303.6l8.1 46.4h-18.8v-46.7z"/><path class="st5" d="M407 287.6L395.3 350H377l13-69.3z"/><path class="st11" d="M216 309.1V350h14.7l-.2-34.8zM73.6 295l15.1 55H69.3l-14.7-56.4z"/><path class="st5" d="M16.7 309.1L13.3 350H0v-31.7z"/><path class="st11" d="M1092 274.6l19.3 75.4H1092l-14.7-82.8z"/><path class="st5" d="M1125.5 257.7l-5.7 36.7-8.5-32.4-4.6 3.3 11.1 42.3-6.5 42.4h18.7l16.7-92.3zM655.8 278l-1.3 30.7 12.1-25 3.2 3.4-15.7 32.6.7 30.3h-18.3l2.1-75.4zM1027.3 350v-82.8h-18.6l-3.4 82.8zM312.7 296.7V350h-17.4v-59.7zM258.7 350.5l6-42h-20.4l-5 41.5zM350.9 280.7l-6.5 31.5-7.9-3.7-7.8-18.2H324l5.3 24.9 13.6 4.3-6.4 30.7 23.5-.2 5.3-66zM500 290.3h-6l-10.7 22-9.3 3.7c-3.4-16.2-7-32-7-32l-17 4.7 8.5 61.3H480c.9.4-1.5-12.1-4.5-26.4l12.9-.3 11.6-33zM192 350l-5.3-41.4h-12L172 350zM158.7 296.7l-5.4 53.8-19.3-.5 5.3-64zM113.3 296.7l6 53.3-18.8.2v-48.7zM73.6 295v55H56l4.7-60zM44.7 293.3l6 56.7H32v-41.4zM413.3 350l8.1-66h13.4v66zM1164.7 261.3l-12 88.7h17.3v-88.7zM699.7 284l-10.2 66h25l7.4-72.1zM872.7 350l-3.4-82.8-19.3 4.6v31.7l-10.7-6.8v-18.8l-10.1 1.2 1.9 22.6 18.9 11.6V350zM1086 277.9l-5.3-3.3-10.7 14.1-1.3-17.7-15.4-3.8 2.7 83.8 18.7-.8-3.8-49.1zM970.7 254.7L956 287.3l-10.3 1.7 5-31.3-23.4-4.2-4.5 43.8-20.1-40.7-6 1.1 25.2 48.6-4.6 43.7H936l7.7-48.2 17.6-5.1 14.7-39z"/><path class="st13" d="M0 92.3l15.5-6.9 11.8 17.1 24 2.4 8 20.4 14.3-7.6 15.7 1.4 20.7 15.4 16-24.7 16.7.2 4.4 11.7 23.6-2.6 13.3 5.6 24.5-3 20.8 2.6 8.3 14.8 19.1 2.6L274 163v-17.1l18.7-7.7 10 10.9 14.6-20.8 28.7-3.6 5.3 7.8 25.7-22.7 21.5 8.8 4.8 11.9 13.4 2v12.6l17.3 5 9.3 14h15.2l3.5 11.3 18-1.9 8.5-12.4 8.5-11 13 5.8 5.3-17.7 16.7-9.9 16.5 7 6-12.5 22.5-1.1 2.9 10.3h23.4l25 4.7 17-4.7 8.8-10.3-3.4-11.7 16.1-7.5 6.9 8.6 11.1 2.7 3.3 9 15.2-1.1 8.4-14.4 23.5 1.1 6.7 10.7 34.7 13.4 11.9-14.8 13.4.9 9.6 3.1 5.8-16.8 18.2-10.4 13.1 8 8.1-18.7 20-15.8 10.6 20.5h18l39.7 25.3 3.7-19.3 17.3-9.6 11.7 15.1 26.3-11.5 8 14 22.7 5.9 6-13.9 17-8.2 17 2.2 5.7-17.1 18.3-6.9 10.3 9.8 13-5.8 16 11.4 5.3-15.4-9.3-10.7 11.3-11.8 14-8.3 10.7 1.7v161l-13.3 17.5-11.4-11.6-24.6 10.1-.7 19.3-24 5.3-24-14.6-25.3 12.7-14.7 18.4-25.3-8.3-8.7-15.1-29.3 15.7-29.4 10.8-45.8-30-12.2 17.1-18 6.2-20.6 11.4-7.2-11.4-29.2 6.7-10.7 12.4-19-7-30.4 9-5.7 11-28.8-4.1-12-17.2-19.4-.8-18.3 18-19.2-6.1-9.6 13.5-19.2 6-13.7 12.2-21-2.8-9.3 7.8-21.5-9.8-17.2 4.8-10-12.2h-14.6l-9.7-8.6-22.3 8-11.4-4.7-9.3-8.1-25.5 8.1-11.8-3.3-15.4-10.9-30 6.1-8-6.9-58 .8-6 17.5-18.5 4.5-26.8 24.5-9.7-9.8L232 294l-20.7 4-8-10-14.6 3.3-13.4-2.6-8-10.8-28 8.1-13.3 5.3-19.3-7.3-19.4 7.3-26.6-1.3-13.4 8-8 17.2H16.7L0 324.6z"/><path class="st14" d="M0 149.1l24-10.9 12 14.4 24 3.3-4.7 25.4 18.3 4.6 25.1-18.6 34 6.7 9.3 7.3 14.7-21.2 27.3-8.3 15.3 23.6 14 1.5 7.4 18.7 29.3-12.2 11.7-4 12.8 5 31.1 15.4 17.1-15.4 22-38.1 23.8 27.7 12.2-15.1 29.3 1.2 10 12.5 5.3 16.6 24.7-5.4 17 10.2 6.3 11.5 26-14.3 3.4-5.5 20.6-10.3 28 3.7 3.2-15 18.5-14 25.2 2.4-.7 25.3 11-17.7 30-10L660 165l22.3-23.2 24.4 7.1 7.8 8.1 18.3 1.9 11.2-13.8 27.3-.9 4.9 14.7 24.5-22.9 11.6-.9 18.8 16.7 16.9-12.4v-17.7h26.7l10.1 17 14.5 13.1 12.7-19.3 25.7 10.1 11.6 1.6 21.8 14-9.3-26.2 53.5-9.2L1026 136l8.3 5.1 9 17.1 17.4-4.9 9.3-25 22-5.1 11.3 5.1 6.4-19.9 13.3-18.1 21.8 2.2v7.3l14.5-7.5 10.7 2.2v155.4l-40.7-1.1-8 18.4-22-3.2-9.3-10.5-29.3 9.8v11.4l-30.7 3.2-6.7-6.9h-24l-5.6-17.5h-35L946 267.2l-25.3-9.5-27.2-1.1-23.5 1.1-16 17-18.5-7.5-28.7-4.5-18.3 3.7-18.5 8.2-26.6 8.7-36.4 6-16.3-17.5-26.7 11.3-17-.4-19 10.6-5.3 15.2L596 312l-13.3-3.5-19.4 3.5-18.6-3.5-26.2 3.5-8.5-14-21.5-8.7L467 296l-13-11.3-42.7 10.6-7.8-14-19.5-3.4-7 11.4-17-7.3-14.7-10.2-26 9.5-12 17.4-24-.7-5.3 10.5-11.3 6.7-2 8.5-31-2.6L222 300l-20 3.5-8.7-8.2L172 292l-5.3 8-19.6-10.7-15.8 8-22-1.3-12 7.5-19.3-8.2-23.4-1.7-3.9 14.9-17.4 11.8-18 .8L0 330.4z"/><path class="st15" d="M0 198.8l12-5.8 7.3 8.2L34 198l13.3 10.5-5.3 16 25.3 1.8 6.3-17 18.4-7 4.7 11.6 22-15.8h22l17 8.2 19.3-20.1 15.7 16.8 14.6 17.8 23.4-16.1 19.3 9.2-.3 19.2 15-13.7 13.3 7.2 8.7-18.4 22.6-10.1 20 10.4 7.4-19.3 18.6-3.3 21.7 12.2 6.3 11.2 23.7-23.6 13 10.7v14.9l17 2.6 18.3-12.7 17.4 13.5 7.3 25.2 38.5-6.8v-13l-5.8-19.5 15.3 4.1 32-21.8 21.7 23.6 9.6-14.2 17.2-3.1v20.1l21.5-8.8 9.2-21.8 21.6-7.6 21.4 17L699 181l29.3 2.8 21.7 1.9 10.5-10.8 28.1 2 9.1 5.1 9.8-6.1 21.7-15.8L848 168l12-9.1 14.8-5.1 27.2 18.8 14.7-1.5 8.3-19.3 20.8 15.1 8-5.4 22.2 1 4-6.6 13.7-5.8 25 8.8 6 12.2h10.6v-15.2l17.2 10.8 22.2-17.6 25-3.2 4.6 13.1 17.3 9 5.1-18.9 10.6-18.6 12 4 7.4 15.6 13.3 1.7v120l-26 6.1-12.7-10.7-31.3 4.6-8 12.2-31.3-9.3-34 9.3-10.7-12.2-22.3 8.9-21-13.5-22.6-4.4-8.8 11.9L925 271l-14.3-8.3-32 4.5-18.7 19.5-30.8-3.4-6.3-8.6-22.2-3.7-13.2 6.9-38.6 7.2-13.7 8.2-16.1-6-19.4 10.7-18.8-8-31.4 2-11 11.5-8.5-4.8-7.3 19.6-20.4 2.6-20.6 7.4-21-10.5H540l-30-6.5-8-12-22-1.3-7.3 10.5-35.7-13.8-22.3 4-24.7-8-30 4-2.7 8.8-30-5.5-15.3 5.5-23.3 5-14 16.5-28 7.2-24.7-11.1-22.7-12.6-18.6 15.2-20.7-5.9-12.9-11.8-30.4 2.5-12 9.8H73.6l-6.3-14.8-10.6 5-6 9.8-27.4 12.1-8-5.8L0 336.3z"/><path class="st14" d="M312.7 221.3l16.6-12.8 15.4-3.8 8 6.6 30.6-2 15.2 12v8.8l16.8 3.3-16.8 3.9-17.8 6.4-24-17.4h-35.4L304 240zM20.7 248L42 224.5l8.7 10.2 41.3 1.6 24 41.6L80.8 251 58 262.9 50.7 248l-34 9.7L0 248v-21.7h13.3zM407 253.5l8.6-9.8 21.4-2.6 13 9.6-21.5 2.8zM698.5 195.3L716 184l12.3-.2 16.7 11.5h13.4l17.9 6.7 3.7 11.9-13-9.2h-22l-14.6-8.7-19.7 2.8-18.4 5.5zM838.7 186.7L848 168h18.7l20.3 11.1 15-6.5 28.7 11.2 9.3 15-18-6.8-17.3-8.6-17.7 9.9-32.3-6.6-25.5 12.1zM997.3 213.9l8-22.6 22-7.9 11.4 4.6 7.3-16 23.7-4 21 7.6 27.3 15.3-19.3-4.2-21.4-7.6-28 9.9-12 9.8h-14.6z"/></g><g id="bigtree2"><path class="st16" d="M0 294.7l42-70.2-20-9-11 17.4-11 24.9z"/><path class="st5" d="M22 215.5l-8-3.8-8.5 5.9-5.5 8.7v31.5z"/><path class="st10" d="M14 211.7l-14-9.2v23.8z"/><path class="st6" d="M0 202.5L17.1 225l24.9-.5 8.7 10.2 46-20.8 3.8-25.8 33.5-28.3-7.1-19.7-9.4-17.2-32.2 10.9-39.3-2.5-16.7-13.8L0 126.6z"/><path class="st15" d="M100.5 188.1l-32.9-3.7L48 196.2H16.7L0 177.6v-61.9l26.7-9.8 32.6 19.4 30-6.2 34.3-5.7 10.4 46.4-33.5 4.2z"/><path class="st14" d="M0 159.8l28 8.2 39-13.5 13.7 17.4 19.8-7.9 9.4-28.8 17-7.2 7.1-22.1-30.4-29.2-32-15.3L43 76.9 32 57.6 0 78.1z"/><path class="st13" d="M0 126.6L28 168l22.7-31.1L84 143l17.9-26 25 11-7.6-36.2-30.6 2 14.9-17.1-22.3-24.2-38.3-11-26.3 11.9L0 52.5z"/><path class="st14" d="M50.7 136.9L.4 107.7 48 80.8l40.7 13z"/></g><path opacity=".2" fill="#fff" d="M0 0h1170v350H0z" id="Warstwa_16"/><g id="ent"><path class="st15" d="M602.3 156.8l3.7-14.2-7.8 9.9v3.2z"/><path class="st16" d="M577.7 171.9l24.6-15.1-13.8.8-11.8 5-1.7 6.5z"/><path class="st6" d="M573.4 157.6l24.8-5.1 4.1 4.3-25.6 5.8-3.3-5"/><path class="st10" d="M591.8 139.1l12.6 9.8 14.4-1.6 9.5-10.6-21.3 3.4-17.5-8.1z"/><path class="st6" d="M589.5 132v-7.8l12.8-3.4 10.4 9.7h8.1l7.5-6v12.2l-21.3 5.1z"/><path class="st13" d="M589.5 124.2l3.8-8.9 9-1.5 16.2-4.7 9.8 15.4-6 7.5-9.6-1.5-5.7 11.3z"/><path class="st15" d="M612.7 130.5l11.6-12.2-22-4.5zM551 151.5l6.9-14.6 7.3 25.7 3.5 29.7-16.4-28z"/><path class="st6" d="M557.9 136.9l7.3-2.7 11.5 28.4 5 43.9-8.3-7.1-4.7-7.1-3.5-29.7z"/><path class="st15" d="M566.6 127.7l10.1 34.9-6.9 1.4-5.9-8.3-6-18.8z"/><path class="st6" d="M602.3 223.4l6.2 24.3 8.5-4-2.7-16.7z"/><path class="st6" d="M581.7 206.5l20.6 6.8 10.4 6.8 2 8.5-16.5-10.2z"/><path class="st14" d="M581.7 206.5l26.8 2.8 4.2 10.8z"/><path class="st16" d="M581.7 206.5l32.6 20.5-34.4-1.9-1.4-8.8z"/><path class="st6" d="M503 161.5l48-10 17.7 40.8-19 9.1-21.7 3.3z"/><path class="st16" d="M528 204.7l23 1.8 7.7-2.5 10-11.7z"/><path fill="#7e7e7e" d="M568.7 192.3V204l-3.5 6.4-10.7 54.9h-11.9l-11.9-5.5 12-24.6 8.3-28.7z"/><path class="st9" d="M565.2 210.4l8.2.5 8.3-4.4-13-14.2-2 10.1z"/><path class="st16" d="M565.2 210.4L554.5 227l-2.2 11.8 2.2 26.5 9-26.5z"/><path class="st13" d="M565.2 210.4l-14.2-3.9-20.3 53.3 21.6-21z"/><path class="st16" d="M557.9 136.9l11.9 27.1-1.1 28.3z"/><path class="st6" d="M565.2 210.4l16.5-3.9-1.8 18.6-6.5 32.5-7.8 7.7h-11.1z"/><path class="st16" d="M551 206.5l-16.2 9-16.3 17.6 26-9.7z"/><path class="st13" d="M541 205.7l-22.5 14.4-1.5 4.4 1.5 8.6 32.5-26.6z"/><path class="st6" d="M518.5 220.1L500 208.4l6.7 12.3 11.8 12.4z"/><path class="st16" d="M518.5 233.1L497 216.6v-4.7l3-3.5zM608.5 247.7l-10.3 17.6 2.1 2.6 5.7-4.6 2.5-7.8z"/><path class="st16" d="M622.3 255.5l13.2 12.4-3.2 3.4-14.2-13.7 6.6 20.3-4.7 2.8-7.3-20.6-1.7 22.2h-5v-19l8.7-7.8z"/><path class="st13" d="M608.5 247.7l-2.5 15.6 16.3-7.8-5.3-11.8z"/><path class="st19" d="M500 208.4l-.7-17.2h-3.1l-2.2 10.4 2.3 4.1zM490.3 216.6l-13.3 3.5-1.3-3.5 15.7-4.5-17.1-3.5 1.7-3.9 16.8 1.8-10.8-11 3.8-3.2 8.2 9.3-1 8.3z"/><path class="st16" d="M554.5 265.3l-5.5 11.3-11.6-7.7-6.7-9.1z"/><path class="st6" d="M500 208.4l-6-6.8-3.7 15h6.7zM549 276.6l-23.3 20.1 4.2-18.8 7.7-11.8z"/><path class="st13" d="M530.7 259.8l6.9 6.3-11.9 30.6-4.8.7-5.6-2.6z"/><path class="st6" d="M525.7 296.7l4.2 5 4.1 14.8-6 .5-2.3-2-10.4-20.2z"/><path class="st16" d="M534 316.5l-3.3-24.1-5 4.3z"/><path class="st6" d="M554.5 265.3l9.4 9.3 12.8 24.9-27.7-22.9z"/><path class="st13" d="M576.3 261l.3 29 1.9 6.7-1.8 2.8-22.2-34.2 12-4.3z"/><path class="st15" d="M534 316.5l-3.3 14.6-6.1 10.4-16.9-5.9 18-20.6z"/><path class="st16" d="M534 316.5l4 11.8-3.2 16.8-10.2-3.6z"/><path class="st10" d="M576.7 299.5l7.5 30.9 7.6 19.6 16.7 1-13.7-30.9-18.2-31.3z"/><path class="st16" d="M576.7 299.5L585 350h6.8z"/><path class="st13" d="M576.6 288.8l23.7 22.3-5.3 2.6-6.4-1.4z"/><path class="st16" d="M600.3 311.1l8.2 39.9-19.9-38.7zM579.9 225.1l-25.4 40.2 18-3.6 3.8-.7z"/><path class="st10" d="M488.5 161.1l30 5.8 32.5-15.4 6.9-14.6 22-4.9 22.4-18.2 3.7-23.5-17.5 13.5-23.3-3.8-8.9 15.3-25.6 3-24.4 12.2-6.3 9.6-23 7.6z"/><path class="st6" d="M477 147.7l-10-17.2 21.5-22.8 16.2 15.9 25.2-15.9h12.7l20.3-17.4 17 6.9 22.5-21.9 3.7 14.9s-12.2 17.5-14.1 17.4c-1.9-.1-23.8 0-23.8 0l-17.1 20h-26.4L503 151.5l-26-3.8z"/><path class="st14" d="M602.3 75.4L581.7 100l-17.8-6.2-16 17.9-17.2 2.2-27.7 14.3-36 2.3v-18.8l19.7-36.3 26.3-2.5 15-19.1 43.3-1.3 17.2 8.9z"/><path class="st13" d="M575.3 51.3l13.2 10.1-1.8 16.5-22.8 15.9-26.3 1.9-17.3 8.9 10.4 9.3-30.7 4.4-19 11.3-14-17.9v-7.9l15.3-30.9 29.7-9.6 22-15.9z"/><path class="st15" d="M503 128.2v23.3l-26-3.8zM530.7 113.9l-6.1 13.8H551z"/><path class="st6" d="M579.9 132l-11.8-24.3-10.2 29.2zM518.5 166.9l19.3-22.5-13.2-16.7-14.5 28z"/><path class="st16" d="M515.3 175.5l12.7-13.1 19.9 1.9-7.6 14.9z"/><path class="st20" d="M541.1 167.2c.8 2 .5 4.1-.7 4.6s-2.9-.8-3.7-2.8c-.8-2-.5-4.1.7-4.6s2.8.8 3.7 2.8zM527.1 171.9c.8 2 .5 4.1-.7 4.6s-2.9-.8-3.7-2.8c-.8-2-.5-4.1.7-4.6s2.8.7 3.7 2.8z"/><path class="st9" d="M528 162.4l4.5 20.6 7.8-3.8z"/><path class="st16" d="M540.3 179.2l-2.3 7.2-5.5-3.4zM527.7 193l30.2-10.2.8 2.8-28.8 9.5z"/></g><g id="elf"><path class="st16" d="M302.2 204.7l1.8 28.4 7.1 5.7 12.3 2.3-9-19.3z"/><path class="st6" d="M309.3 195l-7.1 9.7 26 44.6 54.8-10.5-27.5-64.5-16 2.5z"/><path class="st21" d="M316.7 185.1l-7.4 9.9 19.8 2.7 12.2-20.9-13.3-.2z"/><path class="st4" d="M256.7 141.7l32.3-30.4 5.3 14.7-22 15.7z"/><path class="st21" d="M289 111.3h38.7L336 126l-43.7.5z"/><path class="st22" d="M336 126l8.7 25.5H328l-3.7-14.3-7.6 12.5-7.4 2-17-25.2z"/><path class="st23" d="M344.7 151.5l-3.4 25.3-9.3 1.3-4-26.6z"/><path class="st21" d="M256.7 141.7l21.3 51.2 20.4-8.3 14.3 2.3 10 2.3 7.3-11.1-5.7-40.9-7.6 12.5-7.4 2-17-25.2z"/><path class="st24" d="M292.3 126.5l21.7 52.6-15.6 5.5 15.1 2.8 9.2 3.8 9.3-13.1-6.7-43.9-10.6 13.5-3.4 2z"/><path class="st8" d="M298.4 184.6l22.3-9 2 15.6zM328 151.5l-6.7 1 7.8 6.4zM323.7 149.7l-2.4-3.8 3.4-5.2z"/><path class="st24" d="M269 156.8l7-7.1 4.7-2.4h14.6l-6.3 20.8z"/><path class="st4" d="M280.7 147.3l8.3 20.8-3.1 1.3-9.9-19.7z"/><path class="st8" d="M289 168.1l-1 2.7-2.1-1.4z"/><path class="st25" d="M256.7 141.7l71-30.4 4.3 7.6-72.3 30z"/><path fill="#c1c1c1" d="M272.3 135l4.5 2.3-1.7 5.2-4.8-2.7z"/><ellipse transform="rotate(-10.642 291.10901655 155.52638033)" class="st27" cx="291.2" cy="155.6" rx="2.2" ry="2.8"/><path class="st27" d="M278 160.9c.5 1.4 0 2.9-1.1 3.3-1.1.4-2.5-.4-3-1.9s0-2.9 1.1-3.3c1.2-.4 2.5.4 3 1.9z"/><path class="st25" d="M295.3 147.3l-2-2.1-12.6 2.1zM269 156.8l-.8-3 7.8-4.1z"/><path class="st8" d="M280.7 177.3l9.6-2.3 9.4-5.6.8 2.4-9.3 5.5-9 1.8z"/><path class="st16" d="M341.3 176.8l-17.9 64.3 4.8 8.2 21.3-73.8z"/><path class="st16" d="M328.2 249.3l-8.8 22 63.6 7.3v-39.8z"/><path class="st10" d="M319.4 271.3l-6.6 15.5 16.3 8.9 18.9-21.1z"/><path class="st16" d="M312.8 286.8l1.2 17.6 15.1-8.7z"/><path class="st25" d="M323.4 241.1l55.9-11 3.7 8.7-54.8 10.5z"/><path class="st21" d="M304 233.1l-8.7 14.2 4.6 6.2 6.6 3 16.9-15.4z"/><path class="st8" d="M295.3 247.3l-7.9 8.2 11 11.8 8.1-10.8z"/><path class="st6" d="M273.8 192.9l15.2 54.4-2.9 4-4.7 2.2-12.4-58.4zM307.5 271.7l35.1 27.8-3.3 4.9-38.8-25.8 2.4-4.3z"/><path class="st16" d="M289 247.3l2.8 3.7 5.5 9.6 3.9 2.8 6.3 8.3-7 6.9-19.1-25.1z"/><path class="st24" d="M287.4 255.5l-2.1 3.2-1.9 3.9 11.9 9 5.9-8.1-2.4-3.3-6.5-1.5z"/><path class="st4" d="M295.3 247.3l-7.9 8.2 7.9 7.4 3.5-2.7-4.4-5.7 6.1-3z"/><path fill="none" stroke="#727272" stroke-miterlimit="10" d="M273.8 192.9l68.8 106.6"/><path class="st24" d="M344.7 223.2l3.3-1v7.3l9.3 4.9-1.6 14.9-11-12.4 2-6.8z"/><path class="st23" d="M348 229.5l5.2 9.3 2.5 10.5-4.5-10.5z"/><path class="st8" d="M285.3 258.7l10 12.9-12.8-8.7z"/></g><g id="elf2"><path class="st24" d="M234 302.9L212 342l9.2 6.6-18.1.9 10.6-40.6z"/><path class="st21" d="M218 307.6l-11.7 36.2 6.3 3.4L199 350v-36.8z"/><path class="st8" d="M199 334l13 8 6.7-12-12.2-1.3z"/><path class="st21" d="M193.7 220.9l23.8 9.7 19-7.5-22.8-20-9.2 6.8z"/><path class="st6" d="M252 159.8l-43.8 23.4-6.4-9.8-.8 9.5 3.5 27-10.8 9-16.7-32.7 15.4-23.3 10.4-13.6 35.5-2.1z"/><path class="st15" d="M238.3 147.2l-45.9 15.7 10.4-15.6z"/><path class="st16" d="M199 182.9l-22 3.3 16.7 34.7 10.8-11-.2-9.3z"/><path class="st21" d="M252 159.8l-3.8 46.1-17.5-1.2-12.7 12-11.5-6.8-6.5-26 1.8-10.5 6.4 9.8 11.3-7.6z"/><path class="st24" d="M219.5 175.6l-.7 28.3 11.9.8-7.2 6.2-5.5 7.8-13.5-8.8-5.5-27 2.8-11.5 6.4 9.8z"/><path class="st8" d="M230.7 204.7l-17-1.6 4.3 15.6zM200.7 191.2h5.8l-4.6 6zM200.8 180.6l3.9.3-1.1 7.3z"/><path class="st24" d="M223.5 173.7l24.7 1.4-14.2 13.1z"/><path class="st4" d="M234 174.3v13.9h3.6l1.5-13.6z"/><path class="st8" d="M237.6 188.2l-1.8 2.2-1.8-2.2z"/><path class="st25" d="M223.5 173.7l9.6-1.8.9 2.4zM239.1 174.6l.9-2 8.2 2.5z"/><path class="st27" d="M231.6 179.4c0 1-.8 1.9-1.8 1.9s-1.8-.8-1.8-1.9c0-1 .8-1.9 1.8-1.9s1.8.9 1.8 1.9zM244.6 180.3c0 1-.8 1.9-1.8 1.9s-1.8-.8-1.8-1.9c0-1 .8-1.9 1.8-1.9s1.8.9 1.8 1.9z"/><path class="st6" d="M229.7 193.8l5.1-1.4 5 1.8-5 2.3z"/><path class="st15" d="M229.7 193.8l5 3.9 5.1-3.5-5 1.3z"/><path class="st29" d="M252 159.8l-56.1-2.2-5.1 7.8 60.6 1.4z"/><path class="st16" d="M193.7 220.9l24.3 18.9 18.5-16.7-19 6.5z"/><path class="st6" d="M194.7 223.9l23.3 13.9 16.5-11.7-1.5 14.7-9.5 23.9 5.2 18-22.2 3.3-26.7-5.4 16.1-23.1z"/><path class="st30" d="M192.4 262.5l14.7 4.7 6.6 6.2 11.5-2.9-1.7-5.8-7.2-7.6-17.3-2.6-3.1 3z"/><path class="st14" d="M218 237.8l15 3 2.8-7 .7-10.7zM193.7 220.9l24.3 16.9-23 3-2.6-5.3z"/><path class="st24" d="M193.7 220.9L177 251.4l13.8-4.5 4.2-6.1zM236.5 223.1l4.5 34.4-10.3-2-3.7-2.1 6-12.6z"/><path class="st21" d="M195 240.8l14 13.3v7.7l-32-10.4zM229.5 248.2l-6 7.3v9.2l17.5-7.2z"/><path class="st24" d="M223.5 264.7l-3.6 2.2-4.2-7.3 7.8-4.1z"/><path class="st8" d="M215.7 259.6l-3.8 1.2-.6 6.1h8.6z"/><path class="st24" d="M209 254.1l7.3-4.8-.6 10.3-6.7 2.2z"/><path class="st8" d="M216.3 249.3l7.2 6.2-7.8 4.1z"/><path class="st16" d="M179.8 280.6l19.2 32.6 20.6-2.7 14.4-7.6-5.3-20.2z"/><path fill="#515151" d="M234 302.9l.7 23.9-43.9 8.9 8.2-22.5z"/></g><g id="big_x5F_tree"><path class="st16" d="M413.3 303.3l4.1-63.4-18.9 34.7-6.5 23.9z"/><path class="st6" d="M392 298.5l25.4-58.6-12.7-18.9-20 35.6-16.2 41.9z"/><path class="st10" d="M368.5 298.5l-23.8-4.9 53.8-77 6.2 4.4z"/><path class="st16" d="M404.7 221l-47.4-68-12.6-1.5 38.3 87.3z"/><path class="st10" d="M417.4 239.9l6.7-15.4-49.4-78.6-17.4 7.1z"/><path fill="#777" d="M424.1 224.5l5.1-17-24.5-68.4-30 6.8z"/><path class="st16" d="M429.2 207.5l62.8-99.8-12-3.9-55.1 91.7z"/><path fill="#686868" d="M424.9 195.5l55.1-91.7-13-3.8-45.8 85.1z"/><path class="st16" d="M421.2 185.1L467 100l-8.6-1.6-42.7 71.3z"/><path class="st15" d="M269.3 92.3l40 12.3-5.3 25.3 40.7 21.6L365 164l28-21.4 16.5 9.8 7.2-19.9 18.1-12 27.3-11.4 24.1 7.9 32.3-8.4 19.1-24.1 36.4-4.6 34.5-23v-24l28-32.9H172l20 35.4 31.3 4.4 16 36.9z"/><path class="st14" d="M223.3 0L210 16.4l13.3 23.4 54.7 6.1v15.5l38.7 18.5 12.6-18.5 19.1 11.2 7.3 8.4 4.6 9.3-24.3 17.4 38.7 24.3 18.3-27.4 57-18.3 30 9.4L500 66l37.6 18.5 10.9-34.6 30-14.5-3.2-19L608.5 0z"/><path class="st13" d="M264.7 0l-20.4 17.4L278 45.9l26-11.7 26.7 1.2-1.4 26 45.4-4.5 5.3-28.8 44.9-1-11.6 20.3L450.6 66l34.7-20.1L500 66l37.6-20.1-19.1-22.5 21.5-12 35.3 5L578.5 0z"/><path class="st34" d="M278 61.4l-38.7 15.3 30 15.6zM316.7 79.9l19.3 27.8-26.7-3.1zM393 104.6l23.7 27.9-23.7 10.1zM450 86.3l12.1 22.8L480 95.7zM578.5 35.4L574 79.9l-25.5-30zM608.5 32.9l-33.2-16.5 3.2 19zM413.3 47.4l-38.6 9.5 18.3 47.7zM304 34.2L264.7 0H332zM374.7 132l-30 19.5-40.7-21.6 32-22.2zM450.6 66l-.6 20.3-36.7-38.9zM485.3 45.9l13.4-30.6L509.3 0H450zM414.8 20.2L450 0h-38.6zM518.5 23.4l21.5-12 8.5 38.5-10.9-4z"/><path class="st13" d="M172 350l52-10.7 66-38.5 54.7-7.2 50.8-3.3 58.5 4.4 23 30 71.5 25.3z"/><path class="st14" d="M172 350l52-10.7 54-12.6 20.4-6.7 72.9 4.6 33-14.2 72.7 14.3 71.5 25.3z"/><path class="st15" d="M224 339.3l54-12.6 20.4-15.6 72.9 13.5-86.6 8.7 10.6 16.7-30.6-13.7zM371.3 324.6l-26.6-31 57.3 8.1 75 23-47.8-3.3 44.3 29.1-32.2-.5-34.3-34.7z"/></g><g id="text"><path class="st35" d="M313.5 26l11.3-7.9 11.5 16.1L322 82.7l-9.5-4.8L323 35.4z"/><path class="st36" d="M324.8 18.1l8.1-4.8 12.6 16.8L332 86.5l-10-3.8 12.8-47.9z"/><path class="st37" d="M395.7 61.4l-8-49.8-12.9 2.6 9.2 32.9-37-29.4 5.3 50.3-3.9 4.6 7.3 10.1L363 76l-3.3-33.2z"/><path class="st38" d="M357.8 39.5l34.5 20.1-4.6-48h10.7l2.2 62.3-37.3-24.4 7.6 24.4-10.6 16.4-4.6-7.6 7.2-8.8z"/><path class="st35" d="M447.7 46.1l9.9-5.8-6.4-13.9-36.4-6.2-13.1 58.4 9.5 3.4 11.7-51.4 19.8 3.6z"/><path class="st36" d="M447.7 46.1l-6.3 4.7-5.8-13.9-9.4-.8-1.9 13.2 9.5 8.3-11.7 3.2-2.2 24.1-8.7-2.9 10.9-53.3 21.5 3.5z"/><path class="st37" d="M459.3 31.2l6-10.9 33.4-5 8.1 54-22.5 20L463 73.5l5.7-8.3 16.5 11.5 10.1-9.8-6.1-38.2h-15.7l-8.5 8.5z"/><path class="st38" d="M465 37.2l9.3 7 7.9-11 5.8 32.5-1.5 3.6-13.2-10-4.6 5.9 17.4 13.6 11.1-11.7-7.2-41.8-18.6 1.7z"/></g><g id="ground"><path class="st13" d="M1170 341.4l-58.7-13.9-163.5-17.8-118 16.6H733.4L654.8 350H1170z"/><g opacity=".17"><path class="st40" d="M905.4 330.4l61.6-5.9-25.5 10.1 78.6 11.9 53.2-14.9 43.9 12.7 41.3-5.6-47.2-11.2-163.5-17.8-118 16.6 13-1.8zM829.8 326.3H733.4l45.5 12.2z"/></g></g><g id="infj"><path class="st41" d="M812.3 298.5l5.2 16.1-7.2 5.8-10 1.8-9.4-16.4zM739.5 305.2l1.4 11.3 9 3.9 9.6 1.8.8-5.2z"/><path class="st42" d="M817.5 314.6l12.3 11.7H801l-.7-4.1zM759.5 322.2v4.1h-26.1l7.5-9.8z"/><path class="st43" d="M812.3 298.5L798 318.2l-7.1-12.4 10.7-5zM739.8 307.8l19.7 14.4.8-5.2-8.9-5.9z"/><path class="st44" d="M800.6 159v12.3l4.5 1.6 7.7-19.9z"/><path class="st45" d="M802.2 150.1l-4.5-8.3-.8 18.1 4 1.2 11.9-8.1z"/><path class="st44" d="M812.3 135.1l-17.3.8-1.5 7.2 5.3 5.3 3.4 1.7z"/><path class="st0" d="M796.5 115.1h-.4v21.8l16.2-1.8z"/><path class="st46" d="M820.4 230.1l5.9 6.9 2.6 2.9-3.3 3.6-7.8-11.5zM828.9 239.9l1.1-5.1 7.1-6.2 4.4 10.4-5.2 8.7-7.4-7.8z"/><path fill="#fcd9c6" d="M833.2 220.1l3.9 8.5-6.4 8.7-1.8 2.6-6.1-6.2z"/><path class="st48" d="M820.1 229.8l11.3-13.5 2.5 5.4-11.1 12-2.4-3.6z"/><path class="st49" d="M799.9 165.9l26.4 34.7-31.4-7.6-10.2-17.1z"/><path class="st50" d="M822.8 233.7l-16.4-5.5-3-5.1 17.6 5.5 11.2-20.2 2.9 3.7z"/><path class="st51" d="M826.3 200.6l5.9 7.8-11.2 20.2-5.2-1.6-20.7-34z"/><path class="st52" d="M784.7 175.9l31.1 51.1-12.4-3.9-25.8-42.7z"/><path class="st53" d="M772.2 73.8l6.7 6.5 12 4.1-11.1-14.8-9.2-2.7-.9 4.4z"/><path class="st0" d="M770.6 66.9l-18.8-5.5 3.8 12.4 6.8 10.6 6.3-3.7 3.5-6.9z"/><path class="st45" d="M732.6 76.4l2.9 2.5.3-.4 10.7 5 15.8 1 .1-.1-10.6-23z"/><path fill="#848484" d="M713.7 91.4l9.1 29 3 .1 6.8 4 3.2-22.8-6.4-6.8 6.4-16.4-2-3.1z"/><path fill="#f8d9c5" d="M670 169.7l-10.6-3.7-3.9 11.7v10.4l12.5 4.2 2-10.1z"/><path class="st56" d="M655.5 188.1l-16.3-9.4 1.3-12.9 9.1-.4 8.4 1.5.4 6.5z"/><path fill="#fbe9df" d="M670 169.7l-10-4.7-10.4.4-.8 4.3 20.5 8z"/><path class="st52" d="M668 192.3l9.8 13 4.4 1 24.5-1 22-10.3 2.1-5.2-2.1-5.2-24.6 11.9z"/><path class="st44" d="M740.5 164.3l-30.3 5.9 4.9 8.1 27.6-7.5z"/><path class="st45" d="M730.2 154.1l-15.5 4.3-4.5 11.8 8.4 2.7 12.2-11.2z"/><path class="st44" d="M730.2 142.3l-23.5 6.6 8 9.5 14.7 2.7.8-7z"/><path class="st0" d="M728.3 127.7l-4.3 1-3.2-4.2-14.1 24.4 22-3z"/><path class="st49" d="M699 181l.4 8.8 5.2 8.4 24.1-13.6-3.6-6.4-6.5-5.3z"/><path class="st51" d="M699 181l-23.3-9.1h-4.4l-3.3 20.4 36.6 5.9z"/><path class="st50" d="M675.7 171.9l-1 21.3 7.5 13.1-5.5.2-8.7-14.2 2-22.6z"/><path fill="#758d53" d="M728.6 210.8l-7.8 88.5 39.5 17.7 52-18.5-16.1-59.7-5.2-32.3-29.4 8z"/><path class="st49" d="M740 212.4l20.5 98.7 17.1-100.2-10.2 1.5-11.8-1.1z"/><path class="st50" d="M721.3 293.5l39.2 17.6 50.4-17.6 1.4 5-52 18.5-39.5-17.7z"/><path class="st51" d="M728.7 184.6l1.5 14.8-1.6 11.4 25.8 3.7 12.6-.2 21-6.8v-23.4z"/><path fill="#446125" d="M728.7 184.6l11.3 27.8-11.4-1.6z"/><path fill="#c3c3c3" d="M796.1 114.7v.4h.4z"/><path class="st23" d="M796.1 115.1v.2-.2z"/><path fill="#728c56" d="M794.6 198.2l8.7-3-4.3-8.8z"/><path class="st42" d="M767.4 207.5l1.1.8-1.1-.8z"/><path fill="#35785d" d="M795.9 186.6l-4.4 11.8-.5 1 3.6-1.2 4.4-11.8-1.7-3.4z"/><path class="st42" d="M762.1 166.5l-.5 8.1-26.4 11.8 24.4 29.1 28.4-31.4-5.7-31.7z"/><path fill="#73c6a4" d="M735.2 186.4l28.5-10.7-14.4-7.7-19.9-6.9-10.8 11.8z"/><path class="st43" d="M782.3 152.5v-.1l-.1.1z"/><path class="st50" d="M761 211.8l-38.9-42.7-3.5 3.8 35.8 41.6 6.9 21.3 5.7-21.5 17.2-22-3.7-3.9zM762.1 166.5l-31.9-12.4-.8 7 34.3 14.6z"/><path fill="#fbd9c6" d="M802.2 150.1l-11.3-65.7-18.7-10.6-9.9 10.7-26.5-6-.6 1 6 15.4 14.5 67.9 22.5-6.2z"/><path fill="#fde9e0" d="M772.3 98.4l5.5 7.8 4.8 21.5-7.7 1.7-4.2-21.2-6-8.5z"/><path class="st52" d="M759.5 94.9l.9 2.7-9.7 7-1.3-3.1zM773.7 92.5l1 3.2 9.5 1.6v-1.5z"/><path class="st56" d="M750.7 104.6l22.8 17.9-2.8-14.3-6-8.5 7.6-1.3 5.7 8.6 1.8 8.2 4.4-17.9-9.5-1.6-14.3 1.9z"/><path d="M784.6 107.1c.5 2.1-.1 4.2-1.2 4.5-1.1.3-2.4-1.1-2.9-3.3-.5-2.1.1-4.2 1.2-4.5 1.2-.3 2.5 1.2 2.9 3.3zM762.9 112c.4 2.3-.4 4.5-1.9 4.9-1.4.4-2.9-1.1-3.3-3.4-.4-2.3.4-4.5 1.9-4.9 1.4-.4 2.9 1.1 3.3 3.4z"/><path class="st56" d="M742.5 89.9l-6.7-11.4-9.2 17.4 7.2 4.2L732 123l-6.3-3.6-2.9 1-6.1 2.3 5 14.6 5.2-1.3 3.9.2-2.1 9.7 1.5 8.2 22 8.5 3.4-.4z"/><path class="st48" d="M726.9 136l1.8 9.9 4.9-11.7zM763.7 166.8l-.9-5.7-7.2 1.1-3.4.4 11.1 4.3z"/><path class="st7" d="M782.6 127.7l-7.7 1.7 5.3 2.6z"/><path class="st48" d="M720.8 124.5l8.6 3.7-2.3-5.7z"/><path class="st45" d="M774.9 129.4l-16.5 14.9 10.1 58.5 19.7 17.4.6 4-2.6 5.3 10 9.3-8.9-67.5-7.1-39.3z"/><path class="st53" d="M797.7 218.6l9-23-9.8-58.6-14.3-9.3-2.4 4.3 16 106.8 5.5-10.8-4-4.7z"/><path transform="matrix(.9885 -.1514 .1514 .9885 -24.4297 122.6435)" fill="#44612d" d="M787.3 219.2h11.2v5.1h-11.2z"/><path class="st52" d="M789.6 137.8l-8.2 3.5h-14v-3.1l13.7.6 8-3.7z"/><path class="st42" d="M719.4 266.4l-1.7 1.5 3-.5 8.1-20.8-3.9 2.8z"/><path class="st50" d="M717.7 267.9l1.7-1.5 5.5-17 3.9-2.8-1.8-9.4 7-5.7-1.5-3.6 3.6-11.3 2.7.8.8-2.1 3.5-12.4-7-.4-6.2 25.5-7.4 7.5 1.5 11.8z"/><path class="st42" d="M736.1 216.6l-3.6 11.3 1.5 3.6 4.8-14.1z"/></g><g id="man"><path class="st67" d="M953.8 161.5l21.7 62-29.7-10zM874.8 153.8l-31 50.2 31-2.3z"/><path class="st29" d="M934 151.9l19.8 9.6-11 86.4-35.3 3.1-36.9-3.1 4.2-94.1 18.9-3.5z"/><path class="st67" d="M886.5 143l-4.2 9.9 24.2 25.3 37.5-21.4-6.9-12.8z"/><path class="st12" d="M876.7 68l47-3.5-31.2 13.8-7.7-3.4z"/><path class="st10" d="M923.7 64.5l33 27.2-33.3-7.9-30.9-5.5z"/><path class="st12" d="M924 80.8l32.7 10.9v6.6L934.3 97z"/><path class="st10" d="M936.8 94.7l-17.5 23.5 11.2 7.7 6.4-7.7 10.1.9 9.7-20.8z"/><path class="st21" d="M876.7 68l-15.9 66.1 24 7 23.9 20.4 22.8-11.8 12.5-29.6-7.5-3.4-7.5 9.2-10-9 14.8-21.8-9.8-14.3-31.5-2.5z"/><path class="st24" d="M924 80.8l-14 66.1-25.2-5.8 17.2 13.2 6.7 11.3 25.3-13.7 3.7-9.3.3-5.8 3.5-3.8 5.5-13.9-11.5-4.9-4.7 8.6-9.8-6.1 15.8-22zM876.7 89.1l32 7.9-21.4 17.2z"/><path class="st8" d="M884.8 141.1l34.5 8-10.6 16.5zM941.5 133l-9.2-4.1 5.4 13.7zM936.9 125.9l2.1-6.8 5 2.7z"/><path class="st4" d="M892.7 93l-5.4 21.2-5-1.2 5.2-21.3z"/><path class="st40" d="M900.1 106.3c-.3 1.6-1.6 2.6-2.9 2.3-1.3-.3-2-1.7-1.7-3.3.3-1.6 1.6-2.6 2.9-2.3 1.3.3 2 1.8 1.7 3.3zM881.3 102.1c-.3 1.6-1.6 2.6-2.9 2.3-1.3-.3-2-1.7-1.7-3.3s1.6-2.6 2.9-2.3c1.3.3 2 1.8 1.7 3.3z"/><path class="st10" d="M908.7 97l-12.2-6.7-3.8 2.7zM887.5 91.7l-1.8-4-9 1.4z"/><path class="st8" d="M887.3 114.2l-3.5 2.7-1.5-3.9zM872.7 119.1l10.5 5.1 12.3-.2v2.8h-13.2l-10.6-5z"/><path class="st12" d="M942.8 247.9l-19.1 15.4-20.9 9L886 262l-15.4-14.1z"/><path class="st68" d="M942.8 247.9l3.3 53.5-16.1 6.7h-15.9l-11.3-35.8zM902.8 272.3l-14.2 36-15.9-2-14-8.1 11.9-50.3z"/><path class="st12" d="M858.7 298.2l29.9 10.1-3.8 9.7-15.3-4.5-12.7-7.2zM914.1 308.1l32-6.7.9 14.9-29.7 1.7z"/><path class="st68" d="M884.8 318l-1.2 6.5h-39.8l13-18.2zM917.3 318v6.5h34.5l-5-10.8-13.5-3.3zM947.4 211.5l-10.5 10.8 1.1 8.5 5.3 12.7 32.2-20zM872.8 199.1l5.2 19.1-6.3 9.3-9.7 6-18.2-29.5z"/><path class="st21" d="M878 218.2l3.4 5.3-10.8 20-8.6-10zM936.9 222.3l-6.3 5.2 12.7 16z"/><path class="st12" d="M927.8 223.5l15.5 20-5.3 3.7-14-20.6zM883.6 219.9l-13 23.6 4.2 3.7 12.5-23.7zM917.3 183.8l25.5 2.5-1.3 5-24.2-2.9zM910.1 176.2l-4.2 72.7h-5.2l3.2-73.4z"/></g><g id="woman"><path class="st21" d="M1052.5 218.1l3.7 15.6-9.9-1.3-5.3-5.4zM985.5 209.3l-5.5 13.6 13.7-.7-3.1-5.8z"/><path class="st24" d="M1056.2 233.7l-19.9 14.6.6-10.6 4.1-10.7zM991.7 221.2l-11.7 1.7 18 23.6v-14.1z"/><path class="st29" d="M1049.3 189l10 26.5L1041 227l2.6-20.7zM994.4 185.8L980 207.5l10.6 8.9 3.8-14.9z"/><path class="st10" d="M1026 338.5l-.7 5.8h-4.4l-.9-3.9zM985.9 328.5l-.8 6.1h-4l-1.7-4.7z"/><path class="st21" d="M1034.3 311.1L1026 333l-6-.6-4.2-3.4-2.1-21.2zM977.6 302.6l20.7 3.1-12.3 18.9-5.6-2.2-3.2-4.2z"/><path class="st68" d="M1015.8 329l10.2 4v5.5l-12.3 5.8h-11.5zM977.2 318.2l-15.4 16.4 10.8-.2 13.3-5.9.1-3.9z"/><path class="st8" d="M1034.3 311.1l-19.8 5.4-.8-8.7 10.3.3zM977.6 302.6l15.6 11 5.1-7.9-10.3-3.1z"/><path class="st21" d="M1031.2 181.2l13.6 6.9-31.1 10.1-18.3-12.4 16.2-5.9z"/><path class="st10" d="M1057.7 86.3l5.3 11.4-36.3-23.3 20.8 4.7z"/><path class="st12" d="M1056.2 67.5l1.5 18.8-31-11.9z"/><path class="st15" d="M1026.7 86.3V67.5h29.5L1034.5 90l-5.3.7zM977.7 100L994 88.3l32.7-2-26.5 23.7z"/><path class="st12" d="M999.2 106l27.5-19.7 25.8 12.1-22.3 10.3z"/><path class="st10" d="M1052.5 98.4l3.7 35.3-11.7-.9-3.2 8.5-9.3-2.5-1.8-34.1z"/><path class="st21" d="M977.7 100l-7 62.5 31.5 4.2 14 17.6 13-5.2 23.3-43.4-8-2.9-4.7 7.7-7.8-1.7-1.8-34.1-31 1.3z"/><path class="st24" d="M1030.2 104.7l-12.9 63.9-15.1-1.9 8.8 7.6 4.8 11.5 15.4-4.6 12.1-23 1.2-4.9 3-3.2 8.7-16.4-12.4-3.2-4.3 8.3-4.5-1.3zM1013.7 121.3l-31.4-3.5 16 21.8z"/><path class="st4" d="M1000.9 120l-2.6 19.6-5.8-.9 3-19.4z"/><path class="st8" d="M1002.2 166.7l24.5 3.1-10.9 16zM1047.5 150.1l-8.5-2.4 4.3 10.5zM1043.3 144.1l3.5-8.9 4.5 1.5zM998.3 139.6l-3.1 3.2-2.7-4.1z"/><path class="st29" d="M995.4 185.8l5.5 32.6h30.4l13.5-30.3-31.1 8.1z"/><path class="st12" d="M994.4 185.8l7.6-2.4.2 27.4 28 .1 10.3-25 8.8 3.1-8.3 38-6.3 16.5h-35.5l-8.6-27.1z"/><path class="st10" d="M990.6 216.4L1041 227l-4.7 21.3-38.3-1.8z"/><path class="st12" d="M1036.3 248.3l11 30-29 11.9-40.7 12.4 20.4-56.1h22z"/><path class="st68" d="M1047.3 278.3l-13 32.8-56.7-8.5z"/><path class="st25" d="M998 246.5l-1.9-7.7 41.8 2.3-1.6 7.2z"/><path class="st10" d="M1014.8 239.8l-4.8 3.3 4.2 4.3 4.9-3.8-4.3-3.8zm-2.2 3.7l2-1.8 2.1 1.8-2.1 1.9-2-1.9z"/><path class="st40" d="M1010.1 129.1c0 1.6-1.2 2.9-2.6 2.9-1.4 0-2.6-1.3-2.6-2.9 0-1.6 1.2-2.9 2.6-2.9 1.4 0 2.6 1.3 2.6 2.9zM990.6 126.6c0 1.6-1.2 2.9-2.6 2.9-1.4 0-2.6-1.3-2.6-2.9 0-1.6 1.2-2.9 2.6-2.9 1.4 0 2.6 1.3 2.6 2.9z"/><path class="st10" d="M1013.7 121.3l-9.4-4.3-3.4 3zM995.5 119.3l-1.8-3.6-11.4 2.1zM985.5 149.2l9.4-1.4 8.7 3.2-9.2 2.4z"/><path class="st8" d="M994.4 152.2l-8.9-3 8.4 6.4 9.7-4.6z"/></g><g id="man2"><path class="st68" d="M1091.3 169.4l-21.6 24.9 19.3-4.1z"/><path class="st67" d="M1113.3 165.6l-22 3.8-21.6 68.8 40.6 12.8 43.4 2.5 7.6-72.5-9.6-11.9z"/><path class="st15" d="M1094.3 111.7l-3.8-7.9 54.3-4-5.7 19.4z"/><path class="st12" d="M1144.8 99.8l25.2 18-19.2 1.5-12.5-2.4z"/><path class="st10" d="M1170 117.8l-10 27.4-12.3-1-6 11.9-11-5 10-21.2-2.4-13z"/><path class="st30" d="M1074.7 222.2l23-3.8 43.6 25.1 14.3-10.6-53.5-28-25.5 11.2z"/><path class="st21" d="M1094.3 111.7l-6.3 50.9 25.3 3 6.7 7.3 29.7-4.8 8.3-20.9-10.3-3-6 12.9-11-6 10-21.2-2.4-13z"/><path class="st24" d="M1138.3 116.9l-11.6 50-13.4-1.3 8 7.3 12.4-.5 18-3.3-.4-5 3-2.6 5.7-16.3-13.3-3-5 11.9-10-4 11-20.2zM1097.2 123.7l31.5 3.1-17.4 15.8z"/><path class="st8" d="M1154.3 161.5l-9.5-2.5 6.9 10.1zM1113.3 165.6l22 2.4-1.6 4.4-13.7 2.5z"/><path class="st4" d="M1114.8 125.5l-3.5 17.1-5.6-.4 1.3-17.5z"/><path class="st8" d="M1111.3 142.6l-3.5 3.6-2.1-4z"/><path class="st10" d="M1128.7 126.8l-10.7-4.6-3.2 3.3zM1107 124.7l-1.3-3.7-8.5 2.7z"/><path class="st8" d="M1098.5 152.4l18.7 1.9v2.4l-18.7-2.2z"/><ellipse class="st40" cx="1121.6" cy="133.4" rx="2.8" ry="2.9"/><path class="st40" d="M1103 130.9c0 1.6-1.2 2.9-2.8 2.9s-2.8-1.3-2.8-2.9c0-1.6 1.2-2.9 2.8-2.9s2.8 1.3 2.8 2.9z"/><path class="st8" d="M1155.6 147.8l-6-1.6-1.9 8.3z"/><path class="st14" d="M1069.7 238.2l27.5 34.1 24.4-.5 32.1-18.3z"/><path class="st22" d="M1069.7 238.2l-3.6 46.6-4.4 25.3 10.5 7.4 15.8 2.9 17.7-36.7-5.7-11.9z"/><path class="st3" d="M1153.7 253.5l-5.9 41.2-1.8 29.9-15.5 3.9-19.2-1-11.3-55.7z"/><path class="st68" d="M1161.3 181l8.7 30.5-27.7-9.4z"/><path class="st24" d="M1110.3 196.4l23.4-5.5-3 7.3-5 3.3-6.9-.9z"/><path class="st8" d="M1133.7 190.9l8.6 11.2-16.6-.6z"/><path class="st24" d="M1110.3 196.4l-14.6-12.4-5.5 2.6-2.4 2.4 6.5 3.5z"/><path class="st21" d="M1095.7 184l-8.5-1.4-5 8.1 5.6-1.7z"/><path class="st24" d="M1170 211.5l-14.4 18.4-26.4-8.7-28.9-12.8 25.4-6.9 16.6.6z"/><path class="st21" d="M1069.7 194.3l8.3 19.2 13.3-1.9 34.4-10.1-37.9-12.5z"/><path class="st8" d="M1170 211.5l-40.8 9.7 26.4 11.7z"/><path class="st24" d="M1069.7 194.3l21.6 17.3-14.7 4.5z"/><path class="st22" d="M1124.6 263.4l6.1 62.5 6 3.1 9.3-4.4 7.7-71.1z"/><path class="st3" d="M1089.4 260.1l-17.9 55.2-9.8-5.2 8-71.9z"/><path class="st68" d="M1061.7 310.1l-13.1 16.2 39.2 1.2.2-7.1zM1146 324.6l3.6 11.7-18.9 3.7-17.8-3.7-1.6-8.8z"/></g></svg>