<svg id="Warstwa_17" xmlns="http://www.w3.org/2000/svg" viewBox="0 0 1170 350"><style>.st1,.st2,.st3,.st4{fill-rule:evenodd;clip-rule:evenodd;fill:#f5f4f2}.st2,.st3,.st4{fill:#f9f9f9}.st3,.st4{fill:#e7e7e6}.st4{fill:#ddd}.st12,.st13,.st5,.st6,.st7,.st8,.st9{fill-rule:evenodd;clip-rule:evenodd;fill:#f2f2f2}.st12,.st13,.st6,.st7,.st8,.st9{fill:#c6c6c6}.st12,.st13,.st7,.st8,.st9{fill:#fff}.st12,.st13,.st8,.st9{fill:#f2f1ef}.st12,.st13,.st9{fill:#d3d3d3}.st12,.st13{fill:#efefef}.st13{fill:#bababa}.st14,.st15{opacity:.3;fill:none;stroke:#050505;stroke-miterlimit:10}.st14{stroke-dasharray:14,15;stroke-width:5}.st15{stroke-width:6}.st16{fill:#ababab}.st17{fill:#969696}.st18,.st19,.st20,.st21{fill-rule:evenodd;clip-rule:evenodd}.st18{opacity:.2}.st19,.st20,.st21{fill:#b3889d}.st20,.st21{fill:#734c5f}.st21{opacity:.3;fill:#050505}.st22,.st23,.st24,.st25,.st26,.st30{fill-rule:evenodd;clip-rule:evenodd;fill:#a3778e}.st23,.st24,.st25,.st26,.st30{fill:#875871}.st24,.st25,.st26,.st30{fill:#594165}.st25,.st26,.st30{fill:#96637c}.st26,.st30{fill:#543042}.st30{fill:#c4937d}.st31{fill:#785d88}.st31,.st33,.st35{fill-rule:evenodd;clip-rule:evenodd}.st35{fill:#9075a0}</style><path opacity=".3" fill-rule="evenodd" clip-rule="evenodd" fill="#fff" d="M-26-20h1220.7v398H-26z" id="Warstwa_18"/><g id="map"><path class="st1" d="M127.4-10.1l-5.5 103.2-129.3 13.1L-2.6-9.4z"/><path class="st2" d="M121.9 93.1l9 132.1-139-4.8.7-114.2z"/><path class="st1" d="M130.9 225.2L124 325.7-6.1 309.2l-2-88.8z"/><path class="st3" d="M124 325.7l1.4 39.2-134.9.7 3.4-56.4z"/><path class="st4" d="M127.4-10.1l101.2 6.9v124.5L121.9 93.1z"/><path class="st5" d="M121.9 93.1l106.7 28.2 8.9 94.3-106.6 9.6z"/><path class="st4" d="M130.9 225.2l106.6-9.6-9.6 113.5-103.9-3.4z"/><path class="st6" d="M227.9 329.1l7.6 37.9-110.1-2.1-1.4-39.2z"/><path class="st5" d="M228.6-3.2l121.8-10.3 22.7 119-144.5 15.8z"/><path class="st7" d="M228.6 121.3l144.5-15.8v128.7l-135.6-18.6z"/><path class="st8" d="M237.5 215.6l135.6 18.6-11.7 119.7-133.5-24.8z"/><path class="st9" d="M227.9 329.1l133.5 24.8 1.4 15.8-127.3-2.7z"/><path class="st3" d="M350.4-13.5l150 6.2-3.5 92.2-123.8 20.6z"/><path class="st2" d="M496.9 84.9l31.7 99.7-155.5 49.6V105.5z"/><path fill-rule="evenodd" clip-rule="evenodd" fill="#e0e0e0" d="M528.6 184.6L541.7 314l-180.3 39.9 11.7-119.7z"/><path class="st9" d="M361.4 353.9L541.7 314l-2.1 51.6-176.8 4.1z"/><path class="st2" d="M500.4-7.3l92.9-3.5-9 68.2-87.4 27.5z"/><path class="st7" d="M584.3 57.4l54.4 119.7-110.1 7.5-31.7-99.7z"/><path class="st8" d="M638.7 177.1l8.2 138.3-105.2-1.4-13.1-129.4z"/><path class="st2" d="M646.9 315.4l-11.7 53-95.6-2.8 2.1-51.6z"/><path fill-rule="evenodd" clip-rule="evenodd" fill="#eaeaea" d="M593.3-10.8h117.6l18.6 80.5-145.2-12.3z"/><path class="st5" d="M584.3 57.4l145.2 12.3-4.1 111.5-86.7-4.1z"/><path class="st4" d="M725.4 181.2l44.7 116.3-123.2 17.9-8.2-138.3z"/><path class="st6" d="M770.1 297.5L757 369.1l-121.8-.7 11.7-53z"/><path class="st2" d="M710.9-10.8l132.8-1.3-4.8 80.5-109.4 1.3z"/><path class="st7" d="M838.9 68.4v92.9l-113.5 19.9 4.1-111.5z"/><path class="st12" d="M838.9 161.3l40.6 163-109.4-26.8-44.7-116.3z"/><path class="st3" d="M879.5 324.3l-11 43.4-111.5 1.4 13.1-71.6z"/><path class="st4" d="M843.7-12.1l134.9-2.1-13.8 100.5-125.9-17.9z"/><path class="st12" d="M838.9 68.4l125.9 17.9-6.8 108-119.1-33z"/><path class="st4" d="M838.9 161.3l119.1 33 11.7 114.2-90.2 15.8z"/><path class="st13" d="M879.5 324.3l90.2-15.8 24.7 50.2-125.9 9z"/><path class="st2" d="M978.6-14.2L1083.2-8l-12.4 87.4-106 6.9z"/><path class="st1" d="M1070.8 79.4l2.8 98.4L958 194.3l6.8-108z"/><path class="st12" d="M1073.6 177.8l-13.1 141.7-90.8-11L958 194.3z"/><path class="st4" d="M1060.5 319.5l9.6 42-75.7-2.8-24.7-50.2zM1083.2-8l96.3-3.5-.7 99.1-108-8.2z"/><path class="st3" d="M1070.8 79.4l108 8.2 1.4 102.6-106.6-12.4z"/><path class="st4" d="M1073.6 177.8l106.6 12.4-6.2 113.5-113.5 15.8z"/><path class="st13" d="M1060.5 319.5l113.5-15.8 9 59.2-112.9-1.4z"/></g><g id="lines"><path class="st14" d="M322.7-15.5S313.8 3.2 310.4 19c-3.5 15.7-21.4 28.1-44.8 34-23.4 6-37.5 9.4-37.5 9.4s-11.9 9.8-22.1 20.9c-10.2 11.1-15.8 32.4-15.8 32.4l1.3 26M-2.2 39.9s32.4-3.4 66.8 5.5c34.5 8.9 52.8 56.6 52.8 56.6l20.9 14.9s21.3 16.6 29.8 23.8c8.5 7.2 10.5 9.4 10.5 9.4M193 176.3s0 11.1 1.3 21.7.9 18.3.9 18.3-3 29.4-9.8 44.3c-6.8 14.9-12.3 30.7-10.2 44.3 2.1 13.6 6.4 23 6.4 23s-2.6 22.1-6.4 33.6c-3.8 11.5-5.5 17.5-5.5 17.5M213.8 159.3l18.7 4.3s21.3 3 34.1 11.9 36.2 10.6 52.8 6c16.6-4.7 53.2-37.5 53.2-37.5s29.8-11.9 49.8-21.3c20-9.4 44.7-17.9 56.6-21.3 12-3.4 22.2-3.4 22.2-3.4s18.3-4.3 31.9-10.6c13.6-6.4 20-21.7 20-21.7l5.5-24.7M523.8-22.9s8.1 15.8 18.7 27.2c10.6 11.5 15.8 16.2 15.8 16.2M577 20.5l13.2-8.5s19.2-8.5 34.9-8.1c15.8.4 29.8 8.9 49 15.8s29.4 8.1 34.9 8.9c5.5.9 10.6 1.3 10.6 1.3l34.5-6.4M789.4 23.9s14.5 3.8 27.2 8.1c12.8 4.3 23 6.4 23 6.4s6.8 8.1 16.2 16.6c9.4 8.5 23 19.2 23 19.2s4.3 17.5 16.6 23 24.7 15.8 31.9 27.2 9.8 18.7 9.8 18.7M962.3 152.1s16.3-4.7 28.6-21.3 36.2-27.2 53.6-23.4c17.5 3.8 22.6 10.2 22.6 10.2s29-5.1 49.4-7.2c20.4-2.1 66 2.1 66 2.1M941.8 175.1l-2.1 12.8s-11.5 21.3-16.6 39.6c-5.1 18.3-4.7 41.7-1.3 55.3 3.4 13.6 11.9 31.9 11.9 31.9s1.7 18.7 1.7 35.3-1.3 26.4-1.3 26.4"/><circle class="st15" cx="561.7" cy="30.7" r="7.7"/><path class="st15" d="M779.2 21.2c0 4.2-3.4 7.7-7.7 7.7-4.2 0-7.7-3.4-7.7-7.7s3.4-7.7 7.7-7.7c4.3.1 7.7 3.5 7.7 7.7zM952.4 154c0 4.2-3.4 7.7-7.7 7.7-4.2 0-7.7-3.4-7.7-7.7 0-4.2 3.4-7.7 7.7-7.7 4.3 0 7.7 3.4 7.7 7.7z"/><circle class="st15" cx="192.4" cy="154.1" r="7.7"/><path class="st16" d="M308 53.2l7-5s4.2 5 8.4 11.3c4.2 6.3 6.5 12.8 6.5 12.8l-5.3 3.2s-8.9-15.3-16.6-22.3z"/><path class="st17" d="M310.1 69.8s2.7-6.1 8-10.9 13-9.2 13-9.2l3.9 6.6s-11.8 5.7-15.5 9.8c-3.7 4.2-6.1 7.9-6.1 7.9l-3.3-4.2z"/><path class="st16" d="M548 285.2l7-5s4.2 5 8.4 11.3c4.2 6.3 6.5 12.8 6.5 12.8l-5.3 3.2s-8.9-15.3-16.6-22.3z"/><path class="st17" d="M550.1 301.8s2.7-6.1 8-10.9c5.3-4.8 13-9.2 13-9.2l3.9 6.6s-11.8 5.7-15.5 9.8c-3.7 4.2-6.1 7.9-6.1 7.9l-3.3-4.2z"/><path class="st16" d="M1107 255.2l7-5s4.2 5 8.4 11.3c4.2 6.3 6.5 12.8 6.5 12.8l-5.3 3.2s-8.9-15.3-16.6-22.3z"/><path class="st17" d="M1109.1 271.8s2.7-6.1 8-10.9c5.3-4.8 13-9.2 13-9.2l3.9 6.6s-11.8 5.7-15.5 9.8c-3.7 4.2-6.1 7.9-6.1 7.9l-3.3-4.2z"/><path class="st16" d="M1020 30.2l7-5s4.2 5 8.4 11.3c4.2 6.3 6.5 12.8 6.5 12.8l-5.3 3.2s-8.9-15.3-16.6-22.3z"/><path class="st17" d="M1022.1 46.8s2.7-6.1 8-10.9c5.3-4.8 13-9.2 13-9.2l3.9 6.6s-11.8 5.7-15.5 9.8c-3.7 4.2-6.1 7.9-6.1 7.9l-3.3-4.2z"/></g><g id="flags"><path class="st18" d="M635 29.3l-.1 9.5 3.2 16.3-6-7.9 1.3-19.2z"/><path class="st19" d="M612.5 29.4l8.7 13.8 5.3-14.5z"/><path transform="matrix(1 -.00599 .00599 1 -.1563 3.7339)" class="st20" d="M612.5 26.6H635v2.8h-22.5z"/><path class="st18" d="M529 33.3l-.1 9.5 3.2 16.3-6-7.9 1.3-19.2z"/><path class="st19" d="M506.5 33.4l8.7 13.8 5.3-14.5z"/><path transform="matrix(1 -.00599 .00599 1 -.1821 3.0995)" class="st20" d="M506.5 30.6H529v2.8h-22.5z"/><path class="st18" d="M473 18.3l-.1 9.5 3.2 16.3-6-7.9 1.3-19.2z"/><path class="st19" d="M450.5 18.4l8.7 13.8 5.3-14.5z"/><path transform="matrix(1 -.00599 .00599 1 -.09334946 2.7641)" class="st20" d="M450.5 15.6H473v2.8h-22.5z"/><path class="st18" d="M433 33.3l-.1 9.5 3.2 16.3-6-7.9 1.3-19.2z"/><path class="st19" d="M410.5 33.4l8.7 13.8 5.3-14.5z"/><path transform="matrix(1 -.00599 .00599 1 -.1838 2.5249)" class="st20" d="M410.5 30.6H433v2.8h-22.5z"/><path class="st18" d="M465 55.3l-.1 9.5 3.2 16.3-6-7.9 1.3-19.2z"/><path class="st19" d="M442.5 55.4l8.7 13.8 5.3-14.5z"/><path transform="matrix(1 -.00599 .00599 1 -.3149 2.7168)" class="st20" d="M442.5 52.6H465v2.8h-22.5z"/><path class="st18" d="M331 202.3l-.1 9.5 3.2 16.3-6-7.9 1.3-19.2z"/><path class="st19" d="M308.5 202.4l8.7 13.8 5.3-14.5z"/><path transform="matrix(1 -.00599 .00599 1 -1.1972 1.9174)" class="st20" d="M308.5 199.6H331v2.8h-22.5z"/><path class="st18" d="M275 241.3l-.1 9.5 3.2 16.3-6-7.9 1.3-19.2z"/><path class="st19" d="M252.5 241.4l8.7 13.8 5.3-14.5z"/><path transform="matrix(1 -.00599 .00599 1 -1.4316 1.583)" class="st20" d="M252.5 238.6H275v2.8h-22.5z"/><path class="st18" d="M323 247.3l-.1 9.5 3.2 16.3-6-7.9 1.3-19.2z"/><path class="st19" d="M300.5 247.4l8.7 13.8 5.3-14.5z"/><path transform="matrix(1 -.00599 .00599 1 -1.4667 1.8704)" class="st20" d="M300.5 244.6H323v2.8h-22.5z"/><path class="st18" d="M303 269.3l-.1 9.5 3.2 16.3-6-7.9 1.3-19.2z"/><path class="st19" d="M280.5 269.4l8.7 13.8 5.3-14.5z"/><path transform="matrix(1 -.00599 .00599 1 -1.5987 1.751)" class="st20" d="M280.5 266.6H303v2.8h-22.5z"/><path class="st18" d="M265 277.3l-.1 9.5 3.2 16.3-6-7.9 1.3-19.2z"/><path class="st19" d="M242.5 277.4l8.7 13.8 5.3-14.5z"/><path transform="matrix(1 -.00599 .00599 1 -1.6473 1.5237)" class="st20" d="M242.5 274.6H265v2.8h-22.5z"/><path class="st18" d="M298 298.3l-.1 9.5 3.2 16.3-6-7.9 1.3-19.2z"/><path class="st19" d="M275.5 298.4l8.7 13.8 5.3-14.5z"/><path transform="matrix(1 -.00599 .00599 1 -1.7724 1.7216)" class="st20" d="M275.5 295.6H298v2.8h-22.5z"/><path class="st18" d="M336 289.3l-.1 9.5 3.2 16.3-6-7.9 1.3-19.2z"/><path class="st19" d="M313.5 289.4l8.7 13.8 5.3-14.5z"/><path transform="matrix(1 -.00599 .00599 1 -1.7178 1.9489)" class="st20" d="M313.5 286.6H336v2.8h-22.5z"/><path class="st18" d="M343 319.3l-.1 9.5 3.2 16.3-6-7.9 1.3-19.2z"/><path class="st19" d="M320.5 319.4l8.7 13.8 5.3-14.5z"/><path transform="matrix(1 -.00599 .00599 1 -1.8973 1.9914)" class="st20" d="M320.5 316.6H343v2.8h-22.5z"/><g><path class="st18" d="M767 40.3l-.1 9.5 3.2 16.3-6-7.9 1.3-19.2z"/><path class="st19" d="M744.5 40.4l8.7 13.8 5.3-14.5z"/><path transform="matrix(1 -.00599 .00599 1 -.2198 4.5241)" class="st20" d="M744.5 37.6H767v2.8h-22.5z"/></g><g><path class="st18" d="M899 24.3l-.1 9.5 3.2 16.3-6-7.9 1.3-19.2z"/><path class="st19" d="M876.5 24.4l8.7 13.8 5.3-14.5z"/><path transform="matrix(1 -.00599 .00599 1 -.1216 5.3139)" class="st20" d="M876.5 21.6H899v2.8h-22.5z"/></g><g><path class="st18" d="M945 15.3l-.1 9.5 3.2 16.3-6-7.9 1.3-19.2z"/><path class="st19" d="M922.5 15.4l8.7 13.8 5.3-14.5z"/><path transform="matrix(1 -.00599 .00599 1 -.06693757 5.5891)" class="st20" d="M922.5 12.6H945v2.8h-22.5z"/></g><g><path class="st18" d="M931 43.3l-.1 9.5 3.2 16.3-6-7.9 1.3-19.2z"/><path class="st19" d="M908.5 43.4l8.7 13.8 5.3-14.5z"/><path transform="matrix(1 -.00599 .00599 1 -.2348 5.5058)" class="st20" d="M908.5 40.6H931v2.8h-22.5z"/></g><g><path class="st18" d="M1008 217.3l-.1 9.5 3.2 16.3-6-7.9 1.3-19.2z"/><path class="st19" d="M985.5 217.4l8.7 13.8 5.3-14.5z"/><path transform="matrix(1 -.00599 .00599 1 -1.2748 5.9698)" class="st20" d="M985.5 214.6h22.5v2.8h-22.5z"/></g><g><path class="st18" d="M1052 202.3l-.1 9.5 3.2 16.3-6-7.9 1.3-19.2z"/><path class="st19" d="M1029.5 202.4l8.7 13.8 5.3-14.5z"/><path transform="matrix(1 -.00599 .00599 1 -1.1843 6.2329)" class="st20" d="M1029.5 199.6h22.5v2.8h-22.5z"/></g><g><path class="st18" d="M1043 231.3l-.1 9.5 3.2 16.3-6-7.9 1.3-19.2z"/><path class="st19" d="M1020.5 231.4l8.7 13.8 5.3-14.5z"/><path transform="matrix(1 -.00599 .00599 1 -1.358 6.1795)" class="st20" d="M1020.5 228.6h22.5v2.8h-22.5z"/></g><g><path class="st18" d="M1021 253.3l-.1 9.5 3.2 16.3-6-7.9 1.3-19.2z"/><path class="st19" d="M998.5 253.4l8.7 13.8 5.3-14.5z"/><path transform="matrix(1 -.00599 .00599 1 -1.4901 6.0482)" class="st20" d="M998.5 250.6h22.5v2.8h-22.5z"/></g><g><path class="st18" d="M995 268.3l-.1 9.5 3.2 16.3-6-7.9 1.3-19.2z"/><path class="st19" d="M972.5 268.4l8.7 13.8 5.3-14.5z"/><path transform="matrix(1 -.00599 .00599 1 -1.5803 5.8929)" class="st20" d="M972.5 265.6H995v2.8h-22.5z"/></g><g><path class="st18" d="M1046 286.3l-.1 9.5 3.2 16.3-6-7.9 1.3-19.2z"/><path class="st19" d="M1023.5 286.4l8.7 13.8 5.3-14.5z"/><path transform="matrix(1 -.00599 .00599 1 -1.6872 6.1984)" class="st20" d="M1023.5 283.6h22.5v2.8h-22.5z"/></g><g><path class="st18" d="M949 95.3l-.1 9.5 3.2 16.3-6-7.9 1.3-19.2z"/><path class="st19" d="M926.5 95.4l8.7 13.8 5.3-14.5z"/><path transform="matrix(1 -.00599 .00599 1 -.5457 5.6144)" class="st20" d="M926.5 92.6H949v2.8h-22.5z"/></g><g><path class="st18" d="M53 112.3l-.1 9.5 3.2 16.3-6-7.9 1.3-19.2z"/><path class="st19" d="M30.5 112.4l8.7 13.8 5.3-14.5z"/><path transform="matrix(1 -.00599 .00599 1 -.6635 .2519)" class="st20" d="M30.5 109.6H53v2.8H30.5z"/></g><g><path class="st18" d="M96 128.3l-.1 9.5 3.2 16.3-6-7.9 1.3-19.2z"/><path class="st19" d="M73.5 128.4l8.7 13.8 5.3-14.5z"/><path transform="matrix(1 -.00599 .00599 1 -.7585 .5096)" class="st20" d="M73.5 125.6H96v2.8H73.5z"/></g><g><path class="st18" d="M68 153.3l-.1 9.5 3.2 16.3-6-7.9 1.3-19.2z"/><path class="st19" d="M45.5 153.4l8.7 13.8 5.3-14.5z"/><path transform="matrix(1 -.00599 .00599 1 -.9086 .3424)" class="st20" d="M45.5 150.6H68v2.8H45.5z"/></g><g><path class="st18" d="M111 170.3l-.1 9.5 3.2 16.3-6-7.9 1.3-19.2z"/><path class="st19" d="M88.5 170.4l8.7 13.8 5.3-14.5z"/><path transform="matrix(1 -.00599 .00599 1 -1.0096 .6001)" class="st20" d="M88.5 167.6H111v2.8H88.5z"/></g><g><path class="st18" d="M44 187.3l-.1 9.5 3.2 16.3-6-7.9 1.3-19.2z"/><path class="st19" d="M21.5 187.4l8.7 13.8 5.3-14.5z"/><path transform="matrix(1 -.00599 .00599 1 -1.1126 .1994)" class="st20" d="M21.5 184.6H44v2.8H21.5z"/></g><g><path class="st18" d="M87 202.3l-.1 9.5 3.2 16.3-6-7.9 1.3-19.2z"/><path class="st19" d="M64.5 202.4l8.7 13.8 5.3-14.5z"/><path transform="matrix(1 -.00599 .00599 1 -1.2016 .457)" class="st20" d="M64.5 199.6H87v2.8H64.5z"/></g><g><path class="st18" d="M53 235.3l-.1 9.5 3.2 16.3-6-7.9 1.3-19.2z"/><path class="st19" d="M30.5 235.4l8.7 13.8 5.3-14.5z"/><path transform="matrix(1 -.00599 .00599 1 -1.3997 .2541)" class="st20" d="M30.5 232.6H53v2.8H30.5z"/></g><g><path class="st18" d="M101 247.3l-.1 9.5 3.2 16.3-6-7.9 1.3-19.2z"/><path class="st19" d="M78.5 247.4l8.7 13.8 5.3-14.5z"/><path transform="matrix(1 -.00599 .00599 1 -1.4707 .5416)" class="st20" d="M78.5 244.6H101v2.8H78.5z"/></g><g><path class="st18" d="M145 151.3l-.1 9.5 3.2 16.3-6-7.9 1.3-19.2z"/><path class="st19" d="M122.5 151.4l8.7 13.8 5.3-14.5z"/><path transform="matrix(1 -.00599 .00599 1 -.8953 .8032)" class="st20" d="M122.5 148.6H145v2.8h-22.5z"/></g><g><path class="st18" d="M146 211.3l-.1 9.5 3.2 16.3-6-7.9 1.3-19.2z"/><path class="st19" d="M123.5 211.4l8.7 13.8 5.3-14.5z"/><path transform="matrix(1 -.00599 .00599 1 -1.2544 .8103)" class="st20" d="M123.5 208.6H146v2.8h-22.5z"/></g><g><path class="st18" d="M71 282.3l-.1 9.5 3.2 16.3-6-7.9 1.3-19.2z"/><path class="st19" d="M48.5 282.4l8.7 13.8 5.3-14.5z"/><path transform="matrix(1 -.00599 .00599 1 -1.6807 .3627)" class="st20" d="M48.5 279.6H71v2.8H48.5z"/></g><g><path class="st18" d="M1012 178.3l-.1 9.5 3.2 16.3-6-7.9 1.3-19.2z"/><path class="st19" d="M989.5 178.4l8.7 13.8 5.3-14.5z"/><path transform="matrix(1 -.00599 .00599 1 -1.0413 5.993)" class="st20" d="M989.5 175.6h22.5v2.8h-22.5z"/></g><g><path class="st18" d="M1047 159.3l-.1 9.5 3.2 16.3-6-7.9 1.3-19.2z"/><path class="st19" d="M1024.5 159.4l8.7 13.8 5.3-14.5z"/><path transform="matrix(1 -.00599 .00599 1 -.927 6.2022)" class="st20" d="M1024.5 156.6h22.5v2.8h-22.5z"/></g><g><path class="st18" d="M1085 182.3l-.1 9.5 3.2 16.3-6-7.9 1.3-19.2z"/><path class="st19" d="M1062.5 182.4l8.7 13.8 5.3-14.5z"/><path transform="matrix(1 -.00599 .00599 1 -1.064 6.43)" class="st20" d="M1062.5 179.6h22.5v2.8h-22.5z"/></g><g><path class="st18" d="M1108 150.3l-.1 9.5 3.2 16.3-6-7.9 1.3-19.2z"/><path class="st19" d="M1085.5 150.4l8.7 13.8 5.3-14.5z"/><path transform="matrix(1 -.00599 .00599 1 -.872 6.5671)" class="st20" d="M1085.5 147.6h22.5v2.8h-22.5z"/></g></g><g id="arrows"><path class="st21" d="M491.5 159l13.8-26.9-26.9-13.8 4.9 15.2-15.7 5.1 3.4 10.3 15.6-5.1zM505.5 212.7l15.8-25.7-25.7-15.9 3.7 15.6-16.1 3.8 2.5 10.5 16.1-3.8zM510.2 268.5l19.2-23.3-23.3-19.2 1.5 15.9-16.4 1.6 1 10.7 16.4-1.5zM633 264.5l-19.9-18.3-19.5 18.7 14.7-.2-.4 50.1-14.7 59.8h9.9l14.8-59.4.4-50.6zM691.3 258.7l-22-15.7-17.1 20.9 14.6-2 4.8 50.3-12.1 58.8 10.1.3 11.7-61-4.6-49.7zM740.3 251.3L715 235.7l-14.3 21.6 14.6-2.3 15.1 48.3-11.8 67 10 .4 11.7-68.7-15.6-48.7zM801.9 255.8L775.3 237 761 250.4l15.3 2.1L795 304l-13.7 69.2 10 .4L805 306l-18.9-52.4zM854.5 263.6l-25.1-18.7-16.8 13 16.1 2.1 14.3 55.7-14.7 59.9 10 .4 14.7-58.3-14.2-56.3z"/></g><g id="text"><path class="st22" d="M543.4 107.7l21.7-5.5 27.8 77.5 1 35.3-17.2 2.7-6.4-34.8zM584.5 97.2l16.2-3.4 59.9 57.5 1.4-51.1 18.6 2.1 4.7 77.4 8.6 32.7-17.7 1.4-51.4-66 14.2 28.8-.3 36.3-19.7.9-4.7-34.6zM701.7 104.1l26.1-.1 63.9-3.9-.3 21.7-40.3 3.7-1.8 51.3 6.7 31.3-14.7 5.5-15.6-32.6 1.8-55.5-24.6-4.8z"/><path class="st20" d="M809.3 102.1l30.3.2 38.9 13.1 5.1 58.8s6.6 30.8 0 42.7c-8.4 15.2-27 13.1-27 13.1s-18.4-2.5-31-18.1c-10-12.3-11.7-22.1-11.7-22.1l15.9-3.7s2.2 8.7 8.7 14.5c6.5 5.8 12.4 3.9 12.4 3.9s12.3 3.1 14.7-9.4c2.2-11.6-3.1-27.2-3.1-27.2l.9-43.6-23.7-7.4-30.6-1.1.2-13.7z"/><path class="st23" d="M570.3 181.8l22.6-2.1 3.4 38-23.1 1.3zM614.3 179.2l24.7-2.6 1.8 38-24.4 1zM600.7 93.8l24.1 54 22 29.8 38.5 2.1-1.8-80.1-24.1-2.6.8 50.8zM698.7 101.4l29.1 2.6-.3 21.5-28.3-3.1zM725.7 181l23.6-4.2 11.5 33.3-22.3 5.2zM850.9 204.6s-4.7-.5-11.3-6.3c-6.5-5.8-8.9-16.5-8.9-16.5l-20.4 7.1s2.9 12 12.8 24.4c12.6 15.5 33.5 16.8 33.5 16.8M839 98.9l42.8 13.2 1.8 62.1-21.2-6.3-1.8-42.7-21.5-6z"/><path class="st20" d="M646.8 177.6l38.5 2.1 12.3 35.6-23.3-1z"/><path class="st22" d="M804.8 99.8l34.2-.9.1 20.3-33.8.8z"/></g><g id="character_kopia"><path class="st18" d="M448.8 253.6l-10.4-60.5-30 8.1.5-3.1 26.9-18.2-21.5-50.5-1.7-2.9 1.7 2.5-6.5-35.1-55.3 14.3-33.3 8.7-5.4 19.7-17.6 29.1 26.8 21.7 15.3 12.4 4 17.6 16.2-17.2 1.2 1.9 5.4 10.8-28.6 9.3-3.2 14.5-8.5 40.7 39.8 10.3 7.7 25.6 15.9 36.7h36.9l27.7-86.1z"/><path class="st24" d="M365.4 172.8l5.3-7.2 13.6 5.6 8.6-4.6-22.8 26.5z"/><path class="st20" d="M465.8 173.4l21 40-8.3 29.6-24.6-66.7z"/><path class="st25" d="M420.6 186.1l15.6-6 17.7-3.8 24.6 66.7-85.9 22.3-14.7-59.2 7.9-5.9 7-10.4z"/><path class="st26" d="M396.4 197.7l-18.5 8.4-16.2 8.2 2.7-16.2 28.4-8.3zM467.6 183.2l-28.7 4.2-3.2-7.2 30.1-6.8z"/><path class="st19" d="M425.2 223.2l8.8-22.8-37.6-2.7z"/><path class="st19" d="M434 200.4l18.9 15.1-17.1-35.4-2.5 10.1z"/><path class="st20" d="M452.9 215.5l12.9 30.9-40.9 10.7.3-33.9 8.8-22.8z"/><path fill-rule="evenodd" clip-rule="evenodd" fill="#ffe6d6" d="M429.3 80.8l10 18.2 23.4 59.1-26.4 18.5-2.3 23.8-37.6-2.7-12.3-27-10.1 2.9-13-13.1 9.7-12.9 14.2 8.6 3.9-4-6.7-17.3-17.8-16.6 15.8-26.2 29.3-4.4-5.7-13.1z"/><path fill-rule="evenodd" clip-rule="evenodd" fill="#f5cab3" d="M365.3 118l30.8 13.5 25.7 35.5 14.5 9.6-2 13.2-.3 10.6-37.6-2.7-12.1-26.5 4.8-2.1-3.4-12 3.9-4.6-6.8-17.9z"/><path fill-rule="evenodd" clip-rule="evenodd" fill="#edc0a8" d="M431.5 146.4l-16.6-24 3.6-1.7z"/><path class="st30" d="M396.1 131.5l25.3-3.8 12.3-14.3zM421.8 167l21.1-8.7 12.1-10.7-16.8 3.3z"/><path class="st31" d="M421.8 167l9.7-20.6 8.3-4.4 15.2 5.6z"/><path fill-rule="evenodd" clip-rule="evenodd" fill="#fff1e8" d="M418.5 120.7l13 25.7 8.3-4.4-13.8-25z"/><path class="st33" d="M414.8 138.2c-1.1.9-3.3.1-4.7-1.7-1.5-1.8-1.7-4.1-.6-5 1.1-.9 3.3-.1 4.7 1.7 1.4 1.8 1.7 4.1.6 5zM438.9 122.8c-1.1.9-3.3.1-4.7-1.7-1.5-1.8-1.7-4.1-.6-5 1.1-.9 3.3-.1 4.7 1.7 1.4 1.8 1.7 4.1.6 5z"/><path class="st31" d="M396.1 131.5l37.6-18.1-1.2-14.9z"/><path class="st25" d="M482.8 255L395 274.8l8.7 29.8 22.3-14 37-23.2z"/><path class="st24" d="M439.8 141.9l-2.5 5.7-5.8-1.2z"/><path class="st30" d="M367.2 158l5.5-4.1 6.9 7.3zM436.3 176.6l-18 7.1 15.7 16.7zM383.6 170.9l5.5-1.8-1.9 8.3z"/><path fill-rule="evenodd" clip-rule="evenodd" fill="#9782a3" d="M428.6 81.2L427.4 71l4.1-12.9 7.8 40.4z"/><path class="st35" d="M365.3 118l-18.2 2.6-25.2 9.9 27.7 26.9 19.2-11.3 14-11.5z"/><path class="st19" d="M438 214.3l5.7 3.2-2.9 6.4-6.7-2.9zM443.2 234l-3.3 6 6.6 2.9 2.7-5.5z"/><path class="st26" d="M392.6 265.3l85.9-22.3 4.3 12-87.8 19.8z"/><path class="st19" d="M455.7 249l-20.8 5.3 2.2 11 21.5-4.7-2.9-11.6zm-1.7 9.9l-13.8 3.1-1.1-5.7 13.5-3.2 1.4 5.8z"/><path fill-rule="evenodd" clip-rule="evenodd" fill="#7c566a" d="M482.8 255L463 267.4l-18.4 24.9-10.1 48.9 24.6-8.6z"/><path class="st19" d="M436.5 332.7l8.1-40.4-18.6-1.7-22.3 14 10.9 45.4z"/><path fill-rule="evenodd" clip-rule="evenodd" fill="#5e3a4c" d="M463 267.4l-18.4 24.9-18.6-1.7z"/><path class="st20" d="M395 274.8l-10.4-42.5-6.7-26.2-16.2 8.2-7 45.6z"/><path class="st26" d="M354.7 259.9l29.9-27.6 10.4 42.5z"/><path class="st31" d="M428.6 81.2L405 76l-12.5-1-16.1-5.2 55.1-11.7zM365.3 118l15.4-25.1-21.1 1.6-21.1 4.4-16.6 31.6z"/><path class="st35" d="M376.4 69.8l-33.1 7.1-4.8 22 42.2-6 29.8-4.5L405 76z"/><path class="st31" d="M382.8 134.6l-33.2 22.8 15.8 15.4 8.6.8-12.3-13.2 9.3-12 14.7 8.7 3.9-4.6z"/><path class="st26" d="M466.8 211.4l20 2-8.3 29.6z"/><path fill-rule="evenodd" clip-rule="evenodd" fill="#5b3d4d" d="M459.1 332.6l18.3 17.4h-45.1l3-11.1z"/><path class="st20" d="M436.5 332.7l17.2 17.3h-39.1z"/></g></svg>