<svg id="illustration" xmlns="http://www.w3.org/2000/svg" viewBox="0 0 1170 350"><style>.st0{fill:#fff}.st1{fill:#b7b7b7}.st2{fill:#a3a3a3}.st3{fill:#d3d3d3}.st4{fill:#ececeb}.st5{fill:#727272}.st7{fill:#878787}.st8{fill:#c4c4c4}.st9{fill:#969696}.st10{fill:#a2a3a2}.st11{fill:#b5b5b5}.st12{fill:#d1d1d1}.st13{fill:#a2a3a1}.st14{fill:#bebfbf}.st16{fill-rule:evenodd;clip-rule:evenodd;fill:#ececeb}.st18{fill:#c9c9c9}.st19{fill:#a5a5a5}.st20{fill:#c1c1c1}.st21{fill:#8e8e8e}.st23{fill:#d8d8d8}.st25{fill:#c6c6c6}.st27{fill:#999}.st34{fill:#9b9b9b}.st35{fill:#777}.st36{fill:#e2e2e2}.st40{fill:#bababa}.st41{fill:#a0a0a0}.st42{fill:#bcbcbc}.st44{fill:#c2c2c2}.st46{fill:#e5e5e5}.st47{fill:#868687}.st49{fill:#594165}.st49,.st50,.st51,.st52{fill-rule:evenodd;clip-rule:evenodd}.st50{fill:#96637c}.st51{fill:#543042}.st52{fill:#dddddc}.st53{fill:#8f8f8f}.st53,.st54,.st55,.st56,.st57,.st58{fill-rule:evenodd;clip-rule:evenodd}.st54{fill:#f5cab3}.st55{fill:#785d88}.st56{fill:#ffe6d6}.st57{fill:#c4937d}.st58{fill:#b3889d}.st62{fill:#594165}.st64{fill:#9075a0}.st66{fill:#734c5f}.st66,.st67,.st68,.st69,.st70{fill-rule:evenodd;clip-rule:evenodd}.st67{fill:#9075a0}.st68{fill:#efefef}.st69{fill:#c4c4c4}.st70{fill:#a3a3a3}.st71{fill:#785d88}.st72{fill-rule:evenodd;clip-rule:evenodd;fill:#a688ba}.st77{fill:#96637c}.st78{fill:#b3889d}</style><path class="st0" d="M260.7 22.7H910V226H260.7z" id="back_x5F_scene"/><g id="man"><path class="st1" d="M560.3 189l8.4 15-46.6.6-1.2-6.8.8-10.8z"/><path class="st2" d="M559.9 188.3l-39 9.5-1.7-9.5 19.4-2z"/><path class="st3" d="M498.1 185.2l-7.9 2.6-2.8-2.1 4.8-4.7 3.7 1.4z"/><path class="st4" d="M539.1 114l25 37-14 11.5-1.3 8.9-28.9 1.4-3.6-7.7-12.2-4.1 7.2-27z"/><path class="st3" d="M513.3 134.3l27.9 35.5 8.9-7.3-1.3 8.9-12.4 2.4h-17.8l-2.8-7.5-11.7-5.3 2.1-8.1zm25-3.5l-.7-3.5 7.2-1-2.2 10.8 3.5 5.4-3.9 2.5-10.6-5.5-8.3-.2 6.8-7.3 4.6 1.8z"/><path class="st5" d="M534.7 141.7c0 1.2-1 2.2-2.2 2.2s-2.2-1-2.2-2.2c0-1.2 1-2.2 2.2-2.2s2.2.9 2.2 2.2zm12.2-8.3c0 1.2-1 2.2-2.2 2.2s-2.2-1-2.2-2.2c0-1.2 1-2.2 2.2-2.2s2.2 1 2.2 2.2z"/><path class="st2" d="M546.1 142.5v3.5l-3.9-1z"/><path class="st0" d="M542.2 145l-7.5-11.2 3.6-3 7.8 11.7z"/><path class="st5" d="M523.3 139.3l6.8-7.3-3.4-1.2zm21.5-13l-6.7-2-.5 3z"/><path fill="#6f7173" d="M539.1 114l-6.1 4.4-5.9-1.4-3.8-4.6 9-.9z"/><path class="st5" d="M522.1 126.3l-8.8 8-3.2 10 10.8 6.8-2.6 7.2-12.1-5.4-2.1 8.1-5.5-4.2.7-26 11-10.1 7.9 2.2z"/><path class="st7" d="M522.1 126.3l9.6-.5 1.3-7.4-9.7-6-13 8.3z"/><path class="st2" d="M550.1 162.5l-13.7 10.3 4.9 1 8.8-1.8zm-34.3 3.8l2-4.7 1.4 5-1.3 5.4zm-2.5-7l-5.2-2.3-1.3 3.1zm23.1-1.4l8.4-7 1.3 3-3.9 8.2z"/><path class="st8" d="M550.1 172l-40 1.8-.7 7.8 1.9 6.7 49 .7z"/><path class="st1" d="M510.1 173.8h-8.4l-.8 7.2 1.4 7.3h9z"/><path class="st4" d="M501.7 173.8l-21.1-4.9 1.5 4.9 20.2 14.5z"/></g><g id="plant"><path class="st9" d="M805.5 128.2l-15-9.3 7.3 13.6zM774.3 167l-10.7 9 4.6-13.3zm88-28.2l8.2-14.3-14 10.9zm-134.6-16.5l-8.7 5.9 5.4-12.2z"/><path class="st1" d="M875.4 153.2l31.9 9-3.7 21.9-18.2-16.8z"/><path class="st9" d="M716.1 91.7L706 78l1.2 13.7z"/><path class="st10" d="M619.2 116l10.6 6.2 7.2 8 1.5 7.5-1.5 6.7-6.7-5.2-3-5.7-5.5-9.2z"/><path class="st11" d="M612.6 101.5l29.7 20.8-1.1 5.5-4.2 2.4-17.8-14.2-3.9-5.3z"/><path class="st9" d="M637 130.2l14.8 6.7 21.5 12.1-4.8 5-31.5-9.6z"/><path class="st8" d="M642.3 122.3l11.1 4.3 18.6 5.1 11.5 6.6-10.2 10.7-36.3-18.8z"/><path class="st3" d="M563.7 106.3l1.3 9.7 7.3-6 1.4 9.7 6.6-6.3v11.8l7.8-8.5v9.5l8.2-5.9 1.5 10.2 6-7 1 8.3 6.3-5.2.6 6.9 5.3-4.4 1.2 5.3 5.2-2.6-28.7-17zm58.1 31.2l-8.5-3.1 1.1 8.3-9.2-4.2 2.5 9-8.8-3.1 1.4 8.4-9.1-3.5 2.3 8.3-9.7-2.2 1.2 8.3 19.5-10.5z"/><path class="st8" d="M627.3 133.5L610 96l-26.9 2.5L559 103z"/><path class="st10" d="M552.1 101.3l75.2 32.2-44.2-35z"/><path class="st8" d="M627.3 133.5l9.7 10.9-32.3 34.1-18.4-11.5z"/><path class="st10" d="M627.3 133.5l-22.6 45-24.4-11.5zm26.1-6.9l32.8-25.1 5.8 1-12.3 17.9-13.2 11.3z"/><path class="st12" d="M666.5 131.7l25.5-29.2 4.7 1-9.7 18.8-11.1 13.1z"/><path class="st9" d="M683.5 138.3l29.5-30.6-16.3-4.2-20.8 31.9z"/><path class="st11" d="M686.2 101.5l26.8 6.2 19.4 6.7 18.1 2.9-9.2-11-17.5-6.6-27.1-6.5z"/><path class="st12" d="M741.3 106.3l-5.8-6.8L721 96l-24.3-2.8z"/><path class="st10" d="M696.7 93.2l30.6-4.2 8.2 10.5z"/><path class="st11" d="M637 144.4l4.3 17.3-12.4 9.6z"/><path class="st9" d="M637 144.4l-1.9 22.1-6.2 4.8z"/><path class="st11" d="M642.3 122.3l1-25.1 7.2 15.3z"/><path class="st9" d="M642.3 122.3l4.8-17 3.4 7.2z"/><path class="st12" d="M627.3 133.5L606 109.8l-22.9-11.3zm0 0l-5.5 21.9-17.1 23.1z"/><path class="st13" d="M713 107.7l70 69.8 5.5-10.2-22.5-22.9-36.7-32.5z"/><path class="st14" d="M729.3 111.9l40.2 34.4 21 15.9 7.3-8.2-47.3-36.7z"/><path class="st12" d="M729.3 111.9l61.2 50.3-2 5.1z"/><path class="st9" d="M779.5 174l38-59.2h21l7 5.6-11.7 13.1-6.9 7.8-38.4 43.2z"/><path class="st11" d="M794.2 151.1l3.6-18.6 26.7-27.2 6.5 4.5-10 14z"/><path class="st12" d="M794.2 151.1l36.8-41.3 7.5 5z"/><path class="st13" d="M822.5 146.3l12.4 17.4 13.9 24.1 24.7 30 14.8-6.8-30.5-36.7-30.9-33z"/><path class="st9" d="M834.9 163.7l3.6 23.1 17.9 36.1 4.1 6 13-11.1z"/><path class="st14" d="M826.9 141.3l6.9-7.8 29.5 30.2 34.5 40.6-9.5 6.7z"/><path class="st12" d="M833.8 133.5l4.7-5.3 27.3 21.1 37.8 34.8 3.7 14.9-9.5 5.3z"/><path class="st13" d="M845.5 120.4l58.1 63.7-65.1-55.9z"/><path class="st11" d="M738.2 132.8l-8.9 33.1-8.8-21.5zm3.1-26.5l14.7-7.8-4-22.2z"/><path class="st9" d="M738.2 132.8L724.4 154l4.9 11.9zm3.1-26.5l13-17.3 1.7 9.5z"/><path class="st11" d="M824.5 105.3l-16.2-22.5L829 93.2z"/><path class="st9" d="M824.5 105.3L820.7 89l-12.4-6.2z"/></g><g id="wall"><path opacity=".4" fill="#fff" d="M263.1 28.3H932v190.8H263.1z"/><path class="st16" d="M0 0v351h1170V0H0zm898.6 178.1L847 206.9H328.8l-51.6-28.8V66.7l51.6-28.8H847l51.6 28.8v111.4z"/><path d="M939.7 0h3.1v350h-3.1zm-758 0h3.1v350h-3.1z" fill="#cececd" fill-rule="evenodd" clip-rule="evenodd"/><path class="st18" d="M848.6 212.9H327.2l-56-31.3V63.2l56-31.3h521.4l56 31.3v118.4l-56 31.3zm-518.3-12h515.1l47.1-26.3V70.3L845.4 44H330.3l-47.1 26.3v104.3l47.1 26.3z"/></g><g id="stuff"><path class="st19" d="M131.3 187.3h-7v-5.5h-3.4v9h10.4v4.4h-10.4V209h3.4v-10.4h10.4v-11.3zM0 253.9h30.7v20.5H0z"/><path class="st20" d="M26.8 204.6h122v69.9h-122z"/><path class="st9" d="M41.7 218.4H122v31.1H41.7z"/><path class="st4" d="M124.5 252H39.2v-36.1h85.3V252zm-80.3-5h75.3v-26.1H44.2V247zm91.8-31.1h4v8h-4zm0 14h4v8h-4z"/><path class="st21" d="M112.3 274.5h-9.8v-15.2h9.8l.8 5z"/><path class="st19" d="M122 274.5h-9.7v-15.2h9.7l.9 6.5z"/><path class="st21" d="M131.8 274.5H122v-15.2h9.8l2 7z"/><path class="st19" d="M141.5 274.5h-9.7v-15.2h9.7l1.3 7.6z"/><path class="st21" d="M151.3 274.5h-9.8v-15.2h9.8l1.7 6.5z"/><path class="st19" d="M161 274.5h-9.7v-15.2h9.7l1.3 5.7z"/><path class="st21" d="M170.8 274.5H161v-15.2h9.8l1 7z"/><path class="st19" d="M180.5 274.5h-9.7v-15.2h9.7l.8 6.5z"/><path class="st21" d="M190.3 274.5h-9.8v-15.2h9.8l1 6z"/><path class="st19" d="M190.3 259.3h9.8v15.2h-9.8z"/><path class="st20" d="M79 245l-8.5-11.1-4.8-10.1zm2.8-2l-9.5-14 7.7 8zm-10.1-3.4L62 224.7l3.7 8.5z"/><path class="st11" d="M97 150.8l-15.2 3.9-10.1-3.9v-36.7H97zm-25.5 0l1.7 12.2-1.7 13.2H0v-25.4z"/><path class="st19" d="M71.5 150.8H97l-25.5 25.4z"/><path opacity=".2" fill="#2b2b2b" d="M71.7 114.1H97v9.6H71.7z"/><path class="st11" d="M161 80.7h-28V47.8h28v32.9zm-21.5-6.5h15.1V54.3h-15.1v19.9z"/><path class="st23" d="M39.9 0H148v96.9H39.9z"/><path class="st11" d="M59.3 0h1.8v91.2h-1.8z"/><path class="st19" d="M34.8 0H153v18.5H34.8z"/><path class="st20" d="M54.9 116.9l40.1-2.8 37.9 2.8 15-20-54-2.9-54 2.9z"/><path class="st19" d="M91.8 96.9h4.1v20h-4.1zm-26 0h4.1v20h-4.1zm52 0h4.1v20h-4.1z"/><path class="st19" d="M50.6 111.2l4.3 5.7h78l4.3-5.7z"/><path class="st11" d="M39.9 91H148v6H39.9z"/><path class="st4" d="M138.7 82.9H70.2V46h68.5v36.9zm-65.5-3h62.5V49H73.2v30.9z"/><path class="st21" d="M122 54h8.4v3.3H122zm0 6h8.4v3.3H122zm0 6h8.4v3.3H122z"/><circle class="st0" cx="113.6" cy="56.3" r="2.3"/><circle class="st0" cx="113.6" cy="66.3" r="2.3"/><path class="st21" d="M77.5 53.2H79v23.2h-1.5zm3 0H82v23.2h-1.5zm3 0H85v23.2h-1.5zm3 0H88v23.2h-1.5zm3 0H91v23.2h-1.5zm3 0H94v23.2h-1.5zm3 0H97v23.2h-1.5z"/><path class="st11" d="M26.1 0H161v14.5H26.1z"/><path d="M45.7 150.8h4.9v25.3h-4.9zm-25 0h4.9v25.3h-4.9z" fill="#ccc"/><g><path class="st0" d="M355.8 216.5v-11.9h-14.4v11.9l-6.4 5.4v25.9h27.2v-25.9z"/><path class="st21" d="M338.1 228.2h21.4v16.4h-21.4z"/><path class="st0" d="M465.8 222.5v-5.9h-18.1v5.9l-8.1 10.4v10.9l3.8 4h26.7l3.8-4v-10.9z"/><path class="st21" d="M471.6 243.3l-2.6 2.8h-24.7l-2.4-2.8v-9.9l3-3.4h23.9l2.8 3.4z"/><path class="st25" d="M459 236.4l1.2 1.6-2.9 1.4-.1-1.5zm1.2 4.8l2.5-1v2.3zm2.1-7.3h1.3l.6 2.5-1.9-.7z"/><path class="st0" d="M327.5 204.6h-15.4l2.9 4.4v38.8h9.7V209z"/><path fill="#8c8c8c" d="M316.7 219.8h6.2V246h-6.2z"/></g><g><path class="st0" d="M1114.1 74.5V60.8l-14.9-2.9 3.1-9.2-11.5-13.7-6.4 21 9.6 8.8-6.9 6.7 10.2 12.8zm-5.8-25.8l-9.1-12.2 9.1-10.9 3.9 12.3zM1090.8 35l-5.4-9.4 6.9-9.6 2.4 14z"/><path class="st25" d="M1109.1 77.4l1.2-7.7-6.9-7.4-6.9 10.2 4.9 9.4zm-12.6-14.6l-5-4.9 1.2-9.2 3.8 6z"/><path class="st7" d="M1121.5 69.7l-36.1 15.4 36.1 20.6z"/><path class="st5" d="M1121.5 91.1v-7.4l-22.3 9.3 7.2 4.1z"/><path class="st13" d="M1120.5 119.3l31.8 2.1 17.7-2.1V37.9l-21.5-1.4-28 1.4z"/><path class="st7" d="M1150.5 144.2h19.5v-24.9h-49.5z"/><path class="st5" d="M1170 128.9h-37.9l6.1 5.1h31.8z"/><path class="st4" d="M1126.9 47h2.5v27.5h-2.5zm0 31h2.5v27.5h-2.5z"/><path class="st11" d="M1145.2 78l13.4.9 11.4-.9V37.9l-11.7-1-13.1 1z"/><path class="st7" d="M1145.2 78l8.3 7.5h16.5V78z"/><path class="st3" d="M1120.5 37.9l15.5-9.6 16.3-1.5 17.7 1.5v9.6z"/><path class="st13" d="M1136 22.9h34v5.4h-34z"/></g><g><path class="st0" d="M987.5 0c-.7 2.7-1.1 5.4-1.1 8.3 0 17.2 14 31.2 31.2 31.2s31.2-14 31.2-31.2c0-2.9-.4-5.7-1.1-8.3h-60.2z"/><path class="st7" d="M976.1 12h82.4v14h-82.4z"/><path class="st27" d="M963.2 0h108.2v20H963.2z"/></g><g><path class="st11" d="M908.2 0v9H748V0h-14v23h188.2V0z"/><path class="st27" d="M806.7 9H748V0h-14v23h62.3zM680 0h16.7v47.5H680z"/><path class="st18" d="M683.5 53.2h-59.6L619.2 20l4.7-20h59.6z"/><path class="st1" d="M753.5 53.2h-59.6V0h99.6z"/><path class="st18" d="M584.7 0v8.5h-39.8V0h-8v16.5h55.8V0z"/><path class="st1" d="M559.3 0v22.7l22 28.5 37.9-3.4 4.7-25.1V0z"/><path class="st27" d="M559.3 22.7l20 30.5h44.6V22.7z"/><path class="st0" d="M660.3 39.6H676v5.8h-15.7zm0-10H676v5.8h-15.7zm0-10H676v5.8h-15.7z"/><path class="st27" d="M702 32.4h2.3v12.9H702zm5 0h2.3v12.9H707zm5 0h2.3v12.9H712zm5 0h2.3v12.9H717z"/></g></g><g id="robot"><path class="st34" d="M247.4 75.7l-3.4-7.6-2.7 1.6 1.8 7.7z"/><path class="st1" d="M263.1 125.5l13-4.8 10 2.3 7.3 3.6-28.7 10.8-1.5-5.4z"/><path class="st35" d="M276.1 120.7l17.3 5.9-4.6-10.5-7.9 1.5z"/><path class="st34" d="M288.8 116.1l-10.5-23-6 1.6-5.9 3.6 9.7 22.4z"/><path class="st35" d="M278.3 93.1l-8-7-3.3 6.1-.6 6.1z"/><path class="st34" d="M270.3 86.1l-22.9-10.4-4.3 5.3-1.3 5.3 24.6 12z"/><path class="st35" d="M247.4 75.7l-4.8.6-3.8 4 3 6zm-2.3 140.2h9.3v17.6h-9.3z"/><path class="st19" d="M226 232.2h47.5v7.2H226z"/><path class="st18" d="M214.7 238h70.1v10.7h-70.1z"/><path class="st0" d="M208.3 98.3l-5.3 7.9v7.9l9.5-11.8z"/><path class="st36" d="M212.5 102.3l-9.5 11.8v17l3.8-1.6z"/><path class="st0" d="M212.5 102.3l-5.7 27.2 4.6-1.8 4.7-21.9z"/><path class="st36" d="M216.1 105.8l1.9 1.9-.4 17.5-6.2 2.5z"/><path class="st0" d="M200 97.4l-5.3.9-1 5zm23.3 13.8l5.4 3.6-1.9 3.5h-2zm-30.9-3.5l-4 2.4.8 4.7h3.2zm3.1-16.3h-6.9l.9 3.3zm25.2 18.9l1 13.3-4.1 1.6.4-17.5z"/><path class="st1" d="M277.2 196.8L213.8 222l-17.6-44.3-4.5-7.4-4.3-14.7 31-13.8 32.4-11.4 5.3 10.7 3.5 11.4z"/><path class="st34" d="M250.9 130.7l-63.4 25.2 2.9-19.8 43.4-17.3z"/><path class="st21" d="M271.7 210l-44.8 17.8-13.2-6 31.8-10.9 31.6-14.3z"/><path class="st35" d="M220.3 224.8l54.1-21.5 2.7-6.7-63.4 25.2z"/><path transform="rotate(-21.69 223.69550223 154.59805616)" class="st0" d="M200.2 151.9h47v5.5h-47z"/><path transform="rotate(-21.69 223.69727914 154.5986671)" class="st3" d="M215.3 151.9h16.9v5.5h-16.9z"/><path class="st21" d="M189.5 180.4l6.7-2.7-8.8-22.1-12.3 4.9 8.7 10z"/><path class="st35" d="M189.5 180.4l3.4-1.3-14-20.2-3.8 1.6 4.1 5.8 4.2 7.3z"/><path class="st1" d="M179.2 166.3l-1.9 39 7.1-5.2 4.6-5.2.5-14.5z"/><path class="st35" d="M189 194.9l.3 6.2-.6 5.1-11.4-.9z"/><path class="st34" d="M189 194.9l24.5 1.4.5 6.3-1.6 5.7-23.7-2.1z"/><path class="st21" d="M266.4 149.8l-6.8 2.7-8.8-22.1 12.3-4.9.6 13.2z"/><path class="st35" d="M266.4 149.8l-3.4 1.4-3.7-24.2 3.8-1.5zm-52.9 46.5l4.7 2.3 4.2 5.7-10 4z"/><path class="st34" d="M213.5 196.3l10-19.5 6.6 1.7 3.7 2.9-11.4 22.9z"/><path class="st35" d="M223.5 176.8l1.6-2 3.2-.8 4.5 2 1.8 2.2-.8 3.2z"/><path class="st34" d="M228.3 174l-3.4-4.6-1.9-1.4-2.9.3 3.4 8.5zm4.5 2l5.6-1.2 2.5.3.9 2.2-8 4.1z"/><path class="st35" d="M224.9 169.4l1.6-7.9-2.9-1.9-3.5 8.7zm13.5 5.4l3.7-6.2 3 .7-3.3 8zm-49.8-26.4l55.9-22.1-4.5-3.2-50.7 20.5z"/><path class="st34" d="M152.5 106l37.9 30.1-3.7 4.6-19.5-14.3-18.4-15.8z"/><path fill="#848484" d="M150.8 113.4l17 12.3 18.9 15-28.1-3.2z"/><path class="st35" d="M167.8 125.7l-19-15.1 9.7 26.7z"/><path class="st11" d="M231.9 87.4l51.3-53-1.5-3.3-4.9-2.8-51.3 53 2.4 3.9z"/><path fill="#a8a8a8" d="M229.2 101.6l2.7-14.2-6.4-6.1-14.1 3.2 8.4 10.5z"/><path transform="rotate(-45.949 216.10150752 97.39923381)" class="st35" d="M210 85.1h12.1v24.7H210z"/><path transform="rotate(-45.949 240.29215235 72.39852348)" class="st23" d="M239.1 68h2.4v8.8h-2.4z"/><path transform="rotate(-45.949 254.1792943 58.0260623)" class="st23" d="M253 53.6h2.4v8.8H253z"/><path transform="rotate(-45.949 268.10509752 43.64675555)" class="st23" d="M266.9 39.2h2.4V48h-2.4z"/><path class="st34" d="M238.8 80.3l-3.5-.4-3.4 1.1v1.9l9.9 3.4z"/><path class="st35" d="M231.9 82.9l-2.7-10.5 3.4 1.6 2.7 5.9zm7.3-15.7h-5.4l2.5 3z"/><path class="st0" d="M203 114.1l-4.7 18.8 4.7-1.8z"/><path class="st11" d="M276.8 28.3l5.2 1.5h5.3l-1-15.3h-10.2z"/><path class="st34" d="M276.8 28.3l6.4.9 4.1.6-4.1 4.6z"/><path class="st11" d="M222.6 0l-28 38.4 3 2.9 4.2 2.3L233.4.1l-.1-.1zm-5.4 69.9l-15.4-26.3-4.2.7-4.2 1.7 16.4 28.3z"/><path transform="matrix(.5879 -.8089 .8089 .5879 63.4423 179.6237)" class="st23" d="M206.8 23.1h2.4v8.8h-2.4z"/><path class="st23" d="M209.8 57.3l-1.3-2.3-7.6 4 1.4 2.3z"/><path class="st34" d="M201.8 43.6l-7.2-5.2-1.2 7.6z"/><path class="st27" d="M323.5 15.4H182L172 0h161.5z"/><path class="st7" d="M178.3 9.7l3.7 5.7h141.5l3.7-5.7z"/></g><g id="tables"><path class="st3" d="M0 351h1170V228.2H728.9l-25.4 27.1H215l-24.7 24.4H0z"/><path class="st20" d="M253.9 260.9h3.5v90.4h-3.5zm520.7-25h3.5v115.4h-3.5z"/><path opacity=".1" fill="#2b2b2b" d="M726.4 227.6L701 254.7H209L187.3 279H0v15.3h196.3L218 270h492l25.4-27.1H1170v-15.3z"/><path class="st0" d="M726.4 220.6L701 247.7H209L187.3 272H0v15.3h193.3L215 263h491l25.4-27.1H1170v-15.3z"/><path transform="rotate(-45 267.74815485 278.14571426)" class="st40" d="M264.3 274.7h7v7h-7z"/><path class="st41" d="M272.7 278.1l-4.9 5-5-5z"/><path transform="rotate(-45 243.74796343 278.14549355)" class="st40" d="M240.3 274.7h7v7h-7z"/><path class="st41" d="M248.7 278.1l-4.9 5-5-5z"/><path transform="rotate(-45 788.53213062 252.1516915)" class="st40" d="M785 248.7h7v7h-7z"/><path class="st41" d="M793.5 252.1l-5 5-4.9-5z"/><path transform="rotate(-45 764.5319892 252.15135007)" class="st40" d="M761 248.7h7v7h-7z"/><path class="st41" d="M769.5 252.1l-5 5-4.9-5z"/><path class="st19" d="M46.8 303.5h3.1V341h-3.1zm6 0h3.1V341h-3.1zm6 0h3.1V341h-3.1zm6 0h3.1V341h-3.1zm6 0h3.1V341h-3.1zm6 0h3.1V341h-3.1zm6 0h3.1V341h-3.1zm6 0h3.1V341h-3.1z"/><g><path class="st19" d="M146.8 303.5h3.1V341h-3.1zm6 0h3.1V341h-3.1zm6 0h3.1V341h-3.1zm6 0h3.1V341h-3.1zm6 0h3.1V341h-3.1zm6 0h3.1V341h-3.1zm6 0h3.1V341h-3.1zm6 0h3.1V341h-3.1z"/></g></g><g id="robot2"><path transform="rotate(-45 776.46171334 291.64295833)" class="st4" d="M764.7 279.9h23.5v23.5h-23.5z"/><path class="st7" d="M1086.9 128.8l15.4 7-.5 2.8-2 1.9-17.5-4 1.4-4.1z"/><path class="st5" d="M1102.3 135.8l4.5 9.3-6.9 4.8-.1-9.4z"/><path class="st7" d="M1053.9 123.4v14.8h-6.6l-3.5-16.8 4.6.7z"/><path class="st5" d="M1016.3 99.3l-24.5 2.2-1.2 5.4 1.2 5.3 24.5-7.1z"/><path class="st7" d="M991.8 101.5l-9-4.7-11-2.4 20 17.8z"/><path class="st5" d="M991.8 101.5L989 91.3l-9-.8-8.2 3.9z"/><path class="st7" d="M989 91.3l-7.9-19.8-9.3 22.9z"/><path class="st5" d="M1035.7 119.3l-6.2 10.4 2.2 11.3-6.4-6.3-3.9-7.8z"/><path class="st13" d="M1059.8 77l6.2 13.5-4.2 2.8-2.3-1.8-4-7.5 1.2-4.3z"/><path class="st7" d="M1066 90.5l-6.2 10.3-2.3-3 2-6.3 2.6-.4z"/><path class="st13" d="M960.2 132l38.6-54.7 6.7 5-38.8 54.2zm-45 28.5l37.6 9.5-1.5 8.5-37.3-9zm40.5 7.3l3.1-26.8 7.9.9-3.9 31.1zM1006 68l35.2 11.3.3 4.2-2.6 3.4-29.9-9.3z"/><path class="st7" d="M949.5 166.1l1.7 16.3 14.7-8.2-12.4-10.2zm21.1-23.9l-16.1 1.1 2.2-15.1 15.1 8.3zm37.4-57.9l-14.7-9.1 13.7-10.4 5.3 15.7zm33.2-5l18.6-2.3-4.3 7-8.6 1.5-2.8 1.4h-5.2z"/><path class="st5" d="M1016.3 99.3l36.7-12.4 8.8 17.1-4.8 11.4-5.3 8-19.3-5z"/><path class="st13" d="M1038.9 86.9l2.6 14.9 3.5-2.5 1-2.5.9-11.3z"/><path class="st7" d="M1046 96.8l7 2-1.1 3h-10.4z"/><path class="st13" d="M1016.3 99.3l21.5 4.7-2.1 15.3-7.2 3.2-18.7-4.7z"/><path class="st7" d="M1035.7 119.3l-17.5.6-3.2 8.3 5.3.6 3-1.3z"/><path class="st13" d="M1023.3 127.5l8.4 13.5-7.9.8-8.8-13.6zm38.5-23.5l7 9 12.2 7.3 11.7-1.3-12.4 20.8h-19.5l-9.1-16.4z"/><path class="st0" d="M1068.9 121.9c0 2-1.6 3.7-3.7 3.7-2 0-3.7-1.6-3.7-3.7 0-2 1.6-3.7 3.7-3.7 2 0 3.7 1.7 3.7 3.7z"/><path class="st5" d="M1066.5 121.9c0 .7-.6 1.3-1.3 1.3-.7 0-1.3-.6-1.3-1.3 0-.7.6-1.3 1.3-1.3.7 0 1.3.6 1.3 1.3z"/><path class="st0" d="M1078.4 127.5c0 2-1.6 3.7-3.7 3.7s-3.7-1.6-3.7-3.7 1.6-3.7 3.7-3.7 3.7 1.7 3.7 3.7z"/><path class="st5" d="M1076.1 127.5c0 .7-.6 1.3-1.3 1.3s-1.3-.6-1.3-1.3c0-.7.6-1.3 1.3-1.3s1.3.6 1.3 1.3zm-5.4 2.5l-4.3 1-1-4.3z"/><path class="st20" d="M1070.7 130v-6.2l-5.3 2.9z"/><path class="st7" d="M1066.4 131l-1.8.8 1.1 1.3zm17.3-8.7l4.6-.4-2.3 4.3zm-18.3-10.1l-3.2-4-2 4z"/><path class="st5" d="M1068.5 135.2l-6.7-7-3.3 4.2z"/><path transform="matrix(.9742 .2255 -.2255 .9742 60.4015 -201.3465)" class="st7" d="M906.8 151.4h9.5v24.7h-9.5z"/><path transform="rotate(-45 776.46171334 291.64295833)" class="st21" d="M768.7 283.8h15.6v15.6h-15.6z"/><path class="st11" d="M820 282.2h19.9l.9-3.6-.9-3.6H816l1.4 4.5z"/><path class="st13" d="M816 275l-16 20.2v3.9l3 5.1 17-22z"/><path class="st11" d="M800 295.2l-23.5-7.8-4.3 4.2 4.3 4.3 26.5 8.3z"/><path class="st13" d="M839.9 269.9h5.5v17.4h-5.5z"/><path class="st5" d="M877.8 296l-17 2.8-16.4-2.8v-36.6l18.1 1.5 15.4 6.2z"/><path class="st1" d="M917.1 322l-56.3 1.6-55.5-1.6 30-26h51.8z"/><path class="st13" d="M860.4 307.8h1.5v18.6h-1.5z"/><path transform="matrix(-.9747 -.2237 .2237 -.9747 1694.8134 699.9025)" class="st7" d="M864.7 248h44.7v11.8h-44.7z"/><path transform="matrix(-.9747 -.2237 .2237 -.9747 1718.6001 708.2744)" class="st13" d="M893.9 244.5h11V269h-11z"/><path transform="matrix(.9747 .2237 -.2237 .9747 75.8259 -182.1574)" class="st7" d="M819.4 237.7h44.9v11.8h-44.9z"/><path transform="matrix(.9747 .2237 -.2237 .9747 48.3226 -197.3821)" class="st7" d="M876.4 108h37.8v13.1h-37.8z"/><path class="st11" d="M880.6 263.1l-39.5-10.2-4.4-4.4L868.9 108l53 12.2-15.6 67.9-9.1 32.6-2 16-5.5 24z"/><path transform="matrix(.9747 .2237 -.2237 .9747 64.4718 -191.7177)" class="st9" d="M877.5 112.1h1.6v153h-1.6z"/><path transform="matrix(.9747 .2237 -.2237 .9747 69.7165 -194.3602)" class="st5" d="M884.4 185.6H901v49.9h-16.6z"/><path transform="matrix(.9747 .2237 -.2237 .9747 72.7471 -192.9324)" class="st0" d="M886.3 218.7h3.1v11.8h-3.1z"/><path transform="rotate(12.926 885.0683931 158.68028586)" class="st0" d="M866 156.4h38.1v4.6H866z"/><path transform="matrix(.9746 .2237 -.2237 .9746 57.1345 -191.7167)" class="st42" d="M873.9 154h1.4v4.6h-1.4z"/><path transform="matrix(.9747 .2237 -.2237 .9747 57.9429 -194.0157)" class="st42" d="M884.4 156.4h1.6v4.6h-1.6z"/><path transform="matrix(.9747 .2237 -.2237 .9747 58.7594 -196.3431)" class="st42" d="M895.3 158.9h1.4v4.6h-1.4z"/><path transform="rotate(-32.07 889.9303225 138.50916613)" class="st5" d="M879.5 128.1h20.8v20.8h-20.8z"/><path transform="rotate(-32.07 889.93601716 138.50835446)" class="st0" d="M884.2 132.8h11.5v11.5h-11.5z"/><path transform="matrix(.9747 .2237 -.2237 .9747 66.3229 -186.2715)" class="st0" d="M853.4 197.8h3.6v3.6h-3.6z"/><path transform="rotate(12.926 852.9811153 209.31291953)" class="st0" d="M851.2 207.5h3.6v3.6h-3.6z"/><path transform="rotate(12.926 850.8417661 219.0966165)" class="st0" d="M848.9 217.2h3.6v3.6h-3.6z"/><path transform="rotate(12.926 848.50668603 228.8059281)" class="st0" d="M846.7 227h3.6v3.6h-3.6z"/><path transform="rotate(12.926 829.4318205 240.73339369)" class="st13" d="M823.9 228.5h11V253h-11z"/><path class="st27" d="M877.9 267.1l-33.5-7.7-7.7-10.9 53 12.2z"/><path class="st13" d="M853.3 244v52l7.1 11.8h1.5L869 296v-52z"/><path class="st0" d="M857.2 248v47.3l4 6.6 3.9-6.6V248z"/><path class="st13" d="M917.1 339.8l-55.2-1.4-56.6 1.4V322h111.8z"/><path class="st21" d="M805.3 333.9h111.8v5.9H805.3z"/><ellipse transform="matrix(.7732 -.6341 .6341 .7732 -29.3595 597.5661)" class="st5" cx="820.8" cy="339.8" rx="10.2" ry="10.2"/><path class="st4" d="M825 339.8c0-2.3-1.9-4.2-4.2-4.2-2.3 0-4.2 1.9-4.2 4.2 0 2.3 1.9 4.2 4.2 4.2 2.3 0 4.2-1.9 4.2-4.2z"/><ellipse transform="rotate(-39.077 860.789087 339.79999803)" class="st5" cx="860.8" cy="339.8" rx="10.2" ry="10.2"/><path class="st4" d="M865 339.8c0-2.3-1.9-4.2-4.2-4.2-2.3 0-4.2 1.9-4.2 4.2 0 2.3 1.9 4.2 4.2 4.2 2.3 0 4.2-1.9 4.2-4.2z"/><ellipse transform="matrix(.7793 -.6266 .6266 .7793 -14.1612 639.4537)" class="st5" cx="900.8" cy="339.8" rx="10.2" ry="10.2"/><path class="st4" d="M905 339.8c0-2.3-1.9-4.2-4.2-4.2-2.3 0-4.2 1.9-4.2 4.2 0 2.3 1.9 4.2 4.2 4.2 2.3 0 4.2-1.9 4.2-4.2z"/><g><path class="st7" d="M1125 284.3h-10.9v-20.9h10.9l1.9 9.4z"/><path class="st13" d="M1145.9 284.3H1125v-20.9h20.9l1.1 9.4z"/><path class="st7" d="M1145.9 284.3v-20.9l15.2 6.7-6.6 8.5z"/><path class="st13" d="M1106.8 256.1h10.9v35.6h-10.9zm63.2 54.3l-24.1-26.1 15.2-14.2 9 9.7z"/><path fill="#f9f9f9" d="M1108.3 323.6l-70.5 2.7-64.5-2.7V205.8l20-40.9 44.5-3.7 50.5 3.7 20 40.9z"/><path class="st13" d="M1088.3 344.6l-50.5-2.3-44.5 2.3-20-21h135z"/><path class="st44" d="M978.3 205.8h124.9v112.5H978.3z"/><path class="st7" d="M986 337l7.3 7.6h95l7.3-7.6z"/><path class="st25" d="M1088.3 165.1l-47.5-4.5-47.5 4.5v-25.3h95z"/><path class="st13" d="M993.3 156h95.1v9.1h-95.1z"/><path class="st0" d="M998.3 145h7.2v6.5h-7.2z"/><path class="st5" d="M1009.8 145h7.5v1.5h-7.5zm0 3h7.5v1.5h-7.5z"/><path class="st13" d="M1043.8 139.8l6.5-4.6 7.2 4.6z"/><path class="st7" d="M1057.5 139.8l-4.5 5.2-6.1-1-3.1-4.2z"/><path class="st13" d="M993.3 344.6h95.1v5.4h-95.1z"/></g><g><path class="st13" d="M1033.6 284.5l-15.5 12.4-15.8 11.2-6.7-18.9 21.7-16.3z"/><path transform="rotate(-36.975 1018.78250635 297.33626272)" class="st7" d="M999.2 296h39.2v2.8h-39.2z"/><path class="st7" d="M1012.8 267.2l-21.5 16.2 1.1 2.3 1.7 1.4 21.5-16.2-.9-2.3z"/><path class="st13" d="M991.3 283.4l-5.9 10.2-.2 8.9 5.1-2.9 4.6-4.4-.8-8.1z"/><path transform="rotate(-36.975 990.72295032 299.69490492)" class="st7" d="M984.6 298.6h12.2v2.2h-12.2z"/><path class="st13" d="M1012.8 267.2l11.5-2.8 8.6 2.2-4.8 4.6-4.9 2.8-7.6-3.1z"/><path transform="rotate(143.025 1028.66296443 271.16191734)" class="st7" d="M1022.6 270.1h12.2v2.2h-12.2z"/><circle class="st44" cx="1012.4" cy="288.9" r="6.7"/><path class="st7" d="M1010.6 284.9c.3.4.2 1-.2 1.3-.4.3-1 .2-1.3-.2-.3-.4-.2-1 .2-1.3.4-.3.9-.2 1.3.2zm5.2 7c.3.4.2 1-.2 1.3-.4.3-1 .2-1.3-.2-.3-.4-.2-1 .2-1.3.4-.3 1-.2 1.3.2zm-7.4-1.1c.4-.3 1-.2 1.3.2.3.4.2 1-.2 1.3-.4.3-1 .2-1.3-.2-.3-.4-.2-1 .2-1.3zm7-5.2c.4-.3 1-.2 1.3.2.3.4.2 1-.2 1.3-.4.3-1 .2-1.3-.2-.3-.4-.2-1 .2-1.3zm-4.5 7.5c.1-.5.5-.9 1-.8.5.1.9.5.8 1-.1.5-.5.9-1 .8-.5 0-.8-.5-.8-1zm1.2-8.6c.1-.5.5-.9 1-.8.5.1.9.5.8 1-.1.5-.5.9-1 .8s-.8-.5-.8-1zm4.8 4.1c-.5-.1-1 .3-1 .8s.3 1 .8 1c.5.1 1-.3 1-.8 0-.4-.3-.9-.8-1zm-8.6-1.2c-.5-.1-1 .3-1 .8-.1.5.3 1 .8 1 .5.1 1-.3 1-.8 0-.4-.3-.9-.8-1z"/><path transform="rotate(-36.975 1005.55657556 279.74002884)" class="st5" d="M998.9 278.3h13.3v2.9h-13.3z"/></g><g><path fill="#717272" d="M1076.5 315l-31.2-10.8 7.9-37.9 6.4-3.1 31.2 10.8z"/><path class="st46" d="M1058.5 265.9l28.6 9.9-12.4 35.7-2.9 1.9-29.6-10.3 13.4-36z"/><path transform="rotate(19.144 1061.77875924 292.3062031)" class="st47" d="M1045.2 270.5h33v43.4h-33z"/><path transform="rotate(19.144 1065.21009256 282.23165208)" class="st44" d="M1056.1 278.1h18.1v8h-18.1z"/><path transform="rotate(19.144 1065.29593602 281.20193518)" class="st47" d="M1058.8 280.7h12.9v.7h-12.9z"/><path transform="rotate(19.144 1064.65238464 283.09732661)" class="st47" d="M1060.4 282.6h8.4v.7h-8.4z"/></g><path class="st46" d="M1027.2 248.3l4.5 4.5-3 2.2-4-2.3zm-1.7-9l2.7 1.5-2.7 1.7-2.3-1.6zm4.2-23.1l2 3.6-3 1.2-1.5-1.7zm-21.7 14.4l1.8 2.7-5 2.9-1.4-3.7zm60.6.9l4.1 4.7-4.7 2-1.7-3.3zm15.1 21.5l3.4-1.3 1.2 4.4-4.6 1.7zm-5.4 8.3l3.4-1.6v4.7l-3.4-1zm1.7-33.6l-1.7 3.8-2.3-2.5 2-2.8zm1.7-9.1l-3.4-4.1-1.5 2 1.5 2.1zm-52.3 10.5l3.5 1.5-1.2 2.8-2.3-.9zm-18.7 30.6l2.3-2.7 1.6 5-3.7 1.2z"/><path fill="#cececd" d="M1103.3 256.1h5.1v35.4h-5.1z"/><path class="st13" d="M1099.8 256.1h3.5v35.6h-3.5z"/></g><g id="rat"><path class="st19" d="M270.3 327.1l-15.6-5.5-3.7 2-2.3 1.8 21.6 9.6.5-3.1z"/><path class="st21" d="M254.7 321.6l-6-14.5-1.9 2.3-1 3.6 2.9 12.4z"/><path class="st19" d="M248.7 307.1l-18.2 2 .8 1.2 2 1.5 12.5 1.2z"/><path class="st19" d="M233.3 311.8l-5.5 9.4 2.7-12.1z"/><path class="st21" d="M270.3 335h-9.6l4 15h4.6l-1.9-10 10.6 4-4.5-6.2z"/><path class="st35" d="M286.7 340.6l-4.8 1.2-3.9 2.2 16.4 6h8.5z"/><path class="st21" d="M302.9 289.7l-6.5-10.4-2 11.5 6.7 8.4z"/><path class="st35" d="M302.9 289.7l8-8.5v8.5z"/><path class="st21" d="M302.9 289.7l19.7-2.1 4.1 1.1 1.2 3.9-10.5 11-9.4-7.7z"/><path class="st35" d="M302.9 289.7l-6.5 16.6 21-2.7zm19.7-2.1l5.3 5 5.9-6.1z"/><path class="st0" d="M317.4 293.2c0 1.3-1.1 2.4-2.4 2.4s-2.4-1.1-2.4-2.4c0-1.3 1.1-2.4 2.4-2.4s2.4 1 2.4 2.4z"/><path class="st21" d="M317.4 303.6l-27.8 25.5-7.3-8.4-5.5-14.4z"/><path class="st35" d="M276.8 306.3l-6.5 20.8 6.9-6.1 4.7-5.9z"/><path class="st19" d="M270.3 327.1l6.2-6.5 5.4-5.5 12.5 22.6L278 344z"/><path class="st21" d="M270.3 327.1l3.2 8.4 4.5 8.5 8.7-3.4 7.7-2.9z"/><path class="st19" d="M308.3 312l-8.3.3 5.2 12.2 2.9-1.9 1-2.4z"/><path class="st21" d="M309.1 320.2l9.1 5.1-.8 1.1-2.4.6-9.8-2.5z"/><path class="st19" d="M322.3 319.2L339 282l6.2 11.5-11.4 31-6.1-5.1z"/><path class="st35" d="M320.8 335l-4.6-2.1 7.6-17 3.9 3.5z"/><path class="st19" d="M318.2 325.3l6.8.1-.5 3.4-2.2 2.6-7.3-4.4z"/><path class="st21" d="M325 325.4s1.8 4.1 1.6 4c-.3-.1-4.3 1.9-4.3 1.9l2.7-5.9z"/><path class="st35" d="M300 312.3l-1.7 8.9 4-3.4zM278 344l-7.7-16.9v7.9z"/></g><g id="intp"><path class="st49" d="M451.1 350l1.3-3.5V340l-5.9-6.1.4 16.1zm-52.7 0l1.1-3.1.7-5.3-5.4-6.6-.3 15z"/><path class="st50" d="M326.7 197.2l-22.9-20.1 21.3-4.4 35.4-15.6z"/><path class="st51" d="M366 154.7l-39.3 42.5-3.6-54.3 20.5 4.4z"/><path class="st52" d="M379.8 169.1l30.6 37.8-4.4 123-45.5-9.7 24.1-78.4-24.1-53.5z"/><path class="st53" d="M375 318.3h81.6l-2.7-17.3-74.1-5z"/><path class="st54" d="M405.8 334.1l1.1-29.6h-22.3l10.2 30.5 7.6 6.8z"/><path class="st55" d="M384.6 241.8l34-2.4 17.8 8.4 13.3 56.7h-42.8z"/><path class="st52" d="M409.2 160.2l16.3 40.9 28.1 120 25.7-24-35-67.1-1.7-27.3 4.3-13.8.4-5.6-6.9-14.2-13.6-11.3z"/><path class="st50" d="M334.3 78.8l-21.6 29-13.5 30.3 40.2 6.2 26.6 10.4z"/><path class="st56" d="M411.3 62.6l5.7 4 23.4 65.1-25.7 11.2-10.1 32.1-24.8-5.9-40.4-41.9V71.3l52.4-23.8z"/><path class="st54" d="M404.6 175l2.6-8.5-22.6-10.4 12.3-1.4-28-65.5-9.6-8.1-19.9 46.1 15.7 16.3 5.4 2.3 5.5 8.9 13.8 14.4 13.3 6.3z"/><path class="st57" d="M384.6 156.1l22.6 10.4 7.5-23.6z"/><path class="st58" d="M359.3 81.1l28.6-10.2 18.6-10.2L392.3 45l-55.9 24.9-9.7 56.2 19.5 11.3-6.8-10.2 5.2-18.4 16.9 15.5 1.1-3.6-14.2-21.5z"/><path class="st57" d="M355.1 143.5l4.7-6.5 6.2 17.7z"/><path class="st56" d="M355.1 143.5l7.5-10.5-17.3-19.5-5.9 13.7z"/><path class="st57" d="M347.2 120.7l6 6-9.6-.6z"/><path fill-rule="evenodd" clip-rule="evenodd" fill="#fff" d="M366.9 137.3l-3.4 3.4-7.3-7.2 3.6-3.6z"/><path fill="#fff1e8" d="M417.4 112.4l-9.1 3.3-10.6-26.6 9.1-3.3z"/><path fill="#c4937d" d="M417.4 112.4l-2.6 5.2-6.5-1.9z"/><path class="st62" d="M397.7 89.1l-25.1 9.1 7.6 18.7 25-9.1-7.5-18.7zm-19.6 11.6l17.2-6.2 4.3 10.9-17.1 6.2-4.4-10.9zm51.8-23.3l-23.1 8.4 7.6 18.7 22.9-8.3-7.4-18.8zm-17.6 10.9l15.1-5.5 4.3 10.9-15 5.5-4.4-10.9z"/><path class="st62" d="M420.1 85.4l-1.5-4-24.2 8.9 1.6 3.9z"/><path d="M376.1 92.6l4.8-.9 3.1-3.9h6.9l-9.2-2.2zm30.4-9.3l3.7-1.2 2.4-5.8h5.3l-7.1-2z" fill="#543042"/><path class="st62" d="M394.4 130.3l9.5-2.5 8.3 2.5-5-5.3-3.1.9-1.7-1.6z"/><path class="st64" d="M394.9 130.2l5.2 1.8 9.1-2.6-5.3-1.6z"/><path d="M424.6 100.7l-9.2 6.5-1.1-2.7zm-41.1 15l23.3-3.8-1.7-4.1zm-5.4-15l19.6-.1-2.5-6.1zm42-15.2l-5.4 8.6-2.5-5.8z" fill="#f5cab3"/><path class="st50" d="M392.3 45l-4.4 25.9 23.4-8.3z"/><path class="st66" d="M345.3 113.5l14.5 16.4 6.1-9-15.4-19.4 8.8-20.4-22.9-11.2-13.3 56.7 16.3.6z"/><path class="st62" d="M345.3 113.5l-3.1 7.2-2.8-9.3 33.1-13.2 3.6 8.9z"/><path class="st51" d="M323.1 126.6l17.2 14 14.8 2.9-15.7-16.3z"/><path class="st66" d="M299.2 138.1l23.9-11.5 32 16.9 10.9 11.2z"/><path class="st58" d="M334.3 78.8l-35.1 59.3 8.1-52.3z"/><path class="st16" d="M385.9 189.3l-2.4 11.6 19.8 9.6 7.1-3.6-13.4-16.5z"/><path class="st67" d="M404.6 175l-5.5 8.9-5.2 2.6-14.1-17.4z"/><path class="st68" d="M408.4 163l21.3 34.4 8.9-24.9z"/><path class="st69" d="M426.8 157.8l28.6-25.8 13.7-.3 11.9 4.7-33.7 46.9z"/><path class="st70" d="M481 136.4l1.9-45.8-9.9-7.3-17.6 48.7z"/><path class="st16" d="M470.9 59.5L462.7 38l-8.1 2.2 4.1 21.7-8.4 30.6 7 5.7 16.4-4.5 16.5-4.5 3-8.5z"/><path class="st54" d="M456.6 333.2l-6.9-28.7h-21.1l17.9 29.4 5.9 4z"/><path class="st52" d="M436.4 247.8l16 22.5 26.9 26.8-35-67.1-5.1 5.7z"/><path class="st57" d="M449.7 304.5h-21.1l2.8 4.6zm-43.8 26.2l.1-.8-13.9-2.9 1.7 5z"/><path class="st71" d="M490.3 81.4l-12.1-11.5-20.7 6.1-4.3 15.6 4.7 3.9 30.3-8.4z"/><path class="st56" d="M469.1 63.4l6-9.2 10.8 14.4-1.2 4-6.5-2.6-8.7-.1z"/><path class="st54" d="M466 63.4l3.7 9 8.5-2.4-3.1-15.8z"/><path transform="rotate(-65.114 460.68649755 89.9876387)" class="st72" d="M459.1 88.4h3.2v3.2h-3.2z"/><path transform="rotate(-65.057 459.4565397 85.06326626)" class="st72" d="M458.8 84.4h1.4v1.4h-1.4z"/><path transform="rotate(-65.07 464.74233269 88.7698168)" class="st72" d="M464 88.1h1.4v1.4H464z"/><path transform="rotate(-65.07 464.74231268 84.71521647)" class="st72" d="M464 84h1.4v1.4H464z"/><path fill-rule="evenodd" clip-rule="evenodd" fill="#e2e2e2" d="M379.8 169.1l30.6 37.8-4.4 123-45.5-9.7 15.6-37.5 8.5-40.9-24.1-53.5z"/><path class="st69" d="M409 244.7l-48.5 75.5 24.1-78.4 14.5-2.4z"/><path fill-rule="evenodd" clip-rule="evenodd" fill="#bcbcbc" d="M436.4 247.8l42.9 49.3-25.6 23.9-3.9-16.5-10.6-30z"/><path class="st67" d="M409 244.7l40.7 59.6-7.9-33.7-5.4-22.8-12.8-3.1z"/><path d="M423.2 88.2c.6 1.8.2 3.6-.8 3.9-1 .3-2.4-.9-3-2.7-.6-1.8-.2-3.6.8-3.9 1.1-.4 2.4.8 3 2.7zm-28.3 10.4c.6 1.8.2 3.6-.8 3.9-1 .3-2.4-.9-3-2.7-.6-1.8-.2-3.6.8-3.9 1.1-.3 2.5.9 3 2.7z" fill="#2b2b2b"/><path class="st54" d="M412.2 150.8l6.2-20.3 11 5.9 5.3 7.9-9.8 13.3-6.5.2z"/><path class="st56" d="M418.4 130.5l14.9-.6 7.1 1.8 1.4 10-7.1 2.6z"/><path fill="#8f8f8f" d="M437.9 193.3l-13 6.4 1.9 17.3 9.6 30.8 4-9 3.9-8.8 2.6-41.1z"/><path class="st54" d="M418.4 130.5l14.6-4.4 7.4 5.6z"/><path class="st53" d="M410.4 207l-15.5 5-18.4 11.8 8.1 18 24.4 2.9 3.9-18.9-2.5-18.8z"/><path class="st49" d="M428.7 215.7l-3.8-16-9.1.2-5.4 7.1-1.4 37.4.2.3 13.5 1.5 13.7 1.6zM404.6 175l-10.7 11.5 5.1 6.3 7.5-6z"/><path class="st69" d="M429.7 197.4l-4.8-39.8-5.5-2.9-7.2-3.9-13.3 42.5 9.5 6.6z"/><path class="st55" d="M446.5 333.9l10.1-.7L476 350h-22.3zm-51.7 1.1l11-.9 17.8 15.9h-22.9z"/><path class="st68" d="M379.8 169.1l-3.5 21.3 24.3 4.5z"/><path class="st70" d="M360.5 188.3l16 35.5 24.1-12 29.1-14.4z"/></g><g id="text"><path class="st77" d="M498.9 350l-7.2-44-8.8-74.8 18-4.6 10.1 46.5 5.9 76.9z"/><path class="st71" d="M526.2 350l-3.7-50.3-.8-68.7h13.2l48.9 84.9L570 231l19.3-2.8L608 350h-23l-46.7-72.3 10.4 72.3z"/><path class="st77" d="M608 231l73.2-17.7 2.1 29.9-34.2 3.8-10.9 103h-17.5l4-68 5.3-38.8-27.9 10.7z"/><path class="st71" d="M698 227.8l-21.3 60.7L660 350h26l9-54.8 55 8.3 5.2-29.1 2.7-40.5-59.9-6.1zm40.8 56.3l-40.8-8.2 7.1-39.2 35.9 6.8-2.2 40.6z"/><path class="st78" d="M511 273.1l-4-52.9-28.3 6.3 13 79.5z"/><path class="st64" d="M516.9 223.3l5.7 78.2 15.7-23.8 45.5 38.2-44.3-93.7z"/><path class="st64" d="M563.3 222.6l20.5 93.3 5.5-87.7z"/><path class="st78" d="M598.3 229l3.8 24.9 24.6-4.4-2 32.5 24.4-35 32.1-33.7z"/><path class="st64" d="M762.8 231.2L695 220.8l-18.3 67.7 21.3-12.6 8-32.6 35 .2 14.2 30.9z"/></g></svg>