<svg id="illustration" xmlns="http://www.w3.org/2000/svg" viewBox="0 0 1170 350"><style>.st0{fill:#dddddc}.st1{fill:#c4c4c4}.st2,.st3,.st4{fill-rule:evenodd;clip-rule:evenodd}.st2{opacity:.1;fill:#2b2b2b}.st3,.st4{fill:#a0a0a0}.st4{fill:#fff}.st6{opacity:.1;fill:#2b2b2b}.st7{fill:none;stroke:#afafaf;stroke-width:2;stroke-miterlimit:10}.st8{fill:#969696}.st9{fill:#a3a3a3}.st11{fill:#d3d3d3}.st12{fill:#fff}.st15{fill:none;stroke:#bababa;stroke-width:2;stroke-miterlimit:10}.st17{fill:#848484}.st18{opacity:.13;fill:#2b2b2b}.st19{fill:#a0a0a0}.st20{fill:#afafaf}.st21{fill:#939393}.st22{fill:#c9c9c9}.st23{opacity:.2;fill:#2b2b2b}.st25{fill:#7f7f7f}.st26{fill:#aaa}.st27{fill:#9b9b9b}.st28{fill:#898989}.st29{fill:#b2b2b2}.st31{fill:#bfbfbf}.st32{fill:#686868}.st33{fill:#7a7a7a}.st36{fill:#bcbcbc}.st37{fill:none;stroke:#d3d3d3;stroke-miterlimit:10}.st38{fill:#eaeaea}.st39{fill:#ececeb}.st40{fill:#5e5e5e}.st42{fill:#9e9e9e}.st43{fill:#ededed}.st44{fill-rule:evenodd;clip-rule:evenodd;fill:#aaa}.st45{fill:#8e8e8e}.st47{fill:#666}.st48{fill:#474747}.st50{opacity:.16;fill:#2b2b2b}.st51{fill:#727272}.st52{fill:#777}.st53{fill:#999}.st54,.st55,.st56,.st57{fill-rule:evenodd;clip-rule:evenodd;fill:#ffdbc7}.st55,.st56,.st57{fill:#29788b}.st56,.st57{fill:#c2927d}.st57{fill:#3a9fb9}.st58,.st59,.st60,.st62,.st63,.st65{fill-rule:evenodd;clip-rule:evenodd;fill:#ebbea7}.st59,.st60,.st62,.st63,.st65{fill:#c4937d}.st60,.st62,.st63,.st65{fill:#fbe9de}.st62,.st63,.st65{fill:#4f5253}.st63,.st65{fill:#73cacb}.st65{fill:#359395}.st67{fill:#edc0a8}.st67,.st69,.st72,.st73{fill-rule:evenodd;clip-rule:evenodd}.st72,.st73{fill:#4fa8a9}.st73{fill:#1e7678}.st79{fill:#5ec0d9}.st80{fill:#359395}.st81{fill:#3aa0ba}.st82{fill:#73cacb}</style><g id="bg"><path class="st0" d="M0 0h1170v350H0z"/><path class="st1" d="M0 186.7h1170V350H0z"/><path class="st2" d="M434 259.1H204.5l-8.5-7.6v-10.9l224 .5v-13.3l14.5 9.8z"/><path class="st3" d="M196 21.4h211v206.4H196z"/><path class="st4" d="M213.5 41.2h176v166.6h-176z"/><path class="st3" d="M292.7 30.9h17.5v190.4h-17.5z"/><path transform="rotate(-90 301.49305 126.06425)" class="st3" d="M293.1 27.3H310v197.5h-16.9z"/><path fill-rule="evenodd" clip-rule="evenodd" fill="#dddddc" d="M184.5 227.8H420v14H184.5z"/><g><path class="st6" d="M693.6 42.9l-28.8-17.5c.2-.6.4-1.3.4-1.9 0-2.8-2.3-5.1-5.1-5.1s-5.1 2.3-5.1 5.1c0 1.1.4 2.2 1 3l-26.5 16.4h64.1zm-57.1-2l21-13c.7.4 1.6.7 2.5.7 1.4 0 2.7-.6 3.6-1.5l22.7 13.8h-49.8z"/><path class="st2" d="M787 158.3H541.5l-5-4.8 5-112.6 240.4-4 5.1 4z"/><path class="st7" d="M659.3 21.4L631 38.9h57z"/><circle class="st8" cx="659.1" cy="21.4" r="5.1"/><path class="st4" d="M539 38.9h240.5V151H539z"/><path class="st9" d="M782 153.5H536.5V36.4H782v117.1zm-240.5-5H777V41.4H541.5v107.1z"/><path class="st7" d="M556 120h75"/><path fill="none" stroke="#bfbfbf" stroke-miterlimit="10" d="M724.5 136V55.5"/><path class="st7" d="M688 56h22.5M688 62h22.5M688 68h22.5M688 74h16.5M556 128h75M556 136h35"/><path class="st1" d="M642 109.5h32V136h-32z"/><path class="st11" d="M688 86.8h22.5v49.3H688z"/><path class="st7" d="M738 56h22.5M738 62h22.5M738 68h22.5M738 74h16.5"/><path class="st11" d="M738 86.8h22.5v49.3H738z"/></g><g><path class="st6" d="M889.6 52.3l-9.4-8.5c.3-.6.5-1.3.5-2 0-2.5-2-4.5-4.5-4.5s-4.5 2-4.5 4.5c0 .8.2 1.6.6 2.2l-9.6 8.3 1.3 1.5 9.6-8.3c.7.5 1.6.8 2.5.8 1 0 1.9-.4 2.7-.9l9.4 8.5 1.4-1.6z"/><path class="st6" d="M910 140.5h-66v-88h66v88z"/><path class="st8" d="M887.6 50.3l-9.4-8.5c.3-.6.5-1.3.5-2 0-2.5-2-4.5-4.5-4.5s-4.5 2-4.5 4.5c0 .8.2 1.6.6 2.2l-9.6 8.3 1.3 1.5 9.6-8.3c.7.5 1.6.8 2.5.8 1 0 1.9-.4 2.7-.9l9.4 8.5 1.4-1.6z"/><path class="st12" d="M842.5 51h63v85h-63z"/><path fill="none" stroke="#999" stroke-width="3" stroke-miterlimit="10" d="M842.5 51h63v85h-63z"/><path class="st11" d="M851.7 88.7H871V128h-19.3z"/><path fill="none" stroke="#b7b7b7" stroke-width="2" stroke-miterlimit="10" d="M876.7 105H896v23h-19.3z"/><path class="st15" d="M851.7 61.3H871M876.7 61.3H896M876.7 66.3H896M876.7 71.3H896M876.7 76.3h15M876.7 81.3H896M876.7 86.3H896M876.7 91.3h15M876.7 96.3h9.9M851.7 66.3H871M851.7 71.3H871"/></g><g><path opacity=".11" fill="#2b2b2b" d="M56.7 350v-29.3h103.2l-1.2 29.5 37.3-.2V78.2L174.7 56 61.3 221.8l-28 26.9v101.5z"/><path class="st6" d="M130 27.7l12 10-.7 7.8h10.5L162 61.3l-53.3 5-6-35.7z"/><path class="st17" d="M53 41.4h69.3V56H53z"/><path class="st18" d="M116 41.4H53v5.3h57z"/><path class="st19" d="M48.3 34H116v7.4H48.3z"/><path class="st20" d="M65 21.4h65v12.5H65z"/><path class="st21" d="M24 56v294.2h18.9v-49.4h112.9v49.4h18.9V56z"/><path class="st22" d="M42.9 77.2h112.8v91.1H42.9zM42.9 186.8h112.8v94H42.9z"/><path transform="rotate(-45 62.60512285 236.53095812)" class="st23" d="M58.9 232.8h7.4v7.4h-7.4z"/><path transform="rotate(-45 62.13999038 233.72281598)" class="st0" d="M58.4 230h7.4v7.4h-7.4z"/><path transform="rotate(-45 62.60693351 124.53170814)" class="st23" d="M58.9 120.8h7.4v7.4h-7.4z"/><path transform="rotate(-45 62.1407904 121.72088461)" class="st0" d="M58.4 118h7.4v7.4h-7.4z"/></g></g><g id="flowers"><path fill="#707070" d="M258.3 317.2l19.1-30.5 11.9 9.6-22.8 20.9z"/><path class="st19" d="M289.3 296.3l13.2 6.8-13.7-20.1-14.6 6.4z"/><path class="st25" d="M254.7 315.4l15.9-37.4 12.8 6-21.9 32.3zM245.6 318.1L236 289l-7.3 9.1z"/><path class="st25" d="M251.9 315.4l-3.6-26.9-4.1 29.6z"/><path class="st26" d="M236 289l-14.6 27.8-.9-22.8zM270.6 278l20.5.9-1.8 34.2z"/><path class="st25" d="M251.9 315.4l4.6-31.4-10.9-20.1 2.7 24.6z"/><path class="st27" d="M251.9 315.4l-3.6-26.9 20-18.2-10 46.9zM244.2 318.1l4.1-29.6-22.3-14.1z"/><path class="st26" d="M248.3 288.5l-15.5 1.4-6.8-15.5zM248.3 288.5h15.5l4.5-18.2z"/><path class="st28" d="M270.6 350h-28.7l-9.1-37.8h46.9z"/><path class="st26" d="M235 321.2h42.5l2.2-9h-46.9zM275.4 330l1-4.1h-40.3l1 4.1z"/></g><g id="door"><path class="st12" d="M983.3 51h149.3v299H983.3z"/><path class="st21" d="M969.3 36.4V350h18v-17.7l1.7-32.5-1.7-133V54.4h141.4l-3.4 138.8 3.4 156.8h18V36.4z"/><path class="st1" d="M1080.7 36.4h12.7V350h-12.7z"/><path class="st29" d="M1128.7 350h-35.4l-2-151.7 2-161.9 35.4 18z"/><path class="st6" d="M1097.3 224.9l6.1 19.4 4.5-8.6v-12z"/><path class="st19" d="M1106.4 224.9l-.7 7.2h-3.8l-4.6-7.2 4.6-7.3h3.8z"/><path fill="#8c8c8c" d="M1106.4 224.9l-.7 7.2h-3.8l-4.6-7.2z"/><path class="st0" d="M1114.7 224.9l-6.8 10.8-6.8-10.8 6.8-10.8z"/><path class="st6" d="M1128.7 54.4l41.3 62.1V350h-41.3z"/></g><g id="cupboard"><path class="st6" d="M678 350H443.5l.3-131.3 219.2-1.1 15 8.9z"/><path class="st21" d="M428.5 217.6H663v132.5H428.5z"/><path class="st31" d="M443 231.1h114v105.6H443z"/><path class="st32" d="M569 231.1h79.3v42.2H569zM569 284.9h79.3v51.8H569z"/><path transform="rotate(-45 460.6017485 282.53705577)" class="st23" d="M456.9 278.8h7.4v7.4h-7.4z"/><path transform="rotate(-45 460.14620875 279.72624034)" class="st0" d="M456.4 276h7.4v7.4h-7.4z"/><path class="st31" d="M603.3 273.3H578V251l12.6-2.7 12.7 2.7z"/><path class="st33" d="M580.3 259.1H601v12.2h-20.7z"/><path fill="#cecece" d="M603.3 251H578l10-8h5.3z"/><path class="st21" d="M588 238.6h5.3v4.4H588z"/><path class="st19" d="M641.3 245.5l-14.7-1-14.6 1v27.8h29.3z"/><path fill="#757575" d="M616.2 249.5h20.9v19.8h-20.9z"/><path class="st36" d="M612 238.6h29.3v6.9H612z"/><path class="st37" d="M620 255.3h12.3M620 258.3h6.6"/><path class="st25" d="M607.3 304.1h19.8v32.5h-19.8zM575.3 320.4h27v16.3h-27z"/><path class="st21" d="M575.3 320.4h27v4.3h-27z"/><path class="st19" d="M617.3 297.3h24v39.4h-24z"/><path class="st37" d="M623.3 305.8H636M623.3 308.8H636M623.3 311.8H636M623.3 314.8H636"/></g><g id="girl"><path class="st32" d="M475.3 184.3l-17.1 26.3 21.5 25.9 18.6 2.1 14.7-3.4 3.7-57.3z"/><path class="st1" d="M441 97.8l-11.3 9 5.6 18.3 5.7-13.6z"/><path class="st12" d="M441 97.8l48.2-15.3 33.8 60.2z"/><path class="st38" d="M493.4 90l29.6 7.8v44.9zM490.8 124l14 47.2 22.2-12.9-4-15.6z"/><path class="st12" d="M527 158.3l-22.2 12.9-18 15.6 23.5 3.4z"/><path class="st39" d="M441 97.8l-13.2 63.5 41.5 10.4 9.5 18.7 26-22.4-14-44z"/><path class="st11" d="M490.8 124l-11.3 49.9-10.2-2.2 8.4 22.6 31.3-25.6zM443.8 118.1l31.5 8.8-20.1 13.6z"/><path class="st12" d="M460.5 122.8l-5.3 17.7-4.9-1.3 4.3-18.1z"/><path class="st9" d="M455.2 140.5l-3.5 2.3-1.4-3.6zM469.3 171.7l17.5 3.3-9.1 19.3zM505.1 159.2l-8.6-1.9 5.3 8.4 7.2 3z"/><path class="st17" d="M443.6 149.9l7.8-1.6 6.8 4.5h-7.8z"/><path class="st26" d="M443.6 149.9l6.8 2.9h7.8l-8.5 2.8z"/><path class="st12" d="M475.3 126.9l-9-5.8-5.8 1.7zM443.8 118.1l9-1.8 1.8 4.8z"/><path class="st1" d="M527 158.3v19.6l-6.1 8.8-10.6 3.5z"/><path class="st40" d="M470.7 132.7c0 1.8-1.5 3.3-3.3 3.3-1.8 0-3.3-1.5-3.3-3.3 0-1.8 1.5-3.3 3.3-3.3 1.8-.1 3.3 1.4 3.3 3.3zM449.2 126.9c0 1.8-1.5 3.3-3.3 3.3s-3.3-1.5-3.3-3.3 1.5-3.3 3.3-3.3 3.3 1.4 3.3 3.3z"/><path opacity=".14" fill="#2b2b2b" d="M441 97.8l47.5 36.4 16.6 25-14.3-35.2z"/><path class="st42" d="M479.7 236.5v8l13.7 3.6 23.6-2.6-4-10.3z"/><path class="st33" d="M479.7 244.5l-8.5 48.6 12.8-5.3 5.2-43z"/><path class="st32" d="M471.2 293.1l28.8 35.5 11.7 7.1 15.3 1-27.3-51.8-17.7-2.4z"/><path class="st33" d="M500 328.6l-9.2 14.6 18.1 1.3 18.1-1.3v-6.5z"/><path class="st32" d="M490.8 343.2H527v6.8h-36.2z"/><path class="st17" d="M479.7 244.5l6.9 21.6 6.8-21.9z"/><path class="st28" d="M493.4 244.2l-25.5 56.2 8.8 10.4 14.1 6.2 26.2-54.3v-17.2z"/><path class="st0" d="M490.8 317l-6.8 13.7-13-8.1-8.5-11.8 5.4-10.4z"/><path class="st43" d="M462.5 310.8l-4.3 9.6 4.3 12.6 12.8 17 8.7-19.3z"/><path class="st0" d="M458.2 320.4h-9l-3.3 10.3 3.3 11 26.1 8.3z"/><path class="st43" d="M449.2 320.4l-9.4-2.7-5.7 13 15.1 11z"/><path class="st33" d="M518.3 175l8.4 42.6h-28.9l5-28.5z"/><path class="st44" d="M540.1 224.2l-9.2-1.9v53.1l-19.3 17.7-19.4-17.7v-53.1l-9.2 1.9v56.9l24 21.6v35l4.6 2.8 4.5-2.8v-35l24-21.6z"/><path class="st3" d="M540.1 224.2H483v-6.6h57.1zM507 337.7h9.1v12.4H507z"/><path class="st44" d="M492.2 254.5H531v9.5h-38.8z"/><path class="st39" d="M526.7 217.6l-9.7 31.9h-4.5l-4.3-2.5v-29.4z"/><path class="st12" d="M517 249.5l2.5 5-8.5.8-7.2-.8 4.4-7.5z"/><path class="st11" d="M519.5 254.5l-3.1 9.4h-10.5l-2.1-9.4z"/><path class="st18" d="M497.8 217.6l10.4 6.6v-6.6zM519.5 254.5v9.4h-3.1z"/></g><g id="grandma"><path class="st22" d="M223.8 231.1l8.2-9.3 7.3 10.6-13.3 10.5z"/><path class="st39" d="M232 221.8l10.7-.5 7.6 5.1-11 6z"/><path class="st9" d="M232.7 237.6l6.6 3.8-2.6 2.1-10.7-.6z"/><path class="st45" d="M179 221.2l24.8 15.3-1.1 13.2-26-6.4z"/><path class="st9" d="M202.7 249.7l24.1-4-3-14.6-20 5.4z"/><path class="st19" d="M151.8 323.8l10.2 15.7h14.7l7.1-3.8 17.6-29.7-32.6 7.5z"/><path class="st25" d="M162 339.5l-2.1 10.7 39.9-.2-16-14.3z"/><path class="st19" d="M179 221.2l-.8 45.8-24.2 9.3-31.7 4.5 16.5-75.7z"/><path class="st25" d="M178.2 267l23.2 39-49.6 17.8-29.5-43 29.5-4.3z"/><path opacity=".18" fill="#2b2b2b" d="M126.8 260l25 16.5 4-10.9z"/><path class="st47" d="M174.7 350h-5.4l-2-83h9.4z"/><path class="st23" d="M176.4 280.8l.2-7.5h-9.2l.2 7.5z"/><path class="st47" d="M182.7 276.5h-30.9V267h24.4z"/><path class="st19" d="M120.5 188.3l-4.2 26.6 22.5-9.8z"/><path class="st25" d="M137.8 151l-23.5 35.7 37.5 28.2z"/><path class="st19" d="M173 139.2l-38 2.2 7 30.3 19.5-16.3z"/><path class="st25" d="M224.3 126.6L229 158l-18.7 25-6.5-41.6z"/><path class="st39" d="M208.5 141.4l11 66.6-30.2 5.7-15 9.4-17.5-5.6-5.3-18z"/><path class="st11" d="M168.5 182.2l7 34.4 13.8-2.9-15 11.4-18.6-11.4-4.2-14.2z"/><path class="st9" d="M189.3 213.7l-20.5 3.9 5.5 7.5z"/><path class="st11" d="M178.2 172.2l7.1-7.2 7.3-1.6 14.4 2.9-8.5 22-3.9 1.2z"/><path class="st12" d="M192.6 163.4l8.8 17.3-.9 7.6-5.9 1.2.7-8.7-10-15.8z"/><path class="st9" d="M200.5 188.3l-3 5-2.9-3.8zM189.3 201l13.4-4.2v2.1l-13.4 4.7z"/><path class="st17" d="M207 166.3l-9.4-5-5 2.1z"/><circle class="st48" cx="203.8" cy="174.1" r="2.4"/><circle class="st48" cx="183.8" cy="178.1" r="2.4"/><path fill="#b7b7b7" d="M224.3 126.6L157 196.8l-15-25.1 39.4-40.9z"/><path class="st19" d="M142 171.7l37 49.5-10.2 6.3-17-12.6z"/><path class="st25" d="M175.5 216.6l-23.7-1.7 21.2 11.8 6-5.5z"/><path class="st12" d="M162 267l5.3-7 10.9-5.2.1 9.1-5.3 7.9z"/><path class="st39" d="M178.2 254.8l9.6 16-5.1 5.7-9.7-4.7z"/><path class="st45" d="M151.8 214.9L147 250l-5 5.3-15.2 4.7 12-54.9z"/><path class="st20" d="M147 250l20.3 10-3.5 11.8-37-11.8z"/><path class="st22" d="M179 221.2l10.3-.4 2.6 8.4-8.1 1.1zM179 221.2l-3.7 9.1-9 1.1 4.1-10.1z"/></g><g id="doctor"><path class="st17" d="M1027.7 344.3v5.7h38l-14.2-14.3-14.5 2.9z"/><path class="st29" d="M1043.7 266l7.8 69.7-21.5 4.3-27-55.7-15.7 48V253l36 5.5z"/><path class="st27" d="M1043.7 266l-40.7 18.3-15.7-16V253z"/><path class="st50" d="M969.3 148.6l18 13.7v-11.8z"/><path class="st29" d="M1044.7 172l-1 94-56.4-13v-86.2l11.4-2.8z"/><path class="st39" d="M1038.7 162.9l6 9.1-33.7 13.7-12.3-21.7 10.8-4.1z"/><path class="st17" d="M987.3 83.8l33.2-6.3-3.7 8.8-8 4.9h-9z"/><path class="st51" d="M1020.5 77.5l31.4 14.8-5.1 4.2-6.2.2-16.6-1.8-15.2-3.7zM1040.6 156.7l8.2 12-29.8 24.5-5.4 24.4h-4.8l4.8-25.6-15.7-27.9 5.1-10.6 4 3-4 5.9 13.8 24.3 24.6-19-4.4-7.7z"/><path class="st39" d="M987.3 83.8l-18 64.8 40.2 11.3 4 8.8 24.9-9.2 13.5-35.1-11.3-27.7-31.8-5.5z"/><path class="st11" d="M1040.6 96.7l-21.3 66.3-9.8-3.1 5.5 12.1 6.5-1.6 16.9-6.9 17.5-37.1z"/><path class="st51" d="M1013.6 217.6l6.9 33.1-6.9 1.3-4.8-34.4z"/><circle class="st17" cx="1017.7" cy="254.7" r="8.1"/><path class="st1" d="M1021.4 254.7c0 2.1-1.7 3.7-3.7 3.7-2.1 0-3.7-1.7-3.7-3.7 0-2.1 1.7-3.7 3.7-3.7s3.7 1.7 3.7 3.7z"/><path class="st9" d="M1009.5 159.9l14.5 3.9-2.5 6.6-8 3.3zM1044.3 151l-7.3-2.5 4.7 8zM1040.6 145.3l2.7-7 3.5 1.5z"/><path class="st17" d="M1040.6 96.7l11.3-4.4 10.6 16-8.7 2-8.5-3z"/><path class="st51" d="M1062.5 108.3V128l-11.7 9.2-9-3.9-2.5 3.9-4.3-2.8 10.3-27.1z"/><path class="st11" d="M989.8 103.8h10.2l8.8 2.6 13 7.1-21.3 14.7z"/><path class="st12" d="M1008.8 106.4l-8.3 21.8-6.7-2 6.2-22.4z"/><path class="st9" d="M1000.5 128.2l-4.2 3.6-2.5-5.6z"/><path class="st51" d="M1021.8 113.5l-9.8-9.7-3.2 2.6zM1000 103.8v-4.3l-10.2 4.3z"/><circle class="st48" cx="1013.6" cy="116.5" r="3"/><circle class="st48" cx="992.8" cy="110.3" r="3"/><path class="st50" d="M978 220.7l9.3 5.8v3.6l56.4 14.2v-17.7l-19.7-5.9z"/><path class="st9" d="M988 134l16.5 6.5-.2 7.3-16.3-5.3z"/><path class="st12" d="M990.3 137l-.5 3.5 13.2 2.8-.2-2z"/><path class="st1" d="M1044.7 172l12.2 10.8 4.4 44.5-20.7-9.7-8.9-12.9z"/><path class="st39" d="M1061.3 227.3l-61.3-2.4-1.3-7.3 3.3-4.6 29.7-8.3z"/><path class="st11" d="M1002 213l-14.7-9-2.3 11 2.3 8.7 12.7 1.2z"/><path class="st39" d="M987.3 204l-11.3 8 2 8.7 9.3 3z"/><path class="st17" d="M987.3 190.7l18.5 5.3-1.3 4.5-17.2-4.9z"/><path class="st27" d="M1003 284.3l48.5 51.4-23.8 8.6z"/></g><g id="bed"><ellipse transform="matrix(.2288 -.9735 .9735 .2288 220.3196 958.851)" class="st32" cx="715.3" cy="340.4" rx="9.6" ry="9.6"/><path class="st1" d="M719.4 340.4c0 2.3-1.8 4.1-4.1 4.1s-4.1-1.8-4.1-4.1 1.8-4.1 4.1-4.1 4.1 1.8 4.1 4.1z"/><path class="st23" d="M707.2 335.3h16.3c-1.7-2.7-4.7-4.5-8.2-4.5s-6.4 1.8-8.1 4.5z"/><path class="st17" d="M718.4 291l8.8-10.7-7.8-1.6-8.1 1.6v47.2l-6 5.5h19.9l-6.8-5.8z"/><ellipse transform="matrix(.2288 -.9735 .9735 .2288 243.4553 988.0552)" class="st32" cx="745.3" cy="340.4" rx="9.6" ry="9.6"/><path class="st1" d="M749.4 340.4c0 2.3-1.8 4.1-4.1 4.1s-4.1-1.8-4.1-4.1 1.8-4.1 4.1-4.1 4.1 1.8 4.1 4.1z"/><path class="st23" d="M737.2 335.3h16.3c-1.7-2.7-4.7-4.5-8.2-4.5s-6.4 1.8-8.1 4.5z"/><path class="st17" d="M748.4 291l8.8-10.7-7.9-1.6-8 1.6v47.2l-6 5.5h19.9l-6.8-5.8z"/><path class="st23" d="M748.4 295.5V291l8.8-10.7-7.9-1-8 1v10.5z"/><path class="st32" d="M922.6 340.4c0 5.3 4.3 9.6 9.6 9.6s9.6-4.3 9.6-9.6-4.3-9.6-9.6-9.6c-5.3-.1-9.6 4.3-9.6 9.6z"/><path class="st1" d="M928.1 340.4c0 2.3 1.8 4.1 4.1 4.1s4.1-1.8 4.1-4.1-1.8-4.1-4.1-4.1c-2.2 0-4.1 1.8-4.1 4.1z"/><path class="st23" d="M940.4 335.3h-16.3c1.7-2.7 4.7-4.5 8.2-4.5s6.4 1.8 8.1 4.5z"/><path class="st17" d="M929.1 291l-8.8-10.7 8.7-1.9 7.2 1.9v47.2l6 5.5h-19.9l6.8-5.8z"/><ellipse transform="rotate(-11.038 902.06847317 340.2912102)" class="st32" cx="902.2" cy="340.4" rx="9.6" ry="9.6"/><path class="st1" d="M898.1 340.4c0 2.3 1.8 4.1 4.1 4.1s4.1-1.8 4.1-4.1-1.8-4.1-4.1-4.1c-2.2 0-4.1 1.8-4.1 4.1z"/><path class="st23" d="M910.4 335.3h-16.3c1.7-2.7 4.7-4.5 8.2-4.5s6.4 1.8 8.1 4.5z"/><path class="st17" d="M899.1 291l-8.8-10.7 8-1.9 7.9 1.9v47.2l6 5.5h-19.9l6.8-5.8z"/><path class="st23" d="M899.1 295.5V291l-8.8-10.7 8-1.9 7.9 1.9v10.5z"/><path class="st17" d="M703 262.6h242v17.8H703z"/><path class="st17" d="M703 267.5v-68c0-10.6 7.4-19.2 16.4-19.2 9 0 16.4 8.6 16.4 19.2v58.2h7.8v-58.2c0-15.6-10.9-28.3-24.2-28.3-13.4 0-24.2 12.7-24.2 28.3v68h7.8zM945 267.5v-68c0-10.6-7.4-19.2-16.4-19.2-9 0-16.4 8.6-16.4 19.2v58.2h-7.8v-58.2c0-15.6 10.9-28.3 24.2-28.3 13.4 0 24.2 12.7 24.2 28.3v68H945z"/><path class="st38" d="M878.3 257.7l33.9-36.9 32.8 8.1v30.8z"/><path class="st20" d="M945 228.9l-20.9 28.8 20.9 2z"/><path class="st0" d="M901.3 257.7l-11.5-12.6-43.3-3.6-61.5 7.2-41.4-7.2-40.6 16.2z"/><path class="st20" d="M703 257.7l43.3-6.7 37.7 6.9-33.1 1.8zM866 257.7l19.3-3.8 16 3.8-15.4 1.3z"/><path class="st42" d="M703 257.7h242v9.8H703z"/><path class="st23" d="M945 267.5h-82.8l2.5-4.8-3.2-1.3-8.2 6.1h-4.2l3.2-7.8-1.8-1.9-16.5 6.3-.1 1.7h-36.7l-2-6.1-11.2-1.8 4.2 9.6H703v4h84.1l2.5 8.8h12.5l-3-8.8h34.3l-.7 8.8h12.5l2.4-8.8h1.7l5.2 8.8 4.2-5 1.4-3.8H945z"/></g><g id="boy"><path class="st52" d="M839.9 267.5l10.7-9.8-6.6-26.2zM790.6 262.7l-6.6-5 2-17.3 9.2 7.4z"/><path class="st52" d="M778.2 190.2l-5.6 43.8 13.4 6.4-1-29.4z"/><path class="st39" d="M874 215.7l-8.3 33-9.7-2-2.7-24.5z"/><path class="st12" d="M866 257.7v-10.2l-10.2-2.4-6.2 8.8 4.1 8.8z"/><path class="st11" d="M866 257.7l-16.4-3.8 3.7 13.6 11.4-4.9z"/><path class="st50" d="M874 215.7l-19.7 15.8-1-9.3 7.7-6.5z"/><path class="st52" d="M856 175.3l18 40.4-24.9 7.8v-24.1z"/><path class="st45" d="M832.5 166.6l23.5 8.7-9.5 66.2-55.9-5.6-12.4-45.7L797 179z"/><path class="st39" d="M746.2 136l32 54.2 18.8-9.5 19-.4 12.7-15.4 1-36-31-13.6h-6.9z"/><path class="st11" d="M791.8 115.3L819 169l-22 11.7 19 3.5 16.5-17.6v-35.2L798 111.7z"/><path class="st9" d="M797 180.7l27-14.1-8 17.6zM832.5 143.9l-9.8 2.9 9.8 5.1zM827.6 134.7l-4.9.9 2.4 7.1z"/><path class="st11" d="M791.8 138.7l-27.5 15.7 24.5 7.7z"/><path class="st12" d="M779.1 146l9.7 16.1-5.6 2.9-8.6-16.5z"/><path class="st9" d="M788.8 162.1l-1.1 4.5-4.5-1.6z"/><path class="st51" d="M794.2 147.2l-3.9 3.2H786v2.3h5.8l3.4-3.7zM776.2 157.2l-3.9 3.2H768v2.3h5.8l3.4-3.7zM791.8 138.7l-12.7 7.3-1-3.7zM774.6 148.5l-3.9-1.7-6.4 7.6z"/><path class="st9" d="M785 174.3l14.8-6.8 1.2 3.2-15 6.1z"/><path class="st53" d="M746.2 136l50.8-10.5 6.3-13.8 2.7-14.8-45.5 20z"/><path class="st28" d="M797 125.5l13.5 3.4 1.7 8.5h7.1v-8l13.2 2-8.5-29-18-5.5z"/><path class="st52" d="M837.3 221.7v19.6l-42.1-2.5v-16.1z"/><path class="st39" d="M837.3 221.7l10.8 8.6-1.6 11.2-9.2-.2z"/><path class="st11" d="M848.1 230.3l3.6 8.5-5.2 2.7zM797 180.7l40.3 60.6-31.3-.6-10.8-27.6-7.8-27.6z"/><path class="st36" d="M787.4 185.5l18.6 55.2-20-.3-7.8-50.2z"/><path class="st26" d="M787.4 185.5l18.6 55.2-6-2.7z"/><path class="st23" d="M816 184.2l-37.8 6 18.8-9.5z"/><path class="st45" d="M786 240.4l30-5.2.3 32.3-3.9 25.5h-9.1l-7.3-4.6z"/><path class="st32" d="M812.4 293l-1.9 12.3-24.5 7 10-23.9z"/><path class="st45" d="M786 312.3l3.5 6 21-6.5v-6.5z"/><path class="st53" d="M816 235.2l30.5 6.3-14 54.8h-13.2l-6.9-3.3z"/><path class="st52" d="M812.4 293l-6.4 20.2 13.3 1.8 13.4-1.8-.2-16.9z"/><path class="st45" d="M806 313.2v6.1l25-1 1.7-5.1z"/></g><g id="isfj"><path class="st54" d="M347.9 309.8l-25.6 26.6-7.5 3.5-.2-5.1 6.3-20.7z"/><path class="st55" d="M314.6 334.8l-12.7 9.5 5.6 4.8 12.1.9 2.7-13.6z"/><path class="st56" d="M337.4 320.7l10.5-10.9h-13.5l-13.5 4.3z"/><path class="st57" d="M319.6 350l-17.7-5.7-8.3 5.7z"/><path class="st54" d="M383.8 304.1l-4.7 32.3-8.4 3.5-.2-5.1-10.7-26.9z"/><path class="st55" d="M370.5 334.8l-5.9 10.5 4.6 3.8 12 .9-2.1-13.6z"/><path class="st56" d="M363.1 316.4l20.7-12.3h-14.9l-9.1 3.8z"/><path class="st57" d="M381.2 350l-15.3-7.1-5.2 7z"/><path class="st54" d="M292.7 214.9l-27.1 12.6-1.1 5.2 2.8 4.7 37.2-1.3z"/><path class="st58" d="M267.3 237.4l-10.7 5-3.1-6v-11.9l12.1 3z"/><path class="st59" d="M253.5 224.5l-14.5 7.7 4.8 10.2h12.8z"/><path class="st60" d="M265.6 227.5l-12.1-5-7 5.7.6 3 7.2-2 6.1 3.4 6.1-.4z"/><path class="st56" d="M292.7 214.9l3 21.5 8.8-.3-5.1-8.5z"/><path fill-rule="evenodd" clip-rule="evenodd" fill="#459396" d="M321.3 193.1l-28.6 21.8 9.2 18.1 6.1 7.6 6.6-7.4 6.7-22.5z"/><path class="st62" d="M256.6 141.4l-8.3 17.6 20.2 7.9-4.5-13.7z"/><path class="st63" d="M319.4 101.7l2.8-7.7-.8-15.8-59.5 8.6 3.7 15 5.5 10 27.5-2z"/><path fill-rule="evenodd" clip-rule="evenodd" fill="#93d4d5" d="M261.9 86.8l-23.7 33.8 18.4 20.8 10.1-14.5 4.4-15.1z"/><path class="st65" d="M321.4 78.2l14.7 31.8-9.9-3.8-6.8-4.5z"/><path class="st55" d="M263.7 91.9l2.4-.4 2.3 5.9 5.6-1 1.6 3.9-5.8 1.2 2.1 5.5-2.4.6-3.9-5.8z"/><path fill-rule="evenodd" clip-rule="evenodd" fill="#318ea5" d="M263.7 91.9l-1.5 2.5 1.8 5.2-3.1 5 2 3.1 2.7-4 2.3 5.9 1.6-2z"/><path class="st63" d="M344.2 184.9l19.7 2.6 2.6 16.5-1.1 14.5-5.7-1-24.9-11.1z"/><path class="st54" d="M256.6 141.4l27.9 59.5 30.1-12.8 26.8 19.9 2.4-44.5 6-24.4-14.1.9.7 11-27.2-24.8-12.4.3-15.5 5z"/><path class="st67" d="M309.2 126.2l24.4 53.5-19 8.4 8.7 1.7 1.8 6.1 16.3 12.1 8.4-68.9-14.1.9.7 11-10.1-13.7zM270.2 152.9l18.9 7.5 8.9 3.4 4.6-24.7z"/><path fill-rule="evenodd" clip-rule="evenodd" fill="#ffeae0" d="M289.4 144.6l8.6 19.2-6.2 2.9-8.5-19.4z"/><path class="st59" d="M291.8 166.7l4.9 2.2 1.3-5.1zM314.6 188.1l10.5 7.8 14.1-18.8zM340.3 155.5l6.8 5.9.8-6.4zM340.8 151.6l-.2-8.1 5-.2z"/><path class="st69" d="M297.1 151.5c.7 1.6 2.4 2.5 3.8 1.9 1.4-.6 2-2.4 1.3-4s-2.4-2.5-3.8-1.9c-1.4.6-2 2.4-1.3 4zM278.7 159.6c.7 1.6 2.4 2.5 3.8 1.9 1.4-.6 2-2.4 1.3-4s-2.4-2.5-3.8-1.9c-1.4.5-1.9 2.3-1.3 4z"/><path class="st62" d="M287.1 132.6l-10.2-9-5.8-11.8 48.3-10.1 32 15.9-19.8 4.8-22.4 3.8-9.6 2.8z"/><path fill-rule="evenodd" clip-rule="evenodd" fill="#2b2b2b" d="M309.2 126.2l27.2 24.8-.7-11 14.1-.9 1.6-21.5z"/><path fill-rule="evenodd" clip-rule="evenodd" fill="#6f7173" d="M271.1 111.8l-14.5 29.6 30.5-8.8z"/><path class="st62" d="M289.4 144.6l-1.8-4.2 15-1.3zM283.3 147.3l-13.1 5.6 11.1-9.7z"/><path class="st72" d="M311 169.3l-8.8 12.7-14.4-2.6 12.8-1.5z"/><path class="st73" d="M306.5 173l-8.1.1-5.3 5.7 7.5-.9z"/><path class="st4" d="M335.9 203.8l10.9 5.1 10.6 5.1-13.2-29.1z"/><path class="st4" d="M321.3 193.1l-3.2 21.3 17.8-10.6z"/><path class="st72" d="M335.9 203.8l21.5 10.2 8 4.5 5.1 11.7 19 19.5-22.5 11.6-28.2 1.3-6.4-14.1-17.8-15.3 3.5-18.8z"/><path class="st65" d="M335.9 203.8l2.9 58.8-24.2-29.4zM338.8 262.6l19.8 22.1 25.2 19.4 5.7-54.4z"/><path class="st72" d="M338.8 262.6l-17.9 51.5 62.9-10z"/><path class="st65" d="M383.8 304.1L329.6 289l-8.7 25.1z"/><path fill-rule="evenodd" clip-rule="evenodd" fill="#5ca8aa" d="M335.9 203.8l-8.6 18.6-12.7 10.8 3.5-18.8z"/><path class="st55" d="M345 257l14-1.2-3.9-4.8-4.8 1.7z"/><path class="st73" d="M380.4 240.3l-19.3 9.1-2.1 6.4 2.6 13.4 5.4 4.6.2 6.1-25.6 30.9-16-10.1 16-46.6 9-10.7 23.7-9.3z"/><g fill-rule="evenodd" clip-rule="evenodd"><path fill="#5ec0d9" d="M301.9 233l8.4 10.4 2.8-2.2-6.1-7.6 4.5-3.7 6.2 7.5 2.7-2.2-8.4-10.4z"/><path fill="#3aa0ba" d="M371 270.5l-35.2 28.6-40.9-48.8 36.5-28.5z"/><path fill="#318fa6" d="M335.8 299.1l-3.4.1-39.6-48.7 3.4-.1z"/><path fill="#73cfe5" d="M296.2 250.4l35.2-28.6-4.1.6-34.5 28.1z"/></g><path class="st54" d="M365.4 218.5l-11.2 18.3 2.1 4.8 3.5 2.9 32-16.7-15.2-6z"/><path class="st60" d="M354.2 236.8h-10.6l4.6 8.9 6.9 5.3 4.7-6.5z"/><path class="st58" d="M343.6 236.8l-7.3 14.4 8.7 5.8 10.1-6z"/><path class="st72" d="M363.9 187.5l27.9 40.3-26.4-9.3z"/></g><g id="text"><path class="st79" d="M554.5 55.8l16.4-2.2-1.1 18.1-3 21.8-6.1-.5-3.7-15.3z"/><path class="st80" d="M602.7 54.7l-21.9.8-2 21.3 17 5-1.3 5.5-15.7-1.6-.4 11.8 25.6-1.7 3.6-21.6-14.2-3.9-8.4-.8V61l17.8 1z"/><path class="st81" d="M616.3 57.7l-.6 24.8.5 13.9 10 1.7.3-16.8 9 1 .7-8.8-11-2-1.5-9.5 15.3-1.3-2.5-6z"/><path class="st80" d="M649.3 53.6l20.5 3.6-.3 16.8-3.2 21.5-20.7 4.9L642 88l8.5-4.6.7 8.2L659 88l.3-9.8 2.2-14.5-12.2-3z"/><path class="st81" d="M557 77.7l2.1 19.1 9.2-.6 1.5-24.5z"/><path class="st82" d="M606.6 64.4l-1.3-11.2-25.6.4-.9 23.2 14.6-6.5-6.1-1.7v-6.5z"/><path class="st79" d="M614.8 54.9l.9 27.6 9.5-11 1-9.1H641l-2-10.1z"/><path class="st82" d="M669.5 74l3-19.5-24.9-1.9-.4 8.8 12.5 2.4-.4 14.4z"/></g></svg>