<svg id="image" xmlns="http://www.w3.org/2000/svg" viewBox="0 0 1170 350"><style>.st1{fill:#b7b7b7}.st2{fill:#c1c1c1}.st3{fill:#fff}.st4{opacity:.1}.st5{fill:#b5b5b5}.st8{fill:#a3a3a3}.st9{fill:#939393}.st10{fill:#a8a8a8}.st11{fill:#828282}.st12{fill:#bababa}.st13{fill-rule:evenodd;clip-rule:evenodd;fill:#8e8e8e}.st14,.st15,.st16,.st17,.st18,.st20{fill-rule:evenodd;clip-rule:evenodd;fill:#b2b2b2}.st15,.st16,.st17,.st18,.st20{fill:#6b6b6b}.st16,.st17,.st18,.st20{fill:#adadad}.st17,.st18,.st20{fill:#a8a8a8}.st18,.st20{fill:#bababa}.st20{fill:#c9c9c9}.st21{fill:#a3a3a3}.st21,.st23,.st24,.st25,.st26{fill-rule:evenodd;clip-rule:evenodd}.st23{opacity:.1}.st24,.st25,.st26{fill:#9b9b9b}.st25,.st26{fill:#b5b5b5}.st26{fill:#939393}.st28{fill:#c4c4c4}.st29{fill:#b2b2b2}.st30{fill:#d3d3d3}.st33{fill:#d6d6d6}.st34{opacity:.2}.st35{fill:#bcbcbc}.st36{fill:#8f8f8f}.st38{fill:none;stroke:#666;stroke-width:4;stroke-miterlimit:10}.st40{fill:#5e5e5e}.st47,.st48,.st49,.st50{fill-rule:evenodd;clip-rule:evenodd;fill:#5e5e5e}.st48,.st49,.st50{fill:#6d6d6d}.st49,.st50{fill:#e3e3e3}.st50{fill:#bcbcbc}.st53{fill:#bf8f00}.st54,.st55,.st57,.st58{fill-rule:evenodd;clip-rule:evenodd;fill:#856400}.st55,.st57,.st58{fill:#ccad14}.st57,.st58{fill:#755800}.st58{fill:#e5c82e}.st59,.st60,.st61,.st62,.st63,.st66{fill-rule:evenodd;clip-rule:evenodd;fill:#bf8f00}.st60,.st61,.st62,.st63,.st66{fill:#9e7700}.st61,.st62,.st63,.st66{fill:#b58b00}.st62,.st63,.st66{fill:#ffe6d6}.st63,.st66{fill:#f5cab3}.st66{fill:#a67862}.st67{fill:#2b2b2b}.st67,.st68,.st69,.st71{fill-rule:evenodd;clip-rule:evenodd}.st69,.st71{fill:#c4937d}.st71{fill:#474747}</style><g id="wall"><path fill="#ddd" d="M-7-5h1184v359H-7z"/><path class="st1" d="M207-8h3v358h-3zM587-8h3v358h-3zM967-8h3v358h-3z"/><path class="st2" d="M126.1 42h100.7v33.9H126.1z"/><path class="st3" d="M126.1 46h100.7v33.9H126.1z"/><path class="st4" d="M224.1 95h-96.2l-8.9-8.9h114z"/><path class="st5" d="M119 77.2h114v8.9H119z"/><path class="st2" d="M-23.9 42H76.8v33.9H-23.9z"/><path class="st3" d="M-23.9 46H76.8v33.9H-23.9z"/><path class="st4" d="M74.1 95h-96.2l-8.9-8.9H83z"/><path class="st5" d="M-31 77.2H83v8.9H-31z"/><g><path class="st2" d="M276.1 42h100.7v33.9H276.1z"/><path class="st3" d="M276.1 46h100.7v33.9H276.1z"/><path class="st4" d="M374.1 95h-96.2l-8.9-8.9h114z"/><path class="st5" d="M269 77.2h114v8.9H269z"/></g><g><path class="st2" d="M1116.1 42h100.7v33.9h-100.7z"/><path class="st3" d="M1116.1 46h100.7v33.9h-100.7z"/><path class="st4" d="M1214.1 95h-96.2l-8.9-8.9h114z"/><path class="st5" d="M1109 77.2h114v8.9h-114z"/></g><g><path class="st4" d="M35.9 154.4l-1 13.7 8.5 12.7-6.6 115.4L54.3 308l-1.4 13.7 18.9-1.9-1-27.4 6.7-2.9-3.4-39.2 16.6-7.1L77 161.5l7.1-3.3-7.1-11.4-13.7-17.5z"/><path fill="#999" d="M56.7 135.9L54.3 298 34 282.9l7.5-120z"/><path fill="#919191" d="M63.3 129.3l14.2 26 14.6 76.6-19.8 11.8z"/><path class="st8" d="M63.3 129.3l9 25.5 6.6 128.1-8.5 3.3z"/><path class="st1" d="M63.3 129.3l10.8 181-22.2-.9 4.8-173.5z"/><path class="st2" d="M63.3 129.3l-22.2 38.3-7.1-14.2 27.9-31.6z"/><path class="st2" d="M61.9 121.8L84.5 153l-7 2.3-16.6-24.1z"/><path class="st9" d="M64.7 133.1c0 1.6-1.3 2.8-2.8 2.8-1.6 0-2.8-1.3-2.8-2.8v-19.8c0-1.6 1.3-2.8 2.8-2.8 1.6 0 2.8 1.3 2.8 2.8v19.8z"/></g></g><g id="bookcase"><path transform="rotate(-62.548 1049.96546272 197.93867975)" class="st10" d="M1029.8 195h40.3v5.9h-40.3z"/><path transform="matrix(.4609 -.8875 .8875 .4609 397.8915 1038.0265)" class="st11" d="M1050.3 188.6h6.1v5.9h-6.1z"/><path class="st12" d="M1066.8 199.4l-19.8-10.3 4.8-9.3 13.4 7z"/><path class="st8" d="M1103.7 196.9l8 1.4 1.6-8.9-6.6 4.6-3.2-4.5 6.6-4.6-8.9-1.5-1.4 8-23.2 16.4-4.6-.8-1.1 6.4 5.7-4 2.3 3.3-5.7 4 6.5 1.2.8-4.6z"/><path transform="rotate(-69.403 1071.07571232 204.4961828)" class="st12" d="M1055.8 201.6h30.6v5.8h-30.6z"/><path class="st13" d="M1095.7 223.1H1035l-10-17.2h80.7z"/><path class="st14" d="M1100.8 214.3l2.8-4.8h-76.5l2.8 4.8z"/><path class="st13" d="M983.6 224.1h146.9v106.1H983.6z"/><path class="st15" d="M1015.9 274.7h12.8v18.1h-12.8z"/><path class="st16" d="M1015.9 277.9h12.8v2.5h-12.8z"/><path class="st15" d="M1015.9 238.7h12.8v18.1h-12.8z"/><path class="st16" d="M1015.9 241.9h12.8v2.5h-12.8z"/><path class="st15" d="M1035.9 238.7h12.8v18.1h-12.8z"/><path class="st16" d="M1035.9 241.9h12.8v2.5h-12.8z"/><path class="st15" d="M1055.9 238.7h12.8v18.1h-12.8z"/><path class="st16" d="M1055.9 241.9h12.8v2.5h-12.8z"/><path class="st15" d="M995.9 238.7h12.8v18.1h-12.8z"/><path class="st16" d="M995.9 241.9h12.8v2.5h-12.8z"/><path class="st15" d="M997.9 274.7h12.8v18.1h-12.8z"/><path class="st16" d="M997.9 277.9h12.8v2.5h-12.8z"/><path transform="rotate(-60.04 1100.359078 278.25248666)" class="st17" d="M1093.3 274.9h14.2v6.7h-14.2z"/><path transform="rotate(-60.04 1088.35915107 278.25275972)" class="st17" d="M1081.3 274.9h14.2v6.7h-14.2z"/><path transform="matrix(.9343 -.3564 .3564 .9343 -30.0974 397.1119)" class="st18" d="M1052.3 274.4h20.6v11.7h-20.6z"/><path fill-rule="evenodd" clip-rule="evenodd" fill="#7c7c7c" d="M1043.5 280.4h65.2v12.8h-65.2z"/><g><path class="st14" d="M1078.6 241.1h36.9v16.3h-36.9z"/><path class="st20" d="M1078.6 241.1h36.9v2.1h-36.9z"/></g><g><path class="st14" d="M1000.2 309.8h50.3v16.3h-50.3z"/><path class="st20" d="M1000.2 309.8h50.3v2.1h-50.3z"/></g><g><path class="st18" d="M1061.3 307.8h12.2v17.4h-12.2z"/><path class="st21" d="M1071.8 307.8h12.2v17.4h-12.2z"/><path class="st18" d="M1083.8 307.8h12.2v17.4h-12.2z"/><path class="st21" d="M1094.3 307.8h12.2v17.4h-12.2z"/><path class="st18" d="M1104.8 307.8h10.3v17.4h-10.3z"/><path opacity=".4" fill-rule="evenodd" clip-rule="evenodd" fill="#fff" d="M1061.3 307.8h53.8v2h-53.8z"/></g><path class="st17" d="M983.6 256.5h146.9v10.4H983.6z"/><path class="st20" d="M983.6 256.5h146.9v1.6H983.6z"/><path class="st17" d="M983.6 291.5h146.9v10.4H983.6z"/><path class="st20" d="M983.6 291.5h146.9v1.6H983.6z"/><path class="st17" d="M983.6 326.3h146.9v10.4H983.6z"/><path class="st20" d="M983.6 325.1h146.9v1.6H983.6z"/><path class="st14" d="M979.7 222.7h10.4V350h-10.4zM1124.6 222.7h10.4V350h-10.4z"/><path class="st14" d="M979.7 222h155.1v10.4H979.7z"/></g><g id="tires"><path class="st23" d="M619.8 45c-32.3 0-58.5 26.2-58.5 58.5s26.2 58.5 58.5 58.5 58.5-26.2 58.5-58.5S652.1 45 619.8 45zm0 86.5c-15.5 0-28-12.5-28-28s12.5-28 28-28 28 12.5 28 28-12.6 28-28 28z"/><path class="st24" d="M619.8 35c-32.3 0-58.5 26.2-58.5 58.5s26.2 58.5 58.5 58.5 58.5-26.2 58.5-58.5S652.1 35 619.8 35zm0 86.5c-15.5 0-28-12.5-28-28s12.5-28 28-28 28 12.5 28 28-12.6 28-28 28z"/><path class="st25" d="M619.8 32c-32.3 0-58.5 26.2-58.5 58.5s26.2 58.5 58.5 58.5 58.5-26.2 58.5-58.5S652.1 32 619.8 32zm0 86.5c-15.5 0-28-12.5-28-28s12.5-28 28-28 28 12.5 28 28-12.6 28-28 28z"/><path class="st26" d="M624.6 67.9c0 2.6-2.2 4.7-4.9 4.7s-4.9-2.1-4.9-4.7v-42c0-2.6 2.2-4.7 4.9-4.7s4.9 2.1 4.9 4.7v42z"/><g><path class="st23" d="M749.8 45c-32.3 0-58.5 26.2-58.5 58.5s26.2 58.5 58.5 58.5 58.5-26.2 58.5-58.5S782.1 45 749.8 45zm0 86.5c-15.5 0-28-12.5-28-28s12.5-28 28-28 28 12.5 28 28-12.6 28-28 28z"/><path class="st24" d="M749.8 35c-32.3 0-58.5 26.2-58.5 58.5s26.2 58.5 58.5 58.5 58.5-26.2 58.5-58.5S782.1 35 749.8 35zm0 86.5c-15.5 0-28-12.5-28-28s12.5-28 28-28 28 12.5 28 28-12.6 28-28 28z"/><path class="st25" d="M749.8 32c-32.3 0-58.5 26.2-58.5 58.5s26.2 58.5 58.5 58.5 58.5-26.2 58.5-58.5S782.1 32 749.8 32zm0 86.5c-15.5 0-28-12.5-28-28s12.5-28 28-28 28 12.5 28 28-12.6 28-28 28z"/><path class="st26" d="M754.6 67.9c0 2.6-2.2 4.7-4.9 4.7s-4.9-2.1-4.9-4.7v-42c0-2.6 2.2-4.7 4.9-4.7s4.9 2.1 4.9 4.7v42z"/></g><g><path class="st23" d="M879.8 45c-32.3 0-58.5 26.2-58.5 58.5s26.2 58.5 58.5 58.5 58.5-26.2 58.5-58.5S912.1 45 879.8 45zm0 86.5c-15.5 0-28-12.5-28-28s12.5-28 28-28 28 12.5 28 28-12.6 28-28 28z"/><path class="st24" d="M879.8 35c-32.3 0-58.5 26.2-58.5 58.5s26.2 58.5 58.5 58.5 58.5-26.2 58.5-58.5S912.1 35 879.8 35zm0 86.5c-15.5 0-28-12.5-28-28s12.5-28 28-28 28 12.5 28 28-12.6 28-28 28z"/><path class="st25" d="M879.8 32c-32.3 0-58.5 26.2-58.5 58.5s26.2 58.5 58.5 58.5 58.5-26.2 58.5-58.5S912.1 32 879.8 32zm0 86.5c-15.5 0-28-12.5-28-28s12.5-28 28-28 28 12.5 28 28-12.6 28-28 28z"/><path class="st26" d="M884.6 67.9c0 2.6-2.2 4.7-4.9 4.7s-4.9-2.1-4.9-4.7v-42c0-2.6 2.2-4.7 4.9-4.7s4.9 2.1 4.9 4.7v42z"/></g><g><path class="st23" d="M1009.8 45c-32.3 0-58.5 26.2-58.5 58.5s26.2 58.5 58.5 58.5 58.5-26.2 58.5-58.5-26.2-58.5-58.5-58.5zm0 86.5c-15.5 0-28-12.5-28-28s12.5-28 28-28 28 12.5 28 28-12.6 28-28 28z"/><path class="st24" d="M1009.8 35c-32.3 0-58.5 26.2-58.5 58.5s26.2 58.5 58.5 58.5 58.5-26.2 58.5-58.5-26.2-58.5-58.5-58.5zm0 86.5c-15.5 0-28-12.5-28-28s12.5-28 28-28 28 12.5 28 28-12.6 28-28 28z"/><path class="st25" d="M1009.8 32c-32.3 0-58.5 26.2-58.5 58.5s26.2 58.5 58.5 58.5 58.5-26.2 58.5-58.5-26.2-58.5-58.5-58.5zm0 86.5c-15.5 0-28-12.5-28-28s12.5-28 28-28 28 12.5 28 28-12.6 28-28 28z"/><path class="st26" d="M1014.6 67.9c0 2.6-2.2 4.7-4.9 4.7s-4.9-2.1-4.9-4.7v-42c0-2.6 2.2-4.7 4.9-4.7s4.9 2.1 4.9 4.7v42z"/></g></g><path opacity=".2" fill="#fff" d="M-9-10h1192v369H-9z" id="white"/><g id="Warstwa_7"><path class="st28" d="M228.8 307.9h4.4l-.1-25.4s-.3-6.2 3.4-8.9c6.6-4.8 12-12.1 11.2-19.4-.8-7.3-8-9.4-8-9.4s3.6 4.1 3.5 10.1c-.1 6-3.3 10.1-5.9 12.7-2.4 2.3-5.6 3.2-7.3 7-1.6 3.5-1.4 7.6-1.4 7.6l.2 25.7z"/><path class="st29" d="M235.4 269c-.9.6-1.7 1.2-2.6 1.8l1.1 1.1c.6.5 1.7 1.1 2.6 1.6 1-.7 2-1.5 2.9-2.4-1.1-.4-2.9-1.4-4-2.1z"/><path class="st30" d="M257.1 303.3l-4.2 1.3-7.9-24.2s-1.7-6-6.1-7.4c-7.8-2.5-15.2-7.7-16.8-14.9-1.5-7.2 4.6-11.5 4.6-11.5s-2.1 5-.1 10.7c2 5.6 6.4 8.6 9.6 10.2 3 1.5 6.3 1.2 9.1 4.3 2.6 2.9 3.7 6.7 3.7 6.7l8.1 24.8z"/><path class="st8" d="M238.4 270.3c0 .7-.5 1.2-1.2 1.2s-1.2-.5-1.2-1.2.5-1.2 1.2-1.2 1.2.5 1.2 1.2z"/><path class="st28" d="M196.7 231.5l-6.4 11.4 4.1 2.3-2.2 4.1 4.1 2.2-2.2 4.1 4.1 2.2-2.3 4.2 4.2 2.2-2.3 4.1 4.1 2.2-2.2 4.1 4.1 2.3-2.2 4.1 4.1 2.2-2.2 4.1 4.1 2.2-2.2 4.2 9-2.7z"/><path class="st8" d="M216.1 290l-12 3.6 5.1 17 12-3.6-5.1-17zm-5.1 17.5l-3.7-12.4 6.9-2.1 3.7 12.4-6.9 2.1z"/><path fill="#ccc" d="M194.8 219.9l-19 71-8.6-2.3 19-71.2z"/><path class="st28" d="M194.8 219.9l-8.6-2.5 7.1 8z"/><path transform="rotate(-75.019 170.058293 284.9115158)" class="st8" d="M169.3 283.1h1.6v3.6h-1.6z"/><path transform="matrix(.2587 -.966 .966 .2587 -143.5226 373.1354)" class="st8" d="M170.6 278.3h1.6v3.6h-1.6z"/><path transform="matrix(.2587 -.966 .966 .2587 -137.9016 370.7931)" class="st8" d="M171.9 273.4h1.6v3.6h-1.6z"/><path transform="matrix(.2587 -.966 .966 .2587 -132.2757 368.468)" class="st8" d="M173.1 268.6h1.6v3.6h-1.6z"/><path transform="matrix(.2584 -.966 .966 .2584 -126.6205 366.2309)" class="st8" d="M174.4 263.8h1.6v3.6h-1.6z"/><path transform="matrix(.2587 -.966 .966 .2587 -121.0277 363.806)" class="st8" d="M175.7 259h1.6v3.6h-1.6z"/><path transform="matrix(.2587 -.966 .966 .2587 -115.4053 361.4692)" class="st8" d="M177 254.1h1.6v3.6H177z"/><path transform="matrix(.2587 -.966 .966 .2587 -109.7772 359.1483)" class="st8" d="M178.3 249.3h1.6v3.6h-1.6z"/><path transform="rotate(-75.019 180.40450455 246.27167715)" class="st8" d="M179.6 244.5h1.6v3.6h-1.6z"/><path transform="matrix(.2587 -.966 .966 .2587 -98.5334 354.4764)" class="st8" d="M180.9 239.6h1.6v3.6h-1.6z"/><path transform="matrix(.2587 -.966 .966 .2587 -92.9061 352.1526)" class="st8" d="M182.2 234.8h1.6v3.6h-1.6z"/><path transform="matrix(.2587 -.9659 .9659 .2587 -87.2857 349.8121)" class="st8" d="M183.5 230h1.6v3.6h-1.6z"/><path transform="matrix(.2587 -.966 .966 .2587 -81.6566 347.4925)" class="st8" d="M184.8 225.1h1.6v3.6h-1.6z"/><path transform="matrix(.2587 -.9659 .9659 .2587 -76.0381 345.1505)" class="st8" d="M186.1 220.3h1.6v3.6h-1.6z"/><path class="st30" d="M218.1 246.6l-31.9-29.2 6-6.5 31.9 29.1z"/><path class="st28" d="M221.5 237.6l-2.4-2.2-5.4 7.1v.1z"/><path transform="rotate(-47.46 194.17003726 215.07013446)" class="st8" d="M192.4 214.3h3.6v1.6h-3.6z"/><path transform="matrix(.6757 -.7371 .7371 .6757 -96.8698 216.6806)" class="st8" d="M196.1 217.7h3.6v1.6h-3.6z"/><path transform="rotate(-47.453 201.5582398 221.8413982)" class="st8" d="M199.7 221h3.6v1.6h-3.6z"/><path transform="rotate(-47.468 205.24042343 225.21522214)" class="st8" d="M203.4 224.4h3.6v1.6h-3.6z"/><path transform="rotate(-47.468 208.92501354 228.59493064)" class="st8" d="M207.1 227.8h3.6v1.6h-3.6z"/><path transform="rotate(-47.468 212.5732271 231.95891652)" class="st8" d="M210.8 231.2h3.6v1.6h-3.6z"/><path transform="rotate(-47.484 216.26819267 235.33841821)" class="st8" d="M214.5 234.6h3.6v1.6h-3.6z"/><path transform="rotate(-47.453 219.97541902 238.73875482)" class="st8" d="M218.2 237.9h3.6v1.6h-3.6z"/><path fill="#dbdbdb" d="M249.4 216.6l-29.1 31.9-6.6-5.9 29.1-32z"/><path transform="rotate(-47.623 217.94616 240.6321215)" class="st8" d="M217.2 238.8h1.6v3.6h-1.6z"/><path transform="rotate(-47.67 221.32379474 236.92351057)" class="st8" d="M220.5 235.1h1.6v3.6h-1.6z"/><path transform="rotate(-47.639 224.6907727 233.23877393)" class="st8" d="M223.9 231.4h1.6v3.6h-1.6z"/><path transform="rotate(-47.654 228.0185746 229.5216652)" class="st8" d="M227.3 227.7h1.6v3.6h-1.6z"/><path transform="rotate(-47.647 231.40390417 225.83639233)" class="st8" d="M230.6 224h1.6v3.6h-1.6z"/><path transform="matrix(.6739 -.7389 .7389 .6739 -87.5608 245.9217)" class="st8" d="M234 220.3h1.6v3.6H234z"/><path transform="rotate(-47.67 238.12956232 218.43421487)" class="st8" d="M237.4 216.6h1.6v3.6h-1.6z"/><path transform="rotate(-47.631 241.50839256 214.75620846)" class="st8" d="M240.7 212.9h1.6v3.6h-1.6z"/><g><path transform="matrix(.9613 -.2757 .2757 .9613 -64.3323 43.2695)" class="st10" d="M117.2 219.3h9.1v62.3h-9.1z"/><path transform="matrix(.9612 -.2757 .2757 .9612 -61.4928 42.0055)" class="st11" d="M114.1 235h9.1v9.4h-9.1z"/><path class="st12" d="M142.2 234.2l-33.2 9.5-4.5-15.5 22.4-6.4z"/></g><path class="st8" d="M260.1 243.6l2.9-7.5-8.4-3.3 3.3 7.3-5.1 2.3-3.2-7.4-3.3 8.4 7.6 3 11.5 25.9-1.7 4.4 6.2 2.3-2.8-6.3 3.6-1.7 2.9 6.4 2.3-6.1-4.3-1.7zM162.4 236.1l10.5-4.5-5.1-11.6-4.1 10.5-7.2-2.8 4.1-10.5-11.6 5 4.6 10.5-14.5 37-6 2.6 3.7 8.5 3.6-9.1 5.2 2-3.6 9.1 8.5-3.7-2.6-5.9z"/><path class="st8" d="M114.5 262.1h49V310h-49z"/><path class="st33" d="M141.3 286.4c-5.3-.5-9.4-4.7-9.8-10h-5.1c.4 8.1 6.8 14.6 14.9 15.1v-5.1z"/><path class="st34" d="M114.5 273.6h49v6.6h-49z"/><path class="st35" d="M109 262.1h60v14.4h-60z"/><path class="st8" d="M144.5 282.1h49V330h-49z"/><path class="st33" d="M171.3 306.4c-5.3-.5-9.4-4.7-9.8-10h-5.1c.4 8.1 6.8 14.6 14.9 15.1v-5.1z"/><path class="st34" d="M144.5 293.6h49v6.6h-49z"/><path class="st35" d="M139 282.1h60v14.4h-60z"/><path class="st8" d="M254.5 262.1h49V310h-49z"/><path class="st33" d="M276.6 286.4c5.3-.5 9.4-4.7 9.8-10h5.1c-.4 8.1-6.8 14.6-14.9 15.1v-5.1z"/><path class="st34" d="M254.5 273.6h49v6.6h-49z"/><path class="st35" d="M249 262.1h60v14.4h-60z"/><path class="st8" d="M224.5 282.1h49V330h-49z"/><path class="st33" d="M246.6 306.4c5.3-.5 9.4-4.7 9.8-10h5.1c-.4 8.1-6.8 14.6-14.9 15.1v-5.1z"/><path class="st34" d="M224.5 293.6h49v6.6h-49z"/><path class="st35" d="M219 282.1h60v14.4h-60z"/><path class="st8" d="M176.4 302.1h64.9V350h-64.9z"/><path class="st34" d="M176.4 313.6h64.9v6.6h-64.9z"/><path class="st35" d="M171.1 302.1h76v14.4h-76z"/></g><g id="lamp"><path class="st1" d="M490.2 68.3h7.6V350h-7.6z"/><path class="st3" d="M502.2 75.6c-3.1 7.9-11.6 12.3-19.9 10.1-8.2-2.2-13.3-10.4-12.1-18.7l32 8.6z"/><path class="st36" d="M514.8 80.7c2.3-15.2-6.9-29.9-21.9-34-15-4.1-30.4 4-36.1 18.2l58 15.8z"/><path opacity=".4" fill="#fff" d="M456.9 65L213.4 357.9l487.2-.4L514.8 80.7 456.9 65"/></g><g id="engine"><path class="st38" d="M471.2 208.3s-1.3-23.2 5.1-23.3c5.5 0 4.9 11.8 4.9 11.8M491.2 208.3s-1.3-23.2 5.1-23.3c5.5 0 4.9 11.8 4.9 11.8M511.2 208.3s-1.3-23.2 5.1-23.3c5.5 0 4.9 11.8 4.9 11.8"/><path fill="#7c7c7c" d="M449.8 207.3h82.7v22.8h-82.7z"/><path class="st8" d="M454.8 196.1h12.5v29h-12.5zM474.8 196.1h12.5v29h-12.5zM494.8 196.1h12.5v29h-12.5zM514.8 196.1h12.5v29h-12.5z"/><path class="st40" d="M464 211.1c0 1.6-1.3 2.9-2.9 2.9-1.6 0-2.9-1.3-2.9-2.9 0-1.6 1.3-2.9 2.9-2.9 1.6 0 2.9 1.3 2.9 2.9zM484 211.1c0 1.6-1.3 2.9-2.9 2.9-1.6 0-2.9-1.3-2.9-2.9 0-1.6 1.3-2.9 2.9-2.9 1.6 0 2.9 1.3 2.9 2.9zM504 211.1c0 1.6-1.3 2.9-2.9 2.9-1.6 0-2.9-1.3-2.9-2.9 0-1.6 1.3-2.9 2.9-2.9 1.6 0 2.9 1.3 2.9 2.9zM524 211.1c0 1.6-1.3 2.9-2.9 2.9-1.6 0-2.9-1.3-2.9-2.9 0-1.6 1.3-2.9 2.9-2.9 1.6 0 2.9 1.3 2.9 2.9z"/></g><g id="car"><path fill="#aaa" d="M561.8 196.9l6.1-15-52.1-51.3-26.4-3.6z"/><path transform="rotate(-45.989 529.86026566 162.05569115)" class="st40" d="M526.4 125.5h7v73.1h-7z"/><path class="st8" d="M545.6 182.1l4 3.9 4.8-5-4-3.9zM541.5 178.2l4.8-5.1-4-3.9-4.8 5.1zM533.4 170.3l4.8-5.1-4.1-3.8-4.7 5zM525.2 162.4l4.8-5-4-3.9-4.8 5.1zM517.1 154.6l4.8-5.1-4-3.9-4.8 5.1zM509 146.7l4.7-5-4-3.9-4.7 5.1z"/><path fill="#7f7f7f" d="M564.2 210.3L481 129.5l2.5-11.1 87.5 84.7z"/><path class="st9" d="M481 129.5l-14.5 2.3-7.2-10.4 24.2-3z"/><path class="st8" d="M727.6 164.3l36.1-29.7L932.3 168l30.8 49.5-51.2 9.3z"/><path class="st40" d="M924.4 186.5l-63-13.9 43.1 46.8z"/><path class="st36" d="M912.3 183.8l-2-.4-6 29.7 2.1.4zM896.8 211l1.7 1.9 6.1-30.8-2-.4zM890.2 203.8l1.7 1.9 5.1-25.3-2.1-.4zM883.6 196.7l1.7 1.9 4-19.9-2-.4zM877 189.6l1.8 1.8 2.8-14.3-2-.5zM870.5 182.4l1.7 1.9 1.8-8.9-2-.5z"/><path fill="#898989" d="M932.3 168l-29.9 39.4 60.7 10.1"/><path class="st9" d="M763.7 134.6l10.2 33.8-44-5.5z"/><path fill-rule="evenodd" clip-rule="evenodd" fill="#999" d="M902.4 207.4l-43-39.7-215.5-8.8-79.7 51.4-128.5 12.2-11.9 19.4 41.8 35.9 22.1 15v-4.1h416.8l40.9-21.9 17.7-49.3z"/><path fill-rule="evenodd" clip-rule="evenodd" fill="#898989" d="M487.7 288.7h416.8l40.9-21.9-286.7-3.5-196 12 2.9 2.5 22.1 15z"/><path fill="#6d6d6d" d="M722.5 181.1l-92.6-13.2-65.7 42.4 75.4 4.3z"/><path class="st40" d="M722.5 181.1l11.6 51.3-74.9 11.9-19.6-29.7zM732.9 182l116.3 1.9 14.8 25.4-119.4 21.2zM660.2 252.6l75.5-11.3-4.9 47.2-75.2 1.9z"/><path class="st47" d="M638.2 288.7v-1.3c0-34.6-29-62.7-64.7-62.7s-64.7 28.1-64.7 62.7v1.3h129.4z"/><path class="st48" d="M632.1 291.5c0 32.3-26.2 58.5-58.5 58.5s-58.5-26.2-58.5-58.5 26.2-58.5 58.5-58.5 58.5 26.2 58.5 58.5z"/><path class="st49" d="M601.6 291.5c0 15.5-12.5 28-28 28s-28-12.5-28-28 12.5-28 28-28c15.4 0 28 12.5 28 28z"/><path class="st26" d="M593.1 291.5c0 10.8-8.7 19.5-19.5 19.5s-19.5-8.7-19.5-19.5 8.7-19.5 19.5-19.5c10.7 0 19.5 8.7 19.5 19.5z"/><path class="st47" d="M899.2 288.7v-1.3c0-34.6-29-62.7-64.7-62.7s-64.7 28.1-64.7 62.7v1.3h129.4z"/><path class="st48" d="M893.1 291.5c0 32.3-26.2 58.5-58.5 58.5s-58.5-26.2-58.5-58.5 26.2-58.5 58.5-58.5 58.5 26.2 58.5 58.5z"/><circle class="st49" cx="834.6" cy="291.5" r="28"/><path class="st26" d="M854.1 291.5c0 10.8-8.7 19.5-19.5 19.5s-19.5-8.7-19.5-19.5 8.7-19.5 19.5-19.5c10.7 0 19.5 8.7 19.5 19.5z"/><path class="st50" d="M638.2 286.6h131.6v17.7H638.2zM950.7 282.7l-51.5 21.7v-17.7l46.2-19.9zM478.6 286.6h30.3v17.7h-30.3z"/><path fill-rule="evenodd" clip-rule="evenodd" fill="#c6c6c6" d="M478.6 286.6l-15.9-11.3 3.8 19.5 12.1 9.5z"/><path fill="#adadad" d="M629.9 167.9l92.6 13.2 10.4.9 116.3 1.9 10.2-16.2-215.5-8.8z"/><path class="st9" d="M849.2 183.9l10.2-16.2 43 39.7-38.4 1.9zM722.5 181.1l10.4.9 11.7 48.5-10.5 1.9z"/><path class="st29" d="M864 209.3l99.1 8.2-60.7-10.1zM639.6 214.6l-203.9 7.9 128.5-12.2z"/><path class="st33" d="M423.8 241.9l7.5 6.4h38.6l10-15.6h-50.4z"/><path class="st29" d="M423.9 241.9h-.1l7.5 6.4h38.6l4.1-6.4z"/><path class="st33" d="M957.6 232.7h-17.8l-5 15.6H952z"/><path class="st29" d="M936.9 241.9l-2.1 6.4H952l2.3-6.4z"/></g><g id="text_kopia"><path class="st53" d="M1003.8 79.8c7.2-4.6 12.1-3.4 16.3 3.2s3.3 11.6-3.9 16.2l-1.9 1.2c-.8.5-1 1.2-.4 2l4.2 6.5c.5.8.4 1.5-.4 2l-4.5 2.9c-.8.5-1.5.3-2-.4l-16.6-25.8c-.5-.8-.4-1.5.4-2l8.8-5.8zm8.2 12.3c1.9-1.2 2.8-2.1 1.1-4.6s-2.7-2.1-4.7-.9l-2.2 1.4c-.8.5-1 1.2-.4 2l2 3.1c.5.8 1.2.9 2 .4l2.2-1.4zM881.9 86.4c.6-.7.6-1.4-.1-2l-5-4.5c-.7-.6-.7-1.4-.1-2l3.6-4c.6-.7 1.4-.7 2-.1l18.3 16.4c.7.6.8 1.3.1 2l-3.6 4c-.6.7-1.3.8-2 .1l-5-4.5c-.7-.6-1.4-.6-2 .1l-15 16.7c-.6.7-1.3.8-2 .1l-4-3.6c-.7-.6-.7-1.4-.1-2l14.9-16.7zM757.1 91.3c-1-.1-1.3-.7-1.1-1.6.3-2-.8-3.7-3-4.4-1.8-.6-3.2.1-3.4 1.2-.5 3.8 13.9 8.4 10.5 18.9-.4 1.4-4.6 8.9-15.4 5.4-9.6-3.1-9.6-10.1-8.7-13.7.2-.8.8-1.2 1.7-1.1l5.5.5c1 .1 1.3.7 1.1 1.7-.5 2.3.7 4.1 2.9 4.8 2.2.7 4.3-.1 4.4-1.4.4-4.2-13.6-7.8-10.2-18.3.4-1.4 3.9-9.2 14.1-5.9 9.4 3.1 9.6 9.9 8.8 13.3-.2.8-.8 1.2-1.7 1.1l-5.5-.5zM620 77.2c.9-.2 1.5.2 1.7 1.2l5.7 30.2c.2.9-.2 1.5-1.2 1.7l-5.2 1c-.9.2-1.5-.3-1.7-1.2l-5.7-30.2c-.2-.9.3-1.5 1.2-1.7l5.2-1z"/><path class="st53" d="M620 77.2c.9-.2 1.5.2 1.7 1.2l5.7 30.2c.2.9-.2 1.5-1.2 1.7l-5.2 1c-.9.2-1.5-.3-1.7-1.2l-5.7-30.2c-.2-.9.3-1.5 1.2-1.7l5.2-1z"/></g><g id="character"><path class="st54" d="M404.8 267.5l-1.7 19.2-1.7 13.3-.6 13.6-.7 14.6-27 9 3.2-43.9z"/><path class="st55" d="M374.4 336.7l25.7-8.5.5 9.8-23.5 8.5z"/><path fill-rule="evenodd" clip-rule="evenodd" fill="#9e7900" d="M403.1 286.7l-5.2.5-6.6-1.4-2.6 26.8 12.1 1z"/><path class="st57" d="M400.6 337.7l7.8 12.3H379l-1.9-3.8z"/><path transform="rotate(-25.868 320.60740374 178.35219311)" class="st54" d="M316.4 149.9h8.4v56.9h-8.4z"/><path class="st58" d="M325.9 148l-32.4 15.8 1.4 17.8 38.2-18.6z"/><path class="st59" d="M404.8 267.5l-28.2 27-40.4-13.9 22.4-5.8z"/><path class="st60" d="M376.6 294.5l-2.2 35.2-12.2 5.2-22.4 7-3.6-61.3z"/><path class="st58" d="M374.4 329.7l2.7 9.8-11.6 5-17.9 5.5h-7.3l-.5-8.1z"/><path class="st54" d="M377.1 339.5l7.1 10.5h-36.6z"/><path class="st61" d="M391.3 285.8l11.2 8.6.6-7.7z"/><path class="st62" d="M404.5 112.2l4.6 56.5-25.3 2.4-4.8 16.8-21-5.6-13-2.3-8.4-19.8-6.9-12.3-17.3-36.4 29.3 6.9 30.6-2.8 7.1-10.3 8.5 7.7z"/><path class="st63" d="M376.1 142.6l-9.7-14.6-17.8-9.4 24.6-2.5zM389.7 137.2l4.3-14.1 8.5-10.6-15.1 1.5z"/><path fill-rule="evenodd" clip-rule="evenodd" fill="#cca997" d="M406.7 139.1l-77 8.8L345 180l10.6 2.4 9.2 1.6 14.2 3.9 2.9-10.3 3.1-5.8 24.1-3.1z"/><path fill-rule="evenodd" clip-rule="evenodd" fill="#ba9888" d="M352 145.4l3.8 29.8 29.2-3.4-6 16.1-22.3-4.1L345 180l-10.8-22.8-.6-4.4-3.9-4.9 10.3-1.2z"/><path class="st63" d="M348.6 118.6l3.4 26.8-12 1.3-2.6-10.7 5.5-.5-1.2-16.2z"/><path class="st66" d="M385 171.8l-33 3.9 3.5 6.7 23.5 5.5zM340 146.7l-5.8 10.5-4.5-9.3z"/><path transform="matrix(.1297 -.9915 .9915 .1297 170.8204 507.5148)" class="st66" d="M373.3 141h2.4v30.9h-2.4z"/><path class="st66" d="M376.1 142.6l7.7 4.2 6.2-5.8-7 .1z"/><path class="st67" d="M348.6 118.6l25.2 4.3-.7-6.8-9.8.1zM388.2 121.8l-.8-7.8 6.6-1.7 8.5.2z"/><path class="st68" d="M394 130.8c1.4 0 2.5-1.7 2.5-3.8 0-2.1-1.1-3.8-2.5-3.8s-2.5 1.7-2.5 3.8c-.1 2.1 1.1 3.8 2.5 3.8z"/><path transform="rotate(-83.725 363.11815234 128.94561196)" class="st68" d="M361.9 123.1h2.5v11.6h-2.5z"/><path class="st67" d="M341.7 119.3l1.2 16.2-5.5.5-2.1-7.8-12.4 5.3-10.5-22L329 115z"/><path class="st69" d="M327.3 135.7l4.8-1.9 3.1 9.2z"/><path fill-rule="evenodd" clip-rule="evenodd" fill="#fff1e8" d="M379.4 105.3l8 8.7 2.6 27-13.9 1.6-2.9-26.5z"/><path class="st60" d="M339.3 90.2l-10.6.4-9.3 2.2-4.1 8.3-2.9 10.4 17.3-12.3z"/><path class="st54" d="M319.4 92.8l26.9-14.7 24-9.9 30 16.1-33.3 4.8-27.7 1.1-8.9 1.2z"/><path class="st59" d="M370.3 68.2l-42.7 3.4-8.2 21.2z"/><path class="st60" d="M319.4 92.8l-13.1-12.2L290 95.4l13.8-.1z"/><path class="st59" d="M290 95.4l-24 22.3 35.4-15.8 18-9.1z"/><path class="st57" d="M266 117.7l46.4-6.2 7-18.7z"/><path class="st58" d="M345 180l34 7.9 20.6 56.7 2.8 11.7-53.8 1.6-13.1 3.6-.8-10.5z"/><path class="st59" d="M330.7 189.1L345 180l8.7 40.5-7.5 1.3-10.3-19zM334.7 251l40.2-27.5 24.7 21.1 2.8 11.7-53.5 3-13.4 2.2z"/><path class="st54" d="M335.3 259.5l36.8-23 13.1 13.8 15.8.1-1.4-5.8-22.3-15-21.6 9.5-21 11.9z"/><path class="st55" d="M401.6 205.8l6.1 3-3.5 8.5-7.8 14.8-.2-17.7.9-6.8z"/><path class="st60" d="M363.7 194.1l61.7-24.4 5 11.1 4.1 12.1-37.4 14.7-8.9 3.9-15.7 5.8z"/><path class="st61" d="M372.5 217.3l12.7 33 15.8-6.2-12.6-33.1z"/><path class="st58" d="M425.4 169.7l10 5.2 2.4 4.3 1 4.1-4.3 9.6z"/><path class="st54" d="M435.4 174.9l8.8-3.5.2 5-1.7 5.3-3.9 1.6z"/><path class="st58" d="M444.2 171.4l7.3-2.9.4 4.5-2 5.8-7.2 2.9z"/><path class="st54" d="M451.5 168.5l7.2-2.9-.4 4.9-1.2 5.4-7.2 2.9z"/><path class="st58" d="M458.7 165.6l6.9-2.7-.1 4.6-1.5 5.6-6.9 2.8z"/><path class="st54" d="M465.6 162.9l6.9-2.8-.2 4.6-1.4 5.7-6.8 2.7z"/><path class="st58" d="M472.5 160.1l6.4-2.6-1.6 10.3-6.4 2.6z"/><path class="st63" d="M377.3 229.6l19.1 2.5-4.3-14.4-3.7-6.7-15.9 6.3z"/><path class="st69" d="M396.4 232.1l.7-24.5-8.7 3.4z"/><path class="st63" d="M396.4 232.1l14.5-29.9 9.2 3.3 6.2 3.6-12.2 26.1z"/><path class="st69" d="M410.9 202.2l11.3-5.3 12.3-4-8.2 16.2z"/><path class="st62" d="M410.9 202.2l9-17.4 14.6 8.1zM372.5 217.3l-26.3 4.5 8.9 19.2 22.2-11.4z"/><path class="st58" d="M355.1 241l-20.4 10-12.2-25.8 11.1-2.8 12.6-.6z"/><path class="st55" d="M322.5 225.2l-12.4-25.6 20.6-10.5 15.5 32.7z"/><path class="st54" d="M402.4 256.3l-45.9 1.4v8.9l1.4 9.5 46.9-8.6z"/><path class="st55" d="M378.3 257l2 15 9.1-1.7-2.3-13.6zM356.5 257.7l-7.9.2 2 31.7 3.7 34.6 8.4-1.7-4.8-46.4zM326.5 277.5l7.3 8.9 14.8-28.5-20.9 5.9z"/><path class="st61" d="M308.1 254.6l4.7-3.1 4.7-3.1-7.1-10.9 13 2.7-2.7 13 20.8 31.4-4.7 3-4.7 3.1-20.8-31.4-13-2.6 2.7-13z"/><path class="st58" d="M354.3 324.2l-33.7-1.7-4.3-55.5 17.5 18 14.8-27.1zM339.3 90.2l75.5-7.3 2.7 28-30.1 3.1-8-8.7-6.3 10.8-31.4 3.2-2.6-16.7z"/><path class="st71" d="M347.9 96.2l27.7-2.8-8.2 15.4-18.2 1.8zM408.8 90.2l-27.7 2.6 11 13.6 18.2-1.9z"/><path class="st55" d="M341.7 119.3l-29.3-7.8 26.9-21.3z"/></g></svg>